<svg width="30" height="29" viewBox="0 0 30 29" fill="none" xmlns="http://www.w3.org/2000/svg">
<path d="M1.92896 6.89648L4.20572 7.29054L5.25982 19.8489C5.3441 20.8745 6.20117 21.6615 7.2301 21.6582H19.1711C20.1529 21.6604 20.9859 20.938 21.1249 19.966L22.1637 12.7876C22.2797 11.9853 21.7226 11.2409 20.9213 11.1249C20.8513 11.1151 4.57132 11.1096 4.57132 11.1096" stroke="#4E49D6" strokeWidth="1.5" strokelinecap="round" strokeLinejoin="round"/>
<path fillRule="evenodd" clipRule="evenodd" d="M6.74988 25.4528C7.07935 25.4528 7.34534 25.7198 7.34534 26.0482C7.34534 26.3777 7.07935 26.6448 6.74988 26.6448C6.42041 26.6448 6.15442 26.3777 6.15442 26.0482C6.15442 25.7198 6.42041 25.4528 6.74988 25.4528Z" fill="#4E49D6" stroke="#4E49D6" strokeWidth="1.5" strokelinecap="round" strokeLinejoin="round"/>
<path fillRule="evenodd" clipRule="evenodd" d="M19.0973 25.4528C19.4268 25.4528 19.6938 25.7198 19.6938 26.0482C19.6938 26.3777 19.4268 26.6448 19.0973 26.6448C18.7678 26.6448 18.5018 26.3777 18.5018 26.0482C18.5018 25.7198 18.7678 25.4528 19.0973 25.4528Z" fill="#4E49D6" stroke="#4E49D6" strokeWidth="1.5" strokelinecap="round" strokeLinejoin="round"/>
<path d="M8.23047 17.7834H11.2658" stroke="#4E49D6" strokeWidth="1.5" strokelinecap="round" strokeLinejoin="round"/>
<rect x="13.6992" y="0.5" width="16" height="16" rx="8" fill="#FE0000"/>
<path d="M18.6912 11.8042C18.9152 11.5802 19.0992 11.4042 19.2432 11.2762C19.8272 10.7322 20.3352 10.2282 20.7672 9.76423C21.1992 9.30023 21.5792 8.80023 21.9072 8.26423C22.2352 7.72023 22.3992 7.21223 22.3992 6.74023C22.3992 6.15623 22.2712 5.71623 22.0152 5.42023C21.7592 5.11623 21.4472 4.96423 21.0792 4.96423C20.5592 4.96423 20.1312 5.13623 19.7952 5.48023C19.4592 5.82423 19.2312 6.35223 19.1112 7.06423H18.6912C18.6912 6.64023 18.7072 6.29623 18.7392 6.03223C18.7712 5.76823 18.8512 5.55223 18.9792 5.38423C19.2032 5.11223 19.5272 4.88423 19.9512 4.70023C20.3752 4.51623 20.8312 4.42423 21.3192 4.42423C22.0472 4.42423 22.6872 4.59223 23.2392 4.92823C23.7992 5.26423 24.0792 5.86823 24.0792 6.74023C24.0792 7.28423 23.8872 7.84023 23.5032 8.40823C23.1272 8.97623 22.6952 9.48823 22.2072 9.94423C21.7272 10.3922 21.1632 10.8722 20.5152 11.3842C20.1312 11.6882 19.8712 11.9082 19.7352 12.0442H22.2192C22.6992 12.0442 23.0672 11.9322 23.3232 11.7082C23.5872 11.4762 23.7192 11.1482 23.7192 10.7242H24.0792V11.6242C24.0792 12.2642 23.7392 12.5842 23.0592 12.5842H18.6912V11.8042Z" fill="white"/>
</svg>
