<svg width="126" height="59" viewBox="0 0 126 59" fill="none" xmlns="http://www.w3.org/2000/svg">
<path fillRule="evenodd" clipRule="evenodd" d="M28.8621 2.55942C23.5876 9.81274 21.7726 16.223 23.7844 20.4941C24.4092 21.8205 26.6633 23.9365 26.8723 24.1106C27.208 24.3904 26.7597 23.7785 26.6169 23.0139C26.4131 21.9216 26.048 20.999 26.4796 19.8953C27.5436 17.1745 31.0606 16.4823 32.7925 19.1521C33.6398 20.8925 33.4501 21.666 32.9657 23.6195C32.8097 24.2483 32.6699 24.2548 33.193 23.9878C33.4617 23.8507 35.6779 22.6044 37.0281 20.4988C38.4807 17.5161 37.9287 13.1422 35.4892 8.30681C34.4636 6.27412 32.2973 2.89955 30.9337 1.21067L30.3597 0.5L28.8621 2.55942ZM11.2265 13.9671C10.8064 16.9395 11.0412 22.72 11.6763 25.047C12.2996 27.3305 13.6341 30.1534 14.9964 32.071C16.1715 33.7251 19.1624 35.7163 20.7713 36.8964L21.8973 37.5027L21.5419 31.7961L21.6069 25.2182L23.6211 25.147C24.7288 25.1078 25.6353 24.9867 25.6353 24.878C25.6353 24.2228 22.2238 20.8119 18.5467 17.7907C16.2015 15.8635 13.7298 13.7393 13.0542 13.0701C12.3784 12.4009 11.758 11.8533 11.6755 11.8533C11.5928 11.8533 11.3908 12.8045 11.2265 13.9671ZM1.15969 29.4115C0.521983 29.6085 0 29.8235 0 29.8892C0 29.955 0.771011 30.7392 1.71341 31.6323C2.65581 32.5252 4.87265 35.1991 6.64002 37.5747C12.4172 45.3393 15.5479 47.7138 20.9096 48.3965C23.1408 48.6808 26.6641 48.3575 28.565 47.6947C29.3036 47.437 31.0997 46.5904 32.5563 45.8133C34.0129 45.0364 33.9015 43.7634 34.8446 43.463C35.7878 43.1626 36.7958 41.7881 36.6564 41.7015C36.0085 41.2994 35.1584 42.7198 33.1847 43.0923C28.9237 43.8966 25.0017 43.4579 22.5881 41.9073C21.8649 41.4424 19.151 38.932 16.557 36.3282C11.7431 31.4957 10.2753 30.3562 7.72281 29.4701C6.17395 28.9324 2.80816 28.9024 1.15969 29.4115Z" fill="#FF1919"/>
<path d="M33.0574 26.5089L31.4014 27.0129L31.6534 26.6529V36.8049L31.4014 36.4809L33.0574 36.9129V38.0289H28.0354V36.9129L29.6734 36.4809L29.4394 36.8049V26.6529L29.7454 27.0129L28.0354 26.5989V25.4829L33.0574 25.3929V26.5089ZM41.7239 25.4829L46.7279 25.3929V26.5089L45.0719 27.0129L45.3239 26.4549V33.1509C45.3239 33.7029 45.2759 34.2309 45.1799 34.7349C45.0839 35.2389 44.9159 35.7069 44.6759 36.1389C44.4479 36.5589 44.1419 36.9249 43.7579 37.2369C43.3859 37.5489 42.9119 37.7949 42.3359 37.9749C41.7719 38.1429 41.1059 38.2269 40.3379 38.2269C39.3779 38.2269 38.5919 38.1069 37.9799 37.8669C37.3679 37.6269 36.8879 37.3149 36.5399 36.9309C36.2039 36.5469 35.9639 36.1329 35.8199 35.6889C35.6759 35.2449 35.5859 34.8189 35.5499 34.4109C35.5259 34.0029 35.5139 33.6549 35.5139 33.3669V26.4549L35.7659 26.9949L34.1099 26.5989V25.4829L39.1139 25.3929V26.5089L37.4759 27.0129L37.7099 26.4549V33.3669C37.7099 33.6789 37.7219 33.9909 37.7459 34.3029C37.7819 34.6029 37.8419 34.8849 37.9259 35.1489C38.0219 35.4129 38.1659 35.6529 38.3579 35.8689C38.5499 36.0729 38.8079 36.2349 39.1319 36.3549C39.4559 36.4629 39.8699 36.5169 40.3739 36.5169C40.8899 36.5169 41.3099 36.4569 41.6339 36.3369C41.9699 36.2169 42.2399 36.0489 42.4439 35.8329C42.6479 35.6049 42.7979 35.3469 42.8939 35.0589C42.9899 34.7709 43.0499 34.4649 43.0739 34.1409C43.1099 33.8169 43.1279 33.4869 43.1279 33.1509V26.4549L43.3439 26.9589L41.7239 26.5989V25.4829ZM47.7581 38.0289V36.9129L49.4681 36.4629L49.1621 36.9129V26.5629L49.5401 27.0309L47.7581 26.5989V25.4829L52.7801 25.3929V26.5089L51.0341 27.0309L51.3761 26.5449V31.1529L51.0161 30.7929H57.2801L56.9381 31.1529V26.5629L57.2801 27.0309L55.5341 26.5989V25.4829L60.5381 25.3929V26.5089L58.8281 27.0309L59.1341 26.5449V36.9129L58.8281 36.4629L60.5381 36.9129V38.0289H55.5341V36.9129L57.2261 36.4629L56.9381 36.9129V32.0349L57.2801 32.3949H51.0161L51.3761 32.0349V36.9129L51.0881 36.4629L52.7801 36.9129V38.0289H47.7581ZM69.5662 38.2269C68.7262 38.2269 67.9822 38.0469 67.3342 37.6869C66.6862 37.3149 66.1822 36.7689 65.8222 36.0489C65.4622 35.3289 65.2822 34.4469 65.2822 33.4029C65.2822 32.3349 65.4682 31.4169 65.8402 30.6489C66.2242 29.8809 66.7582 29.2929 67.4422 28.8849C68.1382 28.4649 68.9602 28.2549 69.9082 28.2549C70.8082 28.2549 71.5402 28.4409 72.1042 28.8129C72.6802 29.1729 73.1062 29.6709 73.3822 30.3069C73.6582 30.9429 73.7962 31.6629 73.7962 32.4669C73.7962 32.6469 73.7902 32.8269 73.7782 33.0069C73.7662 33.1869 73.7422 33.3849 73.7062 33.6009H67.0102V32.2329H71.8162L71.5642 32.3949C71.5762 31.9149 71.5222 31.4829 71.4022 31.0989C71.2942 30.7149 71.1022 30.4089 70.8262 30.1809C70.5502 29.9529 70.1842 29.8389 69.7282 29.8389C69.2122 29.8389 68.7862 29.9829 68.4502 30.2709C68.1262 30.5589 67.8862 30.9489 67.7302 31.4409C67.5862 31.9329 67.5142 32.4909 67.5142 33.1149C67.5142 33.7989 67.6042 34.4049 67.7842 34.9329C67.9642 35.4489 68.2462 35.8569 68.6302 36.1569C69.0142 36.4569 69.5002 36.6069 70.0882 36.6069C70.5082 36.6069 70.9642 36.5289 71.4562 36.3729C71.9482 36.2169 72.4582 35.9769 72.9862 35.6529L73.7242 36.8229C73.0402 37.2909 72.3442 37.6449 71.6362 37.8849C70.9282 38.1129 70.2382 38.2269 69.5662 38.2269ZM81.0835 31.7109L81.2275 31.4949C82.0675 31.5069 82.7815 31.6209 83.3695 31.8369C83.9695 32.0529 84.4255 32.3829 84.7375 32.8269C85.0615 33.2709 85.2235 33.8409 85.2235 34.5369C85.2235 35.2569 85.0495 35.8809 84.7015 36.4089C84.3535 36.9249 83.8255 37.3269 83.1175 37.6149C82.4095 37.8909 81.5215 38.0289 80.4535 38.0289H75.1975V36.9129L76.9075 36.4629L76.6015 36.9129V26.5629L76.9795 27.0489L75.1975 26.5989V25.4829L78.7255 25.3929H80.7055C81.5815 25.3929 82.3195 25.5069 82.9195 25.7349C83.5195 25.9629 83.9755 26.3109 84.2875 26.7789C84.5995 27.2349 84.7555 27.8109 84.7555 28.5069C84.7555 29.4549 84.4555 30.1989 83.8555 30.7389C83.2555 31.2669 82.3315 31.5909 81.0835 31.7109ZM80.2735 26.9589H78.4555L78.8155 26.6169V31.1349L78.4555 30.8109H79.8595C80.3995 30.8109 80.8675 30.7449 81.2635 30.6129C81.6595 30.4809 81.9655 30.2709 82.1815 29.9829C82.4095 29.6829 82.5235 29.2929 82.5235 28.8129C82.5235 28.3569 82.4275 27.9969 82.2355 27.7329C82.0555 27.4569 81.7975 27.2589 81.4615 27.1389C81.1255 27.0189 80.7295 26.9589 80.2735 26.9589ZM80.2735 36.4449C80.8135 36.4449 81.2875 36.3789 81.6955 36.2469C82.1035 36.1029 82.4155 35.8809 82.6315 35.5809C82.8595 35.2809 82.9735 34.8849 82.9735 34.3929C82.9735 33.9129 82.8715 33.5229 82.6675 33.2229C82.4755 32.9229 82.2115 32.7069 81.8755 32.5749C81.5395 32.4429 81.1555 32.3769 80.7235 32.3769H78.4555L78.8155 31.9809V36.8049L78.4555 36.4449H80.2735ZM91.2836 28.2549C92.6756 28.2549 93.7556 28.6749 94.5236 29.5149C95.3036 30.3429 95.6936 31.5249 95.6936 33.0609C95.6936 34.1289 95.5016 35.0469 95.1176 35.8149C94.7456 36.5829 94.2056 37.1769 93.4976 37.5969C92.8016 38.0169 91.9616 38.2269 90.9776 38.2269C89.5976 38.2269 88.5236 37.8129 87.7556 36.9849C86.9996 36.1569 86.6216 34.9689 86.6216 33.4209C86.6216 32.3529 86.8076 31.4349 87.1796 30.6669C87.5516 29.8989 88.0856 29.3049 88.7816 28.8849C89.4776 28.4649 90.3116 28.2549 91.2836 28.2549ZM91.1756 29.8029C90.4196 29.8029 89.8436 30.0969 89.4476 30.6849C89.0636 31.2729 88.8716 32.1489 88.8716 33.3129C88.8716 34.4769 89.0576 35.3289 89.4296 35.8689C89.8016 36.4089 90.3536 36.6789 91.0856 36.6789C91.6136 36.6789 92.0516 36.5469 92.3996 36.2829C92.7476 36.0069 93.0116 35.6109 93.1916 35.0949C93.3716 34.5669 93.4616 33.9249 93.4616 33.1689C93.4616 32.0409 93.2636 31.2009 92.8676 30.6489C92.4836 30.0849 91.9196 29.8029 91.1756 29.8029ZM101.655 28.2549C103.047 28.2549 104.127 28.6749 104.895 29.5149C105.675 30.3429 106.065 31.5249 106.065 33.0609C106.065 34.1289 105.873 35.0469 105.489 35.8149C105.117 36.5829 104.577 37.1769 103.869 37.5969C103.173 38.0169 102.333 38.2269 101.349 38.2269C99.9687 38.2269 98.8947 37.8129 98.1267 36.9849C97.3707 36.1569 96.9927 34.9689 96.9927 33.4209C96.9927 32.3529 97.1787 31.4349 97.5507 30.6669C97.9227 29.8989 98.4567 29.3049 99.1527 28.8849C99.8487 28.4649 100.683 28.2549 101.655 28.2549ZM101.547 29.8029C100.791 29.8029 100.215 30.0969 99.8187 30.6849C99.4347 31.2729 99.2427 32.1489 99.2427 33.3129C99.2427 34.4769 99.4287 35.3289 99.8007 35.8689C100.173 36.4089 100.725 36.6789 101.457 36.6789C101.985 36.6789 102.423 36.5469 102.771 36.2829C103.119 36.0069 103.383 35.6109 103.563 35.0949C103.743 34.5669 103.833 33.9249 103.833 33.1689C103.833 32.0409 103.635 31.2009 103.239 30.6489C102.855 30.0849 102.291 29.8029 101.547 29.8029ZM107.058 38.0289V36.9129L108.588 36.4989L108.318 36.9129V25.4289L108.498 25.6989L107.058 25.3209V24.2049L110.478 24.0609V32.3769L110.118 32.0349H112.476L111.936 32.3049L113.664 29.6229L113.826 29.8749L112.494 29.6229V28.5249L116.724 28.3809V29.4969L115.194 29.8209L115.788 29.4789L113.574 32.8449L113.592 32.2689L116.076 36.8409L115.734 36.5529L117.138 36.9129V38.0289H114.438L112.026 33.3309L112.35 33.4929H110.118L110.478 33.3309V36.9129L110.244 36.4809L111.702 36.9129V38.0289H107.058ZM119.847 30.8289C119.847 31.1409 119.967 31.3929 120.207 31.5849C120.447 31.7649 120.753 31.9209 121.125 32.0529C121.509 32.1729 121.917 32.2989 122.349 32.4309C122.781 32.5629 123.183 32.7309 123.555 32.9349C123.939 33.1389 124.251 33.4149 124.491 33.7629C124.731 34.1109 124.851 34.5609 124.851 35.1129C124.851 35.7849 124.665 36.3549 124.293 36.8229C123.933 37.2789 123.435 37.6269 122.799 37.8669C122.175 38.1069 121.467 38.2269 120.675 38.2269C120.219 38.2269 119.733 38.1849 119.217 38.1009C118.713 38.0289 118.191 37.9209 117.651 37.7769L117.759 35.1489H119.127L119.325 36.7869L119.109 36.5349C119.373 36.6069 119.649 36.6669 119.937 36.7149C120.237 36.7509 120.501 36.7689 120.729 36.7689C121.065 36.7689 121.377 36.7209 121.665 36.6249C121.965 36.5289 122.211 36.3849 122.403 36.1929C122.595 36.0009 122.691 35.7609 122.691 35.4729C122.691 35.1489 122.571 34.8969 122.331 34.7169C122.091 34.5249 121.779 34.3629 121.395 34.2309C121.023 34.0989 120.627 33.9669 120.207 33.8349C119.787 33.7029 119.385 33.5349 119.001 33.3309C118.629 33.1149 118.323 32.8329 118.083 32.4849C117.843 32.1369 117.723 31.6809 117.723 31.1169C117.723 30.4449 117.891 29.8989 118.227 29.4789C118.563 29.0589 119.007 28.7529 119.559 28.5609C120.123 28.3569 120.729 28.2549 121.377 28.2549C121.833 28.2549 122.325 28.3029 122.853 28.3989C123.381 28.4829 123.927 28.6089 124.491 28.7769L124.401 31.0629H123.015L122.727 29.6409L123.033 29.9649C122.445 29.7969 121.923 29.7129 121.467 29.7129C120.987 29.7129 120.597 29.8149 120.297 30.0189C119.997 30.2229 119.847 30.4929 119.847 30.8289Z" fill="white"/>
</svg>
