<svg width="127" height="59" viewBox="0 0 127 59" fill="none" xmlns="http://www.w3.org/2000/svg">
<path fillRule="evenodd" clipRule="evenodd" d="M29.5614 2.55942C24.2868 9.81274 22.4719 16.223 24.4836 20.4941C25.1084 21.8205 27.3626 23.9365 27.5715 24.1106C27.9072 24.3904 27.459 23.7785 27.3161 23.0139C27.1123 21.9216 26.7473 20.999 27.1789 19.8953C28.2428 17.1745 31.7599 16.4823 33.4918 19.1521C34.339 20.8925 34.1493 21.666 33.6649 23.6195C33.5089 24.2483 33.3691 24.2548 33.8922 23.9878C34.161 23.8507 36.3771 22.6044 37.7273 20.4988C39.1799 17.5161 38.6279 13.1422 36.1884 8.30681C35.1628 6.27412 32.9965 2.89955 31.6329 1.21067L31.0589 0.5L29.5614 2.55942ZM11.9258 13.9671C11.5056 16.9395 11.7404 22.72 12.3755 25.047C12.9988 27.3305 14.3333 30.1534 15.6956 32.071C16.8707 33.7251 19.8616 35.7163 21.4705 36.8964L22.5966 37.5027L22.2411 31.7961L22.3061 25.2182L24.3203 25.147C25.428 25.1078 26.3345 24.9867 26.3345 24.878C26.3345 24.2228 22.923 20.8119 19.246 17.7907C16.9007 15.8635 14.429 13.7393 13.7534 13.0701C13.0776 12.4009 12.4573 11.8533 12.3747 11.8533C12.292 11.8533 12.0901 12.8045 11.9258 13.9671ZM1.85891 29.4115C1.2212 29.6085 0.699219 29.8235 0.699219 29.8892C0.699219 29.955 1.47023 30.7392 2.41263 31.6323C3.35503 32.5252 5.57187 35.1991 7.33924 37.5747C13.1165 45.3393 16.2471 47.7138 21.6088 48.3965C23.84 48.6808 27.3633 48.3575 29.2642 47.6947C30.0028 47.437 31.7989 46.5904 33.2555 45.8133C34.7121 45.0364 34.6007 43.7634 35.5439 43.463C36.487 43.1626 37.4951 41.7881 37.3557 41.7015C36.7077 41.2994 35.8576 42.7198 33.8839 43.0923C29.6229 43.8966 25.7009 43.4579 23.2873 41.9073C22.5641 41.4424 19.8502 38.932 17.2562 36.3282C12.4424 31.4957 10.9746 30.3562 8.42203 29.4701C6.87317 28.9324 3.50738 28.9024 1.85891 29.4115Z" fill="#FE0000"/>
<path fillRule="evenodd" clipRule="evenodd" d="M11.9258 13.9671C11.5056 16.9395 11.7404 22.72 12.3755 25.047C12.9988 27.3305 14.3333 30.1533 15.6956 32.071C16.8707 33.7251 19.3017 35.8104 20.9106 36.9904L23.6154 38.3032L23.6806 31.725L23.7455 25.147H24.3203C25.428 25.1078 26.3345 24.9867 26.3345 24.878C26.3345 24.2228 22.923 20.8119 19.246 17.7907C16.9007 15.8635 14.429 13.7393 13.7534 13.0701C13.0776 12.4009 12.4573 11.8533 12.3747 11.8533C12.292 11.8533 12.0901 12.8045 11.9258 13.9671ZM1.85891 29.4115C1.2212 29.6084 0.699219 29.8235 0.699219 29.8892C0.699219 29.955 1.47023 30.7392 2.41263 31.6323C3.35503 32.5252 5.57187 35.1991 7.33924 37.5747C13.1165 45.3393 16.2471 47.7138 21.6088 48.3965C23.84 48.6807 27.3633 48.3575 29.2642 47.6947C30.0028 47.437 31.7989 46.5904 33.2555 45.8133C34.7121 45.0364 36.1226 43.614 37.2298 42.7332C38.3622 41.9073 40.5024 41.4192 40.363 41.3326C39.7151 40.9304 37.1401 40.9012 35.1664 41.2737C30.9053 42.0781 27.1118 44.3663 23.2873 41.9073C22.5641 41.4424 19.8502 38.932 17.2562 36.3282C12.4424 31.4957 10.9746 30.3561 8.42203 29.4701C6.87317 28.9324 3.50738 28.9024 1.85891 29.4115Z" fill="#FE0000"/>
<path d="M33.7566 26.5089L32.1006 27.0129L32.3526 26.6529V36.8049L32.1006 36.4809L33.7566 36.9129V38.0289H28.7346V36.9129L30.3726 36.4809L30.1386 36.8049V26.6529L30.4446 27.0129L28.7346 26.5989V25.4829L33.7566 25.3929V26.5089ZM42.4231 25.4829L47.4271 25.3929V26.5089L45.7711 27.0129L46.0231 26.4549V33.1509C46.0231 33.7029 45.9751 34.2309 45.8791 34.7349C45.7831 35.2389 45.6151 35.7069 45.3751 36.1389C45.1471 36.5589 44.8411 36.9249 44.4571 37.2369C44.0851 37.5489 43.6111 37.7949 43.0351 37.9749C42.4711 38.1429 41.8051 38.2269 41.0371 38.2269C40.0771 38.2269 39.2911 38.1069 38.6791 37.8669C38.0671 37.6269 37.5871 37.3149 37.2391 36.9309C36.9031 36.5469 36.6631 36.1329 36.5191 35.6889C36.3751 35.2449 36.2851 34.8189 36.2491 34.4109C36.2251 34.0029 36.2131 33.6549 36.2131 33.3669V26.4549L36.4651 26.9949L34.8091 26.5989V25.4829L39.8131 25.3929V26.5089L38.1751 27.0129L38.4091 26.4549V33.3669C38.4091 33.6789 38.4211 33.9909 38.4451 34.3029C38.4811 34.6029 38.5411 34.8849 38.6251 35.1489C38.7211 35.4129 38.8651 35.6529 39.0571 35.8689C39.2491 36.0729 39.5071 36.2349 39.8311 36.3549C40.1551 36.4629 40.5691 36.5169 41.0731 36.5169C41.5891 36.5169 42.0091 36.4569 42.3331 36.3369C42.6691 36.2169 42.9391 36.0489 43.1431 35.8329C43.3471 35.6049 43.4971 35.3469 43.5931 35.0589C43.6891 34.7709 43.7491 34.4649 43.7731 34.1409C43.8091 33.8169 43.8271 33.4869 43.8271 33.1509V26.4549L44.0431 26.9589L42.4231 26.5989V25.4829ZM48.4573 38.0289V36.9129L50.1673 36.4629L49.8613 36.9129V26.5629L50.2393 27.0309L48.4573 26.5989V25.4829L53.4793 25.3929V26.5089L51.7333 27.0309L52.0753 26.5449V31.1529L51.7153 30.7929H57.9793L57.6373 31.1529V26.5629L57.9793 27.0309L56.2333 26.5989V25.4829L61.2373 25.3929V26.5089L59.5273 27.0309L59.8333 26.5449V36.9129L59.5273 36.4629L61.2373 36.9129V38.0289H56.2333V36.9129L57.9253 36.4629L57.6373 36.9129V32.0349L57.9793 32.3949H51.7153L52.0753 32.0349V36.9129L51.7873 36.4629L53.4793 36.9129V38.0289H48.4573ZM70.2654 38.2269C69.4254 38.2269 68.6814 38.0469 68.0334 37.6869C67.3854 37.3149 66.8814 36.7689 66.5214 36.0489C66.1614 35.3289 65.9814 34.4469 65.9814 33.4029C65.9814 32.3349 66.1674 31.4169 66.5394 30.6489C66.9234 29.8809 67.4574 29.2929 68.1414 28.8849C68.8374 28.4649 69.6594 28.2549 70.6074 28.2549C71.5074 28.2549 72.2394 28.4409 72.8034 28.8129C73.3794 29.1729 73.8054 29.6709 74.0814 30.3069C74.3574 30.9429 74.4954 31.6629 74.4954 32.4669C74.4954 32.6469 74.4894 32.8269 74.4774 33.0069C74.4654 33.1869 74.4414 33.3849 74.4054 33.6009H67.7094V32.2329H72.5154L72.2634 32.3949C72.2754 31.9149 72.2214 31.4829 72.1014 31.0989C71.9934 30.7149 71.8014 30.4089 71.5254 30.1809C71.2494 29.9529 70.8834 29.8389 70.4274 29.8389C69.9114 29.8389 69.4854 29.9829 69.1494 30.2709C68.8254 30.5589 68.5854 30.9489 68.4294 31.4409C68.2854 31.9329 68.2134 32.4909 68.2134 33.1149C68.2134 33.7989 68.3034 34.4049 68.4834 34.9329C68.6634 35.4489 68.9454 35.8569 69.3294 36.1569C69.7134 36.4569 70.1994 36.6069 70.7874 36.6069C71.2074 36.6069 71.6634 36.5289 72.1554 36.3729C72.6474 36.2169 73.1574 35.9769 73.6854 35.6529L74.4234 36.8229C73.7394 37.2909 73.0434 37.6449 72.3354 37.8849C71.6274 38.1129 70.9374 38.2269 70.2654 38.2269ZM81.7828 31.7109L81.9268 31.4949C82.7668 31.5069 83.4808 31.6209 84.0688 31.8369C84.6688 32.0529 85.1248 32.3829 85.4368 32.8269C85.7608 33.2709 85.9228 33.8409 85.9228 34.5369C85.9228 35.2569 85.7488 35.8809 85.4008 36.4089C85.0528 36.9249 84.5248 37.3269 83.8168 37.6149C83.1088 37.8909 82.2208 38.0289 81.1528 38.0289H75.8968V36.9129L77.6068 36.4629L77.3008 36.9129V26.5629L77.6788 27.0489L75.8968 26.5989V25.4829L79.4248 25.3929H81.4048C82.2808 25.3929 83.0188 25.5069 83.6188 25.7349C84.2188 25.9629 84.6748 26.3109 84.9868 26.7789C85.2988 27.2349 85.4548 27.8109 85.4548 28.5069C85.4548 29.4549 85.1548 30.1989 84.5548 30.7389C83.9548 31.2669 83.0308 31.5909 81.7828 31.7109ZM80.9728 26.9589H79.1548L79.5148 26.6169V31.1349L79.1548 30.8109H80.5588C81.0988 30.8109 81.5668 30.7449 81.9628 30.6129C82.3588 30.4809 82.6648 30.2709 82.8808 29.9829C83.1088 29.6829 83.2228 29.2929 83.2228 28.8129C83.2228 28.3569 83.1268 27.9969 82.9348 27.7329C82.7548 27.4569 82.4968 27.2589 82.1608 27.1389C81.8248 27.0189 81.4288 26.9589 80.9728 26.9589ZM80.9728 36.4449C81.5128 36.4449 81.9868 36.3789 82.3948 36.2469C82.8028 36.1029 83.1148 35.8809 83.3308 35.5809C83.5588 35.2809 83.6728 34.8849 83.6728 34.3929C83.6728 33.9129 83.5708 33.5229 83.3668 33.2229C83.1748 32.9229 82.9108 32.7069 82.5748 32.5749C82.2388 32.4429 81.8548 32.3769 81.4228 32.3769H79.1548L79.5148 31.9809V36.8049L79.1548 36.4449H80.9728ZM91.9829 28.2549C93.3749 28.2549 94.4549 28.6749 95.2229 29.5149C96.0029 30.3429 96.3929 31.5249 96.3929 33.0609C96.3929 34.1289 96.2009 35.0469 95.8169 35.8149C95.4449 36.5829 94.9049 37.1769 94.1969 37.5969C93.5009 38.0169 92.6609 38.2269 91.6769 38.2269C90.2969 38.2269 89.2229 37.8129 88.4549 36.9849C87.6989 36.1569 87.3209 34.9689 87.3209 33.4209C87.3209 32.3529 87.5069 31.4349 87.8789 30.6669C88.2509 29.8989 88.7849 29.3049 89.4809 28.8849C90.1769 28.4649 91.0109 28.2549 91.9829 28.2549ZM91.8749 29.8029C91.1189 29.8029 90.5429 30.0969 90.1469 30.6849C89.7629 31.2729 89.5709 32.1489 89.5709 33.3129C89.5709 34.4769 89.7569 35.3289 90.1289 35.8689C90.5009 36.4089 91.0529 36.6789 91.7849 36.6789C92.3129 36.6789 92.7509 36.5469 93.0989 36.2829C93.4469 36.0069 93.7109 35.6109 93.8909 35.0949C94.0709 34.5669 94.1609 33.9249 94.1609 33.1689C94.1609 32.0409 93.9629 31.2009 93.5669 30.6489C93.1829 30.0849 92.6189 29.8029 91.8749 29.8029ZM102.354 28.2549C103.746 28.2549 104.826 28.6749 105.594 29.5149C106.374 30.3429 106.764 31.5249 106.764 33.0609C106.764 34.1289 106.572 35.0469 106.188 35.8149C105.816 36.5829 105.276 37.1769 104.568 37.5969C103.872 38.0169 103.032 38.2269 102.048 38.2269C100.668 38.2269 99.5939 37.8129 98.8259 36.9849C98.0699 36.1569 97.6919 34.9689 97.6919 33.4209C97.6919 32.3529 97.8779 31.4349 98.2499 30.6669C98.6219 29.8989 99.1559 29.3049 99.8519 28.8849C100.548 28.4649 101.382 28.2549 102.354 28.2549ZM102.246 29.8029C101.49 29.8029 100.914 30.0969 100.518 30.6849C100.134 31.2729 99.9419 32.1489 99.9419 33.3129C99.9419 34.4769 100.128 35.3289 100.5 35.8689C100.872 36.4089 101.424 36.6789 102.156 36.6789C102.684 36.6789 103.122 36.5469 103.47 36.2829C103.818 36.0069 104.082 35.6109 104.262 35.0949C104.442 34.5669 104.532 33.9249 104.532 33.1689C104.532 32.0409 104.334 31.2009 103.938 30.6489C103.554 30.0849 102.99 29.8029 102.246 29.8029ZM107.757 38.0289V36.9129L109.287 36.4989L109.017 36.9129V25.4289L109.197 25.6989L107.757 25.3209V24.2049L111.177 24.0609V32.3769L110.817 32.0349H113.175L112.635 32.3049L114.363 29.6229L114.525 29.8749L113.193 29.6229V28.5249L117.423 28.3809V29.4969L115.893 29.8209L116.487 29.4789L114.273 32.8449L114.291 32.2689L116.775 36.8409L116.433 36.5529L117.837 36.9129V38.0289H115.137L112.725 33.3309L113.049 33.4929H110.817L111.177 33.3309V36.9129L110.943 36.4809L112.401 36.9129V38.0289H107.757ZM120.546 30.8289C120.546 31.1409 120.666 31.3929 120.906 31.5849C121.146 31.7649 121.452 31.9209 121.824 32.0529C122.208 32.1729 122.616 32.2989 123.048 32.4309C123.48 32.5629 123.882 32.7309 124.254 32.9349C124.638 33.1389 124.95 33.4149 125.19 33.7629C125.43 34.1109 125.55 34.5609 125.55 35.1129C125.55 35.7849 125.364 36.3549 124.992 36.8229C124.632 37.2789 124.134 37.6269 123.498 37.8669C122.874 38.1069 122.166 38.2269 121.374 38.2269C120.918 38.2269 120.432 38.1849 119.916 38.1009C119.412 38.0289 118.89 37.9209 118.35 37.7769L118.458 35.1489H119.826L120.024 36.7869L119.808 36.5349C120.072 36.6069 120.348 36.6669 120.636 36.7149C120.936 36.7509 121.2 36.7689 121.428 36.7689C121.764 36.7689 122.076 36.7209 122.364 36.6249C122.664 36.5289 122.91 36.3849 123.102 36.1929C123.294 36.0009 123.39 35.7609 123.39 35.4729C123.39 35.1489 123.27 34.8969 123.03 34.7169C122.79 34.5249 122.478 34.3629 122.094 34.2309C121.722 34.0989 121.326 33.9669 120.906 33.8349C120.486 33.7029 120.084 33.5349 119.7 33.3309C119.328 33.1149 119.022 32.8329 118.782 32.4849C118.542 32.1369 118.422 31.6809 118.422 31.1169C118.422 30.4449 118.59 29.8989 118.926 29.4789C119.262 29.0589 119.706 28.7529 120.258 28.5609C120.822 28.3569 121.428 28.2549 122.076 28.2549C122.532 28.2549 123.024 28.3029 123.552 28.3989C124.08 28.4829 124.626 28.6089 125.19 28.7769L125.1 31.0629H123.714L123.426 29.6409L123.732 29.9649C123.144 29.7969 122.622 29.7129 122.166 29.7129C121.686 29.7129 121.296 29.8149 120.996 30.0189C120.696 30.2229 120.546 30.4929 120.546 30.8289Z" fill="#0D006A"/>
</svg>
