<svg width="145" height="123" viewBox="0 0 145 123" fill="none" xmlns="http://www.w3.org/2000/svg">
<g opacity="0.08">
<path fillRule="evenodd" clipRule="evenodd" d="M124.963 98.4331C108.54 81.0092 92.6184 73.0787 80.418 76.2458C76.629 77.2293 69.9633 82.0977 69.4031 82.5599C68.5031 83.3024 70.3301 82.4287 72.4068 82.4319C75.3733 82.4369 77.9743 81.9352 80.6568 83.6132C87.2694 87.7497 87.3472 97.3194 79.4864 100.544C74.5013 101.906 72.5656 101.026 67.6797 98.7898C66.1071 98.0697 66.159 97.6997 66.6009 99.2041C66.8279 99.9769 69.0025 106.408 73.8595 110.991C80.9671 116.276 92.7156 116.99 106.608 112.98C112.448 111.293 122.373 107.278 127.478 104.535L129.626 103.38L124.963 98.4331ZM103.75 46.5241C96.159 43.9525 80.8767 41.7115 74.4576 42.2274C68.1582 42.734 60.0924 44.84 54.3876 47.4665C49.4671 49.7319 42.7643 56.5949 38.873 60.2329L36.7256 62.8876L51.8735 64.7757L69.0999 68.1976L68.2909 73.5173C67.8463 76.4429 67.7161 78.8812 68.0011 78.9349C69.7202 79.2588 80.3555 71.9942 90.0997 63.8401C96.3154 58.6395 103.11 53.2044 105.2 51.7628C107.29 50.3205 109.033 48.9635 109.074 48.747C109.115 48.5298 106.719 47.5299 103.75 46.5241ZM68.2046 12.4779C68.0032 10.7074 67.6969 9.23161 67.5245 9.19912C67.3521 9.16664 64.9134 10.8019 62.1043 12.833C59.2959 14.8642 51.1845 19.3588 44.0783 22.8216C20.8508 34.1412 13.0733 41.1814 8.63184 54.9113C6.78326 60.6248 5.88973 70.0285 6.68923 75.3436C7.00039 77.4087 7.11101 79.7855 8.42997 83.9912C9.74829 88.1968 11.4783 91.2856 13.179 93.9263C14.3156 95.6912 18.0325 99.4405 18.4139 99.5353C17.9342 99.2882 16.4828 95.1016 16.4811 89.7392C16.4769 78.1619 19.5665 68.0888 24.8278 62.5227C26.4051 60.8552 34.333 54.9755 42.4469 49.4566C57.5051 39.2154 61.2205 35.9276 64.8068 29.6685C66.9833 25.8706 68.7255 17.0546 68.2046 12.4779Z" fill="#4E49D6"/>
</g>
</svg>
