<svg width="61" height="61" viewBox="0 0 61 61" fill="none" xmlns="http://www.w3.org/2000/svg">
<path d="M3.15523 17.1832H1.15125V19.1872H3.15523V17.1832Z" fill="#1F2A37"/>
<path d="M3.15523 21.1912H1.15125V23.1951H3.15523V21.1912Z" fill="#1F2A37"/>
<path d="M3.15523 23.1951H1.15125V25.199H3.15523V23.1951Z" fill="#1F2A37"/>
<path d="M3.15523 27.2031H1.15125V29.2071H3.15523V27.2031Z" fill="#1F2A37"/>
<path d="M3.15523 33.215H1.15125V35.2189H3.15523V33.215Z" fill="#1F2A37"/>
<path d="M3.15523 35.219H1.15125V37.223H3.15523V35.219Z" fill="#1F2A37"/>
<path d="M3.15523 37.223H1.15125V39.227H3.15523V37.223Z" fill="#1F2A37"/>
<path d="M3.15523 41.231H1.15125V43.2349H3.15523V41.231Z" fill="#1F2A37"/>
<path d="M5.15925 19.1871H3.15527V21.1911H5.15925V19.1871Z" fill="#1F2A37"/>
<path d="M5.15925 31.2111H3.15527V33.215H5.15925V31.2111Z" fill="#1F2A37"/>
<path d="M5.15925 33.215H3.15527V35.2189H5.15925V33.215Z" fill="#1F2A37"/>
<path d="M5.15925 39.2269H3.15527V41.2309H5.15925V39.2269Z" fill="#1F2A37"/>
<path d="M7.16316 19.1871H5.15918V21.1911H7.16316V19.1871Z" fill="#1F2A37"/>
<path d="M7.16316 23.1951H5.15918V25.199H7.16316V23.1951Z" fill="#1F2A37"/>
<path d="M7.16316 33.215H5.15918V35.2189H7.16316V33.215Z" fill="#1F2A37"/>
<path d="M7.16316 39.2269H5.15918V41.2309H7.16316V39.2269Z" fill="#1F2A37"/>
<path d="M7.16316 41.231H5.15918V43.2349H7.16316V41.231Z" fill="#1F2A37"/>
<path d="M9.16719 21.1912H7.16321V23.1951H9.16719V21.1912Z" fill="#1F2A37"/>
<path d="M9.16719 25.1991H7.16321V27.2031H9.16719V25.1991Z" fill="#1F2A37"/>
<path d="M9.16719 31.2111H7.16321V33.215H9.16719V31.2111Z" fill="#1F2A37"/>
<path d="M9.16719 33.215H7.16321V35.2189H9.16719V33.215Z" fill="#1F2A37"/>
<path d="M9.16719 35.219H7.16321V37.223H9.16719V35.219Z" fill="#1F2A37"/>
<path d="M9.16719 39.2269H7.16321V41.2309H9.16719V39.2269Z" fill="#1F2A37"/>
<path d="M11.1711 17.1832H9.16711V19.1872H11.1711V17.1832Z" fill="#1F2A37"/>
<path d="M11.1711 19.1871H9.16711V21.1911H11.1711V19.1871Z" fill="#1F2A37"/>
<path d="M11.1711 21.1912H9.16711V23.1951H11.1711V21.1912Z" fill="#1F2A37"/>
<path d="M11.1711 29.207H9.16711V31.211H11.1711V29.207Z" fill="#1F2A37"/>
<path d="M11.1711 31.2111H9.16711V33.215H11.1711V31.2111Z" fill="#1F2A37"/>
<path d="M11.1711 33.215H9.16711V35.2189H11.1711V33.215Z" fill="#1F2A37"/>
<path d="M11.1711 39.2269H9.16711V41.2309H11.1711V39.2269Z" fill="#1F2A37"/>
<path d="M13.1751 17.1832H11.1711V19.1872H13.1751V17.1832Z" fill="#1F2A37"/>
<path d="M13.1751 21.1912H11.1711V23.1951H13.1751V21.1912Z" fill="#1F2A37"/>
<path d="M13.1751 25.1991H11.1711V27.2031H13.1751V25.1991Z" fill="#1F2A37"/>
<path d="M13.1751 27.2031H11.1711V29.2071H13.1751V27.2031Z" fill="#1F2A37"/>
<path d="M13.1751 29.207H11.1711V31.211H13.1751V29.207Z" fill="#1F2A37"/>
<path d="M13.1751 31.2111H11.1711V33.215H13.1751V31.2111Z" fill="#1F2A37"/>
<path d="M13.1751 33.215H11.1711V35.2189H13.1751V33.215Z" fill="#1F2A37"/>
<path d="M13.1751 37.223H11.1711V39.227H13.1751V37.223Z" fill="#1F2A37"/>
<path d="M13.1751 41.231H11.1711V43.2349H13.1751V41.231Z" fill="#1F2A37"/>
<path d="M15.1792 17.1832H13.1752V19.1872H15.1792V17.1832Z" fill="#1F2A37"/>
<path d="M15.1792 21.1912H13.1752V23.1951H15.1792V21.1912Z" fill="#1F2A37"/>
<path d="M15.1792 25.1991H13.1752V27.2031H15.1792V25.1991Z" fill="#1F2A37"/>
<path d="M15.1792 29.207H13.1752V31.211H15.1792V29.207Z" fill="#1F2A37"/>
<path d="M15.1792 33.215H13.1752V35.2189H15.1792V33.215Z" fill="#1F2A37"/>
<path d="M15.1792 37.223H13.1752V39.227H15.1792V37.223Z" fill="#1F2A37"/>
<path d="M15.1792 41.231H13.1752V43.2349H15.1792V41.231Z" fill="#1F2A37"/>
<path d="M17.1831 21.1912H15.1791V23.1951H17.1831V21.1912Z" fill="#1F2A37"/>
<path d="M17.1831 23.1951H15.1791V25.199H17.1831V23.1951Z" fill="#1F2A37"/>
<path d="M17.1831 27.2031H15.1791V29.2071H17.1831V27.2031Z" fill="#1F2A37"/>
<path d="M17.1831 29.207H15.1791V31.211H17.1831V29.207Z" fill="#1F2A37"/>
<path d="M17.1831 33.215H15.1791V35.2189H17.1831V33.215Z" fill="#1F2A37"/>
<path d="M17.1831 41.231H15.1791V43.2349H17.1831V41.231Z" fill="#1F2A37"/>
<path d="M19.1871 3.15527H17.1831V5.15925H19.1871V3.15527Z" fill="#1F2A37"/>
<path d="M19.1871 5.1593H17.1831V7.16328H19.1871V5.1593Z" fill="#1F2A37"/>
<path d="M19.1871 7.16321H17.1831V9.16719H19.1871V7.16321Z" fill="#1F2A37"/>
<path d="M19.1871 9.16724H17.1831V11.1712H19.1871V9.16724Z" fill="#1F2A37"/>
<path d="M19.1871 11.1713H17.1831V13.1752H19.1871V11.1713Z" fill="#1F2A37"/>
<path d="M19.1871 13.1752H17.1831V15.1792H19.1871V13.1752Z" fill="#1F2A37"/>
<path d="M19.1871 15.1792H17.1831V17.1832H19.1871V15.1792Z" fill="#1F2A37"/>
<path d="M19.1871 25.1991H17.1831V27.2031H19.1871V25.1991Z" fill="#1F2A37"/>
<path d="M19.1871 31.2111H17.1831V33.215H19.1871V31.2111Z" fill="#1F2A37"/>
<path d="M19.1871 37.223H17.1831V39.227H19.1871V37.223Z" fill="#1F2A37"/>
<path d="M19.1871 47.2429H17.1831V49.2469H19.1871V47.2429Z" fill="#1F2A37"/>
<path d="M19.1871 49.2468H17.1831V51.2508H19.1871V49.2468Z" fill="#1F2A37"/>
<path d="M19.1871 57.2628H17.1831V59.2668H19.1871V57.2628Z" fill="#1F2A37"/>
<path d="M21.191 5.1593H19.187V7.16328H21.191V5.1593Z" fill="#1F2A37"/>
<path d="M21.191 7.16321H19.187V9.16719H21.191V7.16321Z" fill="#1F2A37"/>
<path d="M21.191 9.16724H19.187V11.1712H21.191V9.16724Z" fill="#1F2A37"/>
<path d="M21.191 15.1792H19.187V17.1832H21.191V15.1792Z" fill="#1F2A37"/>
<path d="M21.191 17.1832H19.187V19.1872H21.191V17.1832Z" fill="#1F2A37"/>
<path d="M21.191 29.207H19.187V31.211H21.191V29.207Z" fill="#1F2A37"/>
<path d="M21.191 43.2349H19.187V45.2388H21.191V43.2349Z" fill="#1F2A37"/>
<path d="M21.191 47.2429H19.187V49.2469H21.191V47.2429Z" fill="#1F2A37"/>
<path d="M21.191 49.2468H19.187V51.2508H21.191V49.2468Z" fill="#1F2A37"/>
<path d="M21.191 51.2509H19.187V53.2548H21.191V51.2509Z" fill="#1F2A37"/>
<path d="M21.191 53.2548H19.187V55.2587H21.191V53.2548Z" fill="#1F2A37"/>
<path d="M21.191 57.2628H19.187V59.2668H21.191V57.2628Z" fill="#1F2A37"/>
<path d="M23.195 3.15527H21.191V5.15925H23.195V3.15527Z" fill="#1F2A37"/>
<path d="M23.195 11.1713H21.191V13.1752H23.195V11.1713Z" fill="#1F2A37"/>
<path d="M23.195 13.1752H21.191V15.1792H23.195V13.1752Z" fill="#1F2A37"/>
<path d="M23.195 17.1832H21.191V19.1872H23.195V17.1832Z" fill="#1F2A37"/>
<path d="M23.195 19.1871H21.191V21.1911H23.195V19.1871Z" fill="#1F2A37"/>
<path d="M23.195 21.1912H21.191V23.1951H23.195V21.1912Z" fill="#1F2A37"/>
<path d="M23.195 23.1951H21.191V25.199H23.195V23.1951Z" fill="#1F2A37"/>
<path d="M23.195 27.2031H21.191V29.2071H23.195V27.2031Z" fill="#1F2A37"/>
<path d="M23.195 29.207H21.191V31.211H23.195V29.207Z" fill="#1F2A37"/>
<path d="M23.195 33.215H21.191V35.2189H23.195V33.215Z" fill="#1F2A37"/>
<path d="M23.195 37.223H21.191V39.227H23.195V37.223Z" fill="#1F2A37"/>
<path d="M23.195 41.231H21.191V43.2349H23.195V41.231Z" fill="#1F2A37"/>
<path d="M23.195 43.2349H21.191V45.2388H23.195V43.2349Z" fill="#1F2A37"/>
<path d="M23.195 45.2389H21.191V47.2429H23.195V45.2389Z" fill="#1F2A37"/>
<path d="M23.195 51.2509H21.191V53.2548H23.195V51.2509Z" fill="#1F2A37"/>
<path d="M23.195 53.2548H21.191V55.2587H23.195V53.2548Z" fill="#1F2A37"/>
<path d="M25.199 1.15137H23.1951V3.15535H25.199V1.15137Z" fill="#1F2A37"/>
<path d="M25.199 3.15527H23.1951V5.15925H25.199V3.15527Z" fill="#1F2A37"/>
<path d="M25.199 5.1593H23.1951V7.16328H25.199V5.1593Z" fill="#1F2A37"/>
<path d="M25.199 7.16321H23.1951V9.16719H25.199V7.16321Z" fill="#1F2A37"/>
<path d="M25.199 15.1792H23.1951V17.1832H25.199V15.1792Z" fill="#1F2A37"/>
<path d="M25.199 19.1871H23.1951V21.1911H25.199V19.1871Z" fill="#1F2A37"/>
<path d="M25.199 21.1912H23.1951V23.1951H25.199V21.1912Z" fill="#1F2A37"/>
<path d="M25.199 27.2031H23.1951V29.2071H25.199V27.2031Z" fill="#1F2A37"/>
<path d="M25.199 31.2111H23.1951V33.215H25.199V31.2111Z" fill="#1F2A37"/>
<path d="M25.199 43.2349H23.1951V45.2388H25.199V43.2349Z" fill="#1F2A37"/>
<path d="M25.199 45.2389H23.1951V47.2429H25.199V45.2389Z" fill="#1F2A37"/>
<path d="M25.199 49.2468H23.1951V51.2508H25.199V49.2468Z" fill="#1F2A37"/>
<path d="M25.199 51.2509H23.1951V53.2548H25.199V51.2509Z" fill="#1F2A37"/>
<path d="M25.199 55.2588H23.1951V57.2628H25.199V55.2588Z" fill="#1F2A37"/>
<path d="M27.203 3.15527H25.199V5.15925H27.203V3.15527Z" fill="#1F2A37"/>
<path d="M27.203 7.16321H25.199V9.16719H27.203V7.16321Z" fill="#1F2A37"/>
<path d="M27.203 9.16724H25.199V11.1712H27.203V9.16724Z" fill="#1F2A37"/>
<path d="M27.203 13.1752H25.199V15.1792H27.203V13.1752Z" fill="#1F2A37"/>
<path d="M27.203 15.1792H25.199V17.1832H27.203V15.1792Z" fill="#1F2A37"/>
<path d="M27.203 19.1871H25.199V21.1911H27.203V19.1871Z" fill="#1F2A37"/>
<path d="M27.203 23.1951H25.199V25.199H27.203V23.1951Z" fill="#1F2A37"/>
<path d="M27.203 33.215H25.199V35.2189H27.203V33.215Z" fill="#1F2A37"/>
<path d="M27.203 35.219H25.199V37.223H27.203V35.219Z" fill="#1F2A37"/>
<path d="M27.203 39.2269H25.199V41.2309H27.203V39.2269Z" fill="#1F2A37"/>
<path d="M27.203 43.2349H25.199V45.2388H27.203V43.2349Z" fill="#1F2A37"/>
<path d="M27.203 47.2429H25.199V49.2469H27.203V47.2429Z" fill="#1F2A37"/>
<path d="M27.203 55.2588H25.199V57.2628H27.203V55.2588Z" fill="#1F2A37"/>
<path d="M27.203 57.2628H25.199V59.2668H27.203V57.2628Z" fill="#1F2A37"/>
<path d="M29.207 5.1593H27.203V7.16328H29.207V5.1593Z" fill="#1F2A37"/>
<path d="M29.207 7.16321H27.203V9.16719H29.207V7.16321Z" fill="#1F2A37"/>
<path d="M29.207 9.16724H27.203V11.1712H29.207V9.16724Z" fill="#1F2A37"/>
<path d="M29.207 11.1713H27.203V13.1752H29.207V11.1713Z" fill="#1F2A37"/>
<path d="M29.207 19.1871H27.203V21.1911H29.207V19.1871Z" fill="#1F2A37"/>
<path d="M29.207 27.2031H27.203V29.2071H29.207V27.2031Z" fill="#1F2A37"/>
<path d="M29.207 29.207H27.203V31.211H29.207V29.207Z" fill="#1F2A37"/>
<path d="M29.207 31.2111H27.203V33.215H29.207V31.2111Z" fill="#1F2A37"/>
<path d="M29.207 33.215H27.203V35.2189H29.207V33.215Z" fill="#1F2A37"/>
<path d="M29.207 35.219H27.203V37.223H29.207V35.219Z" fill="#1F2A37"/>
<path d="M29.207 39.2269H27.203V41.2309H29.207V39.2269Z" fill="#1F2A37"/>
<path d="M29.207 41.231H27.203V43.2349H29.207V41.231Z" fill="#1F2A37"/>
<path d="M29.207 43.2349H27.203V45.2388H29.207V43.2349Z" fill="#1F2A37"/>
<path d="M29.207 45.2389H27.203V47.2429H29.207V45.2389Z" fill="#1F2A37"/>
<path d="M29.207 49.2468H27.203V51.2508H29.207V49.2468Z" fill="#1F2A37"/>
<path d="M29.207 51.2509H27.203V53.2548H29.207V51.2509Z" fill="#1F2A37"/>
<path d="M29.207 55.2588H27.203V57.2628H29.207V55.2588Z" fill="#1F2A37"/>
<path d="M29.207 57.2628H27.203V59.2668H29.207V57.2628Z" fill="#1F2A37"/>
<path d="M31.2109 1.15137H29.2069V3.15535H31.2109V1.15137Z" fill="#1F2A37"/>
<path d="M31.2109 5.1593H29.2069V7.16328H31.2109V5.1593Z" fill="#1F2A37"/>
<path d="M31.2109 9.16724H29.2069V11.1712H31.2109V9.16724Z" fill="#1F2A37"/>
<path d="M31.2109 13.1752H29.2069V15.1792H31.2109V13.1752Z" fill="#1F2A37"/>
<path d="M31.2109 15.1792H29.2069V17.1832H31.2109V15.1792Z" fill="#1F2A37"/>
<path d="M31.2109 17.1832H29.2069V19.1872H31.2109V17.1832Z" fill="#1F2A37"/>
<path d="M31.2109 21.1912H29.2069V23.1951H31.2109V21.1912Z" fill="#1F2A37"/>
<path d="M31.2109 23.1951H29.2069V25.199H31.2109V23.1951Z" fill="#1F2A37"/>
<path d="M31.2109 25.1991H29.2069V27.2031H31.2109V25.1991Z" fill="#1F2A37"/>
<path d="M31.2109 31.2111H29.2069V33.215H31.2109V31.2111Z" fill="#1F2A37"/>
<path d="M31.2109 35.219H29.2069V37.223H31.2109V35.219Z" fill="#1F2A37"/>
<path d="M31.2109 41.231H29.2069V43.2349H31.2109V41.231Z" fill="#1F2A37"/>
<path d="M31.2109 47.2429H29.2069V49.2469H31.2109V47.2429Z" fill="#1F2A37"/>
<path d="M31.2109 55.2588H29.2069V57.2628H31.2109V55.2588Z" fill="#1F2A37"/>
<path d="M33.2149 3.15527H31.2109V5.15925H33.2149V3.15527Z" fill="#1F2A37"/>
<path d="M33.2149 11.1713H31.2109V13.1752H33.2149V11.1713Z" fill="#1F2A37"/>
<path d="M33.2149 15.1792H31.2109V17.1832H33.2149V15.1792Z" fill="#1F2A37"/>
<path d="M33.2149 17.1832H31.2109V19.1872H33.2149V17.1832Z" fill="#1F2A37"/>
<path d="M33.2149 19.1871H31.2109V21.1911H33.2149V19.1871Z" fill="#1F2A37"/>
<path d="M33.2149 21.1912H31.2109V23.1951H33.2149V21.1912Z" fill="#1F2A37"/>
<path d="M33.2149 25.1991H31.2109V27.2031H33.2149V25.1991Z" fill="#1F2A37"/>
<path d="M33.2149 35.219H31.2109V37.223H33.2149V35.219Z" fill="#1F2A37"/>
<path d="M33.2149 37.223H31.2109V39.227H33.2149V37.223Z" fill="#1F2A37"/>
<path d="M33.2149 41.231H31.2109V43.2349H33.2149V41.231Z" fill="#1F2A37"/>
<path d="M33.2149 43.2349H31.2109V45.2388H33.2149V43.2349Z" fill="#1F2A37"/>
<path d="M33.2149 49.2468H31.2109V51.2508H33.2149V49.2468Z" fill="#1F2A37"/>
<path d="M33.2149 51.2509H31.2109V53.2548H33.2149V51.2509Z" fill="#1F2A37"/>
<path d="M35.2189 3.15527H33.215V5.15925H35.2189V3.15527Z" fill="#1F2A37"/>
<path d="M35.2189 7.16321H33.215V9.16719H35.2189V7.16321Z" fill="#1F2A37"/>
<path d="M35.2189 9.16724H33.215V11.1712H35.2189V9.16724Z" fill="#1F2A37"/>
<path d="M35.2189 13.1752H33.215V15.1792H35.2189V13.1752Z" fill="#1F2A37"/>
<path d="M35.2189 15.1792H33.215V17.1832H35.2189V15.1792Z" fill="#1F2A37"/>
<path d="M35.2189 23.1951H33.215V25.199H35.2189V23.1951Z" fill="#1F2A37"/>
<path d="M35.2189 27.2031H33.215V29.2071H35.2189V27.2031Z" fill="#1F2A37"/>
<path d="M35.2189 33.215H33.215V35.2189H35.2189V33.215Z" fill="#1F2A37"/>
<path d="M35.2189 39.2269H33.215V41.2309H35.2189V39.2269Z" fill="#1F2A37"/>
<path d="M35.2189 41.231H33.215V43.2349H35.2189V41.231Z" fill="#1F2A37"/>
<path d="M35.2189 43.2349H33.215V45.2388H35.2189V43.2349Z" fill="#1F2A37"/>
<path d="M35.2189 47.2429H33.215V49.2469H35.2189V47.2429Z" fill="#1F2A37"/>
<path d="M35.2189 51.2509H33.215V53.2548H35.2189V51.2509Z" fill="#1F2A37"/>
<path d="M35.2189 53.2548H33.215V55.2587H35.2189V53.2548Z" fill="#1F2A37"/>
<path d="M35.2189 57.2628H33.215V59.2668H35.2189V57.2628Z" fill="#1F2A37"/>
<path d="M37.2229 1.15137H35.2189V3.15535H37.2229V1.15137Z" fill="#1F2A37"/>
<path d="M37.2229 9.16724H35.2189V11.1712H37.2229V9.16724Z" fill="#1F2A37"/>
<path d="M37.2229 11.1713H35.2189V13.1752H37.2229V11.1713Z" fill="#1F2A37"/>
<path d="M37.2229 15.1792H35.2189V17.1832H37.2229V15.1792Z" fill="#1F2A37"/>
<path d="M37.2229 17.1832H35.2189V19.1872H37.2229V17.1832Z" fill="#1F2A37"/>
<path d="M37.2229 19.1871H35.2189V21.1911H37.2229V19.1871Z" fill="#1F2A37"/>
<path d="M37.2229 21.1912H35.2189V23.1951H37.2229V21.1912Z" fill="#1F2A37"/>
<path d="M37.2229 31.2111H35.2189V33.215H37.2229V31.2111Z" fill="#1F2A37"/>
<path d="M37.2229 37.223H35.2189V39.227H37.2229V37.223Z" fill="#1F2A37"/>
<path d="M37.2229 41.231H35.2189V43.2349H37.2229V41.231Z" fill="#1F2A37"/>
<path d="M37.2229 45.2389H35.2189V47.2429H37.2229V45.2389Z" fill="#1F2A37"/>
<path d="M37.2229 49.2468H35.2189V51.2508H37.2229V49.2468Z" fill="#1F2A37"/>
<path d="M37.2229 51.2509H35.2189V53.2548H37.2229V51.2509Z" fill="#1F2A37"/>
<path d="M37.2229 55.2588H35.2189V57.2628H37.2229V55.2588Z" fill="#1F2A37"/>
<path d="M37.2229 57.2628H35.2189V59.2668H37.2229V57.2628Z" fill="#1F2A37"/>
<path d="M39.2269 1.15137H37.2229V3.15535H39.2269V1.15137Z" fill="#1F2A37"/>
<path d="M39.2269 13.1752H37.2229V15.1792H39.2269V13.1752Z" fill="#1F2A37"/>
<path d="M39.2269 15.1792H37.2229V17.1832H39.2269V15.1792Z" fill="#1F2A37"/>
<path d="M39.2269 17.1832H37.2229V19.1872H39.2269V17.1832Z" fill="#1F2A37"/>
<path d="M39.2269 21.1912H37.2229V23.1951H39.2269V21.1912Z" fill="#1F2A37"/>
<path d="M39.2269 23.1951H37.2229V25.199H39.2269V23.1951Z" fill="#1F2A37"/>
<path d="M39.2269 25.1991H37.2229V27.2031H39.2269V25.1991Z" fill="#1F2A37"/>
<path d="M39.2269 27.2031H37.2229V29.2071H39.2269V27.2031Z" fill="#1F2A37"/>
<path d="M39.2269 31.2111H37.2229V33.215H39.2269V31.2111Z" fill="#1F2A37"/>
<path d="M39.2269 33.215H37.2229V35.2189H39.2269V33.215Z" fill="#1F2A37"/>
<path d="M39.2269 35.219H37.2229V37.223H39.2269V35.219Z" fill="#1F2A37"/>
<path d="M39.2269 37.223H37.2229V39.227H39.2269V37.223Z" fill="#1F2A37"/>
<path d="M39.2269 45.2389H37.2229V47.2429H39.2269V45.2389Z" fill="#1F2A37"/>
<path d="M39.2269 47.2429H37.2229V49.2469H39.2269V47.2429Z" fill="#1F2A37"/>
<path d="M39.2269 49.2468H37.2229V51.2508H39.2269V49.2468Z" fill="#1F2A37"/>
<path d="M39.2269 53.2548H37.2229V55.2587H39.2269V53.2548Z" fill="#1F2A37"/>
<path d="M41.2308 1.15137H39.2268V3.15535H41.2308V1.15137Z" fill="#1F2A37"/>
<path d="M41.2308 11.1713H39.2268V13.1752H41.2308V11.1713Z" fill="#1F2A37"/>
<path d="M41.2308 15.1792H39.2268V17.1832H41.2308V15.1792Z" fill="#1F2A37"/>
<path d="M41.2308 21.1912H39.2268V23.1951H41.2308V21.1912Z" fill="#1F2A37"/>
<path d="M41.2308 23.1951H39.2268V25.199H41.2308V23.1951Z" fill="#1F2A37"/>
<path d="M41.2308 25.1991H39.2268V27.2031H41.2308V25.1991Z" fill="#1F2A37"/>
<path d="M41.2308 27.2031H39.2268V29.2071H41.2308V27.2031Z" fill="#1F2A37"/>
<path d="M41.2308 31.2111H39.2268V33.215H41.2308V31.2111Z" fill="#1F2A37"/>
<path d="M41.2308 37.223H39.2268V39.227H41.2308V37.223Z" fill="#1F2A37"/>
<path d="M41.2308 39.2269H39.2268V41.2309H41.2308V39.2269Z" fill="#1F2A37"/>
<path d="M41.2308 45.2389H39.2268V47.2429H41.2308V45.2389Z" fill="#1F2A37"/>
<path d="M41.2308 47.2429H39.2268V49.2469H41.2308V47.2429Z" fill="#1F2A37"/>
<path d="M41.2308 51.2509H39.2268V53.2548H41.2308V51.2509Z" fill="#1F2A37"/>
<path d="M41.2308 55.2588H39.2268V57.2628H41.2308V55.2588Z" fill="#1F2A37"/>
<path d="M41.2308 57.2628H39.2268V59.2668H41.2308V57.2628Z" fill="#1F2A37"/>
<path d="M43.2348 1.15137H41.2308V3.15535H43.2348V1.15137Z" fill="#1F2A37"/>
<path d="M43.2348 5.1593H41.2308V7.16328H43.2348V5.1593Z" fill="#1F2A37"/>
<path d="M43.2348 7.16321H41.2308V9.16719H43.2348V7.16321Z" fill="#1F2A37"/>
<path d="M43.2348 9.16724H41.2308V11.1712H43.2348V9.16724Z" fill="#1F2A37"/>
<path d="M43.2348 11.1713H41.2308V13.1752H43.2348V11.1713Z" fill="#1F2A37"/>
<path d="M43.2348 13.1752H41.2308V15.1792H43.2348V13.1752Z" fill="#1F2A37"/>
<path d="M43.2348 15.1792H41.2308V17.1832H43.2348V15.1792Z" fill="#1F2A37"/>
<path d="M43.2348 17.1832H41.2308V19.1872H43.2348V17.1832Z" fill="#1F2A37"/>
<path d="M43.2348 19.1871H41.2308V21.1911H43.2348V19.1871Z" fill="#1F2A37"/>
<path d="M43.2348 21.1912H41.2308V23.1951H43.2348V21.1912Z" fill="#1F2A37"/>
<path d="M43.2348 25.1991H41.2308V27.2031H43.2348V25.1991Z" fill="#1F2A37"/>
<path d="M43.2348 29.207H41.2308V31.211H43.2348V29.207Z" fill="#1F2A37"/>
<path d="M43.2348 31.2111H41.2308V33.215H43.2348V31.2111Z" fill="#1F2A37"/>
<path d="M43.2348 35.219H41.2308V37.223H43.2348V35.219Z" fill="#1F2A37"/>
<path d="M43.2348 37.223H41.2308V39.227H43.2348V37.223Z" fill="#1F2A37"/>
<path d="M43.2348 41.231H41.2308V43.2349H43.2348V41.231Z" fill="#1F2A37"/>
<path d="M43.2348 43.2349H41.2308V45.2388H43.2348V43.2349Z" fill="#1F2A37"/>
<path d="M43.2348 45.2389H41.2308V47.2429H43.2348V45.2389Z" fill="#1F2A37"/>
<path d="M43.2348 47.2429H41.2308V49.2469H43.2348V47.2429Z" fill="#1F2A37"/>
<path d="M43.2348 49.2468H41.2308V51.2508H43.2348V49.2468Z" fill="#1F2A37"/>
<path d="M43.2348 51.2509H41.2308V53.2548H43.2348V51.2509Z" fill="#1F2A37"/>
<path d="M43.2348 53.2548H41.2308V55.2587H43.2348V53.2548Z" fill="#1F2A37"/>
<path d="M43.2348 55.2588H41.2308V57.2628H43.2348V55.2588Z" fill="#1F2A37"/>
<path d="M43.2348 57.2628H41.2308V59.2668H43.2348V57.2628Z" fill="#1F2A37"/>
<path d="M45.2388 17.1832H43.2349V19.1872H45.2388V17.1832Z" fill="#1F2A37"/>
<path d="M45.2388 19.1871H43.2349V21.1911H45.2388V19.1871Z" fill="#1F2A37"/>
<path d="M45.2388 21.1912H43.2349V23.1951H45.2388V21.1912Z" fill="#1F2A37"/>
<path d="M45.2388 25.1991H43.2349V27.2031H45.2388V25.1991Z" fill="#1F2A37"/>
<path d="M45.2388 27.2031H43.2349V29.2071H45.2388V27.2031Z" fill="#1F2A37"/>
<path d="M45.2388 33.215H43.2349V35.2189H45.2388V33.215Z" fill="#1F2A37"/>
<path d="M45.2388 37.223H43.2349V39.227H45.2388V37.223Z" fill="#1F2A37"/>
<path d="M45.2388 41.231H43.2349V43.2349H45.2388V41.231Z" fill="#1F2A37"/>
<path d="M45.2388 49.2468H43.2349V51.2508H45.2388V49.2468Z" fill="#1F2A37"/>
<path d="M45.2388 51.2509H43.2349V53.2548H45.2388V51.2509Z" fill="#1F2A37"/>
<path d="M45.2388 55.2588H43.2349V57.2628H45.2388V55.2588Z" fill="#1F2A37"/>
<path d="M45.2388 57.2628H43.2349V59.2668H45.2388V57.2628Z" fill="#1F2A37"/>
<path d="M47.2427 17.1832H45.2388V19.1872H47.2427V17.1832Z" fill="#1F2A37"/>
<path d="M47.2427 21.1912H45.2388V23.1951H47.2427V21.1912Z" fill="#1F2A37"/>
<path d="M47.2427 27.2031H45.2388V29.2071H47.2427V27.2031Z" fill="#1F2A37"/>
<path d="M47.2427 29.207H45.2388V31.211H47.2427V29.207Z" fill="#1F2A37"/>
<path d="M47.2427 31.2111H45.2388V33.215H47.2427V31.2111Z" fill="#1F2A37"/>
<path d="M47.2427 33.215H45.2388V35.2189H47.2427V33.215Z" fill="#1F2A37"/>
<path d="M47.2427 37.223H45.2388V39.227H47.2427V37.223Z" fill="#1F2A37"/>
<path d="M47.2427 39.2269H45.2388V41.2309H47.2427V39.2269Z" fill="#1F2A37"/>
<path d="M47.2427 41.231H45.2388V43.2349H47.2427V41.231Z" fill="#1F2A37"/>
<path d="M47.2427 45.2389H45.2388V47.2429H47.2427V45.2389Z" fill="#1F2A37"/>
<path d="M47.2427 49.2468H45.2388V51.2508H47.2427V49.2468Z" fill="#1F2A37"/>
<path d="M49.2468 17.1832H47.2428V19.1872H49.2468V17.1832Z" fill="#1F2A37"/>
<path d="M49.2468 21.1912H47.2428V23.1951H49.2468V21.1912Z" fill="#1F2A37"/>
<path d="M49.2468 29.207H47.2428V31.211H49.2468V29.207Z" fill="#1F2A37"/>
<path d="M49.2468 39.2269H47.2428V41.2309H49.2468V39.2269Z" fill="#1F2A37"/>
<path d="M49.2468 41.231H47.2428V43.2349H49.2468V41.231Z" fill="#1F2A37"/>
<path d="M49.2468 49.2468H47.2428V51.2508H49.2468V49.2468Z" fill="#1F2A37"/>
<path d="M49.2468 51.2509H47.2428V53.2548H49.2468V51.2509Z" fill="#1F2A37"/>
<path d="M49.2468 57.2628H47.2428V59.2668H49.2468V57.2628Z" fill="#1F2A37"/>
<path d="M51.2508 17.1832H49.2468V19.1872H51.2508V17.1832Z" fill="#1F2A37"/>
<path d="M51.2508 19.1871H49.2468V21.1911H51.2508V19.1871Z" fill="#1F2A37"/>
<path d="M51.2508 23.1951H49.2468V25.199H51.2508V23.1951Z" fill="#1F2A37"/>
<path d="M51.2508 25.1991H49.2468V27.2031H51.2508V25.1991Z" fill="#1F2A37"/>
<path d="M51.2508 27.2031H49.2468V29.2071H51.2508V27.2031Z" fill="#1F2A37"/>
<path d="M51.2508 31.2111H49.2468V33.215H51.2508V31.2111Z" fill="#1F2A37"/>
<path d="M51.2508 37.223H49.2468V39.227H51.2508V37.223Z" fill="#1F2A37"/>
<path d="M51.2508 41.231H49.2468V43.2349H51.2508V41.231Z" fill="#1F2A37"/>
<path d="M51.2508 43.2349H49.2468V45.2388H51.2508V43.2349Z" fill="#1F2A37"/>
<path d="M51.2508 45.2389H49.2468V47.2429H51.2508V45.2389Z" fill="#1F2A37"/>
<path d="M51.2508 47.2429H49.2468V49.2469H51.2508V47.2429Z" fill="#1F2A37"/>
<path d="M51.2508 49.2468H49.2468V51.2508H51.2508V49.2468Z" fill="#1F2A37"/>
<path d="M51.2508 51.2509H49.2468V53.2548H51.2508V51.2509Z" fill="#1F2A37"/>
<path d="M51.2508 53.2548H49.2468V55.2587H51.2508V53.2548Z" fill="#1F2A37"/>
<path d="M51.2508 57.2628H49.2468V59.2668H51.2508V57.2628Z" fill="#1F2A37"/>
<path d="M53.2547 17.1832H51.2507V19.1872H53.2547V17.1832Z" fill="#1F2A37"/>
<path d="M53.2547 19.1871H51.2507V21.1911H53.2547V19.1871Z" fill="#1F2A37"/>
<path d="M53.2547 23.1951H51.2507V25.199H53.2547V23.1951Z" fill="#1F2A37"/>
<path d="M53.2547 25.1991H51.2507V27.2031H53.2547V25.1991Z" fill="#1F2A37"/>
<path d="M53.2547 31.2111H51.2507V33.215H53.2547V31.2111Z" fill="#1F2A37"/>
<path d="M53.2547 33.215H51.2507V35.2189H53.2547V33.215Z" fill="#1F2A37"/>
<path d="M53.2547 35.219H51.2507V37.223H53.2547V35.219Z" fill="#1F2A37"/>
<path d="M53.2547 39.2269H51.2507V41.2309H53.2547V39.2269Z" fill="#1F2A37"/>
<path d="M53.2547 41.231H51.2507V43.2349H53.2547V41.231Z" fill="#1F2A37"/>
<path d="M53.2547 43.2349H51.2507V45.2388H53.2547V43.2349Z" fill="#1F2A37"/>
<path d="M53.2547 47.2429H51.2507V49.2469H53.2547V47.2429Z" fill="#1F2A37"/>
<path d="M53.2547 51.2509H51.2507V53.2548H53.2547V51.2509Z" fill="#1F2A37"/>
<path d="M55.2587 17.1832H53.2548V19.1872H55.2587V17.1832Z" fill="#1F2A37"/>
<path d="M55.2587 23.1951H53.2548V25.199H55.2587V23.1951Z" fill="#1F2A37"/>
<path d="M55.2587 25.1991H53.2548V27.2031H55.2587V25.1991Z" fill="#1F2A37"/>
<path d="M55.2587 27.2031H53.2548V29.2071H55.2587V27.2031Z" fill="#1F2A37"/>
<path d="M55.2587 29.207H53.2548V31.211H55.2587V29.207Z" fill="#1F2A37"/>
<path d="M55.2587 35.219H53.2548V37.223H55.2587V35.219Z" fill="#1F2A37"/>
<path d="M55.2587 39.2269H53.2548V41.2309H55.2587V39.2269Z" fill="#1F2A37"/>
<path d="M55.2587 41.231H53.2548V43.2349H55.2587V41.231Z" fill="#1F2A37"/>
<path d="M55.2587 43.2349H53.2548V45.2388H55.2587V43.2349Z" fill="#1F2A37"/>
<path d="M55.2587 45.2389H53.2548V47.2429H55.2587V45.2389Z" fill="#1F2A37"/>
<path d="M55.2587 47.2429H53.2548V49.2469H55.2587V47.2429Z" fill="#1F2A37"/>
<path d="M55.2587 49.2468H53.2548V51.2508H55.2587V49.2468Z" fill="#1F2A37"/>
<path d="M55.2587 51.2509H53.2548V53.2548H55.2587V51.2509Z" fill="#1F2A37"/>
<path d="M55.2587 55.2588H53.2548V57.2628H55.2587V55.2588Z" fill="#1F2A37"/>
<path d="M57.2626 17.1832H55.2587V19.1872H57.2626V17.1832Z" fill="#1F2A37"/>
<path d="M57.2626 19.1871H55.2587V21.1911H57.2626V19.1871Z" fill="#1F2A37"/>
<path d="M57.2626 21.1912H55.2587V23.1951H57.2626V21.1912Z" fill="#1F2A37"/>
<path d="M57.2626 29.207H55.2587V31.211H57.2626V29.207Z" fill="#1F2A37"/>
<path d="M57.2626 33.215H55.2587V35.2189H57.2626V33.215Z" fill="#1F2A37"/>
<path d="M57.2626 37.223H55.2587V39.227H57.2626V37.223Z" fill="#1F2A37"/>
<path d="M57.2626 41.231H55.2587V43.2349H57.2626V41.231Z" fill="#1F2A37"/>
<path d="M57.2626 43.2349H55.2587V45.2388H57.2626V43.2349Z" fill="#1F2A37"/>
<path d="M57.2626 49.2468H55.2587V51.2508H57.2626V49.2468Z" fill="#1F2A37"/>
<path d="M57.2626 51.2509H55.2587V53.2548H57.2626V51.2509Z" fill="#1F2A37"/>
<path d="M57.2626 55.2588H55.2587V57.2628H57.2626V55.2588Z" fill="#1F2A37"/>
<path d="M59.2667 21.1912H57.2627V23.1951H59.2667V21.1912Z" fill="#1F2A37"/>
<path d="M59.2667 23.1951H57.2627V25.199H59.2667V23.1951Z" fill="#1F2A37"/>
<path d="M59.2667 29.207H57.2627V31.211H59.2667V29.207Z" fill="#1F2A37"/>
<path d="M59.2667 35.219H57.2627V37.223H59.2667V35.219Z" fill="#1F2A37"/>
<path d="M59.2667 39.2269H57.2627V41.2309H59.2667V39.2269Z" fill="#1F2A37"/>
<path d="M59.2667 43.2349H57.2627V45.2388H59.2667V43.2349Z" fill="#1F2A37"/>
<path d="M59.2667 49.2468H57.2627V51.2508H59.2667V49.2468Z" fill="#1F2A37"/>
<path d="M59.2667 53.2548H57.2627V55.2587H59.2667V53.2548Z" fill="#1F2A37"/>
<path d="M3.15523 1.15137H1.15125V3.15535H3.15523V1.15137Z" fill="#1F2A37"/>
<path d="M3.15523 3.15527H1.15125V5.15925H3.15523V3.15527Z" fill="#1F2A37"/>
<path d="M3.15523 5.1593H1.15125V7.16328H3.15523V5.1593Z" fill="#1F2A37"/>
<path d="M3.15523 7.16321H1.15125V9.16719H3.15523V7.16321Z" fill="#1F2A37"/>
<path d="M3.15523 9.16724H1.15125V11.1712H3.15523V9.16724Z" fill="#1F2A37"/>
<path d="M3.15523 11.1713H1.15125V13.1752H3.15523V11.1713Z" fill="#1F2A37"/>
<path d="M3.15523 13.1752H1.15125V15.1792H3.15523V13.1752Z" fill="#1F2A37"/>
<path d="M5.15925 1.15137H3.15527V3.15535H5.15925V1.15137Z" fill="#1F2A37"/>
<path d="M5.15925 13.1752H3.15527V15.1792H5.15925V13.1752Z" fill="#1F2A37"/>
<path d="M7.16316 1.15137H5.15918V3.15535H7.16316V1.15137Z" fill="#1F2A37"/>
<path d="M7.16316 13.1752H5.15918V15.1792H7.16316V13.1752Z" fill="#1F2A37"/>
<path d="M9.16719 1.15137H7.16321V3.15535H9.16719V1.15137Z" fill="#1F2A37"/>
<path d="M9.16719 13.1752H7.16321V15.1792H9.16719V13.1752Z" fill="#1F2A37"/>
<path d="M11.1711 1.15137H9.16711V3.15535H11.1711V1.15137Z" fill="#1F2A37"/>
<path d="M11.1711 13.1752H9.16711V15.1792H11.1711V13.1752Z" fill="#1F2A37"/>
<path d="M13.1751 1.15137H11.1711V3.15535H13.1751V1.15137Z" fill="#1F2A37"/>
<path d="M13.1751 13.1752H11.1711V15.1792H13.1751V13.1752Z" fill="#1F2A37"/>
<path d="M15.1792 1.15137H13.1752V3.15535H15.1792V1.15137Z" fill="#1F2A37"/>
<path d="M15.1792 3.15527H13.1752V5.15925H15.1792V3.15527Z" fill="#1F2A37"/>
<path d="M15.1792 5.1593H13.1752V7.16328H15.1792V5.1593Z" fill="#1F2A37"/>
<path d="M15.1792 7.16321H13.1752V9.16719H15.1792V7.16321Z" fill="#1F2A37"/>
<path d="M15.1792 9.16724H13.1752V11.1712H15.1792V9.16724Z" fill="#1F2A37"/>
<path d="M15.1792 11.1713H13.1752V13.1752H15.1792V11.1713Z" fill="#1F2A37"/>
<path d="M15.1792 13.1752H13.1752V15.1792H15.1792V13.1752Z" fill="#1F2A37"/>
<path d="M7.16328 5.1593H5.1593V7.16328H7.16328V5.1593Z" fill="#1F2A37"/>
<path d="M7.16328 7.16321H5.1593V9.16719H7.16328V7.16321Z" fill="#1F2A37"/>
<path d="M7.16328 9.16724H5.1593V11.1712H7.16328V9.16724Z" fill="#1F2A37"/>
<path d="M9.16731 5.15918H7.16333V7.16316H9.16731V5.15918Z" fill="#1F2A37"/>
<path d="M9.16731 7.16321H7.16333V9.16719H9.16731V7.16321Z" fill="#1F2A37"/>
<path d="M9.16731 9.16724H7.16333V11.1712H9.16731V9.16724Z" fill="#1F2A37"/>
<path d="M11.1712 5.15918H9.16724V7.16316H11.1712V5.15918Z" fill="#1F2A37"/>
<path d="M11.1712 7.16321H9.16724V9.16719H11.1712V7.16321Z" fill="#1F2A37"/>
<path d="M11.1712 9.16724H9.16724V11.1712H11.1712V9.16724Z" fill="#1F2A37"/>
<path d="M47.2429 1.15137H45.2389V3.15535H47.2429V1.15137Z" fill="#1F2A37"/>
<path d="M47.2429 3.15527H45.2389V5.15925H47.2429V3.15527Z" fill="#1F2A37"/>
<path d="M47.2429 5.1593H45.2389V7.16328H47.2429V5.1593Z" fill="#1F2A37"/>
<path d="M47.2429 7.16321H45.2389V9.16719H47.2429V7.16321Z" fill="#1F2A37"/>
<path d="M47.2429 9.16724H45.2389V11.1712H47.2429V9.16724Z" fill="#1F2A37"/>
<path d="M47.2429 11.1713H45.2389V13.1752H47.2429V11.1713Z" fill="#1F2A37"/>
<path d="M47.2429 13.1752H45.2389V15.1792H47.2429V13.1752Z" fill="#1F2A37"/>
<path d="M49.2469 1.15137H47.2429V3.15535H49.2469V1.15137Z" fill="#1F2A37"/>
<path d="M49.2469 13.1752H47.2429V15.1792H49.2469V13.1752Z" fill="#1F2A37"/>
<path d="M51.2508 1.15137H49.2468V3.15535H51.2508V1.15137Z" fill="#1F2A37"/>
<path d="M51.2508 13.1752H49.2468V15.1792H51.2508V13.1752Z" fill="#1F2A37"/>
<path d="M53.2548 1.15137H51.2509V3.15535H53.2548V1.15137Z" fill="#1F2A37"/>
<path d="M53.2548 13.1752H51.2509V15.1792H53.2548V13.1752Z" fill="#1F2A37"/>
<path d="M55.2587 1.15137H53.2548V3.15535H55.2587V1.15137Z" fill="#1F2A37"/>
<path d="M55.2587 13.1752H53.2548V15.1792H55.2587V13.1752Z" fill="#1F2A37"/>
<path d="M57.2628 1.15137H55.2588V3.15535H57.2628V1.15137Z" fill="#1F2A37"/>
<path d="M57.2628 13.1752H55.2588V15.1792H57.2628V13.1752Z" fill="#1F2A37"/>
<path d="M59.2668 1.15137H57.2628V3.15535H59.2668V1.15137Z" fill="#1F2A37"/>
<path d="M59.2668 3.15527H57.2628V5.15925H59.2668V3.15527Z" fill="#1F2A37"/>
<path d="M59.2668 5.1593H57.2628V7.16328H59.2668V5.1593Z" fill="#1F2A37"/>
<path d="M59.2668 7.16321H57.2628V9.16719H59.2668V7.16321Z" fill="#1F2A37"/>
<path d="M59.2668 9.16724H57.2628V11.1712H59.2668V9.16724Z" fill="#1F2A37"/>
<path d="M59.2668 11.1713H57.2628V13.1752H59.2668V11.1713Z" fill="#1F2A37"/>
<path d="M59.2668 13.1752H57.2628V15.1792H59.2668V13.1752Z" fill="#1F2A37"/>
<path d="M51.2508 5.1593H49.2468V7.16328H51.2508V5.1593Z" fill="#1F2A37"/>
<path d="M51.2508 7.16321H49.2468V9.16719H51.2508V7.16321Z" fill="#1F2A37"/>
<path d="M51.2508 9.16724H49.2468V11.1712H51.2508V9.16724Z" fill="#1F2A37"/>
<path d="M53.2548 5.15918H51.2509V7.16316H53.2548V5.15918Z" fill="#1F2A37"/>
<path d="M53.2548 7.16321H51.2509V9.16719H53.2548V7.16321Z" fill="#1F2A37"/>
<path d="M53.2548 9.16724H51.2509V11.1712H53.2548V9.16724Z" fill="#1F2A37"/>
<path d="M55.2587 5.15918H53.2548V7.16316H55.2587V5.15918Z" fill="#1F2A37"/>
<path d="M55.2587 7.16321H53.2548V9.16719H55.2587V7.16321Z" fill="#1F2A37"/>
<path d="M55.2587 9.16724H53.2548V11.1712H55.2587V9.16724Z" fill="#1F2A37"/>
<path d="M3.15523 45.2389H1.15125V47.2429H3.15523V45.2389Z" fill="#1F2A37"/>
<path d="M3.15523 47.2428H1.15125V49.2468H3.15523V47.2428Z" fill="#1F2A37"/>
<path d="M3.15523 49.2468H1.15125V51.2508H3.15523V49.2468Z" fill="#1F2A37"/>
<path d="M3.15523 51.2507H1.15125V53.2547H3.15523V51.2507Z" fill="#1F2A37"/>
<path d="M3.15523 53.2548H1.15125V55.2587H3.15523V53.2548Z" fill="#1F2A37"/>
<path d="M3.15523 55.2588H1.15125V57.2628H3.15523V55.2588Z" fill="#1F2A37"/>
<path d="M3.15523 57.2627H1.15125V59.2667H3.15523V57.2627Z" fill="#1F2A37"/>
<path d="M5.15925 45.2389H3.15527V47.2429H5.15925V45.2389Z" fill="#1F2A37"/>
<path d="M5.15925 57.2627H3.15527V59.2667H5.15925V57.2627Z" fill="#1F2A37"/>
<path d="M7.16316 45.2389H5.15918V47.2429H7.16316V45.2389Z" fill="#1F2A37"/>
<path d="M7.16316 57.2627H5.15918V59.2667H7.16316V57.2627Z" fill="#1F2A37"/>
<path d="M9.16719 45.2389H7.16321V47.2429H9.16719V45.2389Z" fill="#1F2A37"/>
<path d="M9.16719 57.2627H7.16321V59.2667H9.16719V57.2627Z" fill="#1F2A37"/>
<path d="M11.1711 45.2389H9.16711V47.2429H11.1711V45.2389Z" fill="#1F2A37"/>
<path d="M11.1711 57.2627H9.16711V59.2667H11.1711V57.2627Z" fill="#1F2A37"/>
<path d="M13.1751 45.2389H11.1711V47.2429H13.1751V45.2389Z" fill="#1F2A37"/>
<path d="M13.1751 57.2627H11.1711V59.2667H13.1751V57.2627Z" fill="#1F2A37"/>
<path d="M15.1792 45.2389H13.1752V47.2429H15.1792V45.2389Z" fill="#1F2A37"/>
<path d="M15.1792 47.2428H13.1752V49.2468H15.1792V47.2428Z" fill="#1F2A37"/>
<path d="M15.1792 49.2468H13.1752V51.2508H15.1792V49.2468Z" fill="#1F2A37"/>
<path d="M15.1792 51.2507H13.1752V53.2547H15.1792V51.2507Z" fill="#1F2A37"/>
<path d="M15.1792 53.2548H13.1752V55.2587H15.1792V53.2548Z" fill="#1F2A37"/>
<path d="M15.1792 55.2588H13.1752V57.2628H15.1792V55.2588Z" fill="#1F2A37"/>
<path d="M15.1792 57.2627H13.1752V59.2667H15.1792V57.2627Z" fill="#1F2A37"/>
<path d="M7.16328 49.2468H5.1593V51.2508H7.16328V49.2468Z" fill="#1F2A37"/>
<path d="M7.16328 51.2507H5.1593V53.2547H7.16328V51.2507Z" fill="#1F2A37"/>
<path d="M7.16328 53.2548H5.1593V55.2587H7.16328V53.2548Z" fill="#1F2A37"/>
<path d="M9.16731 49.2467H7.16333V51.2507H9.16731V49.2467Z" fill="#1F2A37"/>
<path d="M9.16731 51.2507H7.16333V53.2547H9.16731V51.2507Z" fill="#1F2A37"/>
<path d="M9.16731 53.2548H7.16333V55.2587H9.16731V53.2548Z" fill="#1F2A37"/>
<path d="M11.1712 49.2467H9.16724V51.2507H11.1712V49.2467Z" fill="#1F2A37"/>
<path d="M11.1712 51.2507H9.16724V53.2547H11.1712V51.2507Z" fill="#1F2A37"/>
<path d="M11.1712 53.2548H9.16724V55.2587H11.1712V53.2548Z" fill="#1F2A37"/>
</svg>
