<svg width="20" height="20" viewBox="0 0 20 20" fill="none" xmlns="http://www.w3.org/2000/svg">
<path fillRule="evenodd" clipRule="evenodd" d="M16.1992 9.5C16.1992 13.366 13.0652 16.5 9.19922 16.5C5.33323 16.5 2.19922 13.366 2.19922 9.5C2.19922 5.63401 5.33323 2.5 9.19922 2.5C13.0652 2.5 16.1992 5.63401 16.1992 9.5ZM16.2311 15.1177C17.4627 13.578 18.1992 11.625 18.1992 9.5C18.1992 4.52944 14.1698 0.5 9.19922 0.5C4.22866 0.5 0.199219 4.52944 0.199219 9.5C0.199219 14.4706 4.22866 18.5 9.19922 18.5C11.3242 18.5 13.2772 17.7635 14.8169 16.5319L17.4921 19.2071C17.8826 19.5976 18.5158 19.5976 18.9063 19.2071C19.2969 18.8166 19.2969 18.1834 18.9063 17.7929L16.2311 15.1177Z" fill="#9DA4AE"/>
</svg>
