<svg width="37" height="37" viewBox="0 0 37 37" fill="none" xmlns="http://www.w3.org/2000/svg">
<rect x="0.805664" y="1" width="35" height="35" rx="3.5" fill="white"/>
<path fillRule="evenodd" clipRule="evenodd" d="M11.4506 22.8622H9.07742L7.29786 15.9866C7.2134 15.6704 7.03405 15.3908 6.77024 15.259C6.11188 14.9278 5.3864 14.6642 4.59497 14.5313V14.2666H8.4179C8.94552 14.2666 9.34123 14.6642 9.40718 15.1261L10.3305 20.0856L12.7025 14.2666H15.0097L11.4506 22.8622ZM16.3287 22.8622H14.0875L15.933 14.2666H18.1742L16.3287 22.8622ZM21.0741 16.648C21.1401 16.185 21.5358 15.9203 21.9974 15.9203C22.7229 15.8538 23.5132 15.9868 24.1727 16.3168L24.5684 14.4661C23.9089 14.2014 23.1834 14.0685 22.5251 14.0685C20.3498 14.0685 18.7669 15.2591 18.7669 16.9115C18.7669 18.1686 19.8881 18.8287 20.6796 19.2263C21.5358 19.6228 21.8655 19.8875 21.7996 20.284C21.7996 20.8787 21.1401 21.1434 20.4817 21.1434C19.6903 21.1434 18.8988 20.9452 18.1745 20.614L17.7788 22.4658C18.5702 22.7958 19.4265 22.9288 20.2179 22.9288C22.657 22.9941 24.1727 21.8046 24.1727 20.0193C24.1727 17.771 21.0741 17.6392 21.0741 16.648ZM32.0161 22.8622L30.2365 14.2666H28.3251C27.9294 14.2666 27.5336 14.5313 27.4017 14.9278L24.1064 22.8622H26.4136L26.8741 21.6063H29.7089L29.9727 22.8622H32.0161ZM28.655 16.5815L29.3133 19.821H27.4678L28.655 16.5815Z" fill="#4E49D6"/>
<rect x="0.805664" y="1" width="35" height="35" rx="3.5" stroke="#D9D9D9"/>
</svg>
