<svg width="210" height="247" viewBox="0 0 210 247" fill="none" xmlns="http://www.w3.org/2000/svg">
<path d="M112.23 232.636C115.791 217.615 122.526 187.84 121.644 186.17C121.409 186.077 121.365 186.047 121.569 186.099C121.598 186.107 121.624 186.131 121.644 186.17C122.882 186.659 129.41 188.894 133.081 190.139C131.075 204.297 127.27 232.696 128.1 233.029C128.93 233.362 117.866 232.906 112.23 232.636Z" fill="#8482FF"/>
<path d="M136.068 206.036C134.518 209.91 133.781 218.312 133.592 233.647C139.228 233.916 143.937 234.472 143.107 234.139C142.277 233.806 145.35 220.909 147.356 206.751C142.986 205.268 136.558 204.812 136.068 206.036Z" fill="#FFF7F5"/>
<path d="M150.461 235.139C154.095 219.811 162.581 182.744 161.369 182.186C161.186 182.138 161.167 182.134 161.358 182.182C161.362 182.183 161.366 182.185 161.369 182.186C162.418 182.462 168.856 184.157 172.575 185.419C171.611 200.058 166.781 236.822 167.611 237.155C168.441 237.488 156.097 235.409 150.461 235.139Z" fill="#FDD8CE"/>
<path d="M96.9612 232.464C106.81 233.256 116.684 233.615 126.552 234.081C136.355 234.541 146.17 235.125 155.891 236.419C161.336 237.138 166.747 238.094 172.095 239.333C173.164 239.581 173.477 237.901 172.407 237.654C162.842 235.416 153.079 234.181 143.307 233.403C133.461 232.612 123.589 232.281 113.712 231.81C108.227 231.546 102.747 231.241 97.2722 230.795C97.0503 230.759 96.8233 230.811 96.6379 230.938C96.4526 231.065 96.3231 231.258 96.276 231.478C96.2363 231.7 96.2858 231.93 96.4136 232.116C96.5415 232.302 96.7375 232.431 96.9593 232.474L96.9612 232.464Z" fill="#352CBE"/>
<path d="M113.034 232.577C114.608 226.679 116.019 220.741 117.267 214.763C118.521 208.74 119.596 202.684 120.492 196.594C121.012 193.069 121.476 189.538 121.885 186.002L120.669 186.613L131.242 190.217C131.624 190.32 131.995 190.456 132.352 190.625C132.578 190.751 132.594 190.872 132.577 191.133C132.48 192.005 132.337 192.872 132.149 193.729C131.852 195.509 131.56 197.289 131.272 199.068C130.117 206.277 129.083 213.506 128.368 220.773C127.963 224.889 127.674 229.006 127.503 233.125C127.523 233.35 127.63 233.558 127.803 233.704C127.976 233.85 128.199 233.922 128.425 233.905C128.648 233.881 128.854 233.771 128.999 233.6C129.144 233.428 129.218 233.207 129.205 232.983C129.505 225.548 130.27 218.141 131.257 210.772C131.761 207.045 132.313 203.324 132.913 199.61C133.206 197.786 133.507 195.957 133.817 194.124C133.978 193.257 134.141 192.38 134.252 191.507C134.362 190.635 134.158 189.752 133.358 189.255C132.952 189.022 132.518 188.842 132.067 188.719L130.613 188.222L127.546 187.182L121.416 185.087C120.935 184.925 120.273 185.086 120.204 185.699C119.483 191.942 118.587 198.163 117.516 204.361C116.469 210.367 115.249 216.34 113.857 222.282C113.077 225.612 112.243 228.94 111.354 232.264C111.313 232.487 111.362 232.717 111.49 232.904C111.618 233.091 111.815 233.219 112.038 233.26C112.26 233.302 112.491 233.253 112.677 233.125C112.864 232.997 112.993 232.8 113.034 232.577Z" fill="#352CBE"/>
<path d="M134.633 233.368C134.567 228.993 134.65 224.618 134.881 220.245C135.117 215.864 135.451 211.46 136.039 207.11C136.099 206.676 136.078 206.62 136.523 206.564C137.046 206.498 137.583 206.469 138.109 206.446C139.171 206.387 140.237 206.389 141.299 206.449C142.358 206.512 143.412 206.63 144.459 206.801C144.929 206.861 145.396 206.948 145.856 207.062C146.071 207.123 146.339 207.197 146.427 207.411C146.572 207.755 146.335 208.413 146.282 208.754C146.179 209.305 146.1 209.86 146.007 210.413C145.83 211.496 145.652 212.582 145.468 213.663C145.127 215.715 144.777 217.769 144.417 219.825C143.584 224.568 142.702 229.302 141.771 234.028C141.57 235.106 143.249 235.422 143.451 234.34C144.337 229.871 145.171 225.392 145.954 220.903C146.344 218.701 146.722 216.493 147.09 214.282C147.281 213.146 147.468 212.013 147.655 210.876C147.763 210.299 147.847 209.716 147.941 209.136C148.058 208.6 148.126 208.054 148.144 207.505C148.123 206.372 147.303 205.694 146.284 205.4C145.231 205.133 144.157 204.956 143.074 204.871C141.916 204.746 140.753 204.682 139.588 204.681C138.473 204.655 137.357 204.713 136.25 204.855C135.725 204.899 135.232 205.127 134.858 205.499C134.457 205.956 134.388 206.528 134.319 207.106C134.174 208.267 134.043 209.429 133.927 210.592C133.688 212.918 133.486 215.246 133.32 217.576C132.971 222.871 132.835 228.175 132.911 233.489C132.92 233.601 132.952 233.71 133.003 233.809C133.055 233.909 133.125 233.997 133.211 234.07C133.297 234.142 133.396 234.197 133.503 234.231C133.61 234.265 133.723 234.277 133.834 234.268C133.946 234.258 134.055 234.227 134.155 234.175C134.254 234.124 134.343 234.053 134.415 233.967C134.487 233.881 134.542 233.782 134.576 233.675C134.61 233.568 134.622 233.456 134.613 233.344L134.633 233.368Z" fill="#352CBE"/>
<path d="M151.977 234.545C153.859 227.168 155.352 219.697 156.449 212.163C157.463 205.435 158.443 198.722 159.878 192.065C160.262 190.284 160.669 188.507 161.124 186.736C161.499 185.284 161.935 183.71 162.381 182.452L161.457 182.919L167.386 184.528L170.311 185.319C170.903 185.482 171.844 185.577 172.081 186.244C172.319 186.91 172.111 187.709 172.034 188.365L171.665 191.408L170.927 197.499L167.958 222.034L166.278 235.903C166.242 236.125 166.294 236.352 166.421 236.537C166.548 236.722 166.741 236.852 166.961 236.899C167.183 236.939 167.413 236.889 167.599 236.761C167.785 236.634 167.914 236.438 167.957 236.216L171.026 210.826L172.559 198.14L173.318 191.882L173.708 188.67C173.81 187.824 173.967 186.943 173.795 186.094C173.707 185.616 173.491 185.171 173.17 184.805C172.85 184.44 172.437 184.167 171.975 184.017C170.903 183.633 169.77 183.39 168.671 183.092L161.766 181.218C161.583 181.184 161.393 181.211 161.227 181.295C161.06 181.379 160.925 181.514 160.842 181.682C159.899 184.5 159.122 187.372 158.517 190.282C157.793 193.524 157.147 196.778 156.58 200.047C155.348 207.088 154.531 214.197 153.221 221.228C152.407 225.595 151.412 229.928 150.293 234.239C150.252 234.461 150.301 234.691 150.429 234.877C150.557 235.064 150.754 235.192 150.976 235.235C151.198 235.272 151.426 235.221 151.612 235.094C151.798 234.966 151.927 234.772 151.972 234.551L151.977 234.545Z" fill="#352CBE"/>
<path d="M104.427 183.875C109.724 181.153 115.111 178.656 120.402 175.925C121.771 175.221 123.133 174.499 124.487 173.76C125.246 173.352 126.004 172.933 126.761 172.503C127.149 172.29 127.52 172.066 127.903 171.859C128.112 171.746 128.333 171.568 128.517 171.736C128.747 172.005 128.957 172.292 129.146 172.595L130.052 173.739C130.644 174.48 131.228 175.227 131.812 175.974C132.905 177.367 133.999 178.765 135.093 180.168C137.288 182.995 139.486 185.808 141.775 188.56C142.157 189.019 142.572 189.41 142.924 189.162C149.763 184.042 156.175 177.961 162.494 172.143C164.452 170.34 166.417 168.541 168.39 166.748C168.573 166.605 168.7 166.394 168.743 166.159C168.787 165.924 168.745 165.681 168.626 165.482C168.498 165.286 168.302 165.153 168.079 165.111C167.857 165.07 167.626 165.123 167.436 165.261C161.009 171.066 154.756 177.092 148.071 182.545C146.074 184.173 143.473 186.028 141.633 186.597L143.179 187.512C141.098 185.025 139.101 182.465 137.108 179.898C135.987 178.453 134.865 177.007 133.744 175.562C132.579 174.073 131.334 172.639 130.222 171.108C129.667 170.356 129.171 169.718 128.17 169.869C127.256 169.999 126.396 170.696 125.599 171.13C124.19 171.915 122.772 172.686 121.345 173.441C118.829 174.764 116.29 176.023 113.736 177.265C110.437 178.875 107.137 180.486 103.862 182.171C103.651 182.261 103.479 182.432 103.38 182.65C103.282 182.867 103.264 183.114 103.331 183.341C103.408 183.566 103.565 183.748 103.769 183.847C103.974 183.947 104.209 183.957 104.424 183.874L104.427 183.875Z" fill="#F3633E"/>
<path d="M160.241 166.106C162.43 166.166 164.61 165.939 166.798 165.909C167.192 165.906 167.586 165.879 167.979 165.858C168.19 165.849 168.403 165.84 168.615 165.844C168.722 165.844 168.615 165.844 168.594 165.841C168.574 165.837 168.678 165.856 168.699 165.86C168.803 165.82 168.775 165.954 168.722 165.864C168.601 165.762 168.488 165.651 168.385 165.53C168.385 165.53 168.391 165.625 168.391 165.719C168.391 165.813 168.385 165.753 168.391 165.719C168.388 165.787 168.381 165.854 168.371 165.921C168.33 166.142 168.323 166.367 168.31 166.604C168.279 167.27 168.372 167.947 168.358 168.619C168.325 170.159 168.154 171.709 168.284 173.235C168.372 174.329 170.077 174.188 169.986 173.09C169.865 171.597 170.015 170.116 170.057 168.626C170.065 168.263 170.067 167.901 170.058 167.538C170.05 167.373 170.045 167.213 170.034 167.051C170.022 166.889 170.016 166.828 170.009 166.719C170.002 166.642 170.001 166.61 170.009 166.719C170.019 166.196 170.17 165.706 170.055 165.164C169.774 163.93 168.376 164.156 167.416 164.199C166.276 164.272 165.128 164.26 163.986 164.325C162.69 164.4 161.4 164.458 160.103 164.422C159.654 164.472 159.314 164.879 159.343 165.33C159.395 165.776 159.792 166.119 160.241 166.106Z" fill="#F3633E"/>
<path opacity="0.5" d="M31.5479 37.507C29.9779 39.9108 27.0426 41.6714 24.4536 42.7419C22.6098 43.5265 20.6428 43.9839 18.6413 44.0936C18.5294 45.0575 18.6869 46.0343 19.0985 46.9132C19.5092 47.7928 20.1576 48.5398 20.9693 49.0717C23.4223 50.5361 26.2918 51.1446 29.1271 50.8016C27.6548 45.9096 32.913 39.5392 37.5721 42.9436C40.7498 45.2921 38.5042 50.762 31.7115 52.1609C32.43 53.2272 33.5304 53.977 34.7852 54.2555C36.0411 54.5334 37.3554 54.3189 38.4565 53.6562C39.2199 53.1983 41.0539 54.5983 40.2109 55.0455C38.4714 55.9089 36.4792 56.1193 34.5961 55.6392C32.714 55.1582 31.0677 54.0174 29.9547 52.4251C25.1682 52.7814 18.2791 51.0947 16.8391 46.1103C16.6444 45.4298 16.5375 44.7274 16.5212 44.0202C10.864 43.4367 5.77713 39.1485 5.45104 33.5836C5.48551 30.2433 6.46297 26.9809 8.27126 24.1725C9.0008 22.7075 10.0131 21.402 11.2508 20.3308C12.4875 19.2604 13.9254 18.4451 15.4797 17.9335C20.3028 16.6633 26.9422 20.6636 24.5977 26.2367C24.2342 27.0688 22.2239 26.0085 22.5895 25.1312C22.941 24.2963 23.0222 23.3712 22.8198 22.4879C22.6174 21.6044 22.1432 20.8065 21.4635 20.2071C19.9327 18.8737 17.5846 19.1271 15.845 19.8343C12.2453 21.2917 10.0644 25.1145 8.66201 28.5289C5.38181 36.7101 10.1482 42.097 16.5881 42.4011C16.9544 40.099 17.8004 37.8996 19.0715 35.9458C20.3427 33.9919 22.0108 32.3271 23.967 31.0596C24.9973 30.3934 26.2094 30.0621 27.4353 30.112C28.6613 30.1621 29.8421 30.5903 30.8155 31.3379C31.6868 32.0886 32.2448 33.1383 32.38 34.2802C32.5153 35.4222 32.2188 36.5732 31.5479 37.507ZM36.8794 45.4937C37.1183 43.6983 35.2562 43.5432 34.0735 44.2526C32.9908 44.8656 32.122 45.7961 31.5846 46.9185C31.0473 48.0408 30.8674 49.301 31.0688 50.5288C33.5094 49.7959 36.5199 47.9901 36.8794 45.4937ZM27.8459 31.774C24.412 31.9477 20.0119 37.3356 18.8845 42.3541C22.9485 41.8171 29.8125 38.6357 30.2667 34.518C30.3108 34.1746 30.2812 33.8256 30.1803 33.494C30.0783 33.163 29.9078 32.8569 29.6788 32.597C29.4488 32.3378 29.1674 32.1295 28.8513 31.9876C28.5352 31.8457 28.1919 31.7731 27.8459 31.774Z" fill="white"/>
<g clip-path="url(#clip0_43_5139)">
<path d="M78.147 28.2651L78.1481 28.2687L81.1786 38.4135C81.1787 38.4137 81.1788 38.414 81.1789 38.4143C82.0534 41.3701 81.8068 44.56 80.4735 47.3952L80.4721 47.3982C79.8775 48.6844 78.9667 49.9062 77.6964 51.1496C77.6963 51.1496 77.6962 51.1497 77.6962 51.1497L73.0747 55.6678C73.0747 55.6679 73.0746 55.6679 73.0746 55.668C72.9901 55.7501 72.8901 55.8072 72.7834 55.8382C72.6702 55.871 72.5398 55.8777 72.4307 55.8549L72.4307 55.8549L72.4252 55.8538L66.0777 54.6033C66.0775 54.6033 66.0772 54.6032 66.077 54.6032C64.3288 54.2533 62.9088 53.7241 61.7055 52.9741L61.7031 52.9726C59.0375 51.332 57.0758 48.7833 56.2014 45.8283L56.2013 45.8278L53.185 35.6744L53.1839 35.671C52.8945 34.7215 53.2704 33.6658 54.1171 33.0641L54.1176 33.0637L63.2182 26.5774L63.2191 26.5768C63.665 26.2575 64.2165 26.0959 64.785 26.1232L64.785 26.1232L64.7886 26.1234L75.9395 26.5803L75.9423 26.5804C76.9824 26.6171 77.8685 27.3062 78.147 28.2651ZM52.7056 35.8168L55.722 45.9702C56.6319 49.0452 58.6721 51.6942 61.441 53.3985L52.7056 35.8168Z" fill="#F2EFFF" stroke="#0D006A"/>
<path fillRule="evenodd" clipRule="evenodd" d="M58.5033 44.6081C58.3116 44.7276 58.1594 44.843 58.165 44.8643C58.1707 44.8857 58.4908 45.0734 58.8765 45.2815C59.2621 45.4896 60.2187 46.1655 61.0025 46.7835C63.5644 48.8035 64.7942 49.3026 66.608 49.0576C67.3628 48.9557 68.4879 48.5439 69.0528 48.1631C69.2722 48.015 69.7869 47.5836 70.1964 47.2043C70.606 46.825 70.9446 46.24 71.2309 45.8574C71.5301 45.4905 72.1883 45.1455 72.1352 45.1295C71.8884 45.0553 71.0431 45.27 70.4294 45.5628C69.1044 46.1952 68.0606 47.2689 66.5964 46.8029C66.3195 46.7148 65.2144 46.1353 64.1403 45.5151C62.1472 44.364 61.5683 44.1215 60.6563 44.0558C60.1029 44.0159 58.9988 44.2992 58.5033 44.6081Z" fill="#FE0000"/>
<path fillRule="evenodd" clipRule="evenodd" d="M59.5614 37.1755C59.7176 38.2736 60.3972 40.2997 60.8639 41.0593C61.3219 41.8047 62.0896 42.6675 62.7739 43.2064C63.3642 43.6712 64.4477 44.1586 65.1441 44.4102L66.2458 44.5952L65.5912 42.2549L64.9366 39.9147L65.142 39.8551C65.5337 39.7262 65.8451 39.5891 65.8339 39.5506C65.7664 39.3181 64.196 38.4622 62.5709 37.7722C61.5344 37.3319 60.4323 36.8349 60.122 36.6676C59.8116 36.5004 59.5335 36.3705 59.504 36.3791C59.4745 36.3877 59.5003 36.7461 59.5614 37.1755Z" fill="#FE0000"/>
<path fillRule="evenodd" clipRule="evenodd" d="M65.8262 31.7252C64.7706 34.6532 64.7863 36.9653 65.8702 38.194C66.0605 38.4097 66.287 38.6171 66.3735 38.6549C66.5125 38.7157 66.5147 38.6919 66.3931 38.4509C66.2194 38.1066 66.2007 37.507 66.3494 37.0489C66.6156 36.2284 67.6328 35.6571 68.5042 35.8388C69.2449 35.9932 69.9548 36.7808 69.9825 37.4788C69.9914 37.7034 70.0027 37.7137 70.0939 37.5795C70.1498 37.4973 70.2355 37.1976 70.2845 36.9134C70.4798 35.7787 69.8724 34.3744 68.5913 32.9991C68.0527 32.421 67.004 31.506 66.3861 31.0752L66.126 30.8939L65.8262 31.7252Z" fill="#FE0000"/>
<path d="M71.2205 29.9955L75.5176 30.2004C76.4872 33.5382 78.4165 40.1796 78.5689 40.7044C78.7594 41.3603 79.177 46.9243 72.2921 52.0662" stroke="#0D006A" strokeLinecap="round" strokeLinejoin="round"/>
<path d="M69.36 44.8813L67.8535 39.6952L67.1767 40.4728L66.8609 40.2429L67.9369 38.4466L68.7694 38.2048L70.6039 44.52L69.36 44.8813Z" fill="#0D006A"/>
</g>
<path d="M49.7918 70.1682L48.9275 70.4193C48.1273 70.6518 47.8341 71.1361 48.0479 71.8723L47.8559 71.9281L47.6467 71.2079C47.4979 70.6957 47.6956 70.3606 48.2398 70.2025L52.7052 68.9054L52.8168 69.2895L50.6561 69.9172L52.3856 75.8711L51.5213 76.1221L49.7918 70.1682ZM55.6875 75.016C55.4826 75.0756 55.2624 75.0944 55.027 75.0725C54.7897 75.0443 54.5654 74.9532 54.3541 74.7994C54.1492 74.6437 53.9993 74.4026 53.9045 74.0761C53.7631 73.5896 53.8868 73.1788 54.2754 72.8437C54.6705 72.5068 55.2329 72.2324 55.9627 72.0203L56.2508 71.9367C56.0686 71.3093 55.8575 70.9054 55.6177 70.7252C55.3779 70.5449 55.0948 70.5022 54.7683 70.597C54.4802 70.6807 54.2674 70.8085 54.1298 70.9804C53.9923 71.1522 53.9321 71.3988 53.949 71.7202L53.5169 71.8457C53.4537 71.628 53.4172 71.4546 53.4075 71.3256C53.3959 71.1901 53.4287 71.0521 53.5059 70.9117C53.5877 70.763 53.7524 70.6249 54 70.4974C54.2521 70.3617 54.535 70.2483 54.8487 70.1571C55.3673 70.0065 55.8179 70.0283 56.2007 70.2226C56.5815 70.4105 56.8863 70.8981 57.1151 71.6856L57.8683 74.2784L57.3881 74.4179L56.9265 74.0834L56.8785 74.0973C56.806 74.2781 56.6726 74.4522 56.4783 74.6197C56.284 74.7872 56.0204 74.9193 55.6875 75.016ZM55.9941 74.4584C56.2053 74.397 56.3665 74.2947 56.4776 74.1513C56.5887 74.008 56.6758 73.8299 56.739 73.6172L56.3624 72.3208L56.0743 72.4045C55.6005 72.5421 55.2521 72.7405 55.0288 72.9997C54.8038 73.2526 54.7331 73.523 54.8168 73.8111C54.9023 74.1056 55.0548 74.3078 55.2741 74.4176C55.498 74.5192 55.738 74.5328 55.9941 74.4584ZM54.6743 69.8433L53.3994 68.86L54.3116 68.5949L55.0584 69.7318L54.6743 69.8433ZM58.2379 68.652C58.0906 68.6947 57.9449 68.6711 57.8007 68.5811C57.663 68.4892 57.5699 68.36 57.5216 68.1936C57.4825 68.0591 57.4902 67.9424 57.5447 67.8432C57.6056 67.7422 57.7033 67.6722 57.8378 67.6331C57.985 67.5904 58.1275 67.6149 58.2653 67.7068C58.4095 67.7968 58.5057 67.9251 58.5541 68.0915C58.5931 68.226 58.5822 68.3437 58.5213 68.4447C58.4668 68.5438 58.3723 68.6129 58.2379 68.652ZM58.3751 70.4865C58.2802 70.16 58.1657 69.933 58.0314 69.8053C57.8953 69.6713 57.6928 69.6434 57.4239 69.7215L57.2318 69.7773L57.176 69.5852L58.0403 69.3342C58.2772 69.2653 58.4625 69.2462 58.5964 69.2768C58.7348 69.299 58.8528 69.3828 58.9505 69.5279C59.0482 69.6731 59.1445 69.909 59.2393 70.2355L60.2157 73.5965L59.3514 73.8476L58.3751 70.4865ZM62.5034 67.3087C62.4086 66.9822 62.294 66.7552 62.1598 66.6276C62.0236 66.4936 61.8211 66.4656 61.5522 66.5437L61.3602 66.5995L61.3044 66.4074L62.1687 66.1564C62.4055 66.0876 62.5909 66.0684 62.7247 66.099C62.8631 66.1213 62.9812 66.205 63.0789 66.3502C63.1766 66.4953 63.2728 66.7312 63.3677 67.0577L64.8741 72.2433L64.0098 72.4944L62.5034 67.3087ZM65.3276 66.5925C65.1804 66.6353 65.0346 66.6116 64.8905 66.5216C64.7527 66.4297 64.6596 66.3006 64.6113 66.1341C64.5722 65.9997 64.58 65.8829 64.6345 65.7837C64.6954 65.6827 64.7931 65.6127 64.9275 65.5737C65.0748 65.5309 65.2173 65.5554 65.355 65.6473C65.4992 65.7373 65.5955 65.8656 65.6438 66.032C65.6829 66.1665 65.6719 66.2842 65.611 66.3852C65.5565 66.4843 65.462 66.5534 65.3276 66.5925ZM65.4648 68.427C65.37 68.1005 65.2554 67.8735 65.1211 67.7459C64.985 67.6119 64.7825 67.5839 64.5136 67.662L64.3216 67.7178L64.2658 67.5257L65.1301 67.2747C65.3669 67.2059 65.5523 67.1867 65.6861 67.2173C65.8245 67.2396 65.9425 67.3233 66.0402 67.4685C66.138 67.6136 66.2342 67.8495 66.3291 68.176L67.3054 71.537L66.4411 71.7881L65.4648 68.427ZM70.4456 70.729C70.0103 70.8555 69.6124 70.86 69.252 70.7425C68.8897 70.6186 68.5806 70.403 68.3247 70.0955C68.0669 69.7816 67.8738 69.4038 67.7455 68.9621C67.6191 68.5267 67.5806 68.1075 67.6301 67.7043C67.6796 67.3012 67.8186 66.9553 68.0472 66.6668C68.2803 66.37 68.5922 66.1648 68.9827 66.0514C69.6293 65.8636 70.1624 65.9066 70.5822 66.1803C71.0064 66.4459 71.318 66.9211 71.517 67.6062L71.6094 67.9959L68.6997 68.8411C68.8559 69.3789 69.0985 69.7839 69.4275 70.0563C69.7566 70.3286 70.1228 70.4062 70.5261 70.2891C70.827 70.2017 71.0613 70.0642 71.2289 69.8767C71.403 69.6872 71.5425 69.4385 71.6473 69.1303L71.8812 69.2186C71.7723 69.632 71.6002 69.9597 71.365 70.2016C71.1298 70.4435 70.8233 70.6193 70.4456 70.729ZM70.6047 67.8712C70.4411 67.3078 70.2332 66.903 69.9812 66.6569C69.7292 66.4108 69.4336 66.337 69.0943 66.4355C68.9022 66.4913 68.7517 66.6184 68.6427 66.8166C68.5318 67.0085 68.4697 67.2487 68.4563 67.5372C68.4493 67.8239 68.4932 68.1305 68.5881 68.457L70.6047 67.8712ZM70.75 72.1713C70.6348 72.2048 70.5193 72.1897 70.4037 72.1262C70.2963 72.0671 70.2249 71.9768 70.1896 71.8551C70.1561 71.7399 70.1689 71.6286 70.2279 71.5212C70.2934 71.4119 70.3837 71.3405 70.499 71.3071C70.6206 71.2717 70.7319 71.2845 70.8329 71.3454C70.9403 71.4045 71.0108 71.4916 71.0442 71.6069C71.0796 71.7285 71.0677 71.843 71.0087 71.9504C70.9515 72.0642 70.8653 72.1379 70.75 72.1713ZM67.5651 66.0467L68.0125 64.7191L69.0689 64.4123L70.1579 65.2935L69.6778 65.433L68.6383 64.9018L68.0452 65.9072L67.5651 66.0467ZM75.0194 69.4004C74.5392 69.5399 74.1083 69.5262 73.7266 69.3594C73.3513 69.1907 73.0707 68.7863 72.8847 68.1461L72.3826 66.4175C72.2877 66.091 72.1732 65.864 72.0389 65.7363C71.9028 65.6023 71.7003 65.5744 71.4314 65.6525L71.3354 65.6804L71.2796 65.4883L72.0478 65.2652C72.2847 65.1963 72.4701 65.1772 72.6039 65.2078C72.7423 65.23 72.8603 65.3138 72.958 65.4589C73.0557 65.6041 73.152 65.84 73.2469 66.1665L73.749 67.895C73.8792 68.3431 74.0742 68.644 74.334 68.7976C74.5984 68.943 74.881 68.972 75.1819 68.8846C75.5212 68.786 75.792 68.5234 75.9944 68.0966L74.9288 64.4283L75.793 64.1772L77.1041 68.6907L76.624 68.8301L76.1763 68.5436L76.1283 68.5576C76.0329 68.7311 75.8903 68.8975 75.7005 69.0567C75.5153 69.2077 75.2882 69.3223 75.0194 69.4004ZM82.5592 67.2101C82.0791 67.3496 81.6482 67.336 81.2665 67.1691C80.8912 67.0005 80.6106 66.596 80.4246 65.9558L79.9225 64.2273C79.8276 63.9008 79.7131 63.6737 79.5788 63.5461C79.4427 63.4121 79.2402 63.3841 78.9713 63.4622L78.8753 63.4901L78.8195 63.2981L79.5877 63.0749C79.8246 63.0061 80.01 62.987 80.1438 63.0175C80.2822 63.0398 80.4002 63.1235 80.4979 63.2687C80.5956 63.4139 80.6919 63.6497 80.7868 63.9762L81.2889 65.7048C81.4191 66.1529 81.6141 66.4538 81.8739 66.6074C82.1383 66.7528 82.4209 66.7817 82.7218 66.6943C83.0611 66.5958 83.3319 66.3331 83.5343 65.9064L82.4686 62.238L83.3329 61.987L84.644 66.5004L84.1639 66.6399L83.7162 66.3534L83.6682 66.3674C83.5728 66.5408 83.4302 66.7072 83.2404 66.8665C83.0552 67.0175 82.8281 67.132 82.5592 67.2101ZM86.8195 67.6387C87.1332 67.5476 87.3679 67.3996 87.5236 67.1947C87.6875 66.9944 87.7873 66.6807 87.823 66.2538L87.8616 65.6699L85.2372 62.371C84.924 61.9621 84.4975 61.8083 83.9577 61.9096L83.9019 61.7176L84.7182 61.4805C85.2751 61.3187 85.7337 61.4632 86.0937 61.914L87.9612 64.256L88.2032 60.5722L88.6833 60.4328L88.3031 66.1144C88.2644 66.674 88.159 67.0761 87.987 67.3204C87.815 67.5648 87.5498 67.739 87.1913 67.8431L86.9032 67.9268L86.8195 67.6387ZM94.7246 63.6763C94.3661 63.7804 94.0547 63.7598 93.7903 63.6144C93.5259 63.4691 93.3324 63.1851 93.2096 62.7626L92.3449 59.7857L91.6727 59.9809L91.5611 59.5968L92.2333 59.4015L91.9822 58.5373L92.295 57.8216L92.6791 57.71L93.0976 59.1505L94.2499 58.8157L94.3615 59.1999L93.2091 59.5346L94.0739 62.5115C94.2413 63.0877 94.549 63.3107 94.9972 63.1806C95.1508 63.1359 95.2742 63.0827 95.3674 63.021C95.4669 62.9573 95.565 62.8768 95.6616 62.7793L95.8134 62.9434C95.6978 63.095 95.5615 63.2353 95.4046 63.3642C95.2458 63.4867 95.0191 63.5907 94.7246 63.6763ZM95.7744 59.6225C95.6796 59.296 95.565 59.0689 95.4307 58.9413C95.2946 58.8073 95.0921 58.7794 94.8232 58.8575L94.6312 58.9133L94.5754 58.7212L95.4397 58.4701C95.6765 58.4013 95.8619 58.3822 95.9957 58.4127C96.1341 58.435 96.2521 58.5188 96.3498 58.6639C96.4475 58.8091 96.5438 59.0449 96.6387 59.3714L97.615 62.7325L96.7507 62.9836L95.7744 59.6225ZM95.3909 58.0157L95.4124 56.6557L96.3247 56.3907L95.7751 57.9041L95.3909 58.0157ZM98.1376 58.936C98.0428 58.6095 97.9282 58.3824 97.794 58.2548C97.6579 58.1208 97.4554 58.0929 97.1865 58.171L96.9944 58.2268L96.9386 58.0347L97.8029 57.7836C98.0398 57.7148 98.2283 57.6948 98.3686 57.7235C98.5152 57.7503 98.6359 57.8194 98.7307 57.9307L98.7788 57.9167C98.8741 57.7432 99.0145 57.581 99.1997 57.43C99.3895 57.2707 99.6188 57.152 99.8877 57.0739C100.368 56.9344 100.796 56.949 101.171 57.1177C101.553 57.2845 101.836 57.688 102.022 58.3282L102.859 61.2091L101.995 61.4602L101.158 58.5793C101.028 58.1312 100.831 57.8344 100.566 57.6891C100.306 57.5354 100.026 57.5023 99.7251 57.5897C99.3858 57.6883 99.115 57.9509 98.9127 58.3777L99.9783 62.046L99.114 62.2971L98.1376 58.936Z" fill="#0D006A"/>
<g clip-path="url(#clip1_43_5139)">
<path d="M144.441 115.012C143.169 114.56 142.474 113.233 142.893 112.054C143.312 110.874 144.688 110.282 145.96 110.734C146.27 110.844 146.605 110.835 146.895 110.71C147.184 110.586 147.404 110.354 147.505 110.069L148.882 106.187C150.047 102.906 148.114 99.2129 144.575 97.9559L126.425 91.5106C122.885 90.2537 119.058 91.9017 117.893 95.1827L116.467 99.1881C116.366 99.4725 116.391 99.7904 116.537 100.071C116.684 100.351 116.938 100.569 117.246 100.678C118.562 101.145 119.248 102.363 118.84 103.512C118.421 104.692 117.045 105.284 115.772 104.831C115.13 104.603 114.438 104.901 114.227 105.496L112.849 109.376C111.684 112.657 113.617 116.349 117.156 117.606L135.311 124.053C138.851 125.31 142.678 123.663 143.843 120.382L145.221 116.502C145.432 115.907 145.083 115.24 144.441 115.012" fill="#F2EFFF"/>
<path d="M144.441 115.012C143.169 114.56 142.474 113.233 142.893 112.054C143.312 110.874 144.688 110.282 145.96 110.734C146.27 110.844 146.605 110.835 146.895 110.71C147.184 110.586 147.404 110.354 147.505 110.069L148.882 106.187C150.047 102.906 148.114 99.2129 144.575 97.9559L126.425 91.5106C122.885 90.2537 119.058 91.9017 117.893 95.1827L116.467 99.1881C116.366 99.4725 116.391 99.7904 116.537 100.071C116.684 100.351 116.938 100.569 117.246 100.678C118.562 101.145 119.248 102.363 118.84 103.512C118.421 104.692 117.045 105.284 115.772 104.831C115.13 104.603 114.438 104.901 114.227 105.496L112.849 109.376C111.684 112.657 113.617 116.349 117.156 117.606L135.311 124.053C138.851 125.31 142.678 123.663 143.843 120.382L145.221 116.502C145.432 115.907 145.083 115.24 144.441 115.012" stroke="#0D006A"/>
<path d="M129.747 108.067C129.027 107.812 128.521 107.437 128.231 106.945C127.951 106.456 127.923 105.895 128.148 105.261C128.373 104.627 128.749 104.209 129.275 104.006C129.811 103.807 130.439 103.836 131.159 104.091C131.86 104.34 132.349 104.714 132.626 105.213C132.916 105.705 132.951 106.263 132.729 106.888C132.507 107.512 132.127 107.928 131.588 108.137C131.062 108.339 130.448 108.316 129.747 108.067ZM126.216 113.124L136.564 106.092L138.091 106.634L127.743 113.666L126.216 113.124ZM129.937 107.486C130.312 107.619 130.638 107.6 130.915 107.428C131.192 107.256 131.413 106.939 131.577 106.478C131.74 106.017 131.764 105.631 131.648 105.319C131.541 105.011 131.3 104.79 130.925 104.657C130.561 104.528 130.239 104.549 129.962 104.721C129.685 104.893 129.464 105.209 129.3 105.67C129.137 106.131 129.108 106.516 129.215 106.824C129.322 107.132 129.563 107.353 129.937 107.486ZM133.177 115.677C132.456 115.421 131.951 115.047 131.661 114.555C131.38 114.066 131.353 113.504 131.578 112.87C131.803 112.237 132.179 111.818 132.705 111.616C133.24 111.417 133.868 111.445 134.589 111.701C135.29 111.95 135.779 112.324 136.056 112.822C136.346 113.315 136.381 113.873 136.159 114.497C135.937 115.121 135.557 115.538 135.018 115.747C134.491 115.949 133.878 115.926 133.177 115.677ZM133.367 115.096C133.742 115.229 134.067 115.209 134.345 115.037C134.622 114.865 134.843 114.549 135.006 114.088C135.17 113.627 135.194 113.241 135.077 112.929C134.97 112.621 134.73 112.4 134.355 112.267C133.99 112.137 133.669 112.158 133.392 112.33C133.115 112.502 132.894 112.819 132.73 113.28C132.567 113.741 132.538 114.125 132.645 114.434C132.752 114.742 132.992 114.963 133.367 115.096Z" fill="#0D006A"/>
<path fillRule="evenodd" clipRule="evenodd" d="M122.284 102.729C122.115 102.715 121.971 102.716 121.965 102.732C121.959 102.747 122.068 103.004 122.208 103.302C122.347 103.6 122.622 104.436 122.818 105.16C123.46 107.526 123.979 108.378 125.184 109.042C125.685 109.318 126.548 109.573 127.06 109.596C127.258 109.605 127.762 109.575 128.179 109.529C128.596 109.484 129.062 109.282 129.406 109.18C129.751 109.092 130.303 109.178 130.278 109.145C130.162 108.99 129.556 108.741 129.054 108.643C127.971 108.432 126.861 108.612 126.186 107.676C126.058 107.499 125.651 106.654 125.28 105.799C124.592 104.212 124.351 103.807 123.83 103.359C123.514 103.087 122.721 102.764 122.284 102.729Z" fill="#FE0000"/>
<path fillRule="evenodd" clipRule="evenodd" d="M126.285 98.7793C125.892 99.529 125.41 101.087 125.36 101.766C125.311 102.431 125.402 103.308 125.586 103.947C125.744 104.498 126.198 105.283 126.517 105.75L127.117 106.355L127.755 104.614L128.393 102.873L128.547 102.927C128.847 103.022 129.101 103.076 129.111 103.047C129.173 102.873 128.582 101.643 127.883 100.491C127.437 99.7558 126.976 98.9566 126.859 98.7147C126.741 98.4727 126.627 98.2682 126.604 98.2604C126.582 98.2525 126.439 98.486 126.285 98.7793Z" fill="#FE0000"/>
<path fillRule="evenodd" clipRule="evenodd" d="M132.594 97.8926C130.634 99.2355 129.613 100.675 129.737 101.919C129.758 102.137 129.806 102.367 129.843 102.429C129.902 102.528 129.914 102.515 129.946 102.311C129.992 102.021 130.248 101.641 130.544 101.423C131.075 101.034 131.959 101.134 132.418 101.635C132.808 102.061 132.897 102.865 132.603 103.31C132.508 103.453 132.51 103.464 132.627 103.422C132.698 103.396 132.885 103.248 133.042 103.094C133.669 102.478 133.919 101.338 133.738 99.9145C133.662 99.3163 133.421 98.282 133.23 97.7396L133.15 97.5114L132.594 97.8926Z" fill="#FE0000"/>
<path d="M141.979 117.582C141.524 118.866 140.3 120.821 138.296 121.304C136.078 121.839 131.307 119.698 127.833 118.465" stroke="#0D006A" strokelinecap="round" strokeLinejoin="round"/>
</g>
<path d="M96.4091 124.452C95.6703 124.189 95.0711 123.773 94.6116 123.202C94.1596 122.634 93.8775 121.982 93.7654 121.246C93.6634 120.505 93.7449 119.762 94.01 119.015C94.2643 118.299 94.6378 117.702 95.1304 117.223C95.6257 116.737 96.1974 116.418 96.8456 116.266C97.5013 116.117 98.1797 116.167 98.8808 116.416C99.5292 116.646 100.056 116.931 100.462 117.27C100.878 117.604 101.149 117.942 101.274 118.284C101.341 118.478 101.345 118.704 101.287 118.964C101.236 119.226 101.145 119.542 101.014 119.911L100.788 119.831C100.88 119.116 100.784 118.526 100.5 118.06C100.218 117.587 99.7379 117.229 99.0594 116.988C98.4488 116.772 97.8824 116.753 97.3602 116.933C96.8406 117.105 96.3918 117.412 96.0138 117.855C95.6433 118.301 95.3523 118.821 95.1408 119.417C94.6883 120.691 94.6092 121.703 94.9033 122.453C95.2001 123.195 95.7555 123.71 96.5697 123.999C96.9542 124.136 97.2942 124.218 97.5897 124.247C97.8852 124.276 98.1763 124.269 98.463 124.226L99.1618 122.258C99.2528 122.002 99.3732 121.794 99.5231 121.635C99.6729 121.476 99.905 121.385 100.219 121.361C100.544 121.331 100.97 121.411 101.497 121.598L101.417 121.824C101.078 121.704 100.821 121.71 100.646 121.843C100.472 121.977 100.319 122.228 100.188 122.597L99.4326 124.723C98.9371 124.827 98.447 124.857 97.962 124.812C97.4771 124.767 96.9594 124.647 96.4091 124.452ZM103.828 120.082C103.654 120.021 103.529 119.896 103.452 119.707C103.382 119.521 103.382 119.33 103.451 119.134C103.508 118.975 103.597 118.867 103.72 118.809C103.85 118.753 103.994 118.753 104.152 118.81C104.326 118.871 104.447 118.995 104.517 119.181C104.594 119.37 104.598 119.562 104.529 119.758C104.472 119.917 104.379 120.024 104.249 120.079C104.126 120.138 103.986 120.139 103.828 120.082ZM102.675 121.965C102.812 121.581 102.859 121.279 102.818 121.061C102.779 120.835 102.602 120.666 102.285 120.553L102.059 120.473L102.139 120.247L103.157 120.608C103.436 120.707 103.63 120.819 103.739 120.942C103.858 121.061 103.914 121.225 103.908 121.435C103.901 121.645 103.829 121.942 103.693 122.327L102.287 126.285L101.27 125.923L102.675 121.965ZM105.109 127.414C104.868 127.328 104.64 127.192 104.426 127.006C104.215 126.812 104.061 126.566 103.963 126.268C103.872 125.973 103.895 125.633 104.032 125.249C104.235 124.676 104.644 124.362 105.257 124.308C105.878 124.257 106.618 124.384 107.478 124.689L107.817 124.81C108.079 124.071 108.157 123.53 108.05 123.186C107.942 122.842 107.697 122.602 107.312 122.466C106.973 122.345 106.676 122.321 106.422 122.392C106.167 122.463 105.936 122.66 105.727 122.985L105.218 122.805C105.309 122.548 105.395 122.354 105.476 122.221C105.56 122.081 105.688 121.97 105.862 121.887C106.046 121.8 106.303 121.781 106.634 121.83C106.974 121.875 107.329 121.963 107.699 122.094C108.31 122.311 108.733 122.648 108.97 123.105C109.209 123.555 109.164 124.244 108.835 125.171L107.75 128.224L107.185 128.024L106.97 127.374L106.913 127.354C106.716 127.479 106.464 127.555 106.157 127.582C105.851 127.609 105.501 127.553 105.109 127.414ZM105.799 127.086C106.048 127.174 106.276 127.187 106.485 127.126C106.694 127.064 106.903 126.952 107.114 126.789L107.656 125.262L107.317 125.142C106.759 124.944 106.281 124.893 105.881 124.989C105.485 125.077 105.227 125.291 105.106 125.63C104.983 125.977 104.99 126.281 105.126 126.541C105.273 126.797 105.497 126.979 105.799 127.086ZM107.545 121.594L108.52 120.284L109.594 120.666L107.998 121.754L107.545 121.594ZM114.297 130.676C113.754 130.484 113.337 130.2 113.045 129.825C112.764 129.445 112.603 129.014 112.562 128.532C112.531 128.046 112.608 127.543 112.793 127.023C112.977 126.502 113.234 126.067 113.562 125.717C113.9 125.361 114.297 125.129 114.752 125.019C115.217 124.904 115.721 124.943 116.264 125.135C117.093 125.43 117.593 125.756 117.763 126.114C117.846 126.287 117.869 126.474 117.832 126.673C117.798 126.864 117.695 127.202 117.524 127.684L117.298 127.604C117.434 127.126 117.411 126.723 117.23 126.395C117.052 126.06 116.752 125.818 116.33 125.668C115.787 125.475 115.3 125.544 114.868 125.875C114.444 126.208 114.11 126.718 113.867 127.404C113.623 128.09 113.561 128.696 113.68 129.222C113.806 129.751 114.141 130.112 114.683 130.304C115.068 130.441 115.41 130.482 115.709 130.427C116.012 130.364 116.323 130.216 116.644 129.982L116.81 130.232C116.411 130.566 116.009 130.767 115.603 130.835C115.199 130.895 114.764 130.842 114.297 130.676ZM118.847 132.292C118.606 132.207 118.378 132.071 118.164 131.884C117.953 131.69 117.798 131.445 117.7 131.147C117.61 130.851 117.633 130.511 117.769 130.127C117.973 129.554 118.381 129.241 118.995 129.187C119.616 129.136 120.356 129.263 121.215 129.568L121.554 129.688C121.817 128.949 121.894 128.408 121.787 128.065C121.68 127.721 121.434 127.481 121.05 127.344C120.711 127.224 120.414 127.199 120.159 127.27C119.905 127.341 119.673 127.539 119.465 127.864L118.956 127.683C119.047 127.427 119.133 127.232 119.214 127.1C119.297 126.96 119.426 126.848 119.6 126.766C119.784 126.678 120.041 126.659 120.371 126.709C120.712 126.753 121.067 126.841 121.437 126.972C122.047 127.189 122.471 127.526 122.707 127.984C122.946 128.434 122.901 129.122 122.572 130.05L121.488 133.103L120.923 132.902L120.707 132.253L120.651 132.233C120.454 132.358 120.202 132.434 119.895 132.461C119.588 132.488 119.239 132.432 118.847 132.292ZM119.536 131.964C119.785 132.053 120.014 132.066 120.223 132.004C120.431 131.942 120.641 131.83 120.852 131.667L121.394 130.141L121.055 130.02C120.497 129.822 120.018 129.771 119.619 129.867C119.223 129.955 118.964 130.169 118.844 130.508C118.721 130.855 118.727 131.159 118.864 131.42C119.011 131.676 119.235 131.857 119.536 131.964ZM121.635 126.521C121.696 126.373 121.764 126.252 121.839 126.16C121.925 126.063 122.028 125.964 122.149 125.863C122.211 125.808 122.267 125.756 122.319 125.707C122.373 125.649 122.411 125.591 122.432 125.53C122.47 125.425 122.465 125.33 122.419 125.245C122.38 125.164 122.3 125.101 122.18 125.059C122.029 125.005 121.894 125.004 121.774 125.055C121.661 125.108 121.549 125.234 121.436 125.431L120.965 125.251C121.072 124.95 121.247 124.744 121.49 124.635C121.74 124.529 122.019 124.53 122.328 124.64C122.577 124.729 122.776 124.863 122.924 125.043C123.083 125.218 123.124 125.411 123.049 125.622C123.015 125.72 122.96 125.803 122.885 125.869C122.813 125.929 122.713 125.995 122.585 126.069C122.437 126.152 122.314 126.235 122.216 126.319C122.121 126.396 122.044 126.505 121.986 126.645L121.635 126.521ZM128.06 128.56C128.197 128.176 128.244 127.874 128.203 127.656C128.165 127.43 127.987 127.261 127.67 127.148L127.444 127.068L127.524 126.842L128.542 127.203C128.821 127.302 129.015 127.414 129.124 127.537C129.243 127.656 129.299 127.82 129.293 128.03C129.286 128.24 129.215 128.537 129.078 128.922L128.636 130.166C128.851 130.064 129.101 130.004 129.388 129.987C129.684 129.965 129.991 130.01 130.307 130.122C130.873 130.323 131.279 130.637 131.526 131.065C131.781 131.495 131.774 132.087 131.507 132.84L130.302 136.233L129.284 135.871L130.489 132.479C130.676 131.951 130.692 131.524 130.537 131.197C130.391 130.865 130.142 130.637 129.787 130.511C129.388 130.369 128.94 130.435 128.444 130.708L126.91 135.028L125.892 134.667L128.06 128.56ZM137.163 132.952C137.457 133.319 137.63 133.754 137.681 134.256C137.742 134.753 137.679 135.266 137.491 135.793C137.309 136.306 137.045 136.739 136.699 137.091C136.353 137.444 135.948 137.677 135.482 137.792C135.02 137.9 134.532 137.862 134.02 137.68C133.507 137.498 133.105 137.22 132.814 136.845C132.525 136.462 132.358 136.025 132.312 135.533C132.266 135.041 132.334 134.539 132.516 134.026C132.698 133.514 132.962 133.081 133.308 132.729C133.653 132.376 134.058 132.146 134.52 132.039C134.986 131.924 135.475 131.957 135.987 132.139C136.274 132.241 136.517 132.37 136.716 132.526C137.071 132.626 137.375 132.594 137.629 132.429C137.885 132.257 138.067 132.02 138.174 131.719L138.819 131.948C138.54 132.732 137.988 133.066 137.163 132.952ZM134.18 137.228C134.459 137.327 134.74 137.312 135.024 137.184C135.315 137.058 135.579 136.838 135.818 136.524C136.065 136.212 136.264 135.842 136.417 135.412C136.569 134.982 136.648 134.569 136.654 134.172C136.666 133.777 136.6 133.439 136.453 133.158C136.314 132.88 136.106 132.691 135.827 132.592C135.548 132.493 135.263 132.506 134.972 132.632C134.688 132.761 134.424 132.981 134.177 133.292C133.938 133.606 133.742 133.978 133.59 134.408C133.437 134.838 133.355 135.25 133.342 135.644C133.337 136.041 133.403 136.379 133.542 136.658C133.689 136.939 133.901 137.129 134.18 137.228ZM133.429 139.343C133.294 139.294 133.192 139.199 133.124 139.056C133.06 138.923 133.054 138.785 133.105 138.642C133.153 138.506 133.244 138.407 133.377 138.343C133.517 138.283 133.655 138.277 133.791 138.325C133.934 138.376 134.033 138.466 134.089 138.596C134.152 138.729 134.16 138.863 134.112 138.999C134.061 139.142 133.969 139.246 133.836 139.309C133.701 139.38 133.565 139.391 133.429 139.343ZM139.449 135.024C139.585 134.64 139.633 134.338 139.592 134.12C139.553 133.894 139.375 133.725 139.059 133.612L138.833 133.532L138.913 133.306L139.931 133.667C140.217 133.769 140.417 133.887 140.531 134.02C140.655 134.149 140.715 134.315 140.711 134.517L140.768 134.537C140.965 134.412 141.209 134.333 141.501 134.301C141.793 134.269 142.131 134.321 142.515 134.458C143.163 134.688 143.571 135.13 143.738 135.783C143.908 136.429 143.851 137.152 143.567 137.951C143.28 138.757 142.86 139.355 142.306 139.744C141.759 140.136 141.135 140.207 140.434 139.958C140.148 139.857 139.906 139.737 139.709 139.599C139.512 139.461 139.322 139.3 139.141 139.117L138.298 141.492L137.28 141.13L139.449 135.024ZM140.256 139.386C140.738 139.557 141.167 139.472 141.544 139.13C141.927 138.791 142.243 138.27 142.492 137.569C142.739 136.876 142.828 136.279 142.759 135.779C142.693 135.272 142.445 134.942 142.015 134.789C141.51 134.61 141.034 134.696 140.587 135.046L139.302 138.665C139.491 138.851 139.657 139.003 139.802 139.122C139.946 139.242 140.097 139.329 140.256 139.386ZM148.999 135.996C149.136 135.612 149.183 135.31 149.142 135.092C149.103 134.866 148.926 134.697 148.609 134.584L148.383 134.504L148.463 134.278L149.481 134.639C149.76 134.738 149.954 134.849 150.063 134.973C150.182 135.092 150.238 135.256 150.232 135.466C150.225 135.676 150.153 135.973 150.017 136.357L147.848 142.464L146.831 142.102L148.999 135.996ZM151.099 139.161C151.236 138.777 151.283 138.475 151.242 138.257C151.203 138.031 151.026 137.862 150.709 137.749L150.483 137.669L150.563 137.443L151.581 137.804C151.86 137.903 152.054 138.015 152.163 138.138C152.282 138.257 152.338 138.421 152.332 138.631C152.325 138.841 152.254 139.138 152.117 139.523L150.711 143.481L149.694 143.119L151.099 139.161ZM151.852 137.328L152.827 136.018L153.901 136.4L152.305 137.488L151.852 137.328Z" fill="#0D006A"/>
<path d="M160.772 28.2113L162.368 29.5767C162.986 30.1053 163.769 30.4022 164.582 30.4165L166.682 30.4534C167.822 30.4735 168.804 31.2623 169.069 32.3712L169.558 34.4141C169.747 35.2049 170.206 35.9051 170.855 36.3946L172.533 37.6589C173.443 38.3453 173.774 39.5607 173.337 40.6138L172.532 42.5538C172.22 43.3048 172.179 44.1409 172.417 44.9185L173.031 46.9274C173.364 48.0178 172.917 49.1956 171.945 49.7906L170.153 50.8868C169.459 51.3111 168.935 51.9637 168.67 52.7325L167.986 54.7185C167.615 55.7965 166.561 56.4867 165.424 56.3964L163.33 56.23C162.52 56.1656 161.712 56.3854 161.046 56.8517L159.325 58.0563C158.391 58.7102 157.133 58.6492 156.266 57.9081L154.67 56.5427C154.052 56.0141 153.27 55.7172 152.457 55.7029L150.356 55.666C149.216 55.6459 148.234 54.8571 147.969 53.7482L147.48 51.7053C147.291 50.9145 146.832 50.2142 146.183 49.7248L144.505 48.4604C143.595 47.7741 143.264 46.5587 143.701 45.5056L144.507 43.5655C144.818 42.8146 144.859 41.9785 144.621 41.2009L144.007 39.192C143.674 38.1016 144.121 36.9238 145.094 36.3288L146.885 35.2326C147.579 34.8083 148.103 34.1557 148.368 33.3869L149.052 31.4009C149.424 30.3228 150.477 29.6327 151.614 29.723L153.708 29.8893C154.518 29.9538 155.326 29.7339 155.992 29.2676L157.713 28.063C158.647 27.4092 159.905 27.4702 160.772 28.2113Z" fill="#F2EFFF" stroke="#0D006A"/>
<path fillRule="evenodd" clipRule="evenodd" d="M148.459 44.6232C148.244 44.6695 148.067 44.7249 148.065 44.7463C148.063 44.7677 148.294 45.0449 148.579 45.3624C148.863 45.6798 149.516 46.6133 150.03 47.437C151.709 50.1293 152.671 50.991 154.411 51.364C155.136 51.5192 156.301 51.5128 156.943 51.3502C157.193 51.287 157.806 51.0616 158.306 50.8493C158.806 50.637 159.308 50.2131 159.696 49.9572C160.091 49.7199 160.807 49.6209 160.763 49.5888C160.562 49.4396 159.718 49.3578 159.06 49.4237C157.639 49.5662 156.33 50.2052 155.143 49.2966C154.919 49.1248 154.098 48.2306 153.319 47.3093C151.874 45.5995 151.424 45.187 150.611 44.8266C150.118 44.6079 149.014 44.5036 148.459 44.6232Z" fill="#FE0000"/>
<path fillRule="evenodd" clipRule="evenodd" d="M151.753 38.268C151.549 39.3274 151.534 41.406 151.723 42.2522C151.908 43.0826 152.342 44.119 152.801 44.8311C153.197 45.4453 154.039 46.2362 154.6 46.6879L155.555 47.2064L155.693 44.8468L155.831 42.4873L156.039 42.4974C156.44 42.5027 156.769 42.4751 156.771 42.4361C156.783 42.201 155.609 40.9172 154.332 39.7685C153.518 39.0358 152.662 38.2302 152.429 37.9781C152.197 37.7261 151.982 37.5188 151.952 37.5173C151.922 37.5159 151.833 37.8537 151.753 38.268Z" fill="#FE0000"/>
<path fillRule="evenodd" clipRule="evenodd" d="M159.246 35.0254C157.35 37.3847 156.633 39.5163 157.241 40.9893C157.348 41.2479 157.491 41.5103 157.558 41.5724C157.667 41.6722 157.677 41.6511 157.641 41.3909C157.59 41.0194 157.762 40.4619 158.044 40.0876C158.548 39.417 159.665 39.2132 160.409 39.656C161.041 40.0322 161.445 40.9811 161.25 41.6319C161.187 41.8413 161.194 41.8543 161.32 41.7598C161.398 41.7018 161.571 41.4532 161.706 41.2073C162.245 40.2254 162.13 38.7417 161.387 37.0715C161.074 36.3694 160.399 35.1962 159.967 34.6045L159.785 34.3555L159.246 35.0254Z" fill="#FE0000"/>
<path d="M159.382 41.6339L159.076 47.9327" stroke="#0D006A" strokeLinecap="square" strokeLinejoin="round"/>
<path d="M157.145 46.2325L159.074 48.3901L161.294 46.4337" stroke="#0D006A" strokeLinecap="square" strokeLinejoin="round"/>
<path d="M158.408 55.0185L161.687 53.0882L165.417 53.269L167.009 49.3919L169.542 47.6826" stroke="#0D006A" strokeLinecap="round" strokeLinejoin="round"/>
<path d="M131.092 68.7618L131.189 66.7642L129.192 66.6673L129.221 66.068L131.218 66.1649L131.315 64.1672L131.914 64.1963L131.818 66.1939L133.815 66.2908L133.786 66.8901L131.789 66.7932L131.692 68.7909L131.092 68.7618ZM135.174 69.9609L135.446 64.3674L134.446 64.9497L134.278 64.7113L135.894 63.388L136.393 63.4122L136.073 70.0045L135.174 69.9609ZM139.836 70.3871C138.238 70.3096 137.495 69.1056 137.608 66.775C137.721 64.4444 138.577 63.3178 140.175 63.3953C141.773 63.4728 142.516 64.6768 142.403 67.0074C142.29 69.338 141.434 70.4646 139.836 70.3871ZM139.855 69.9876C140.215 70.005 140.5 69.9087 140.71 69.6986C140.928 69.4889 141.087 69.1629 141.188 68.7206C141.297 68.272 141.369 67.6848 141.404 66.959C141.439 66.2332 141.424 65.6451 141.359 65.1948C141.301 64.7381 141.175 64.3949 140.979 64.1651C140.79 63.9357 140.515 63.8123 140.156 63.7948C139.796 63.7774 139.508 63.8736 139.291 64.0833C139.08 64.2933 138.921 64.6227 138.812 65.0713C138.711 65.5136 138.642 66.0976 138.607 66.8234C138.572 67.5492 138.583 68.1405 138.641 68.5971C138.706 69.0475 138.833 69.3874 139.022 69.6168C139.218 69.8465 139.496 69.9701 139.855 69.9876ZM145.669 70.6699C144.071 70.5924 143.328 69.3884 143.441 67.0578C143.554 64.7272 144.41 63.6006 146.008 63.6781C147.606 63.7555 148.349 64.9596 148.236 67.2902C148.123 69.6208 147.267 70.7473 145.669 70.6699ZM145.688 70.2703C146.048 70.2878 146.333 70.1914 146.543 69.9814C146.761 69.7716 146.92 69.4456 147.021 69.0034C147.13 68.5548 147.202 67.9676 147.237 67.2417C147.272 66.5159 147.257 65.9279 147.192 65.4775C147.134 65.0208 147.008 64.6776 146.812 64.4479C146.623 64.2185 146.348 64.095 145.989 64.0776C145.629 64.0602 145.341 64.1563 145.124 64.3661C144.913 64.5761 144.754 64.9054 144.645 65.354C144.544 65.7963 144.475 66.3804 144.44 67.1062C144.405 67.832 144.416 68.4232 144.474 68.8799C144.539 69.3302 144.666 69.6701 144.855 69.8996C145.051 70.1293 145.329 70.2529 145.688 70.2703ZM152.855 70.9181C152.289 70.8907 151.82 70.6009 151.446 70.0488L150.325 68.3926L150.213 70.6899L149.314 70.6463L149.576 65.2527C149.592 64.9131 149.558 64.6611 149.472 64.4968C149.387 64.3258 149.205 64.2335 148.925 64.2199L148.725 64.2103L148.735 64.0105L149.634 64.0541C149.88 64.066 150.062 64.1082 150.178 64.1806C150.302 64.2466 150.386 64.3642 150.432 64.5333C150.477 64.7023 150.491 64.9566 150.475 65.2962L150.332 68.2428L151.658 66.7052C151.841 66.5005 152.032 66.3496 152.231 66.2524C152.429 66.1485 152.682 66.104 152.988 66.1189L153.288 66.1334L153.275 66.3831C153.096 66.3744 152.921 66.4026 152.751 66.4678C152.581 66.533 152.432 66.6393 152.305 66.7866L151.138 68.1317L152.309 69.7903C152.49 70.0527 152.661 70.2512 152.821 70.3858C152.988 70.5207 153.171 70.6097 153.369 70.6526L153.36 70.8424C153.21 70.9019 153.042 70.9271 152.855 70.9181ZM156.961 65.6107C156.977 65.2711 156.943 65.0191 156.857 64.8548C156.772 64.6838 156.59 64.5915 156.31 64.5779L156.11 64.5682L156.12 64.3685L157.019 64.4121C157.265 64.424 157.447 64.4662 157.563 64.5386C157.687 64.6046 157.771 64.7222 157.817 64.8912C157.862 65.0603 157.876 65.3146 157.86 65.6542L157.598 71.0479L156.699 71.0043L156.961 65.6107ZM164.62 65.6415C164.581 66.4473 164.107 66.8548 163.199 66.8642L162.984 71.309L162.484 71.2848L162.154 70.8683L162.104 70.8659C161.958 70.9989 161.769 71.1099 161.537 71.1988C161.313 71.2814 161.061 71.3159 160.781 71.3023C160.282 71.2781 159.879 71.1251 159.572 70.8432C159.272 70.5617 159.138 70.088 159.171 69.4221L159.258 67.6242C159.274 67.2846 159.24 67.0327 159.154 66.8683C159.069 66.6973 158.887 66.6051 158.607 66.5915L158.507 66.5867L158.517 66.3869L159.316 66.4256C159.562 66.4376 159.744 66.4798 159.86 66.5522C159.984 66.6182 160.068 66.7358 160.114 66.9048C160.159 67.0739 160.173 67.3282 160.157 67.6678L160.07 69.4657C160.047 69.9318 160.134 70.2798 160.329 70.5095C160.532 70.7329 160.79 70.8522 161.103 70.8674C161.456 70.8845 161.797 70.7242 162.127 70.3864L162.312 66.5709L163.002 66.6043C163.334 66.6205 163.589 66.5293 163.766 66.331C163.942 66.1326 164.037 65.8936 164.051 65.614L164.62 65.6415ZM167.717 67.0432C168.04 67.2657 168.282 67.5711 168.444 67.9594C168.612 68.3413 168.685 68.7654 168.663 69.2315C168.641 69.6843 168.534 70.0929 168.343 70.4575C168.152 70.822 167.884 71.106 167.541 71.3096C167.197 71.5066 166.799 71.594 166.346 71.5721C165.894 71.5501 165.506 71.4246 165.183 71.1953C164.861 70.9595 164.622 70.6509 164.467 70.2696C164.312 69.8883 164.246 69.4713 164.268 69.0184C164.29 68.5656 164.396 68.157 164.587 67.7925C164.779 67.428 165.046 67.1473 165.389 66.9503C165.733 66.7467 166.131 66.6559 166.584 66.6778C166.837 66.6901 167.062 66.7344 167.258 66.8107C167.565 66.8055 167.8 66.7068 167.963 66.5144C168.126 66.3154 168.214 66.0828 168.227 65.8164L168.797 65.844C168.763 66.5365 168.403 66.9363 167.717 67.0432ZM166.366 71.1726C166.612 71.1845 166.833 71.1051 167.028 70.9344C167.23 70.7639 167.388 70.5247 167.503 70.2165C167.625 69.9087 167.695 69.5651 167.714 69.1855C167.732 68.8059 167.696 68.4571 167.604 68.139C167.519 67.8212 167.385 67.5677 167.201 67.3785C167.023 67.1897 166.811 67.0893 166.564 67.0774C166.318 67.0654 166.094 67.1447 165.892 67.3151C165.697 67.4859 165.538 67.7251 165.417 68.0329C165.302 68.3411 165.235 68.6849 165.217 69.0644C165.198 69.444 165.231 69.7927 165.316 70.1105C165.407 70.4286 165.542 70.6821 165.72 70.8709C165.904 71.0601 166.119 71.1606 166.366 71.1726ZM166.275 73.0404C166.155 73.0346 166.051 72.9828 165.962 72.885C165.88 72.7943 165.842 72.6856 165.848 72.5591C165.854 72.4393 165.902 72.3382 165.993 72.2558C166.09 72.1737 166.199 72.1356 166.319 72.1414C166.445 72.1476 166.547 72.1958 166.622 72.2863C166.705 72.377 166.743 72.4824 166.737 72.6022C166.731 72.7287 166.682 72.8332 166.592 72.9155C166.501 73.0046 166.395 73.0462 166.275 73.0404ZM171.104 71.8027C170.731 71.7846 170.443 71.6639 170.24 71.4405C170.037 71.2171 169.947 70.8856 169.968 70.4461L170.118 67.3498L169.419 67.3159L169.438 66.9163L170.137 66.9502L170.181 66.0513L170.71 65.4762L171.109 65.4956L171.036 66.9938L172.235 67.0519L172.216 67.4514L171.017 67.3933L170.867 70.4897C170.838 71.089 171.056 71.3999 171.523 71.4225C171.682 71.4303 171.816 71.4201 171.924 71.392C172.039 71.3642 172.158 71.3199 172.281 71.2591L172.372 71.4637C172.213 71.5695 172.038 71.6578 171.848 71.7287C171.658 71.7929 171.41 71.8176 171.104 71.8027ZM176.976 72.0874C176.603 72.0693 176.315 71.9485 176.112 71.7251C175.909 71.5017 175.819 71.1703 175.84 70.7308L175.99 67.6344L175.291 67.6005L175.31 67.201L176.009 67.2349L176.053 66.3359L176.582 65.7609L176.981 65.7802L176.908 67.2785L178.107 67.3366L178.088 67.7361L176.889 67.678L176.739 70.7744C176.71 71.3737 176.928 71.6846 177.395 71.7072C177.554 71.7149 177.688 71.7048 177.796 71.6766C177.911 71.6488 178.03 71.6045 178.153 71.5437L178.244 71.7484C178.085 71.8541 177.91 71.9425 177.72 72.0133C177.53 72.0775 177.282 72.1022 176.976 72.0874ZM180.081 72.2379C179.868 72.2276 179.654 72.1738 179.438 72.0766C179.223 71.9727 179.04 71.8137 178.89 71.5995C178.747 71.3857 178.684 71.1089 178.7 70.7693C178.725 70.2633 178.975 69.915 179.452 69.7245C179.935 69.5343 180.556 69.4576 181.315 69.4944L181.615 69.509C181.646 68.8564 181.578 68.4059 181.41 68.1575C181.242 67.909 180.988 67.7766 180.648 67.7601C180.349 67.7456 180.106 67.7972 179.92 67.915C179.734 68.0328 179.597 68.2464 179.509 68.5559L179.059 68.5341C179.07 68.3077 179.092 68.1319 179.125 68.0066C179.158 67.8747 179.234 67.7549 179.352 67.6472C179.478 67.5332 179.679 67.4561 179.954 67.4161C180.237 67.3697 180.541 67.3545 180.868 67.3703C181.407 67.3964 181.826 67.5636 182.125 67.8717C182.424 68.1732 182.553 68.7335 182.514 69.5525L182.383 72.2494L181.884 72.2252L181.556 71.7587L181.506 71.7563C181.379 71.9037 181.196 72.025 180.958 72.1202C180.719 72.2154 180.427 72.2547 180.081 72.2379ZM180.552 71.8102C180.772 71.8209 180.958 71.7765 181.109 71.677C181.261 71.5776 181.401 71.4375 181.53 71.2569L181.595 69.9085L181.296 69.894C180.803 69.8701 180.409 69.9444 180.114 70.117C179.819 70.2829 179.664 70.5157 179.649 70.8153C179.634 71.1216 179.713 71.3624 179.885 71.5376C180.063 71.7064 180.286 71.7973 180.552 71.8102ZM180.917 66.9622C180.93 66.8293 180.956 66.7171 180.994 66.6255C181.039 66.5276 181.097 66.4236 181.169 66.3136C181.205 66.2553 181.238 66.2002 181.267 66.1482C181.297 66.0895 181.313 66.0336 181.315 65.9803C181.32 65.8871 181.293 65.8124 181.236 65.7562C181.185 65.7004 181.107 65.6699 181 65.6647C180.867 65.6582 180.759 65.6897 180.675 65.7591C180.599 65.8288 180.539 65.956 180.497 66.1409L180.078 66.1105C180.09 65.8442 180.181 65.6383 180.348 65.4929C180.522 65.3478 180.745 65.2819 181.018 65.2951C181.238 65.3058 181.429 65.3651 181.59 65.473C181.759 65.5747 181.839 65.7187 181.83 65.9051C181.825 65.9917 181.802 66.0706 181.758 66.1419C181.715 66.2066 181.651 66.2836 181.567 66.3729C181.468 66.475 181.39 66.5713 181.332 66.6619C181.275 66.7459 181.24 66.851 181.227 66.9772L180.917 66.9622ZM184.562 67.0488C184.409 67.0413 184.279 66.9716 184.172 66.8396C184.071 66.7079 184.025 66.5555 184.034 66.3824C184.04 66.2426 184.086 66.1346 184.169 66.0586C184.26 65.9829 184.375 65.9484 184.515 65.9552C184.668 65.9626 184.795 66.0322 184.895 66.1639C185.002 66.2959 185.052 66.4484 185.043 66.6216C185.036 66.7614 184.988 66.8692 184.897 66.9449C184.814 67.0209 184.702 67.0555 184.562 67.0488ZM184.095 68.8283C184.112 68.4887 184.077 68.2367 183.992 68.0724C183.906 67.9014 183.724 67.8091 183.444 67.7955L183.245 67.7859L183.254 67.5861L184.153 67.6297C184.4 67.6416 184.581 67.6838 184.698 67.7562C184.821 67.8222 184.906 67.9398 184.951 68.1089C184.996 68.2779 185.011 68.5322 184.994 68.8718L184.825 72.3677L183.926 72.3242L184.095 68.8283Z" fill="#0D006A"/>
<g opacity="0.3" clip-path="url(#clip2_43_5139)">
<path d="M124.334 29.5446C124.44 29.1864 123.222 25.5119 122.6 23.7194L108.976 29.6328C111.127 33.1443 110.952 34.4805 111.879 34.5327C119.901 34.9846 124.2 29.9925 124.334 29.5446Z" fill="#C8E8F3"/>
<path d="M103.568 28.4991C103.977 26.9986 109.753 23.0881 112.59 21.3205C116.482 21.0663 124.31 20.5742 124.483 20.639C124.656 20.7038 124.577 21.3544 124.516 21.6716L116.271 28.5646L108.283 29.4156C106.541 29.7353 103.16 29.9996 103.568 28.4991Z" fill="#FDD8CE" fill-opacity="0.5"/>
<path d="M124.219 20.2501C123.818 20.1147 123.378 20.1558 122.962 20.1627C122.468 20.1739 121.974 20.1885 121.481 20.2064C120.445 20.2426 119.41 20.2912 118.377 20.3522C116.357 20.4718 114.614 20.6575 112.601 20.8706C112.532 20.8752 112.381 20.9265 112.297 20.9572C112.203 20.9919 112.155 21.0246 112.026 21.091C109.174 22.7229 106.571 24.7573 104.294 27.1326C103.829 27.6187 103.166 28.1855 103.219 28.9365C103.281 29.809 104.073 29.9152 104.771 29.9527C105.198 29.9746 105.625 29.9863 106.053 29.9904C106.146 30.3764 106.421 30.7581 106.592 31.085L107.469 32.7718C107.686 33.1862 108.374 32.939 108.155 32.5194L107.413 31.0923C107.3 30.876 107.187 30.66 107.075 30.4437C107.008 30.3158 106.889 30.1501 106.818 29.9883C107.434 29.9801 108.048 29.958 108.663 29.922C108.67 29.9543 108.681 29.9854 108.697 30.0147L109.998 32.5659C110.212 32.9836 110.421 33.4044 110.64 33.822C110.815 34.1602 111.01 34.4846 111.334 34.6965C111.966 35.1079 112.828 34.9917 113.536 34.9376C114.396 34.8706 115.25 34.7419 116.091 34.5525C117.744 34.1814 119.337 33.5836 120.826 32.7757C121.594 32.3604 122.332 31.8887 123.031 31.3644C123.604 30.9344 124.465 30.4117 124.639 29.6605C124.727 29.2659 124.617 28.8539 124.488 28.4797C124.317 27.9843 124.126 27.4961 123.949 27.0028L122.798 23.8511C122.795 23.8435 122.793 23.8366 122.79 23.829C122.927 23.7142 123.063 23.5981 123.197 23.4803C123.761 22.984 124.419 22.4439 124.828 21.8056C125.218 21.19 124.89 20.4756 124.219 20.2501ZM123.837 28.8394C123.951 29.1903 124 29.51 123.746 29.8054C123.492 30.1008 123.126 30.3595 122.81 30.6047C122.223 31.0596 121.608 31.4763 120.968 31.8524C119.638 32.6309 118.212 33.2313 116.726 33.6384C115.958 33.8495 115.175 34.0062 114.385 34.1077C113.693 34.1967 112.936 34.3088 112.238 34.2336C111.793 34.1861 111.551 33.9721 111.335 33.5849C111.104 33.1696 110.901 32.7362 110.684 32.3125C110.269 31.4981 109.854 30.6843 109.439 29.8711C109.638 29.857 109.836 29.8418 110.035 29.8253C111.8 29.6829 113.556 29.4455 115.295 29.1141C115.704 29.0366 116.148 28.987 116.53 28.8165C116.883 28.6574 117.143 28.3852 117.415 28.1167C118.009 27.5448 118.634 27.0079 119.289 26.5087C120.245 25.764 121.238 25.0663 122.189 24.315C122.743 25.8185 123.344 27.3158 123.837 28.8394ZM123.799 21.8779C123.53 22.1655 123.248 22.4422 122.956 22.7067C121.876 23.6846 120.687 24.5263 119.525 25.3994C118.943 25.8366 118.37 26.2815 117.815 26.7563C117.564 26.9721 117.318 27.1934 117.078 27.4202C116.812 27.6751 116.558 28.0006 116.212 28.149C115.866 28.2974 115.46 28.3346 115.094 28.4034C114.682 28.4804 114.269 28.5524 113.855 28.6194C113.071 28.7462 112.286 28.8533 111.501 28.9408C110.116 29.0994 108.724 29.1979 107.327 29.2365L107.698 28.9758C108.126 28.6785 108.557 28.3863 108.992 28.0994C110.706 26.9713 112.475 25.9316 114.294 24.9844C114.706 24.7701 114.456 24.0757 114.039 24.2927C111.993 25.3558 110.007 26.5327 108.091 27.8179C107.619 28.1346 107.151 28.4582 106.689 28.7886C106.496 28.9264 106.303 29.0722 106.174 29.2594C105.59 29.2685 105.006 29.2476 104.424 29.1968C104.276 29.1828 104.098 29.1811 104.004 29.0498C103.892 28.8931 103.966 28.6835 104.047 28.5321C104.207 28.2375 104.493 27.9885 104.721 27.7483C107.054 25.2937 109.741 23.2063 112.693 21.5555C115.776 21.2401 118.868 21.0313 121.969 20.9292C122.345 20.9168 122.721 20.9063 123.098 20.8976C123.407 20.8914 124.006 20.7901 124.219 21.096C124.4 21.3567 123.964 21.7059 123.799 21.8779Z" fill="#4E49D6"/>
<path d="M107.193 34.8953L107.281 34.9175L107.302 34.9794C107.278 34.997 107.155 35.0626 107.193 34.8953ZM107.193 34.8953L107.28 34.9152L107.228 34.765C107.216 34.8081 107.204 34.8516 107.193 34.8953ZM108.483 33.8499C108.428 34.0154 108.403 34.1883 108.407 34.361C108.248 34.2929 108.077 34.2568 107.903 34.2568L107.903 34.2568L107.894 34.2569C107.89 34.257 107.886 34.2571 107.882 34.2572C107.893 34.0673 107.866 33.8757 107.8 33.6945L107.8 33.6945L107.798 33.6896C107.776 33.6313 107.751 33.5764 107.724 33.5254C107.911 33.5065 108.081 33.4518 108.232 33.3615C108.303 33.3184 108.366 33.27 108.421 33.219C108.479 33.3058 108.548 33.3855 108.625 33.4565L108.625 33.4566C108.642 33.4727 108.66 33.4883 108.679 33.5034C108.605 33.5973 108.544 33.7014 108.497 33.8135L108.489 33.8314L108.483 33.8499Z" fill="#4E49D6" stroke="#4E49D6"/>
<path d="M107.065 34.7305L107.133 34.8365L107.134 34.8372L107.245 35.0107L107.245 35.0115L107.361 35.193C107.31 35.2089 107.259 35.2155 107.209 35.2059C107.037 35.1738 107.015 35.0034 107.047 34.8169C107.047 34.8166 107.047 34.8162 107.048 34.8159C107.052 34.7876 107.058 34.759 107.065 34.7305Z" fill="#4E49D6" stroke="#4E49D6"/>
</g>
<g opacity="0.3">
<path d="M190.032 20.9263L190.012 19.0505L191.014 17.449C191.132 17.2605 190.76 17.1623 190.657 17.1616C189.685 17.1667 189.236 17.175 189.046 17.1747C188.951 17.1864 188.855 17.1617 188.778 17.1058L187.382 16.2367C187.235 16.1486 186.741 16.1097 186.746 16.3892L186.763 17.3553C186.799 17.6605 186.809 17.9683 186.792 18.2752C186.644 18.5458 186.474 18.8041 186.285 19.0477L185.768 19.8645C185.652 20.0566 186.018 20.1531 186.125 20.1518L187.883 20.1392C188.073 20.2519 188.558 20.5502 189.389 21.083C189.539 21.169 190.041 21.1943 190.032 20.9263ZM188.186 19.7059C187.861 19.6586 187.531 19.6553 187.205 19.6961C187.024 19.6953 186.845 19.6983 186.667 19.7012L186.99 19.1831C187.194 18.9268 187.363 18.6447 187.494 18.3441C187.529 18.0367 187.528 17.7263 187.491 17.4192L187.475 16.9402C187.816 17.2021 188.185 17.4231 188.577 17.599C188.902 17.6462 189.232 17.6495 189.558 17.6087C189.739 17.6095 189.917 17.6066 190.096 17.6036L189.307 18.8714C189.281 18.8935 189.263 18.9223 189.253 18.9544C189.244 18.9865 189.244 19.0206 189.252 19.0529L189.264 20.3581C188.932 20.098 188.57 19.879 188.186 19.7059Z" fill="#F3633E"/>
<path d="M199.947 32.1498C199.819 32.0357 199.34 31.9044 199.294 32.1801L199.133 33.0406C199.104 33.362 199.048 33.6805 198.968 33.9926C198.779 34.2287 198.571 34.4486 198.344 34.6493C198.135 34.8807 197.924 35.1082 197.713 35.3356C197.562 35.4984 197.905 35.6661 198.005 35.6862C199.975 36.0404 199.482 35.9454 199.739 36.003C199.83 36.1024 199.704 35.9788 200.966 37.1525C201.094 37.2666 201.572 37.3979 201.619 37.1223L201.94 35.3205L203.192 33.9695C203.343 33.8066 203 33.6389 202.899 33.6189C200.954 33.27 201.414 33.3582 201.159 33.2819C201.088 33.2026 201.189 33.3034 199.947 32.1498ZM201.783 33.8849C201.955 33.9169 202.125 33.945 202.293 33.9784L201.304 35.0402C201.275 35.0576 201.251 35.0834 201.236 35.1136C201.22 35.1442 201.214 35.1786 201.218 35.2123L200.995 36.448C200.721 36.1366 200.41 35.8596 200.069 35.6235C199.768 35.5195 199.454 35.4554 199.136 35.4336C198.964 35.4015 198.793 35.3735 198.625 35.34L199.067 34.865C199.297 34.6741 199.502 34.4548 199.678 34.2124C199.765 33.9263 199.816 33.6303 199.831 33.3316L199.909 32.8933C200.19 33.1916 200.504 33.4564 200.845 33.6828C201.147 33.7926 201.462 33.8606 201.783 33.8849Z" fill="#F3633E"/>
<path d="M181.309 24.5314C181.239 24.8734 182.113 24.9542 182.212 24.5679L186.344 4.46517C186.413 4.12317 185.54 4.04234 185.438 4.42408L181.309 24.5314Z" fill="#0D128A"/>
<path d="M192.586 23.2213C192.13 23.5679 193.376 23.9567 193.797 23.633L201.133 18.0192C201.582 17.6747 200.345 17.29 199.916 17.6159L192.586 23.2213Z" fill="#0D128A"/>
<path d="M203.272 42.6041L185.014 32.9531C184.667 32.7704 183.875 33.0555 184.404 33.3291L202.662 42.9801C203.004 43.1646 203.797 42.8841 203.272 42.6041Z" fill="#0D128A"/>
<path d="M190.298 28.8223C193.792 28.5033 197.289 28.1783 200.791 27.8481C201.721 27.7612 201.753 26.8685 200.802 26.9577C197.311 27.2817 193.816 27.6051 190.317 27.9272C189.379 28.0188 189.347 28.9115 190.298 28.8223Z" fill="#0D128A"/>
</g>
<defs>
<clipPath id="clip0_43_5139">
<rect width="32" height="32" fill="white" transform="translate(48.5137 30.1356) rotate(-16.1979)"/>
</clipPath>
<clipPath id="clip1_43_5139">
<rect width="36" height="36" fill="white" transform="translate(119.928 84.7955) rotate(19.5506)"/>
</clipPath>
<clipPath id="clip2_43_5139">
<rect width="23.1966" height="14.3273" fill="white" transform="translate(101.639 24.7875) rotate(-20.2104)"/>
</clipPath>
</defs>
</svg>
