<svg width="519" height="270" viewBox="0 0 519 270" fill="none" xmlns="http://www.w3.org/2000/svg">
<path d="M148.342 20.5322C143.397 21.2608 141.089 13.3639 146.355 12.3501C151.847 11.7903 152.434 19.9294 148.342 20.5322Z" fill="white"/>
<path d="M166.71 4.00369C166.839 4.31658 166.899 4.65446 166.885 4.99193C166.871 5.3305 166.783 5.66179 166.628 5.96335C166.473 6.26381 166.254 6.52831 165.986 6.7354C165.719 6.9436 165.41 7.09114 165.08 7.16696C162.086 7.68731 160.223 2.65926 163.535 1.99009C164.215 1.91264 164.9 2.06995 165.478 2.4358C166.056 2.80277 166.49 3.3562 166.71 4.00369Z" fill="white"/>
<path d="M165.828 26.941C165.957 27.2528 166.017 27.5895 166.004 27.9269C165.99 28.2647 165.903 28.5953 165.749 28.896C165.595 29.1967 165.378 29.4603 165.112 29.6687C164.846 29.877 164.538 30.0251 164.209 30.1026C161.215 30.623 159.364 25.5933 162.676 24.9241C163.352 24.8494 164.034 25.0095 164.608 25.3759C165.181 25.7435 165.612 26.2953 165.828 26.941Z" fill="white"/>
<path d="M145.824 32.2895C146.036 32.8363 146.126 33.4229 146.087 34.0081C146.048 34.5931 145.881 35.1626 145.598 35.6763C145.315 36.1899 144.923 36.6354 144.449 36.9812C143.976 37.3271 143.432 37.5649 142.857 37.6779C137.711 38.4359 135.343 30.2081 140.832 29.1616C141.896 29.0308 142.974 29.2698 143.883 29.8394C144.792 30.4091 145.478 31.2745 145.824 32.2895Z" fill="white"/>
<path d="M135.971 34.0022C135.973 32.4758 136.519 31.0006 137.511 29.8404C138.503 28.6813 139.876 27.9137 141.384 27.6757C141.787 27.6447 142.191 27.6417 142.595 27.6673L144.201 21.2671C143.451 20.8259 142.821 20.2049 142.367 19.4616C141.914 18.7184 141.651 17.8745 141.602 17.0047C141.381 11.8934 148.4 8.38955 151.945 12.9204C152.112 12.7485 151.6 13.1185 160.607 6.80645C160.152 5.9648 160.011 4.9885 160.209 4.05177C160.408 3.11616 160.932 2.2809 161.689 1.69577C164.595 -0.805707 168.455 1.01625 168.515 4.19115C168.584 7.58002 164.203 10.2195 161.375 7.71299C152.194 14.1526 152.836 13.7408 152.532 13.8309C152.881 14.5579 153.061 15.3551 153.058 16.1622C153.056 16.9693 152.87 17.7647 152.516 18.4899C155.52 20.3734 158.535 22.2485 161.559 24.1143C162.149 23.7531 162.813 23.5274 163.501 23.4543C164.018 23.4088 164.538 23.4693 165.03 23.6313C165.522 23.7933 165.976 24.055 166.364 24.3979C166.752 24.7418 167.065 25.1612 167.286 25.6307C167.506 26.099 167.628 26.609 167.645 27.1265C167.61 28.222 167.193 29.2708 166.465 30.0901C165.737 30.9096 164.744 31.4478 163.661 31.6111C162.885 31.7391 162.088 31.6261 161.379 31.2874C160.669 30.9487 160.08 30.4006 159.692 29.7169C159.304 29.033 159.134 28.2467 159.207 27.4645C159.279 26.6811 159.589 25.9386 160.097 25.3381L151.478 19.9798C150.762 20.807 149.83 21.4201 148.787 21.7495C147.743 22.0788 146.629 22.1127 145.567 21.8476L144.031 27.9542C145.065 28.2924 145.972 28.9372 146.631 29.8044C147.288 30.6705 147.667 31.7175 147.714 32.8047C147.728 34.3353 147.188 35.8194 146.193 36.9824C145.198 38.1456 143.816 38.9088 142.301 39.1311C141.544 39.2423 140.771 39.1952 140.033 38.9926C139.294 38.7902 138.606 38.4368 138.011 37.9547C137.416 37.4728 136.928 36.8727 136.577 36.1924C136.226 35.512 136.019 34.7663 135.971 34.0022ZM165.079 7.16734C165.407 7.08945 165.716 6.94208 165.981 6.73297C166.247 6.52497 166.465 6.26179 166.619 5.9604C166.773 5.66012 166.86 5.32898 166.873 4.9916C166.887 4.65423 166.827 4.3175 166.698 4.00571C166.481 3.35899 166.048 2.80523 165.472 2.43799C164.897 2.07187 164.212 1.91322 163.534 1.99048C160.245 2.65638 162.096 7.68606 165.079 7.16734ZM165.817 26.9427C165.6 26.297 165.17 25.7453 164.596 25.3777C164.023 25.0112 163.341 24.8522 162.664 24.9259C159.364 25.5934 161.237 30.6198 164.198 30.1044C164.528 30.0282 164.837 29.8811 165.105 29.6732C165.372 29.4652 165.591 29.2017 165.746 28.9005C165.901 28.5995 165.989 28.2682 166.003 27.9293C166.017 27.5919 165.957 27.254 165.828 26.9411L165.817 26.9427ZM146.355 12.3504C141.088 13.3642 143.394 21.25 148.342 20.5325C152.434 19.9296 151.847 11.7906 146.355 12.3504ZM145.825 32.2899C145.478 31.2748 144.793 30.4093 143.884 29.8397C142.975 29.2711 141.897 29.0311 140.832 29.1619C135.322 30.2116 137.673 38.4761 142.857 37.6783C143.433 37.5653 143.977 37.3275 144.45 36.9816C144.924 36.6358 145.316 36.1903 145.599 35.6766C145.882 35.163 146.049 34.5935 146.088 34.0083C146.127 33.4233 146.037 32.8367 145.825 32.2899Z" fill="#4E49D6"/>
<path d="M184.248 67.1811L183.528 66.6531L185.736 67.1811V68.4531H179.472V67.1811L181.512 66.6531L181.416 67.0851L176.808 60.2691L177.528 60.7491H174.072L174.48 60.2451V67.1571L174.12 66.6051L176.4 67.1811V68.4531H170.064V67.1811L172.344 66.6531L172.032 67.1571V52.9971L172.32 53.4771L170.064 53.0451V51.7731L176.4 51.6531V52.9011L174.144 53.5011L174.48 52.9251V59.3811L174.072 58.9491H177.624L176.952 59.3811L180.768 53.0211L180.984 53.4051L178.776 53.0451V51.7731L184.824 51.6531V52.9251L182.592 53.5011L183.168 53.0451L178.824 60.0531V59.3811L184.248 67.1811ZM186.574 68.4531V67.1811L188.71 66.6771L188.374 67.0851V51.3891L188.71 51.8211L186.574 51.3171V50.0451L190.774 49.8771V57.9651L190.246 57.8451C191.014 57.0451 191.83 56.4531 192.694 56.0691C193.574 55.6851 194.406 55.4931 195.19 55.4931C195.894 55.4931 196.526 55.6451 197.086 55.9491C197.662 56.2371 198.11 56.6771 198.43 57.2691C198.75 57.8451 198.902 58.5891 198.886 59.5011V67.0851L198.622 66.7011L200.686 67.1811V68.4531H194.806V67.1811L196.798 66.7011L196.486 67.1091V60.0291C196.502 59.1011 196.294 58.4211 195.862 57.9891C195.446 57.5571 194.894 57.3411 194.206 57.3411C193.678 57.3411 193.094 57.4931 192.454 57.7971C191.814 58.0851 191.19 58.5411 190.582 59.1651L190.774 58.7091V67.1091L190.51 66.7251L192.454 67.1811V68.4531H186.574ZM208.103 55.4931C209.895 55.4931 211.303 56.0531 212.327 57.1731C213.351 58.2771 213.863 59.8451 213.863 61.8771C213.863 63.2531 213.615 64.4531 213.119 65.4771C212.623 66.5011 211.911 67.2931 210.983 67.8531C210.071 68.4131 208.967 68.6931 207.671 68.6931C205.895 68.6931 204.511 68.1491 203.519 67.0611C202.527 65.9571 202.031 64.3891 202.031 62.3571C202.031 60.9331 202.271 59.7091 202.751 58.6851C203.231 57.6611 203.919 56.8771 204.815 56.3331C205.727 55.7731 206.823 55.4931 208.103 55.4931ZM207.983 57.2451C206.847 57.2451 205.983 57.6771 205.391 58.5411C204.815 59.3891 204.527 60.6211 204.527 62.2371C204.527 63.8211 204.807 65.0051 205.367 65.7891C205.927 66.5571 206.743 66.9411 207.815 66.9411C208.599 66.9411 209.247 66.7491 209.759 66.3651C210.287 65.9811 210.679 65.4211 210.935 64.6851C211.207 63.9331 211.343 63.0371 211.343 61.9971C211.343 60.4131 211.055 59.2291 210.479 58.4451C209.903 57.6451 209.071 57.2451 207.983 57.2451ZM224.724 68.6931C223.796 68.6931 223.076 68.4131 222.564 67.8531C222.068 67.2771 221.82 66.4211 221.82 65.2851V57.0291L222.156 57.3651H219.756V56.0691L222.204 55.6371L221.82 56.0931V52.9011L224.22 52.4931V56.0931L223.932 55.7331H227.652L227.58 57.3651H223.932L224.22 57.0291V64.9491C224.22 65.6211 224.34 66.1091 224.58 66.4131C224.836 66.7171 225.204 66.8691 225.684 66.8691C225.956 66.8691 226.252 66.8291 226.572 66.7491C226.908 66.6531 227.268 66.5171 227.652 66.3411L228.132 67.7091C226.916 68.3651 225.78 68.6931 224.724 68.6931ZM239.226 67.1571L238.866 66.6531L241.026 67.1571V68.4291L237.378 68.5971L237.042 66.2931L237.234 66.3651C236.546 67.1491 235.802 67.7331 235.002 68.1171C234.202 68.5011 233.426 68.6931 232.674 68.6931C231.746 68.6931 230.946 68.3891 230.274 67.7811C229.618 67.1731 229.29 66.2611 229.29 65.0451C229.29 64.1171 229.49 63.3971 229.89 62.8851C230.29 62.3571 230.85 61.9811 231.57 61.7571C232.29 61.5331 233.138 61.4211 234.114 61.4211H237.042L236.826 61.6851V59.6211C236.826 58.7891 236.61 58.1971 236.178 57.8451C235.746 57.4771 235.146 57.2931 234.378 57.2931C233.978 57.2931 233.554 57.3331 233.106 57.4131C232.674 57.4931 232.202 57.6211 231.69 57.7971L232.026 57.4611L231.762 59.5971H230.178L229.986 56.4051C230.962 56.1011 231.858 55.8771 232.674 55.7331C233.506 55.5731 234.274 55.4931 234.978 55.4931C236.322 55.4931 237.362 55.7891 238.098 56.3811C238.85 56.9731 239.226 57.9091 239.226 59.1891V67.1571ZM231.714 64.8771C231.714 65.5651 231.882 66.0771 232.218 66.4131C232.554 66.7331 232.978 66.8931 233.49 66.8931C234.002 66.8931 234.562 66.7331 235.17 66.4131C235.794 66.0771 236.394 65.6371 236.97 65.0931L236.826 65.6931V62.7171L237.042 62.9571H234.498C233.442 62.9571 232.714 63.1171 232.314 63.4371C231.914 63.7571 231.714 64.2371 231.714 64.8771ZM233.13 48.8691L237.642 52.4451L236.73 53.6931L231.81 50.5971L233.13 48.8691ZM246.469 66.9891L246.253 66.7011L248.269 67.1811V68.4531H242.293V67.1811L244.309 66.7011L244.069 66.9891V57.3171L244.285 57.5331L242.293 57.0771V55.8051L246.469 55.6611V66.9891ZM245.149 53.3091C244.717 53.3091 244.357 53.1731 244.069 52.9011C243.797 52.6291 243.661 52.2451 243.661 51.7491C243.661 51.2371 243.805 50.8531 244.093 50.5971C244.381 50.3251 244.741 50.1891 245.173 50.1891C245.621 50.1891 245.981 50.3251 246.253 50.5971C246.541 50.8531 246.685 51.2371 246.685 51.7491C246.685 52.2611 246.533 52.6531 246.229 52.9251C245.941 53.1811 245.581 53.3091 245.149 53.3091ZM258.11 66.9891L257.894 66.7011L259.886 67.1811V68.4531H253.91V67.1811L255.926 66.7011L255.71 66.9891V51.5571L255.902 51.7731L253.91 51.3171V50.0451L258.11 49.8771V66.9891ZM265.43 66.9891L265.214 66.7011L267.23 67.1811V68.4531H261.254V67.1811L263.27 66.7011L263.03 66.9891V57.3171L263.246 57.5331L261.254 57.0771V55.8051L265.43 55.6611V66.9891ZM264.11 53.3091C263.678 53.3091 263.318 53.1731 263.03 52.9011C262.758 52.6291 262.622 52.2451 262.622 51.7491C262.622 51.2371 262.766 50.8531 263.054 50.5971C263.342 50.3251 263.702 50.1891 264.134 50.1891C264.582 50.1891 264.942 50.3251 265.214 50.5971C265.502 50.8531 265.646 51.2371 265.646 51.7491C265.646 52.2611 265.494 52.6531 265.19 52.9251C264.902 53.1811 264.542 53.3091 264.11 53.3091ZM274.35 68.6931C273.246 68.6931 272.27 68.4531 271.422 67.9731C270.59 67.4771 269.934 66.7571 269.454 65.8131C268.99 64.8531 268.758 63.6851 268.758 62.3091C268.758 60.9011 268.998 59.6931 269.478 58.6851C269.974 57.6611 270.67 56.8771 271.566 56.3331C272.478 55.7731 273.542 55.4931 274.758 55.4931C275.926 55.4931 276.878 55.7331 277.614 56.2131C278.366 56.6931 278.918 57.3571 279.27 58.2051C279.638 59.0371 279.822 59.9891 279.822 61.0611C279.822 61.2691 279.814 61.4771 279.798 61.6851C279.782 61.8931 279.758 62.1331 279.726 62.4051H270.63V60.7491H277.566L277.35 60.8931C277.366 60.2371 277.286 59.6371 277.11 59.0931C276.934 58.5491 276.638 58.1171 276.222 57.7971C275.806 57.4611 275.254 57.2931 274.566 57.2931C273.814 57.2931 273.19 57.5011 272.694 57.9171C272.198 58.3171 271.83 58.8691 271.59 59.5731C271.35 60.2771 271.23 61.0851 271.23 61.9971C271.23 62.9731 271.366 63.8291 271.638 64.5651C271.91 65.2851 272.318 65.8531 272.862 66.2691C273.422 66.6691 274.11 66.8691 274.926 66.8691C275.502 66.8691 276.126 66.7571 276.798 66.5331C277.486 66.3091 278.19 65.9731 278.91 65.5251L279.75 66.8451C278.854 67.4691 277.942 67.9331 277.014 68.2371C276.102 68.5411 275.214 68.6931 274.35 68.6931ZM271.302 53.4531L270.462 52.5171L273.798 49.3251L275.19 49.2051L278.694 52.5171L277.83 53.4531L273.702 50.5011L275.334 50.5251L271.302 53.4531ZM274.278 73.1331C273.846 73.1331 273.486 72.9971 273.198 72.7251C272.926 72.4531 272.79 72.0691 272.79 71.5731C272.79 71.0611 272.934 70.6691 273.222 70.3971C273.51 70.1411 273.87 70.0131 274.302 70.0131C274.75 70.0131 275.11 70.1411 275.382 70.3971C275.67 70.6691 275.814 71.0611 275.814 71.5731C275.814 72.0851 275.662 72.4691 275.358 72.7251C275.07 72.9971 274.71 73.1331 274.278 73.1331ZM286.706 68.6931C285.65 68.6931 284.77 68.3571 284.066 67.6851C283.378 67.0131 283.034 65.9891 283.034 64.6131V57.1731L283.298 57.5571L281.234 57.0771V55.8051L285.434 55.6611V64.2051C285.434 65.1011 285.634 65.7651 286.034 66.1971C286.45 66.6291 287.002 66.8451 287.69 66.8451C288.234 66.8451 288.818 66.7011 289.442 66.4131C290.082 66.1091 290.706 65.6531 291.314 65.0451L291.146 65.5251V57.1251L291.41 57.5571L289.346 57.0771V55.8051L293.546 55.6371V67.0851L293.21 66.6771L295.322 67.1571V68.4291L291.674 68.5971L291.338 66.2211L291.674 66.3411C290.89 67.1411 290.058 67.7331 289.178 68.1171C288.314 68.5011 287.49 68.6931 286.706 68.6931Z" fill="#FE0000"/>
<path d="M67.3397 98.0931H62.7957C60.4064 98.0931 58.5717 98.6905 57.2917 99.8851C56.0544 101.08 55.4357 103.042 55.4357 105.773H53.5157V100.333C53.5157 96.9198 55.329 95.2131 58.9557 95.2131H89.0357V98.0931H75.6597V137.453H67.3397V98.0931ZM96.9842 103.533C96.9842 101.357 96.6855 99.7571 96.0882 98.7331C95.4909 97.6665 94.2962 97.1331 92.5042 97.1331H91.8642V95.2131H99.5442C101.08 95.2131 102.254 95.4691 103.064 95.9811C103.875 96.4931 104.451 97.3465 104.792 98.5411C105.134 99.6931 105.304 101.357 105.304 103.533V114.093H122.584V95.2131H130.904V129.133C130.904 131.309 131.203 132.93 131.8 133.997C132.398 135.021 133.592 135.533 135.384 135.533H136.024V137.453H128.344C126.808 137.453 125.635 137.218 124.824 136.749C124.014 136.237 123.438 135.405 123.096 134.253C122.755 133.058 122.584 131.352 122.584 129.133V116.973H105.304V137.453H96.9842V103.533ZM178.759 137.709C176.071 137.709 173.639 137.154 171.463 136.045C169.287 134.893 167.516 132.674 166.151 129.389L164.679 125.805H147.655L142.407 137.453H139.079L157.959 95.2131H160.839L175.175 129.389C176.796 133.357 179.015 135.49 181.831 135.789V137.389C181.063 137.602 180.039 137.709 178.759 137.709ZM148.999 122.925H163.463L156.423 106.221L148.999 122.925ZM159.303 93.2931C157.255 93.2931 155.441 92.7598 153.863 91.6931C152.284 90.5838 151.089 89.1118 150.279 87.2771L152.071 85.9331C152.796 86.8291 153.756 87.5971 154.951 88.2371C156.188 88.8345 157.639 89.1331 159.303 89.1331C160.967 89.1331 162.396 88.8345 163.591 88.2371C164.828 87.5971 165.809 86.8291 166.535 85.9331L168.327 87.2771C167.516 89.1118 166.321 90.5838 164.743 91.6931C163.164 92.7598 161.351 93.2931 159.303 93.2931ZM157.319 83.0531L160.007 74.0931H167.623L160.839 83.0531H157.319ZM187.684 103.533C187.684 101.357 187.386 99.7571 186.788 98.7331C186.191 97.6665 184.996 97.1331 183.204 97.1331H182.564V95.2131H200.164C204.559 95.2131 208.527 96.0878 212.068 97.8371C215.652 99.5438 217.444 102.957 217.444 108.077C217.444 111.405 216.506 113.986 214.628 115.821C212.794 117.656 210.724 118.872 208.42 119.469C206.116 120.066 204.004 120.365 202.084 120.365H196.004V137.453H187.684V103.533ZM199.844 117.805C202.362 117.805 204.431 117.037 206.052 115.501C207.674 113.965 208.484 111.384 208.484 107.757C208.484 104.173 207.674 101.613 206.052 100.077C204.474 98.5411 202.511 97.7731 200.164 97.7731C198.927 97.7731 197.967 97.8585 197.284 98.0291L196.004 98.2211V117.805H199.844ZM255.214 138.541C252.824 138.541 250.52 138.221 248.302 137.581C246.083 136.984 244.27 136.109 242.862 134.957C241.454 133.762 240.75 132.397 240.75 130.861V123.373H242.542C243.182 127.725 244.526 130.861 246.574 132.781C248.622 134.701 251.48 135.661 255.15 135.661C257.624 135.661 259.587 135.128 261.038 134.061C262.488 132.994 263.214 131.458 263.214 129.453C263.214 127.746 262.68 126.296 261.614 125.101C260.547 123.906 258.883 122.605 256.622 121.197L248.75 116.461C245.891 114.797 243.843 113.069 242.606 111.277C241.411 109.485 240.814 107.394 240.814 105.005C240.814 101.634 242.094 98.9678 244.654 97.0051C247.256 95.0425 250.755 94.0611 255.15 94.0611C257.539 94.0611 259.843 94.3811 262.062 95.0211C264.28 95.6185 266.094 96.5145 267.502 97.7091C268.91 98.8611 269.614 100.205 269.614 101.741V109.229H267.822C267.096 104.877 265.752 101.741 263.79 99.8211C261.827 97.9011 259.182 96.9411 255.854 96.9411C253.55 96.9411 251.715 97.4958 250.35 98.6051C249.027 99.7145 248.366 101.229 248.366 103.149C248.366 104.813 248.878 106.2 249.902 107.309C250.968 108.376 252.675 109.592 255.022 110.957L262.894 115.629C265.88 117.378 268.014 119.085 269.294 120.749C270.616 122.37 271.278 124.333 271.278 126.637C271.278 130.349 269.87 133.272 267.054 135.405C264.28 137.496 260.334 138.541 255.214 138.541ZM315.409 137.709C312.721 137.709 310.289 137.154 308.113 136.045C305.937 134.893 304.166 132.674 302.801 129.389L301.329 125.805H284.305L279.057 137.453H275.729L294.609 95.2131H297.489L311.825 129.389C313.446 133.357 315.665 135.49 318.481 135.789V137.389C317.713 137.602 316.689 137.709 315.409 137.709ZM285.649 122.925H300.113L293.073 106.221L285.649 122.925ZM294.481 92.6531L297.169 83.6931H304.785L298.001 92.6531H294.481ZM327.726 105.773V137.453H324.526V102.893C324.526 101.101 324.078 99.6931 323.182 98.6691C322.329 97.6451 320.857 97.1331 318.766 97.1331H318.446V95.2131H322.926C325.316 95.2131 327.257 95.5331 328.75 96.1731C330.286 96.7705 331.566 97.7305 332.59 99.0531L354.606 124.653V95.2131H357.806V137.645H354.862L327.726 105.773ZM389.447 138.733C385.095 138.733 381.148 137.73 377.607 135.725C374.108 133.677 371.356 130.904 369.351 127.405C367.388 123.864 366.407 119.96 366.407 115.693C366.407 111.597 367.281 107.906 369.031 104.621C370.78 101.293 373.255 98.6905 376.455 96.8131C379.697 94.8931 383.388 93.9331 387.527 93.9331C391.281 93.9331 394.481 94.4238 397.127 95.4051C399.772 96.3865 401.735 97.6238 403.015 99.1171C403.74 100.056 404.188 101.25 404.359 102.701C404.572 104.152 404.679 105.922 404.679 108.013H402.759C401.948 104.13 400.455 101.293 398.279 99.5011C396.145 97.7091 393.201 96.8131 389.447 96.8131C384.668 96.8131 381.127 98.6051 378.823 102.189C376.519 105.773 375.367 110.274 375.367 115.693C375.367 122.989 376.625 128.237 379.143 131.437C381.703 134.594 385.137 136.173 389.447 136.173C392.775 136.173 395.655 135.618 398.087 134.509V123.117C398.087 120.856 398.94 119 400.647 117.549C402.353 116.056 405.639 115.309 410.503 115.309V116.909C407.772 116.909 406.407 118.936 406.407 122.989V134.445C403.975 135.938 401.372 137.026 398.599 137.709C395.825 138.392 392.775 138.733 389.447 138.733ZM67.3397 166.093H62.7957C60.4064 166.093 58.5717 166.69 57.2917 167.885C56.0544 169.08 55.4357 171.042 55.4357 173.773H53.5157V168.333C53.5157 164.92 55.329 163.213 58.9557 163.213H89.0357V166.093H75.6597V205.453H67.3397V166.093ZM139.8 156.621C139.8 158.712 139.032 160.653 137.496 162.445C136.003 164.237 133.848 165.368 131.032 165.837V187.021C131.032 193.293 129.71 198.05 127.064 201.293C124.419 204.493 120.088 206.093 114.072 206.093C102.552 206.093 96.7922 199.736 96.7922 187.021V171.533C96.7922 169.357 96.4935 167.757 95.8962 166.733C95.2989 165.666 94.1042 165.133 92.3122 165.133V163.213H99.3522C100.888 163.213 102.062 163.469 102.872 163.981C103.683 164.493 104.259 165.346 104.6 166.541C104.942 167.693 105.112 169.357 105.112 171.533L105.176 188.941C105.219 193.464 106.094 196.984 107.8 199.501C109.55 201.976 112.067 203.213 115.352 203.213C119.704 203.213 122.862 201.933 124.824 199.373C126.83 196.77 127.832 192.653 127.832 187.021V163.213H129.304C131.096 162.957 132.44 162.21 133.336 160.973C134.232 159.693 134.68 158.242 134.68 156.621H139.8ZM172.142 165.325C175.086 167.288 177.368 169.933 178.99 173.261C180.654 176.589 181.486 180.28 181.486 184.333C181.486 188.514 180.611 192.312 178.862 195.725C177.112 199.138 174.638 201.826 171.438 203.789C168.238 205.752 164.568 206.733 160.43 206.733C156.291 206.733 152.6 205.752 149.358 203.789C146.158 201.826 143.683 199.138 141.934 195.725C140.184 192.312 139.31 188.514 139.31 184.333C139.31 180.152 140.184 176.354 141.934 172.941C143.683 169.528 146.158 166.84 149.358 164.877C152.6 162.914 156.291 161.933 160.43 161.933C163.203 161.933 165.742 162.381 168.046 163.277C169.966 163.106 171.395 162.381 172.334 161.101C173.272 159.778 173.742 158.285 173.742 156.621H178.862C178.862 158.456 178.286 160.184 177.134 161.805C175.982 163.426 174.318 164.6 172.142 165.325ZM160.43 203.853C164.312 203.853 167.32 202.168 169.454 198.797C171.587 195.384 172.654 190.562 172.654 184.333C172.654 178.104 171.587 173.304 169.454 169.933C167.32 166.52 164.312 164.813 160.43 164.813C156.547 164.813 153.539 166.52 151.406 169.933C149.315 173.304 148.27 178.104 148.27 184.333C148.27 190.562 149.315 195.384 151.406 198.797C153.539 202.168 156.547 203.853 160.43 203.853ZM194.951 173.773V205.453H191.751V170.893C191.751 169.101 191.303 167.693 190.407 166.669C189.554 165.645 188.082 165.133 185.991 165.133H185.671V163.213H190.151C192.541 163.213 194.482 163.533 195.975 164.173C197.511 164.77 198.791 165.73 199.815 167.053L221.831 192.653V163.213H225.031V205.645H222.087L194.951 173.773ZM256.672 206.733C252.32 206.733 248.373 205.73 244.832 203.725C241.333 201.677 238.581 198.904 236.576 195.405C234.613 191.864 233.632 187.96 233.632 183.693C233.632 179.597 234.506 175.906 236.256 172.621C238.005 169.293 240.48 166.69 243.68 164.813C246.922 162.893 250.613 161.933 254.752 161.933C258.506 161.933 261.706 162.424 264.352 163.405C266.997 164.386 268.96 165.624 270.24 167.117C270.965 168.056 271.413 169.25 271.584 170.701C271.797 172.152 271.904 173.922 271.904 176.013H269.984C269.173 172.13 267.68 169.293 265.504 167.501C263.37 165.709 260.426 164.813 256.672 164.813C251.893 164.813 248.352 166.605 246.048 170.189C243.744 173.773 242.592 178.274 242.592 183.693C242.592 190.989 243.85 196.237 246.368 199.437C248.928 202.594 252.362 204.173 256.672 204.173C260 204.173 262.88 203.618 265.312 202.509V191.117C265.312 188.856 266.165 187 267.872 185.549C269.578 184.056 272.864 183.309 277.728 183.309V184.909C274.997 184.909 273.632 186.936 273.632 190.989V202.445C271.2 203.938 268.597 205.026 265.824 205.709C263.05 206.392 260 206.733 256.672 206.733ZM303.672 171.533C303.672 169.357 303.373 167.757 302.776 166.733C302.178 165.666 300.984 165.133 299.192 165.133H298.552V163.213H306.232C307.768 163.213 308.941 163.469 309.752 163.981C310.562 164.493 311.138 165.346 311.48 166.541C311.821 167.693 311.992 169.357 311.992 171.533V202.573H334.072V205.453H303.672V171.533ZM375.884 205.709C373.196 205.709 370.764 205.154 368.588 204.045C366.412 202.893 364.641 200.674 363.276 197.389L361.804 193.805H344.78L339.532 205.453H336.204L355.084 163.213H357.964L372.3 197.389C373.921 201.357 376.14 203.49 378.956 203.789V205.389C378.188 205.602 377.164 205.709 375.884 205.709ZM346.124 190.925H360.588L353.548 174.221L346.124 190.925ZM389.545 205.453C388.009 205.453 386.836 205.218 386.025 204.749C385.215 204.237 384.639 203.405 384.297 202.253C383.956 201.058 383.785 199.352 383.785 197.133V163.213H392.105V197.133C392.105 199.309 392.404 200.93 393.001 201.997C393.599 203.021 394.793 203.533 396.585 203.533H397.225V205.453H389.545Z" fill="#0D006A"/>
<path d="M17.0755 241.453V240.765L18.9315 240.429L18.6755 240.781V231.021L18.9635 231.261H15.8755L16.1955 230.989L15.8755 233.021H15.0755V230.285H23.5715V233.021H22.7715L22.4515 231.021L22.7715 231.261H19.6835L19.9715 231.021V240.781L19.7315 240.429L21.5715 240.765V241.453H17.0755ZM24.6931 241.453V240.765L26.1491 240.445L25.9571 240.685V229.965L26.1491 230.221L24.6931 229.901V229.213L27.2371 229.101V234.509L26.9491 234.445C27.4718 233.901 28.0211 233.501 28.5971 233.245C29.1838 232.989 29.7384 232.861 30.2611 232.861C30.7304 232.861 31.1518 232.957 31.5251 233.149C31.8984 233.341 32.1864 233.634 32.3891 234.029C32.6024 234.413 32.7091 234.904 32.7091 235.501V240.685L32.5491 240.461L33.9571 240.765V241.453H30.2291V240.765L31.6051 240.461L31.4291 240.701V235.789C31.4398 235.128 31.2904 234.642 30.9811 234.333C30.6718 234.024 30.2664 233.869 29.7651 233.869C29.3811 233.869 28.9544 233.976 28.4851 234.189C28.0158 234.402 27.5624 234.738 27.1251 235.197L27.2371 234.925V240.701L27.0771 240.477L28.4371 240.765V241.453H24.6931ZM41.815 240.733L41.607 240.445L43.079 240.733V241.437L40.839 241.533L40.647 239.997L40.759 240.045C40.2896 240.557 39.783 240.946 39.239 241.213C38.695 241.469 38.167 241.597 37.655 241.597C37.0363 241.597 36.5136 241.4 36.087 241.005C35.6603 240.61 35.447 240.013 35.447 239.213C35.447 238.584 35.5803 238.104 35.847 237.773C36.1136 237.432 36.4816 237.192 36.951 237.053C37.4203 236.914 37.9643 236.845 38.583 236.845H40.679L40.535 237.005V235.469C40.535 234.882 40.3803 234.466 40.071 234.221C39.7616 233.965 39.335 233.837 38.791 233.837C38.503 233.837 38.1936 233.869 37.863 233.933C37.543 233.986 37.2016 234.077 36.839 234.205L37.031 233.997L36.871 235.453H36.023L35.895 233.469C36.503 233.266 37.0736 233.117 37.607 233.021C38.1403 232.914 38.631 232.861 39.079 232.861C39.9323 232.861 40.599 233.053 41.079 233.437C41.5696 233.81 41.815 234.413 41.815 235.245V240.733ZM36.743 239.101C36.743 239.624 36.8656 240.008 37.111 240.253C37.367 240.498 37.687 240.621 38.071 240.621C38.4443 240.621 38.855 240.509 39.303 240.285C39.7616 240.05 40.2043 239.736 40.631 239.341L40.535 239.677V237.533L40.679 237.677H38.775C38.0176 237.677 37.4896 237.794 37.191 238.029C36.8923 238.253 36.743 238.61 36.743 239.101ZM52.085 234.461L51.909 234.493C52.4316 233.949 52.9863 233.544 53.573 233.277C54.1596 233 54.709 232.861 55.221 232.861C55.8716 232.861 56.4156 233.08 56.853 233.517C57.301 233.944 57.525 234.605 57.525 235.501V240.685L57.365 240.461L58.773 240.765V241.453H55.061V240.765L56.421 240.461L56.245 240.701V235.789C56.245 235.128 56.101 234.642 55.813 234.333C55.5356 234.024 55.173 233.869 54.725 233.869C54.341 233.869 53.9143 233.981 53.445 234.205C52.9863 234.429 52.533 234.77 52.085 235.229L52.197 234.925C52.2076 235.021 52.213 235.112 52.213 235.197C52.2236 235.282 52.229 235.368 52.229 235.453V240.685L52.069 240.461L53.397 240.765V241.453H49.781V240.765L51.141 240.461L50.949 240.701V235.789C50.949 235.128 50.805 234.642 50.517 234.333C50.2396 234.024 49.877 233.869 49.429 233.869C49.045 233.869 48.6236 233.976 48.165 234.189C47.7063 234.402 47.253 234.733 46.805 235.181L46.917 234.941V240.701L46.757 240.477L48.085 240.765V241.453H44.389V240.765L45.829 240.445L45.637 240.685V233.805L45.829 234.045L44.389 233.741V233.053L46.629 232.941L46.805 234.509L46.629 234.445C47.1516 233.901 47.701 233.501 48.277 233.245C48.8636 232.989 49.4183 232.861 49.941 232.861C50.4316 232.861 50.869 232.994 51.253 233.261C51.637 233.517 51.9143 233.917 52.085 234.461ZM67.2737 245.277C66.0257 245.277 65.0924 245.096 64.4737 244.733C63.855 244.37 63.5457 243.848 63.5457 243.165C63.5457 242.685 63.7057 242.258 64.0257 241.885C64.3457 241.512 64.815 241.186 65.4337 240.909L65.4497 241.165C65.1084 241.144 64.847 241.074 64.6657 240.957C64.4844 240.829 64.3937 240.653 64.3937 240.429C64.3937 240.344 64.4044 240.258 64.4257 240.173C64.447 240.088 64.4844 239.97 64.5377 239.821C64.6017 239.661 64.6924 239.453 64.8097 239.197C64.9377 238.93 65.0977 238.584 65.2897 238.157L65.3217 238.381C64.863 238.136 64.511 237.805 64.2657 237.389C64.0204 236.962 63.8977 236.461 63.8977 235.885C63.8977 234.957 64.2017 234.221 64.8097 233.677C65.4284 233.133 66.2764 232.861 67.3537 232.861C68.079 232.861 68.703 232.989 69.2257 233.245L68.8737 233.165L71.3857 233.053L71.4017 233.821L69.9137 234.109L70.0257 233.917C70.2497 234.13 70.4204 234.392 70.5377 234.701C70.655 235.01 70.7137 235.362 70.7137 235.757C70.7137 236.696 70.399 237.437 69.7697 237.981C69.1404 238.525 68.303 238.797 67.2577 238.797C66.6604 238.797 66.111 238.696 65.6097 238.493L65.8977 238.349L65.4817 240.445L65.2097 240.285H68.3457C69.3697 240.285 70.1484 240.488 70.6817 240.893C71.215 241.288 71.4817 241.858 71.4817 242.605C71.4817 243.469 71.1244 244.13 70.4097 244.589C69.7057 245.048 68.6604 245.277 67.2737 245.277ZM67.3857 244.301C68.3564 244.301 69.0764 244.168 69.5457 243.901C70.015 243.634 70.2497 243.234 70.2497 242.701C70.2497 242.232 70.0737 241.874 69.7217 241.629C69.3697 241.394 68.8417 241.277 68.1377 241.277H65.5937L65.9617 241.197C65.1084 241.73 64.6817 242.306 64.6817 242.925C64.6817 243.384 64.9004 243.725 65.3377 243.949C65.7857 244.184 66.4684 244.301 67.3857 244.301ZM67.2577 237.901C67.9404 237.901 68.4737 237.72 68.8577 237.357C69.2417 236.984 69.4337 236.461 69.4337 235.789C69.4337 235.117 69.2524 234.61 68.8897 234.269C68.527 233.928 68.0097 233.757 67.3377 233.757C66.655 233.757 66.127 233.938 65.7537 234.301C65.3804 234.653 65.1937 235.17 65.1937 235.853C65.1937 236.514 65.3697 237.021 65.7217 237.373C66.0844 237.725 66.5964 237.901 67.2577 237.901ZM75.3201 240.637L75.1761 240.461L76.5681 240.765V241.453H72.7921V240.765L74.1841 240.461L74.0401 240.637V233.885L74.1681 234.029L72.7921 233.741V233.053L75.3201 232.957V240.637ZM74.5841 231.229C74.3388 231.229 74.1361 231.149 73.9761 230.989C73.8161 230.829 73.7361 230.61 73.7361 230.333C73.7361 230.045 73.8161 229.826 73.9761 229.677C74.1468 229.517 74.3548 229.437 74.6001 229.437C74.8561 229.437 75.0641 229.512 75.2241 229.661C75.3841 229.81 75.4641 230.034 75.4641 230.333C75.4641 230.621 75.3788 230.845 75.2081 231.005C75.0374 231.154 74.8294 231.229 74.5841 231.229ZM84.3306 240.733L84.1226 240.445L85.5946 240.733V241.437L83.3546 241.533L83.1626 239.997L83.2746 240.045C82.8053 240.557 82.2986 240.946 81.7546 241.213C81.2106 241.469 80.6826 241.597 80.1706 241.597C79.5519 241.597 79.0293 241.4 78.6026 241.005C78.1759 240.61 77.9626 240.013 77.9626 239.213C77.9626 238.584 78.0959 238.104 78.3626 237.773C78.6293 237.432 78.9973 237.192 79.4666 237.053C79.9359 236.914 80.4799 236.845 81.0986 236.845H83.1946L83.0506 237.005V235.469C83.0506 234.882 82.8959 234.466 82.5866 234.221C82.2773 233.965 81.8506 233.837 81.3066 233.837C81.0186 233.837 80.7093 233.869 80.3786 233.933C80.0586 233.986 79.7173 234.077 79.3546 234.205L79.5466 233.997L79.3866 235.453H78.5386L78.4106 233.469C79.0186 233.266 79.5893 233.117 80.1226 233.021C80.6559 232.914 81.1466 232.861 81.5946 232.861C82.4479 232.861 83.1146 233.053 83.5946 233.437C84.0853 233.81 84.3306 234.413 84.3306 235.245V240.733ZM79.2586 239.101C79.2586 239.624 79.3813 240.008 79.6266 240.253C79.8826 240.498 80.2026 240.621 80.5866 240.621C80.9599 240.621 81.3706 240.509 81.8186 240.285C82.2773 240.05 82.7199 239.736 83.1466 239.341L83.0506 239.677V237.533L83.1946 237.677H81.2906C80.5333 237.677 80.0053 237.794 79.7066 238.029C79.4079 238.253 79.2586 238.61 79.2586 239.101ZM90.5077 241.453V240.765L91.9477 240.445L91.7557 240.685V233.805L91.9477 234.045L90.5077 233.741V233.053L92.7477 232.941L92.9237 234.509L92.7477 234.445C93.281 233.901 93.8357 233.501 94.4117 233.245C94.9984 232.989 95.553 232.861 96.0757 232.861C96.7797 232.861 97.361 233.08 97.8197 233.517C98.289 233.944 98.5184 234.61 98.5077 235.517V240.685L98.3477 240.461L99.7557 240.765V241.453H96.0277V240.765L97.4197 240.461L97.2277 240.701V235.789C97.2277 235.128 97.0784 234.642 96.7797 234.333C96.481 234.024 96.081 233.869 95.5797 233.869C95.185 233.869 94.753 233.976 94.2837 234.189C93.825 234.402 93.3717 234.733 92.9237 235.181L93.0357 234.925V240.701L92.8757 240.477L94.2357 240.765V241.453H90.5077ZM104.649 245.277C103.401 245.277 102.467 245.096 101.849 244.733C101.23 244.37 100.921 243.848 100.921 243.165C100.921 242.685 101.081 242.258 101.401 241.885C101.721 241.512 102.19 241.186 102.809 240.909L102.825 241.165C102.483 241.144 102.222 241.074 102.041 240.957C101.859 240.829 101.769 240.653 101.769 240.429C101.769 240.344 101.779 240.258 101.801 240.173C101.822 240.088 101.859 239.97 101.913 239.821C101.977 239.661 102.067 239.453 102.185 239.197C102.313 238.93 102.473 238.584 102.665 238.157L102.697 238.381C102.238 238.136 101.886 237.805 101.641 237.389C101.395 236.962 101.273 236.461 101.273 235.885C101.273 234.957 101.577 234.221 102.185 233.677C102.803 233.133 103.651 232.861 104.729 232.861C105.454 232.861 106.078 232.989 106.601 233.245L106.249 233.165L108.761 233.053L108.777 233.821L107.289 234.109L107.401 233.917C107.625 234.13 107.795 234.392 107.913 234.701C108.03 235.01 108.089 235.362 108.089 235.757C108.089 236.696 107.774 237.437 107.145 237.981C106.515 238.525 105.678 238.797 104.633 238.797C104.035 238.797 103.486 238.696 102.985 238.493L103.273 238.349L102.857 240.445L102.585 240.285H105.721C106.745 240.285 107.523 240.488 108.057 240.893C108.59 241.288 108.857 241.858 108.857 242.605C108.857 243.469 108.499 244.13 107.785 244.589C107.081 245.048 106.035 245.277 104.649 245.277ZM104.761 244.301C105.731 244.301 106.451 244.168 106.921 243.901C107.39 243.634 107.625 243.234 107.625 242.701C107.625 242.232 107.449 241.874 107.097 241.629C106.745 241.394 106.217 241.277 105.513 241.277H102.969L103.337 241.197C102.483 241.73 102.057 242.306 102.057 242.925C102.057 243.384 102.275 243.725 102.713 243.949C103.161 244.184 103.843 244.301 104.761 244.301ZM104.633 237.901C105.315 237.901 105.849 237.72 106.233 237.357C106.617 236.984 106.809 236.461 106.809 235.789C106.809 235.117 106.627 234.61 106.265 234.269C105.902 233.928 105.385 233.757 104.713 233.757C104.03 233.757 103.502 233.938 103.129 234.301C102.755 234.653 102.569 235.17 102.569 235.853C102.569 236.514 102.745 237.021 103.097 237.373C103.459 237.725 103.971 237.901 104.633 237.901ZM116.759 240.733L116.551 240.445L118.023 240.733V241.437L115.783 241.533L115.591 239.997L115.703 240.045C115.233 240.557 114.727 240.946 114.183 241.213C113.639 241.469 113.111 241.597 112.599 241.597C111.98 241.597 111.457 241.4 111.031 241.005C110.604 240.61 110.391 240.013 110.391 239.213C110.391 238.584 110.524 238.104 110.791 237.773C111.057 237.432 111.425 237.192 111.895 237.053C112.364 236.914 112.908 236.845 113.527 236.845H115.623L115.479 237.005V235.469C115.479 234.882 115.324 234.466 115.015 234.221C114.705 233.965 114.279 233.837 113.735 233.837C113.447 233.837 113.137 233.869 112.807 233.933C112.487 233.986 112.145 234.077 111.783 234.205L111.975 233.997L111.815 235.453H110.967L110.839 233.469C111.447 233.266 112.017 233.117 112.551 233.021C113.084 232.914 113.575 232.861 114.023 232.861C114.876 232.861 115.543 233.053 116.023 233.437C116.513 233.81 116.759 234.413 116.759 235.245V240.733ZM111.687 239.101C111.687 239.624 111.809 240.008 112.055 240.253C112.311 240.498 112.631 240.621 113.015 240.621C113.388 240.621 113.799 240.509 114.247 240.285C114.705 240.05 115.148 239.736 115.575 239.341L115.479 239.677V237.533L115.623 237.677H113.719C112.961 237.677 112.433 237.794 112.135 238.029C111.836 238.253 111.687 238.61 111.687 239.101ZM118.48 245.197L118.592 244.253C118.72 244.274 118.838 244.29 118.944 244.301C119.062 244.312 119.168 244.317 119.264 244.317C119.787 244.317 120.208 244.194 120.528 243.949C120.859 243.714 121.136 243.357 121.36 242.877C121.584 242.397 121.814 241.8 122.048 241.085L122 241.565L119.008 233.773L119.184 233.917L118.144 233.741V233.053L121.648 232.941V233.645L120.208 233.885L120.304 233.741L122.688 240.541L122.4 240.477L124.688 233.773L124.784 233.917L123.376 233.741V233.053L126.768 232.941V233.645L125.648 233.901L125.872 233.757L123.056 241.485C122.864 242.018 122.662 242.514 122.448 242.973C122.246 243.432 122.011 243.832 121.744 244.173C121.478 244.525 121.152 244.797 120.768 244.989C120.384 245.181 119.92 245.277 119.376 245.277C119.131 245.277 118.832 245.25 118.48 245.197ZM135.864 233.053L139.208 232.941V233.645L138.12 233.965L138.344 233.725L135.56 241.485H134.056L131.512 233.757L131.736 233.965L130.632 233.741V233.053L134.152 232.941V233.645L132.696 233.917L132.824 233.725L134.968 240.669H134.84L137.16 233.773L137.256 233.917L135.864 233.741V233.053ZM143.638 241.597C142.507 241.597 141.611 241.24 140.95 240.525C140.299 239.8 139.974 238.765 139.974 237.421C139.974 236.482 140.128 235.672 140.438 234.989C140.758 234.306 141.211 233.784 141.798 233.421C142.395 233.048 143.11 232.861 143.942 232.861C145.104 232.861 146.016 233.229 146.678 233.965C147.35 234.701 147.686 235.736 147.686 237.069C147.686 237.986 147.526 238.786 147.206 239.469C146.886 240.141 146.422 240.664 145.814 241.037C145.216 241.41 144.491 241.597 143.638 241.597ZM143.734 240.653C144.299 240.653 144.774 240.514 145.158 240.237C145.552 239.949 145.846 239.544 146.038 239.021C146.24 238.498 146.342 237.869 146.342 237.133C146.342 236.056 146.123 235.234 145.686 234.669C145.259 234.093 144.651 233.805 143.862 233.805C143.04 233.805 142.411 234.114 141.974 234.733C141.536 235.352 141.318 236.221 141.318 237.341C141.318 238.44 141.526 239.266 141.942 239.821C142.358 240.376 142.955 240.653 143.734 240.653ZM145.494 233.773L145.142 233.085C145.75 233.074 146.192 232.989 146.47 232.829C146.758 232.658 146.902 232.392 146.902 232.029C146.902 231.88 146.88 231.714 146.838 231.533C146.806 231.352 146.752 231.16 146.678 230.957L147.654 230.717C147.771 230.984 147.851 231.229 147.894 231.453C147.947 231.677 147.974 231.89 147.974 232.093C147.974 232.637 147.76 233.053 147.334 233.341C146.918 233.618 146.304 233.762 145.494 233.773ZM142.774 231.533L142.31 230.877L145.222 228.589L145.942 229.565L142.774 231.533ZM151.992 240.637L151.848 240.461L153.24 240.765V241.453H149.464V240.765L150.856 240.461L150.712 240.637V233.885L150.84 234.029L149.464 233.741V233.053L151.992 232.957V240.637ZM151.256 231.229C151.011 231.229 150.808 231.149 150.648 230.989C150.488 230.829 150.408 230.61 150.408 230.333C150.408 230.045 150.488 229.826 150.648 229.677C150.819 229.517 151.027 229.437 151.272 229.437C151.528 229.437 151.736 229.512 151.896 229.661C152.056 229.81 152.136 230.034 152.136 230.333C152.136 230.621 152.051 230.845 151.88 231.005C151.709 231.154 151.501 231.229 151.256 231.229ZM161.977 241.597C161.294 241.597 160.675 241.432 160.121 241.101C159.577 240.76 159.145 240.269 158.825 239.629C158.515 238.989 158.361 238.221 158.361 237.325C158.361 236.546 158.467 235.88 158.681 235.325C158.905 234.76 159.203 234.296 159.577 233.933C159.95 233.57 160.377 233.304 160.857 233.133C161.347 232.952 161.854 232.861 162.377 232.861C162.803 232.861 163.257 232.92 163.737 233.037C164.227 233.154 164.654 233.314 165.017 233.517L164.953 235.517H164.089L163.881 234.013L164.009 234.157C163.742 234.029 163.459 233.938 163.161 233.885C162.862 233.832 162.595 233.805 162.361 233.805C161.806 233.805 161.326 233.949 160.921 234.237C160.526 234.514 160.222 234.909 160.009 235.421C159.795 235.933 159.689 236.541 159.689 237.245C159.689 237.97 159.801 238.584 160.025 239.085C160.249 239.586 160.553 239.965 160.937 240.221C161.331 240.477 161.774 240.605 162.265 240.605C162.649 240.605 163.054 240.525 163.481 240.365C163.907 240.205 164.35 239.965 164.809 239.645L165.257 240.349C164.702 240.776 164.147 241.09 163.593 241.293C163.038 241.496 162.499 241.597 161.977 241.597ZM166.315 241.453V240.765L167.771 240.445L167.579 240.685V229.965L167.771 230.221L166.315 229.901V229.213L168.859 229.101V234.509L168.571 234.445C169.094 233.901 169.643 233.501 170.219 233.245C170.806 232.989 171.36 232.861 171.883 232.861C172.352 232.861 172.774 232.957 173.147 233.149C173.52 233.341 173.808 233.634 174.011 234.029C174.224 234.413 174.331 234.904 174.331 235.501V240.685L174.171 240.461L175.579 240.765V241.453H171.851V240.765L173.227 240.461L173.051 240.701V235.789C173.062 235.128 172.912 234.642 172.603 234.333C172.294 234.024 171.888 233.869 171.387 233.869C171.003 233.869 170.576 233.976 170.107 234.189C169.638 234.402 169.184 234.738 168.747 235.197L168.859 234.925V240.701L168.699 240.477L170.059 240.765V241.453H166.315ZM180.205 241.597C179.501 241.597 178.92 241.378 178.461 240.941C178.002 240.504 177.773 239.832 177.773 238.925V233.821L177.933 234.045L176.509 233.741V233.053L179.053 232.957V238.701C179.053 239.341 179.202 239.816 179.501 240.125C179.8 240.434 180.2 240.589 180.701 240.589C181.096 240.589 181.522 240.482 181.981 240.269C182.44 240.056 182.893 239.725 183.341 239.277L183.245 239.565V233.789L183.405 234.045L181.981 233.741V233.053L184.525 232.941V240.669L184.333 240.461L185.773 240.733V241.437L183.533 241.533L183.341 239.949L183.517 240.013C182.994 240.557 182.44 240.957 181.853 241.213C181.277 241.469 180.728 241.597 180.205 241.597ZM180.093 231.533L179.629 230.877L182.541 228.589L183.261 229.565L180.093 231.533ZM187.183 241.453V240.765L188.623 240.445L188.431 240.685V233.805L188.623 234.045L187.183 233.741V233.053L189.423 232.941L189.599 234.509L189.423 234.445C189.956 233.901 190.511 233.501 191.087 233.245C191.673 232.989 192.228 232.861 192.751 232.861C193.455 232.861 194.036 233.08 194.495 233.517C194.964 233.944 195.193 234.61 195.183 235.517V240.685L195.023 240.461L196.431 240.765V241.453H192.703V240.765L194.095 240.461L193.903 240.701V235.789C193.903 235.128 193.753 234.642 193.455 234.333C193.156 234.024 192.756 233.869 192.255 233.869C191.86 233.869 191.428 233.976 190.959 234.189C190.5 234.402 190.047 234.733 189.599 235.181L189.711 234.925V240.701L189.551 240.477L190.911 240.765V241.453H187.183ZM201.324 245.277C200.076 245.277 199.142 245.096 198.524 244.733C197.905 244.37 197.596 243.848 197.596 243.165C197.596 242.685 197.756 242.258 198.076 241.885C198.396 241.512 198.865 241.186 199.484 240.909L199.5 241.165C199.158 241.144 198.897 241.074 198.716 240.957C198.534 240.829 198.444 240.653 198.444 240.429C198.444 240.344 198.454 240.258 198.476 240.173C198.497 240.088 198.534 239.97 198.588 239.821C198.652 239.661 198.742 239.453 198.86 239.197C198.988 238.93 199.148 238.584 199.34 238.157L199.372 238.381C198.913 238.136 198.561 237.805 198.316 237.389C198.07 236.962 197.948 236.461 197.948 235.885C197.948 234.957 198.252 234.221 198.86 233.677C199.478 233.133 200.326 232.861 201.404 232.861C202.129 232.861 202.753 232.989 203.276 233.245L202.924 233.165L205.436 233.053L205.452 233.821L203.964 234.109L204.076 233.917C204.3 234.13 204.47 234.392 204.588 234.701C204.705 235.01 204.764 235.362 204.764 235.757C204.764 236.696 204.449 237.437 203.82 237.981C203.19 238.525 202.353 238.797 201.308 238.797C200.71 238.797 200.161 238.696 199.66 238.493L199.948 238.349L199.532 240.445L199.26 240.285H202.396C203.42 240.285 204.198 240.488 204.732 240.893C205.265 241.288 205.532 241.858 205.532 242.605C205.532 243.469 205.174 244.13 204.46 244.589C203.756 245.048 202.71 245.277 201.324 245.277ZM201.436 244.301C202.406 244.301 203.126 244.168 203.596 243.901C204.065 243.634 204.3 243.234 204.3 242.701C204.3 242.232 204.124 241.874 203.772 241.629C203.42 241.394 202.892 241.277 202.188 241.277H199.644L200.012 241.197C199.158 241.73 198.732 242.306 198.732 242.925C198.732 243.384 198.95 243.725 199.388 243.949C199.836 244.184 200.518 244.301 201.436 244.301ZM201.308 237.901C201.99 237.901 202.524 237.72 202.908 237.357C203.292 236.984 203.484 236.461 203.484 235.789C203.484 235.117 203.302 234.61 202.94 234.269C202.577 233.928 202.06 233.757 201.388 233.757C200.705 233.757 200.177 233.938 199.804 234.301C199.43 234.653 199.244 235.17 199.244 235.853C199.244 236.514 199.42 237.021 199.772 237.373C200.134 237.725 200.646 237.901 201.308 237.901ZM213.48 241.597C212.926 241.597 212.488 241.426 212.168 241.085C211.848 240.733 211.688 240.205 211.688 239.501V233.693L211.896 233.901H210.248V233.197L211.912 232.957L211.688 233.213V231.101L212.968 230.893V233.213L212.792 233.005H215.304L215.256 233.901H212.792L212.968 233.693V239.325C212.968 239.773 213.054 240.098 213.224 240.301C213.406 240.504 213.656 240.605 213.976 240.605C214.168 240.605 214.376 240.573 214.6 240.509C214.824 240.445 215.064 240.354 215.32 240.237L215.592 240.973C214.835 241.389 214.131 241.597 213.48 241.597ZM220.738 232.861C221.911 232.861 222.829 233.229 223.49 233.965C224.162 234.701 224.498 235.741 224.498 237.085C224.498 237.992 224.333 238.786 224.002 239.469C223.682 240.141 223.223 240.664 222.626 241.037C222.029 241.41 221.309 241.597 220.466 241.597C219.314 241.597 218.413 241.24 217.762 240.525C217.111 239.8 216.786 238.76 216.786 237.405C216.786 236.466 216.941 235.661 217.25 234.989C217.57 234.306 218.023 233.784 218.61 233.421C219.207 233.048 219.917 232.861 220.738 232.861ZM220.674 233.805C219.853 233.805 219.223 234.114 218.786 234.733C218.349 235.352 218.13 236.221 218.13 237.341C218.13 238.44 218.338 239.266 218.754 239.821C219.17 240.376 219.767 240.653 220.546 240.653C221.111 240.653 221.586 240.514 221.97 240.237C222.365 239.949 222.658 239.544 222.85 239.021C223.053 238.498 223.154 237.874 223.154 237.149C223.154 236.061 222.935 235.234 222.498 234.669C222.071 234.093 221.463 233.805 220.674 233.805ZM218.514 231.405L218.05 230.877L220.226 228.829L220.978 228.765L223.25 230.877L222.786 231.405L220.194 229.517L221.042 229.533L218.514 231.405ZM228.773 240.637L228.629 240.461L230.021 240.765V241.453H226.245V240.765L227.637 240.461L227.493 240.637V233.885L227.621 234.029L226.245 233.741V233.053L228.773 232.957V240.637ZM228.037 231.229C227.792 231.229 227.589 231.149 227.429 230.989C227.269 230.829 227.189 230.61 227.189 230.333C227.189 230.045 227.269 229.826 227.429 229.677C227.6 229.517 227.808 229.437 228.053 229.437C228.309 229.437 228.517 229.512 228.677 229.661C228.837 229.81 228.917 230.034 228.917 230.333C228.917 230.621 228.832 230.845 228.661 231.005C228.491 231.154 228.283 231.229 228.037 231.229ZM237.91 231.085H243.494V231.853H237.91V231.085ZM238.326 241.597C237.739 241.597 237.206 241.437 236.726 241.117C236.246 240.786 235.867 240.306 235.59 239.677C235.313 239.048 235.174 238.285 235.174 237.389C235.174 235.917 235.547 234.813 236.294 234.077C237.041 233.33 238.07 232.957 239.382 232.957C239.67 232.957 239.969 232.978 240.278 233.021C240.598 233.053 240.918 233.112 241.238 233.197L240.982 233.357V230.013L241.126 230.173L239.654 229.869V229.229L242.262 229.117V240.685L242.07 240.461L243.51 240.749V241.437L241.27 241.549L241.078 240.173L241.238 240.237C240.758 240.696 240.273 241.037 239.782 241.261C239.302 241.485 238.817 241.597 238.326 241.597ZM238.774 240.621C239.147 240.621 239.531 240.525 239.926 240.333C240.331 240.141 240.737 239.848 241.142 239.453L240.982 239.885V233.901L241.158 234.205C240.497 234.002 239.894 233.901 239.35 233.901C238.433 233.901 237.729 234.189 237.238 234.765C236.747 235.341 236.502 236.178 236.502 237.277C236.502 237.97 236.598 238.568 236.79 239.069C236.993 239.57 237.265 239.954 237.606 240.221C237.958 240.488 238.347 240.621 238.774 240.621ZM248.722 241.597C248.007 241.597 247.373 241.437 246.818 241.117C246.274 240.786 245.847 240.306 245.538 239.677C245.229 239.048 245.074 238.28 245.074 237.373C245.074 236.445 245.234 235.645 245.554 234.973C245.874 234.301 246.327 233.784 246.914 233.421C247.501 233.048 248.189 232.861 248.978 232.861C249.725 232.861 250.338 233.021 250.818 233.341C251.309 233.65 251.671 234.082 251.906 234.637C252.151 235.192 252.274 235.826 252.274 236.541C252.274 236.658 252.269 236.776 252.258 236.893C252.247 237.01 252.231 237.154 252.21 237.325H246.05V236.413H251.09L250.946 236.509C250.957 236.029 250.898 235.586 250.77 235.181C250.642 234.776 250.423 234.45 250.114 234.205C249.805 233.96 249.394 233.837 248.882 233.837C248.338 233.837 247.879 233.981 247.506 234.269C247.133 234.557 246.855 234.952 246.674 235.453C246.493 235.954 246.402 236.536 246.402 237.197C246.402 237.901 246.503 238.509 246.706 239.021C246.909 239.522 247.202 239.912 247.586 240.189C247.981 240.466 248.461 240.605 249.026 240.605C249.421 240.605 249.853 240.53 250.322 240.381C250.791 240.221 251.277 239.981 251.778 239.661L252.242 240.381C251.645 240.786 251.047 241.09 250.45 241.293C249.853 241.496 249.277 241.597 248.722 241.597ZM250.594 230.333V229.357C250.967 229.336 251.255 229.266 251.458 229.149C251.661 229.032 251.762 228.85 251.762 228.605C251.762 228.381 251.682 228.226 251.522 228.141C251.373 228.045 251.186 227.997 250.962 227.997C250.823 227.997 250.674 228.008 250.514 228.029C250.354 228.05 250.194 228.088 250.034 228.141L249.858 227.517C250.061 227.432 250.274 227.368 250.498 227.325C250.722 227.282 250.935 227.261 251.138 227.261C251.586 227.261 251.965 227.362 252.274 227.565C252.594 227.768 252.754 228.093 252.754 228.541C252.754 228.872 252.647 229.149 252.434 229.373C252.221 229.597 251.895 229.746 251.458 229.821V230.333H250.594ZM246.802 232.205L246.338 231.677L248.514 229.629L249.266 229.565L251.538 231.677L251.074 232.205L248.482 230.317L249.33 230.333L246.802 232.205ZM261.427 241.597C260.744 241.597 260.125 241.432 259.571 241.101C259.027 240.76 258.595 240.269 258.275 239.629C257.965 238.989 257.811 238.221 257.811 237.325C257.811 236.546 257.917 235.88 258.131 235.325C258.355 234.76 258.653 234.296 259.027 233.933C259.4 233.57 259.827 233.304 260.307 233.133C260.797 232.952 261.304 232.861 261.827 232.861C262.253 232.861 262.707 232.92 263.187 233.037C263.677 233.154 264.104 233.314 264.467 233.517L264.403 235.517H263.539L263.331 234.013L263.459 234.157C263.192 234.029 262.909 233.938 262.611 233.885C262.312 233.832 262.045 233.805 261.811 233.805C261.256 233.805 260.776 233.949 260.371 234.237C259.976 234.514 259.672 234.909 259.459 235.421C259.245 235.933 259.139 236.541 259.139 237.245C259.139 237.97 259.251 238.584 259.475 239.085C259.699 239.586 260.003 239.965 260.387 240.221C260.781 240.477 261.224 240.605 261.715 240.605C262.099 240.605 262.504 240.525 262.931 240.365C263.357 240.205 263.8 239.965 264.259 239.645L264.707 240.349C264.152 240.776 263.597 241.09 263.043 241.293C262.488 241.496 261.949 241.597 261.427 241.597ZM270.101 232.861C271.274 232.861 272.191 233.229 272.853 233.965C273.525 234.701 273.861 235.741 273.861 237.085C273.861 237.992 273.695 238.786 273.365 239.469C273.045 240.141 272.586 240.664 271.989 241.037C271.391 241.41 270.671 241.597 269.829 241.597C268.677 241.597 267.775 241.24 267.125 240.525C266.474 239.8 266.149 238.76 266.149 237.405C266.149 236.466 266.303 235.661 266.613 234.989C266.933 234.306 267.386 233.784 267.973 233.421C268.57 233.048 269.279 232.861 270.101 232.861ZM270.037 233.805C269.215 233.805 268.586 234.114 268.149 234.733C267.711 235.352 267.493 236.221 267.493 237.341C267.493 238.44 267.701 239.266 268.117 239.821C268.533 240.376 269.13 240.653 269.909 240.653C270.474 240.653 270.949 240.514 271.333 240.237C271.727 239.949 272.021 239.544 272.213 239.021C272.415 238.498 272.517 237.874 272.517 237.149C272.517 236.061 272.298 235.234 271.861 234.669C271.434 234.093 270.826 233.805 270.037 233.805ZM269.045 231.533L268.581 230.877L271.493 228.589L272.213 229.565L269.045 231.533ZM282.043 241.597C281.488 241.597 281.051 241.426 280.731 241.085C280.411 240.733 280.251 240.205 280.251 239.501V233.693L280.459 233.901H278.811V233.197L280.475 232.957L280.251 233.213V231.101L281.531 230.893V233.213L281.355 233.005H283.867L283.819 233.901H281.355L281.531 233.693V239.325C281.531 239.773 281.616 240.098 281.787 240.301C281.968 240.504 282.219 240.605 282.539 240.605C282.731 240.605 282.939 240.573 283.163 240.509C283.387 240.445 283.627 240.354 283.883 240.237L284.155 240.973C283.398 241.389 282.694 241.597 282.043 241.597ZM285.408 241.453V240.765L286.816 240.461L286.656 240.701V233.805L286.832 234.045L285.408 233.741V233.053L287.648 232.941L287.824 234.509L287.648 234.445C288.128 233.944 288.597 233.554 289.056 233.277C289.514 233 290.016 232.861 290.56 232.861C290.901 232.861 291.258 232.914 291.632 233.021L291.536 235.357H290.736L290.544 233.677L290.688 233.965C290.613 233.944 290.533 233.928 290.448 233.917C290.362 233.906 290.277 233.901 290.192 233.901C289.765 233.901 289.349 234.029 288.944 234.285C288.549 234.541 288.17 234.872 287.808 235.277L287.936 234.893V240.701L287.744 240.461L289.488 240.765V241.453H285.408ZM296.607 232.861C297.78 232.861 298.697 233.229 299.359 233.965C300.031 234.701 300.367 235.741 300.367 237.085C300.367 237.992 300.201 238.786 299.871 239.469C299.551 240.141 299.092 240.664 298.495 241.037C297.897 241.41 297.177 241.597 296.335 241.597C295.183 241.597 294.281 241.24 293.631 240.525C292.98 239.8 292.655 238.76 292.655 237.405C292.655 236.466 292.809 235.661 293.119 234.989C293.439 234.306 293.892 233.784 294.479 233.421C295.076 233.048 295.785 232.861 296.607 232.861ZM296.543 233.805C295.721 233.805 295.092 234.114 294.655 234.733C294.217 235.352 293.999 236.221 293.999 237.341C293.999 238.44 294.207 239.266 294.623 239.821C295.039 240.376 295.636 240.653 296.415 240.653C296.98 240.653 297.455 240.514 297.839 240.237C298.233 239.949 298.527 239.544 298.719 239.021C298.921 238.498 299.023 237.874 299.023 237.149C299.023 236.061 298.804 235.234 298.367 234.669C297.94 234.093 297.332 233.805 296.543 233.805ZM302.114 241.453V240.765L303.554 240.445L303.362 240.685V233.805L303.554 234.045L302.114 233.741V233.053L304.354 232.941L304.53 234.509L304.354 234.445C304.887 233.901 305.442 233.501 306.018 233.245C306.605 232.989 307.159 232.861 307.682 232.861C308.386 232.861 308.967 233.08 309.426 233.517C309.895 233.944 310.125 234.61 310.114 235.517V240.685L309.954 240.461L311.362 240.765V241.453H307.634V240.765L309.026 240.461L308.834 240.701V235.789C308.834 235.128 308.685 234.642 308.386 234.333C308.087 234.024 307.687 233.869 307.186 233.869C306.791 233.869 306.359 233.976 305.89 234.189C305.431 234.402 304.978 234.733 304.53 235.181L304.642 234.925V240.701L304.482 240.477L305.842 240.765V241.453H302.114ZM316.255 245.277C315.007 245.277 314.074 245.096 313.455 244.733C312.836 244.37 312.527 243.848 312.527 243.165C312.527 242.685 312.687 242.258 313.007 241.885C313.327 241.512 313.796 241.186 314.415 240.909L314.431 241.165C314.09 241.144 313.828 241.074 313.647 240.957C313.466 240.829 313.375 240.653 313.375 240.429C313.375 240.344 313.386 240.258 313.407 240.173C313.428 240.088 313.466 239.97 313.519 239.821C313.583 239.661 313.674 239.453 313.791 239.197C313.919 238.93 314.079 238.584 314.271 238.157L314.303 238.381C313.844 238.136 313.492 237.805 313.247 237.389C313.002 236.962 312.879 236.461 312.879 235.885C312.879 234.957 313.183 234.221 313.791 233.677C314.41 233.133 315.258 232.861 316.335 232.861C317.06 232.861 317.684 232.989 318.207 233.245L317.855 233.165L320.367 233.053L320.383 233.821L318.895 234.109L319.007 233.917C319.231 234.13 319.402 234.392 319.519 234.701C319.636 235.01 319.695 235.362 319.695 235.757C319.695 236.696 319.38 237.437 318.751 237.981C318.122 238.525 317.284 238.797 316.239 238.797C315.642 238.797 315.092 238.696 314.591 238.493L314.879 238.349L314.463 240.445L314.191 240.285H317.327C318.351 240.285 319.13 240.488 319.663 240.893C320.196 241.288 320.463 241.858 320.463 242.605C320.463 243.469 320.106 244.13 319.391 244.589C318.687 245.048 317.642 245.277 316.255 245.277ZM316.367 244.301C317.338 244.301 318.058 244.168 318.527 243.901C318.996 243.634 319.231 243.234 319.231 242.701C319.231 242.232 319.055 241.874 318.703 241.629C318.351 241.394 317.823 241.277 317.119 241.277H314.575L314.943 241.197C314.09 241.73 313.663 242.306 313.663 242.925C313.663 243.384 313.882 243.725 314.319 243.949C314.767 244.184 315.45 244.301 316.367 244.301ZM316.239 237.901C316.922 237.901 317.455 237.72 317.839 237.357C318.223 236.984 318.415 236.461 318.415 235.789C318.415 235.117 318.234 234.61 317.871 234.269C317.508 233.928 316.991 233.757 316.319 233.757C315.636 233.757 315.108 233.938 314.735 234.301C314.362 234.653 314.175 235.17 314.175 235.853C314.175 236.514 314.351 237.021 314.703 237.373C315.066 237.725 315.578 237.901 316.239 237.901ZM328.412 241.597C327.857 241.597 327.42 241.426 327.1 241.085C326.78 240.733 326.62 240.205 326.62 239.501V233.693L326.828 233.901H325.18V233.197L326.844 232.957L326.62 233.213V231.101L327.9 230.893V233.213L327.724 233.005H330.236L330.188 233.901H327.724L327.9 233.693V239.325C327.9 239.773 327.985 240.098 328.156 240.301C328.337 240.504 328.588 240.605 328.908 240.605C329.1 240.605 329.308 240.573 329.532 240.509C329.756 240.445 329.996 240.354 330.252 240.237L330.524 240.973C329.766 241.389 329.062 241.597 328.412 241.597ZM338.196 240.733L337.988 240.445L339.46 240.733V241.437L337.22 241.533L337.028 239.997L337.14 240.045C336.671 240.557 336.164 240.946 335.62 241.213C335.076 241.469 334.548 241.597 334.036 241.597C333.418 241.597 332.895 241.4 332.468 241.005C332.042 240.61 331.828 240.013 331.828 239.213C331.828 238.584 331.962 238.104 332.228 237.773C332.495 237.432 332.863 237.192 333.332 237.053C333.802 236.914 334.346 236.845 334.964 236.845H337.06L336.916 237.005V235.469C336.916 234.882 336.762 234.466 336.452 234.221C336.143 233.965 335.716 233.837 335.172 233.837C334.884 233.837 334.575 233.869 334.244 233.933C333.924 233.986 333.583 234.077 333.22 234.205L333.412 233.997L333.252 235.453H332.404L332.276 233.469C332.884 233.266 333.455 233.117 333.988 233.021C334.522 232.914 335.012 232.861 335.46 232.861C336.314 232.861 336.98 233.053 337.46 233.437C337.951 233.81 338.196 234.413 338.196 235.245V240.733ZM333.124 239.101C333.124 239.624 333.247 240.008 333.492 240.253C333.748 240.498 334.068 240.621 334.452 240.621C334.826 240.621 335.236 240.509 335.684 240.285C336.143 240.05 336.586 239.736 337.012 239.341L336.916 239.677V237.533L337.06 237.677H335.156C334.399 237.677 333.871 237.794 333.572 238.029C333.274 238.253 333.124 238.61 333.124 239.101ZM339.918 245.197L340.03 244.253C340.158 244.274 340.275 244.29 340.382 244.301C340.499 244.312 340.606 244.317 340.702 244.317C341.224 244.317 341.646 244.194 341.966 243.949C342.296 243.714 342.574 243.357 342.798 242.877C343.022 242.397 343.251 241.8 343.486 241.085L343.438 241.565L340.446 233.773L340.622 233.917L339.582 233.741V233.053L343.086 232.941V233.645L341.646 233.885L341.742 233.741L344.126 240.541L343.838 240.477L346.126 233.773L346.222 233.917L344.814 233.741V233.053L348.206 232.941V233.645L347.086 233.901L347.31 233.757L344.494 241.485C344.302 242.018 344.099 242.514 343.886 242.973C343.683 243.432 343.448 243.832 343.182 244.173C342.915 244.525 342.59 244.797 342.206 244.989C341.822 245.181 341.358 245.277 340.814 245.277C340.568 245.277 340.27 245.25 339.918 245.197ZM352.758 241.453V240.765L354.198 240.445L354.006 240.685V233.805L354.198 234.045L352.758 233.741V233.053L354.998 232.941L355.174 234.509L354.998 234.445C355.531 233.901 356.086 233.501 356.662 233.245C357.248 232.989 357.803 232.861 358.326 232.861C359.03 232.861 359.611 233.08 360.07 233.517C360.539 233.944 360.768 234.61 360.758 235.517V240.685L360.598 240.461L362.006 240.765V241.453H358.278V240.765L359.67 240.461L359.478 240.701V235.789C359.478 235.128 359.328 234.642 359.03 234.333C358.731 234.024 358.331 233.869 357.83 233.869C357.435 233.869 357.003 233.976 356.534 234.189C356.075 234.402 355.622 234.733 355.174 235.181L355.286 234.925V240.701L355.126 240.477L356.486 240.765V241.453H352.758ZM363.059 241.453V240.765L364.515 240.445L364.323 240.685V229.965L364.515 230.221L363.059 229.901V229.213L365.603 229.101V234.509L365.315 234.445C365.837 233.901 366.387 233.501 366.963 233.245C367.549 232.989 368.104 232.861 368.627 232.861C369.096 232.861 369.517 232.957 369.891 233.149C370.264 233.341 370.552 233.634 370.755 234.029C370.968 234.413 371.075 234.904 371.075 235.501V240.685L370.915 240.461L372.323 240.765V241.453H368.595V240.765L369.971 240.461L369.795 240.701V235.789C369.805 235.128 369.656 234.642 369.347 234.333C369.037 234.024 368.632 233.869 368.131 233.869C367.747 233.869 367.32 233.976 366.851 234.189C366.381 234.402 365.928 234.738 365.491 235.197L365.603 234.925V240.701L365.443 240.477L366.803 240.765V241.453H363.059ZM376.949 241.597C376.245 241.597 375.663 241.378 375.205 240.941C374.746 240.504 374.517 239.832 374.517 238.925V233.821L374.677 234.045L373.253 233.741V233.053L375.797 232.957V238.701C375.797 239.341 375.946 239.816 376.245 240.125C376.543 240.434 376.943 240.589 377.445 240.589C377.839 240.589 378.266 240.482 378.725 240.269C379.183 240.056 379.637 239.725 380.085 239.277L379.989 239.565V233.789L380.149 234.045L378.725 233.741V233.053L381.269 232.941V240.669L381.077 240.461L382.517 240.733V241.437L380.277 241.533L380.085 239.949L380.261 240.013C379.738 240.557 379.183 240.957 378.597 241.213C378.021 241.469 377.471 241.597 376.949 241.597ZM380.549 233.661L380.501 232.989C380.885 232.968 381.162 232.888 381.333 232.749C381.514 232.6 381.605 232.37 381.605 232.061C381.605 231.762 381.53 231.394 381.381 230.957L382.357 230.733C382.474 230.989 382.554 231.229 382.597 231.453C382.65 231.677 382.677 231.89 382.677 232.093C382.677 232.616 382.485 233.016 382.101 233.293C381.727 233.57 381.21 233.693 380.549 233.661ZM378.885 231.069C378.597 231.069 378.33 231.005 378.085 230.877C377.85 230.738 377.621 230.605 377.397 230.477C377.173 230.338 376.938 230.269 376.693 230.269C376.501 230.269 376.325 230.333 376.165 230.461C376.005 230.578 375.85 230.77 375.701 231.037L375.093 230.781C375.285 230.269 375.509 229.896 375.765 229.661C376.031 229.416 376.33 229.293 376.661 229.293C376.949 229.293 377.21 229.362 377.445 229.501C377.69 229.629 377.925 229.762 378.149 229.901C378.383 230.029 378.618 230.093 378.853 230.093C379.045 230.093 379.221 230.029 379.381 229.901C379.551 229.773 379.711 229.576 379.861 229.309L380.453 229.565C380.261 230.077 380.031 230.456 379.765 230.701C379.509 230.946 379.215 231.069 378.885 231.069ZM384.114 241.453V240.765L385.554 240.445L385.362 240.685V233.805L385.554 234.045L384.114 233.741V233.053L386.354 232.941L386.53 234.509L386.354 234.445C386.887 233.901 387.442 233.501 388.018 233.245C388.605 232.989 389.159 232.861 389.682 232.861C390.386 232.861 390.967 233.08 391.426 233.517C391.895 233.944 392.125 234.61 392.114 235.517V240.685L391.954 240.461L393.362 240.765V241.453H389.634V240.765L391.026 240.461L390.834 240.701V235.789C390.834 235.128 390.685 234.642 390.386 234.333C390.087 234.024 389.687 233.869 389.186 233.869C388.791 233.869 388.359 233.976 387.89 234.189C387.431 234.402 386.978 234.733 386.53 235.181L386.642 234.925V240.701L386.482 240.477L387.842 240.765V241.453H384.114ZM398.255 245.277C397.007 245.277 396.074 245.096 395.455 244.733C394.836 244.37 394.527 243.848 394.527 243.165C394.527 242.685 394.687 242.258 395.007 241.885C395.327 241.512 395.796 241.186 396.415 240.909L396.431 241.165C396.09 241.144 395.828 241.074 395.647 240.957C395.466 240.829 395.375 240.653 395.375 240.429C395.375 240.344 395.386 240.258 395.407 240.173C395.428 240.088 395.466 239.97 395.519 239.821C395.583 239.661 395.674 239.453 395.791 239.197C395.919 238.93 396.079 238.584 396.271 238.157L396.303 238.381C395.844 238.136 395.492 237.805 395.247 237.389C395.002 236.962 394.879 236.461 394.879 235.885C394.879 234.957 395.183 234.221 395.791 233.677C396.41 233.133 397.258 232.861 398.335 232.861C399.06 232.861 399.684 232.989 400.207 233.245L399.855 233.165L402.367 233.053L402.383 233.821L400.895 234.109L401.007 233.917C401.231 234.13 401.402 234.392 401.519 234.701C401.636 235.01 401.695 235.362 401.695 235.757C401.695 236.696 401.38 237.437 400.751 237.981C400.122 238.525 399.284 238.797 398.239 238.797C397.642 238.797 397.092 238.696 396.591 238.493L396.879 238.349L396.463 240.445L396.191 240.285H399.327C400.351 240.285 401.13 240.488 401.663 240.893C402.196 241.288 402.463 241.858 402.463 242.605C402.463 243.469 402.106 244.13 401.391 244.589C400.687 245.048 399.642 245.277 398.255 245.277ZM398.367 244.301C399.338 244.301 400.058 244.168 400.527 243.901C400.996 243.634 401.231 243.234 401.231 242.701C401.231 242.232 401.055 241.874 400.703 241.629C400.351 241.394 399.823 241.277 399.119 241.277H396.575L396.943 241.197C396.09 241.73 395.663 242.306 395.663 242.925C395.663 243.384 395.882 243.725 396.319 243.949C396.767 244.184 397.45 244.301 398.367 244.301ZM398.239 237.901C398.922 237.901 399.455 237.72 399.839 237.357C400.223 236.984 400.415 236.461 400.415 235.789C400.415 235.117 400.234 234.61 399.871 234.269C399.508 233.928 398.991 233.757 398.319 233.757C397.636 233.757 397.108 233.938 396.735 234.301C396.362 234.653 396.175 235.17 396.175 235.853C396.175 236.514 396.351 237.021 396.703 237.373C397.066 237.725 397.578 237.901 398.239 237.901ZM410.972 241.597C410.588 241.597 410.177 241.57 409.74 241.517C409.313 241.464 408.86 241.384 408.38 241.277V229.853L408.636 230.221L407.132 229.901V229.213L409.66 229.101V234.365L409.484 234.173C409.932 233.746 410.396 233.421 410.876 233.197C411.356 232.973 411.836 232.861 412.316 232.861C412.913 232.861 413.446 233.026 413.916 233.357C414.396 233.688 414.774 234.168 415.052 234.797C415.329 235.426 415.468 236.2 415.468 237.117C415.468 237.81 415.377 238.434 415.196 238.989C415.025 239.544 414.758 240.013 414.396 240.397C414.033 240.781 413.569 241.08 413.004 241.293C412.438 241.496 411.761 241.597 410.972 241.597ZM411.212 240.653C412.161 240.653 412.886 240.36 413.388 239.773C413.889 239.186 414.14 238.333 414.14 237.213C414.14 236.509 414.038 235.906 413.836 235.405C413.644 234.904 413.377 234.52 413.036 234.253C412.694 233.976 412.305 233.837 411.868 233.837C411.494 233.837 411.105 233.938 410.7 234.141C410.305 234.333 409.905 234.632 409.5 235.037L409.66 234.573V240.749L409.484 240.397C410.134 240.568 410.71 240.653 411.212 240.653ZM421.341 232.861C422.515 232.861 423.432 233.229 424.093 233.965C424.765 234.701 425.101 235.741 425.101 237.085C425.101 237.992 424.936 238.786 424.605 239.469C424.285 240.141 423.827 240.664 423.229 241.037C422.632 241.41 421.912 241.597 421.069 241.597C419.917 241.597 419.016 241.24 418.365 240.525C417.715 239.8 417.389 238.76 417.389 237.405C417.389 236.466 417.544 235.661 417.853 234.989C418.173 234.306 418.627 233.784 419.213 233.421C419.811 233.048 420.52 232.861 421.341 232.861ZM421.277 233.805C420.456 233.805 419.827 234.114 419.389 234.733C418.952 235.352 418.733 236.221 418.733 237.341C418.733 238.44 418.941 239.266 419.357 239.821C419.773 240.376 420.371 240.653 421.149 240.653C421.715 240.653 422.189 240.514 422.573 240.237C422.968 239.949 423.261 239.544 423.453 239.021C423.656 238.498 423.757 237.874 423.757 237.149C423.757 236.061 423.539 235.234 423.101 234.669C422.675 234.093 422.067 233.805 421.277 233.805ZM419.117 231.405L418.653 230.877L420.829 228.829L421.581 228.765L423.853 230.877L423.389 231.405L420.797 229.517L421.645 229.533L419.117 231.405ZM421.213 244.365C420.968 244.365 420.765 244.285 420.605 244.125C420.445 243.965 420.365 243.746 420.365 243.469C420.365 243.181 420.445 242.957 420.605 242.797C420.776 242.648 420.984 242.573 421.229 242.573C421.485 242.573 421.693 242.648 421.853 242.797C422.013 242.946 422.093 243.17 422.093 243.469C422.093 243.757 422.008 243.976 421.837 244.125C421.667 244.285 421.459 244.365 421.213 244.365ZM433.283 241.597C432.729 241.597 432.291 241.426 431.971 241.085C431.651 240.733 431.491 240.205 431.491 239.501V233.693L431.699 233.901H430.051V233.197L431.715 232.957L431.491 233.213V231.101L432.771 230.893V233.213L432.595 233.005H435.107L435.059 233.901H432.595L432.771 233.693V239.325C432.771 239.773 432.857 240.098 433.027 240.301C433.209 240.504 433.459 240.605 433.779 240.605C433.971 240.605 434.179 240.573 434.403 240.509C434.627 240.445 434.867 240.354 435.123 240.237L435.395 240.973C434.638 241.389 433.934 241.597 433.283 241.597ZM443.068 240.733L442.86 240.445L444.332 240.733V241.437L442.092 241.533L441.9 239.997L442.012 240.045C441.543 240.557 441.036 240.946 440.492 241.213C439.948 241.469 439.42 241.597 438.908 241.597C438.289 241.597 437.767 241.4 437.34 241.005C436.913 240.61 436.7 240.013 436.7 239.213C436.7 238.584 436.833 238.104 437.1 237.773C437.367 237.432 437.735 237.192 438.204 237.053C438.673 236.914 439.217 236.845 439.836 236.845H441.932L441.788 237.005V235.469C441.788 234.882 441.633 234.466 441.324 234.221C441.015 233.965 440.588 233.837 440.044 233.837C439.756 233.837 439.447 233.869 439.116 233.933C438.796 233.986 438.455 234.077 438.092 234.205L438.284 233.997L438.124 235.453H437.276L437.148 233.469C437.756 233.266 438.327 233.117 438.86 233.021C439.393 232.914 439.884 232.861 440.332 232.861C441.185 232.861 441.852 233.053 442.332 233.437C442.823 233.81 443.068 234.413 443.068 235.245V240.733ZM437.996 239.101C437.996 239.624 438.119 240.008 438.364 240.253C438.62 240.498 438.94 240.621 439.324 240.621C439.697 240.621 440.108 240.509 440.556 240.285C441.015 240.05 441.457 239.736 441.884 239.341L441.788 239.677V237.533L441.932 237.677H440.028C439.271 237.677 438.743 237.794 438.444 238.029C438.145 238.253 437.996 238.61 437.996 239.101ZM439.116 228.573L441.964 230.861L441.468 231.533L438.38 229.533L439.116 228.573ZM448.186 240.637L448.042 240.461L449.434 240.765V241.453H445.658V240.765L447.05 240.461L446.906 240.637V233.885L447.034 234.029L445.658 233.741V233.053L448.186 232.957V240.637ZM447.45 231.229C447.204 231.229 447.002 231.149 446.842 230.989C446.682 230.829 446.602 230.61 446.602 230.333C446.602 230.045 446.682 229.826 446.842 229.677C447.012 229.517 447.22 229.437 447.466 229.437C447.722 229.437 447.93 229.512 448.09 229.661C448.25 229.81 448.33 230.034 448.33 230.333C448.33 230.621 448.244 230.845 448.074 231.005C447.903 231.154 447.695 231.229 447.45 231.229ZM131.696 262.637L131.552 262.461L132.944 262.765V263.453H129.152V262.765L130.544 262.461L130.416 262.637V252.045L130.544 252.189L129.152 251.901V251.213L131.696 251.101V262.637ZM136.867 262.637L136.723 262.461L138.115 262.765V263.453H134.339V262.765L135.731 262.461L135.587 262.637V255.885L135.715 256.029L134.339 255.741V255.053L136.867 254.957V262.637ZM136.131 253.229C135.886 253.229 135.683 253.149 135.523 252.989C135.363 252.829 135.283 252.61 135.283 252.333C135.283 252.045 135.363 251.826 135.523 251.677C135.694 251.517 135.902 251.437 136.147 251.437C136.403 251.437 136.611 251.512 136.771 251.661C136.931 251.81 137.011 252.034 137.011 252.333C137.011 252.621 136.926 252.845 136.755 253.005C136.584 253.154 136.376 253.229 136.131 253.229ZM143.313 263.597C142.598 263.597 141.963 263.437 141.409 263.117C140.865 262.786 140.438 262.306 140.129 261.677C139.819 261.048 139.665 260.28 139.665 259.373C139.665 258.445 139.825 257.645 140.145 256.973C140.465 256.301 140.918 255.784 141.505 255.421C142.091 255.048 142.779 254.861 143.569 254.861C144.315 254.861 144.929 255.021 145.409 255.341C145.899 255.65 146.262 256.082 146.497 256.637C146.742 257.192 146.865 257.826 146.865 258.541C146.865 258.658 146.859 258.776 146.849 258.893C146.838 259.01 146.822 259.154 146.801 259.325H140.641V258.413H145.681L145.537 258.509C145.547 258.029 145.489 257.586 145.361 257.181C145.233 256.776 145.014 256.45 144.705 256.205C144.395 255.96 143.985 255.837 143.473 255.837C142.929 255.837 142.47 255.981 142.097 256.269C141.723 256.557 141.446 256.952 141.265 257.453C141.083 257.954 140.993 258.536 140.993 259.197C140.993 259.901 141.094 260.509 141.297 261.021C141.499 261.522 141.793 261.912 142.177 262.189C142.571 262.466 143.051 262.605 143.617 262.605C144.011 262.605 144.443 262.53 144.913 262.381C145.382 262.221 145.867 261.981 146.369 261.661L146.833 262.381C146.235 262.786 145.638 263.09 145.041 263.293C144.443 263.496 143.867 263.597 143.313 263.597ZM141.345 253.405L140.881 252.877L143.057 250.829L143.809 250.765L146.081 252.877L145.617 253.405L143.025 251.517L143.873 251.533L141.345 253.405ZM143.281 266.365C143.035 266.365 142.833 266.285 142.673 266.125C142.513 265.965 142.433 265.746 142.433 265.469C142.433 265.181 142.513 264.957 142.673 264.797C142.843 264.648 143.051 264.573 143.297 264.573C143.553 264.573 143.761 264.648 143.921 264.797C144.081 264.946 144.161 265.17 144.161 265.469C144.161 265.757 144.075 265.976 143.905 266.125C143.734 266.285 143.526 266.365 143.281 266.365ZM152.014 263.597C151.31 263.597 150.729 263.378 150.27 262.941C149.812 262.504 149.582 261.832 149.582 260.925V255.821L149.742 256.045L148.318 255.741V255.053L150.862 254.957V260.701C150.862 261.341 151.012 261.816 151.31 262.125C151.609 262.434 152.009 262.589 152.51 262.589C152.905 262.589 153.332 262.482 153.79 262.269C154.249 262.056 154.702 261.725 155.15 261.277L155.054 261.565V255.789L155.214 256.045L153.79 255.741V255.053L156.334 254.941V262.669L156.142 262.461L157.582 262.733V263.437L155.342 263.533L155.15 261.949L155.326 262.013C154.804 262.557 154.249 262.957 153.662 263.213C153.086 263.469 152.537 263.597 152.014 263.597ZM170.291 256.461L170.115 256.493C170.638 255.949 171.193 255.544 171.779 255.277C172.366 255 172.915 254.861 173.427 254.861C174.078 254.861 174.622 255.08 175.059 255.517C175.507 255.944 175.731 256.605 175.731 257.501V262.685L175.571 262.461L176.979 262.765V263.453H173.267V262.765L174.627 262.461L174.451 262.701V257.789C174.451 257.128 174.307 256.642 174.019 256.333C173.742 256.024 173.379 255.869 172.931 255.869C172.547 255.869 172.121 255.981 171.651 256.205C171.193 256.429 170.739 256.77 170.291 257.229L170.403 256.925C170.414 257.021 170.419 257.112 170.419 257.197C170.43 257.282 170.435 257.368 170.435 257.453V262.685L170.275 262.461L171.603 262.765V263.453H167.987V262.765L169.347 262.461L169.155 262.701V257.789C169.155 257.128 169.011 256.642 168.723 256.333C168.446 256.024 168.083 255.869 167.635 255.869C167.251 255.869 166.83 255.976 166.371 256.189C165.913 256.402 165.459 256.733 165.011 257.181L165.123 256.941V262.701L164.963 262.477L166.291 262.765V263.453H162.595V262.765L164.035 262.445L163.843 262.685V255.805L164.035 256.045L162.595 255.741V255.053L164.835 254.941L165.011 256.509L164.835 256.445C165.358 255.901 165.907 255.501 166.483 255.245C167.07 254.989 167.625 254.861 168.147 254.861C168.638 254.861 169.075 254.994 169.459 255.261C169.843 255.517 170.121 255.917 170.291 256.461ZM182.069 263.597C180.938 263.597 180.042 263.24 179.381 262.525C178.73 261.8 178.405 260.765 178.405 259.421C178.405 258.482 178.559 257.672 178.869 256.989C179.189 256.306 179.642 255.784 180.229 255.421C180.826 255.048 181.541 254.861 182.373 254.861C183.535 254.861 184.447 255.229 185.109 255.965C185.781 256.701 186.117 257.736 186.117 259.069C186.117 259.986 185.957 260.786 185.637 261.469C185.317 262.141 184.853 262.664 184.245 263.037C183.647 263.41 182.922 263.597 182.069 263.597ZM182.165 262.653C182.73 262.653 183.205 262.514 183.589 262.237C183.983 261.949 184.277 261.544 184.469 261.021C184.671 260.498 184.773 259.869 184.773 259.133C184.773 258.056 184.554 257.234 184.117 256.669C183.69 256.093 183.082 255.805 182.293 255.805C181.471 255.805 180.842 256.114 180.405 256.733C179.967 257.352 179.749 258.221 179.749 259.341C179.749 260.44 179.957 261.266 180.373 261.821C180.789 262.376 181.386 262.653 182.165 262.653ZM183.925 255.773L183.573 255.085C184.181 255.074 184.623 254.989 184.901 254.829C185.189 254.658 185.333 254.392 185.333 254.029C185.333 253.88 185.311 253.714 185.269 253.533C185.237 253.352 185.183 253.16 185.109 252.957L186.085 252.717C186.202 252.984 186.282 253.229 186.325 253.453C186.378 253.677 186.405 253.89 186.405 254.093C186.405 254.637 186.191 255.053 185.765 255.341C185.349 255.618 184.735 255.762 183.925 255.773ZM181.205 253.533L180.741 252.877L183.653 250.589L184.373 251.565L181.205 253.533ZM190.423 262.637L190.279 262.461L191.671 262.765V263.453H187.895V262.765L189.287 262.461L189.143 262.637V255.885L189.271 256.029L187.895 255.741V255.053L190.423 254.957V262.637ZM189.687 253.229C189.442 253.229 189.239 253.149 189.079 252.989C188.919 252.829 188.839 252.61 188.839 252.333C188.839 252.045 188.919 251.826 189.079 251.677C189.25 251.517 189.458 251.437 189.703 251.437C189.959 251.437 190.167 251.512 190.327 251.661C190.487 251.81 190.567 252.034 190.567 252.333C190.567 252.621 190.482 252.845 190.311 253.005C190.141 253.154 189.933 253.229 189.687 253.229ZM196.664 263.453V262.765L198.104 262.445L197.912 262.685V255.805L198.104 256.045L196.664 255.741V255.053L198.904 254.941L199.08 256.509L198.904 256.445C199.437 255.901 199.992 255.501 200.568 255.245C201.155 254.989 201.709 254.861 202.232 254.861C202.936 254.861 203.517 255.08 203.976 255.517C204.445 255.944 204.675 256.61 204.664 257.517V262.685L204.504 262.461L205.912 262.765V263.453H202.184V262.765L203.576 262.461L203.384 262.701V257.789C203.384 257.128 203.235 256.642 202.936 256.333C202.637 256.024 202.237 255.869 201.736 255.869C201.341 255.869 200.909 255.976 200.44 256.189C199.981 256.402 199.528 256.733 199.08 257.181L199.192 256.925V262.701L199.032 262.477L200.392 262.765V263.453H196.664ZM206.965 263.453V262.765L208.421 262.445L208.229 262.685V251.965L208.421 252.221L206.965 251.901V251.213L209.509 251.101V256.509L209.221 256.445C209.744 255.901 210.293 255.501 210.869 255.245C211.456 254.989 212.01 254.861 212.533 254.861C213.002 254.861 213.424 254.957 213.797 255.149C214.17 255.341 214.458 255.634 214.661 256.029C214.874 256.413 214.981 256.904 214.981 257.501V262.685L214.821 262.461L216.229 262.765V263.453H212.501V262.765L213.877 262.461L213.701 262.701V257.789C213.712 257.128 213.562 256.642 213.253 256.333C212.944 256.024 212.538 255.869 212.037 255.869C211.653 255.869 211.226 255.976 210.757 256.189C210.288 256.402 209.834 256.738 209.397 257.197L209.509 256.925V262.701L209.349 262.477L210.709 262.765V263.453H206.965ZM224.087 262.733L223.879 262.445L225.351 262.733V263.437L223.111 263.533L222.919 261.997L223.031 262.045C222.561 262.557 222.055 262.946 221.511 263.213C220.967 263.469 220.439 263.597 219.927 263.597C219.308 263.597 218.785 263.4 218.359 263.005C217.932 262.61 217.719 262.013 217.719 261.213C217.719 260.584 217.852 260.104 218.119 259.773C218.385 259.432 218.753 259.192 219.223 259.053C219.692 258.914 220.236 258.845 220.855 258.845H222.951L222.807 259.005V257.469C222.807 256.882 222.652 256.466 222.343 256.221C222.033 255.965 221.607 255.837 221.063 255.837C220.775 255.837 220.465 255.869 220.135 255.933C219.815 255.986 219.473 256.077 219.111 256.205L219.303 255.997L219.143 257.453H218.295L218.167 255.469C218.775 255.266 219.345 255.117 219.879 255.021C220.412 254.914 220.903 254.861 221.351 254.861C222.204 254.861 222.871 255.053 223.351 255.437C223.841 255.81 224.087 256.413 224.087 257.245V262.733ZM219.015 261.101C219.015 261.624 219.137 262.008 219.383 262.253C219.639 262.498 219.959 262.621 220.343 262.621C220.716 262.621 221.127 262.509 221.575 262.285C222.033 262.05 222.476 261.736 222.903 261.341L222.807 261.677V259.533L222.951 259.677H221.047C220.289 259.677 219.761 259.794 219.463 260.029C219.164 260.253 219.015 260.61 219.015 261.101ZM223.207 252.141L222.615 251.645L224.327 249.373L225.175 250.045L223.207 252.141ZM219.095 254.205L218.631 253.693L220.791 251.629L221.543 251.581L223.831 253.693L223.351 254.205L220.759 252.317L221.607 252.333L219.095 254.205ZM229.508 263.597C228.954 263.597 228.516 263.426 228.196 263.085C227.876 262.733 227.716 262.205 227.716 261.501V255.693L227.924 255.901H226.276V255.197L227.94 254.957L227.716 255.213V253.101L228.996 252.893V255.213L228.82 255.005H231.332L231.284 255.901H228.82L228.996 255.693V261.325C228.996 261.773 229.082 262.098 229.252 262.301C229.434 262.504 229.684 262.605 230.004 262.605C230.196 262.605 230.404 262.573 230.628 262.509C230.852 262.445 231.092 262.354 231.348 262.237L231.62 262.973C230.863 263.389 230.159 263.597 229.508 263.597ZM239.308 263.597C238.754 263.597 238.316 263.426 237.996 263.085C237.676 262.733 237.516 262.205 237.516 261.501V255.693L237.724 255.901H236.076V255.197L237.74 254.957L237.516 255.213V253.101L238.796 252.893V255.213L238.62 255.005H241.132L241.084 255.901H238.62L238.796 255.693V261.325C238.796 261.773 238.882 262.098 239.052 262.301C239.234 262.504 239.484 262.605 239.804 262.605C239.996 262.605 240.204 262.573 240.428 262.509C240.652 262.445 240.892 262.354 241.148 262.237L241.42 262.973C240.663 263.389 239.959 263.597 239.308 263.597ZM246.017 263.597C245.313 263.597 244.732 263.378 244.273 262.941C243.815 262.504 243.585 261.832 243.585 260.925V255.821L243.745 256.045L242.321 255.741V255.053L244.865 254.957V260.701C244.865 261.341 245.015 261.816 245.313 262.125C245.612 262.434 246.012 262.589 246.513 262.589C246.908 262.589 247.335 262.482 247.793 262.269C248.252 262.056 248.705 261.725 249.153 261.277L249.057 261.565V255.789L249.217 256.045L247.793 255.741V255.053L250.337 254.941V262.669L250.145 262.461L251.585 262.733V263.437L249.345 263.533L249.153 261.949L249.329 262.013C248.807 262.557 248.252 262.957 247.665 263.213C247.089 263.469 246.54 263.597 246.017 263.597ZM249.617 255.661L249.569 254.989C249.953 254.968 250.231 254.888 250.401 254.749C250.583 254.6 250.673 254.37 250.673 254.061C250.673 253.762 250.599 253.394 250.449 252.957L251.425 252.733C251.543 252.989 251.623 253.229 251.665 253.453C251.719 253.677 251.745 253.89 251.745 254.093C251.745 254.616 251.553 255.016 251.169 255.293C250.796 255.57 250.279 255.693 249.617 255.661ZM245.777 250.573L248.625 252.861L248.129 253.533L245.041 251.533L245.777 250.573ZM260.402 267.277C259.154 267.277 258.221 267.096 257.602 266.733C256.983 266.37 256.674 265.848 256.674 265.165C256.674 264.685 256.834 264.258 257.154 263.885C257.474 263.512 257.943 263.186 258.562 262.909L258.578 263.165C258.237 263.144 257.975 263.074 257.794 262.957C257.613 262.829 257.522 262.653 257.522 262.429C257.522 262.344 257.533 262.258 257.554 262.173C257.575 262.088 257.613 261.97 257.666 261.821C257.73 261.661 257.821 261.453 257.938 261.197C258.066 260.93 258.226 260.584 258.418 260.157L258.45 260.381C257.991 260.136 257.639 259.805 257.394 259.389C257.149 258.962 257.026 258.461 257.026 257.885C257.026 256.957 257.33 256.221 257.938 255.677C258.557 255.133 259.405 254.861 260.482 254.861C261.207 254.861 261.831 254.989 262.354 255.245L262.002 255.165L264.514 255.053L264.53 255.821L263.042 256.109L263.154 255.917C263.378 256.13 263.549 256.392 263.666 256.701C263.783 257.01 263.842 257.362 263.842 257.757C263.842 258.696 263.527 259.437 262.898 259.981C262.269 260.525 261.431 260.797 260.386 260.797C259.789 260.797 259.239 260.696 258.738 260.493L259.026 260.349L258.61 262.445L258.338 262.285H261.474C262.498 262.285 263.277 262.488 263.81 262.893C264.343 263.288 264.61 263.858 264.61 264.605C264.61 265.469 264.253 266.13 263.538 266.589C262.834 267.048 261.789 267.277 260.402 267.277ZM260.514 266.301C261.485 266.301 262.205 266.168 262.674 265.901C263.143 265.634 263.378 265.234 263.378 264.701C263.378 264.232 263.202 263.874 262.85 263.629C262.498 263.394 261.97 263.277 261.266 263.277H258.722L259.09 263.197C258.237 263.73 257.81 264.306 257.81 264.925C257.81 265.384 258.029 265.725 258.466 265.949C258.914 266.184 259.597 266.301 260.514 266.301ZM260.386 259.901C261.069 259.901 261.602 259.72 261.986 259.357C262.37 258.984 262.562 258.461 262.562 257.789C262.562 257.117 262.381 256.61 262.018 256.269C261.655 255.928 261.138 255.757 260.466 255.757C259.783 255.757 259.255 255.938 258.882 256.301C258.509 256.653 258.322 257.17 258.322 257.853C258.322 258.514 258.498 259.021 258.85 259.373C259.213 259.725 259.725 259.901 260.386 259.901ZM268.448 262.637L268.304 262.461L269.696 262.765V263.453H265.92V262.765L267.312 262.461L267.168 262.637V255.885L267.296 256.029L265.92 255.741V255.053L268.448 254.957V262.637ZM267.712 253.229C267.467 253.229 267.264 253.149 267.104 252.989C266.944 252.829 266.864 252.61 266.864 252.333C266.864 252.045 266.944 251.826 267.104 251.677C267.275 251.517 267.483 251.437 267.728 251.437C267.984 251.437 268.192 251.512 268.352 251.661C268.512 251.81 268.592 252.034 268.592 252.333C268.592 252.621 268.507 252.845 268.336 253.005C268.166 253.154 267.958 253.229 267.712 253.229ZM277.459 262.733L277.251 262.445L278.723 262.733V263.437L276.483 263.533L276.291 261.997L276.403 262.045C275.933 262.557 275.427 262.946 274.883 263.213C274.339 263.469 273.811 263.597 273.299 263.597C272.68 263.597 272.157 263.4 271.731 263.005C271.304 262.61 271.091 262.013 271.091 261.213C271.091 260.584 271.224 260.104 271.491 259.773C271.757 259.432 272.125 259.192 272.595 259.053C273.064 258.914 273.608 258.845 274.227 258.845H276.323L276.179 259.005V257.469C276.179 256.882 276.024 256.466 275.715 256.221C275.405 255.965 274.979 255.837 274.435 255.837C274.147 255.837 273.837 255.869 273.507 255.933C273.187 255.986 272.845 256.077 272.483 256.205L272.675 255.997L272.515 257.453H271.667L271.539 255.469C272.147 255.266 272.717 255.117 273.251 255.021C273.784 254.914 274.275 254.861 274.723 254.861C275.576 254.861 276.243 255.053 276.723 255.437C277.213 255.81 277.459 256.413 277.459 257.245V262.733ZM272.387 261.101C272.387 261.624 272.509 262.008 272.755 262.253C273.011 262.498 273.331 262.621 273.715 262.621C274.088 262.621 274.499 262.509 274.947 262.285C275.405 262.05 275.848 261.736 276.275 261.341L276.179 261.677V259.533L276.323 259.677H274.419C273.661 259.677 273.133 259.794 272.835 260.029C272.536 260.253 272.387 260.61 272.387 261.101ZM274.067 253.757V252.621C274.44 252.6 274.728 252.536 274.931 252.429C275.133 252.312 275.235 252.13 275.235 251.885C275.235 251.672 275.16 251.517 275.011 251.421C274.861 251.325 274.669 251.277 274.435 251.277C274.296 251.277 274.147 251.293 273.987 251.325C273.827 251.346 273.667 251.384 273.507 251.437L273.331 250.797C273.544 250.722 273.757 250.664 273.971 250.621C274.195 250.578 274.413 250.557 274.627 250.557C275.075 250.557 275.453 250.658 275.763 250.861C276.083 251.064 276.243 251.378 276.243 251.805C276.243 252.136 276.136 252.413 275.923 252.637C275.709 252.85 275.384 252.994 274.947 253.069V253.757H274.067ZM280.048 263.453V262.765L281.488 262.445L281.296 262.685V255.805L281.488 256.045L280.048 255.741V255.053L282.288 254.941L282.464 256.509L282.288 256.445C282.822 255.901 283.376 255.501 283.952 255.245C284.539 254.989 285.094 254.861 285.616 254.861C286.32 254.861 286.902 255.08 287.36 255.517C287.83 255.944 288.059 256.61 288.048 257.517V262.685L287.888 262.461L289.296 262.765V263.453H285.568V262.765L286.96 262.461L286.768 262.701V257.789C286.768 257.128 286.619 256.642 286.32 256.333C286.022 256.024 285.622 255.869 285.12 255.869C284.726 255.869 284.294 255.976 283.824 256.189C283.366 256.402 282.912 256.733 282.464 257.181L282.576 256.925V262.701L282.416 262.477L283.776 262.765V263.453H280.048ZM294.189 267.277C292.941 267.277 292.008 267.096 291.389 266.733C290.771 266.37 290.461 265.848 290.461 265.165C290.461 264.685 290.621 264.258 290.941 263.885C291.261 263.512 291.731 263.186 292.349 262.909L292.365 263.165C292.024 263.144 291.763 263.074 291.581 262.957C291.4 262.829 291.309 262.653 291.309 262.429C291.309 262.344 291.32 262.258 291.341 262.173C291.363 262.088 291.4 261.97 291.453 261.821C291.517 261.661 291.608 261.453 291.725 261.197C291.853 260.93 292.013 260.584 292.205 260.157L292.237 260.381C291.779 260.136 291.427 259.805 291.181 259.389C290.936 258.962 290.813 258.461 290.813 257.885C290.813 256.957 291.117 256.221 291.725 255.677C292.344 255.133 293.192 254.861 294.269 254.861C294.995 254.861 295.619 254.989 296.141 255.245L295.789 255.165L298.301 255.053L298.317 255.821L296.829 256.109L296.941 255.917C297.165 256.13 297.336 256.392 297.453 256.701C297.571 257.01 297.629 257.362 297.629 257.757C297.629 258.696 297.315 259.437 296.685 259.981C296.056 260.525 295.219 260.797 294.173 260.797C293.576 260.797 293.027 260.696 292.525 260.493L292.813 260.349L292.397 262.445L292.125 262.285H295.261C296.285 262.285 297.064 262.488 297.597 262.893C298.131 263.288 298.397 263.858 298.397 264.605C298.397 265.469 298.04 266.13 297.325 266.589C296.621 267.048 295.576 267.277 294.189 267.277ZM294.301 266.301C295.272 266.301 295.992 266.168 296.461 265.901C296.931 265.634 297.165 265.234 297.165 264.701C297.165 264.232 296.989 263.874 296.637 263.629C296.285 263.394 295.757 263.277 295.053 263.277H292.509L292.877 263.197C292.024 263.73 291.597 264.306 291.597 264.925C291.597 265.384 291.816 265.725 292.253 265.949C292.701 266.184 293.384 266.301 294.301 266.301ZM294.173 259.901C294.856 259.901 295.389 259.72 295.773 259.357C296.157 258.984 296.349 258.461 296.349 257.789C296.349 257.117 296.168 256.61 295.805 256.269C295.443 255.928 294.925 255.757 294.253 255.757C293.571 255.757 293.043 255.938 292.669 256.301C292.296 256.653 292.109 257.17 292.109 257.853C292.109 258.514 292.285 259.021 292.637 259.373C293 259.725 293.512 259.901 294.173 259.901ZM308.058 255.053L311.402 254.941V255.645L310.314 255.965L310.538 255.725L307.754 263.485H306.25L303.706 255.757L303.93 255.965L302.826 255.741V255.053L306.346 254.941V255.645L304.89 255.917L305.018 255.725L307.162 262.669H307.034L309.354 255.773L309.45 255.917L308.058 255.741V255.053ZM314.77 262.637L314.626 262.461L316.018 262.765V263.453H312.242V262.765L313.634 262.461L313.49 262.637V255.885L313.618 256.029L312.242 255.741V255.053L314.77 254.957V262.637ZM314.034 253.229C313.789 253.229 313.586 253.149 313.426 252.989C313.266 252.829 313.186 252.61 313.186 252.333C313.186 252.045 313.266 251.826 313.426 251.677C313.597 251.517 313.805 251.437 314.05 251.437C314.306 251.437 314.514 251.512 314.674 251.661C314.834 251.81 314.914 252.034 314.914 252.333C314.914 252.621 314.829 252.845 314.658 253.005C314.487 253.154 314.279 253.229 314.034 253.229ZM321.216 263.597C320.501 263.597 319.866 263.437 319.312 263.117C318.768 262.786 318.341 262.306 318.032 261.677C317.722 261.048 317.568 260.28 317.568 259.373C317.568 258.445 317.728 257.645 318.048 256.973C318.368 256.301 318.821 255.784 319.408 255.421C319.994 255.048 320.682 254.861 321.472 254.861C322.218 254.861 322.832 255.021 323.312 255.341C323.802 255.65 324.165 256.082 324.4 256.637C324.645 257.192 324.768 257.826 324.768 258.541C324.768 258.658 324.762 258.776 324.752 258.893C324.741 259.01 324.725 259.154 324.704 259.325H318.544V258.413H323.584L323.44 258.509C323.45 258.029 323.392 257.586 323.264 257.181C323.136 256.776 322.917 256.45 322.608 256.205C322.298 255.96 321.888 255.837 321.376 255.837C320.832 255.837 320.373 255.981 320 256.269C319.626 256.557 319.349 256.952 319.168 257.453C318.986 257.954 318.896 258.536 318.896 259.197C318.896 259.901 318.997 260.509 319.2 261.021C319.402 261.522 319.696 261.912 320.08 262.189C320.474 262.466 320.954 262.605 321.52 262.605C321.914 262.605 322.346 262.53 322.816 262.381C323.285 262.221 323.77 261.981 324.272 261.661L324.736 262.381C324.138 262.786 323.541 263.09 322.944 263.293C322.346 263.496 321.77 263.597 321.216 263.597ZM319.248 253.405L318.784 252.877L320.96 250.829L321.712 250.765L323.984 252.877L323.52 253.405L320.928 251.517L321.776 251.533L319.248 253.405ZM326.573 263.453V262.765L328.013 262.445L327.821 262.685V255.805L328.013 256.045L326.573 255.741V255.053L328.813 254.941L328.989 256.509L328.813 256.445C329.347 255.901 329.901 255.501 330.477 255.245C331.064 254.989 331.619 254.861 332.141 254.861C332.845 254.861 333.427 255.08 333.885 255.517C334.355 255.944 334.584 256.61 334.573 257.517V262.685L334.413 262.461L335.821 262.765V263.453H332.093V262.765L333.485 262.461L333.293 262.701V257.789C333.293 257.128 333.144 256.642 332.845 256.333C332.547 256.024 332.147 255.869 331.645 255.869C331.251 255.869 330.819 255.976 330.349 256.189C329.891 256.402 329.437 256.733 328.989 257.181L329.101 256.925V262.701L328.941 262.477L330.301 262.765V263.453H326.573Z" fill="#1F2A37"/>
<path d="M438.654 172.582C437.899 176.416 437.729 177.872 437.458 178.655C437.871 178.853 438.323 179.193 438.684 179.398L449.915 185.675C455.618 176.423 453.152 180.623 460.548 178.582C475.47 174.441 478.832 155.407 467.696 145.417C464.37 142.429 460.141 140.639 455.681 140.331C451.221 140.023 446.786 141.215 443.08 143.717C439.188 146.624 436.52 150.878 435.596 155.647C434.673 160.416 435.561 165.359 438.087 169.508C438.453 169.92 438.698 170.424 438.799 170.966C438.898 171.508 438.849 172.067 438.654 172.582Z" fill="#FFB937"/>
<path d="M466.176 162.738C466.163 162.416 466.078 162.1 465.928 161.813C465.779 161.526 465.569 161.275 465.313 161.078C465.058 160.881 464.762 160.743 464.446 160.672C464.13 160.601 463.804 160.601 463.488 160.67C461.454 160.972 459.94 163.134 458.525 164.713C457.62 164.298 456.86 163.617 456.349 162.762C458.453 161.084 460.598 158.176 458.753 156.073C456.168 153.138 453.484 158.7 453.371 160.72C453.342 161.17 453.36 161.622 453.423 162.069C452.089 162.3 450.714 162.094 449.506 161.482C449.671 160.857 449.796 160.222 449.88 159.581C450.281 157.032 449.584 151.055 445.574 152.893C441.564 154.731 442.799 160.53 447.022 163.218C445.511 166.533 443.762 169.734 441.79 172.798C440.899 174.43 442.794 174.669 443.514 173.304C445.147 170.279 447.199 167.252 448.573 164.009C450.329 164.713 452.278 164.765 454.067 164.153C454.643 165.331 455.578 166.294 456.738 166.905C453.811 170.205 451.582 174.064 450.188 178.249C449.659 180.003 451.872 179.3 452.219 178.13C453.543 174.186 455.669 170.559 458.466 167.479C461.414 167.976 466.128 165.875 466.176 162.738ZM445.526 157.134C445.318 155.721 446.771 154.886 447.362 156.307C447.877 157.573 448.023 158.96 447.78 160.305C447.371 159.942 446.99 159.548 446.639 159.127C446.131 158.536 445.738 157.858 445.477 157.124L445.526 157.134ZM457.65 157.512C458.951 158.555 456.164 161.32 455.396 161.821C454.985 160.167 455.833 156.034 457.602 157.503L457.65 157.512ZM460.494 165.167C461.054 164.421 461.674 163.72 462.346 163.072C464.732 161.065 466.499 163.053 463.145 164.535C462.336 164.982 461.419 165.201 460.494 165.167Z" fill="white"/>
<path d="M470.852 174.186C473.358 171.506 475.141 168.233 476.034 164.674C476.927 161.115 476.9 157.388 475.956 153.842C475.012 150.297 473.183 147.049 470.64 144.405C468.096 141.761 464.923 139.807 461.416 138.727C443.304 133.488 426.083 153.643 435.67 170.741C435.728 170.87 436.694 171.997 436.694 171.997C436.694 171.997 435.584 177.635 435.128 179.955C435.09 180.148 435.094 180.551 435.307 180.66L448.967 188.369C449.661 188.756 450.386 188.129 450.797 187.574L454.659 181.641C457.724 181.568 460.741 180.869 463.527 179.587C466.311 178.305 468.805 176.467 470.852 174.186ZM438.726 179.442C438.349 179.234 437.929 178.9 437.5 178.698C437.665 177.861 437.649 177.941 438.696 172.625C438.883 172.123 438.932 171.58 438.84 171.053C438.746 170.526 438.513 170.033 438.165 169.626C435.64 165.476 434.751 160.534 435.674 155.765C436.598 150.995 439.266 146.741 443.158 143.834C447.141 141.115 451.975 139.932 456.764 140.505C461.553 141.077 465.971 143.366 469.201 146.948C472.43 150.529 474.251 155.16 474.327 159.983C474.404 164.805 472.728 169.491 469.613 173.172C467.91 175.038 465.856 176.547 463.566 177.613C461.276 178.679 458.798 179.28 456.275 179.382C453.912 179.486 454.165 178.967 449.993 185.793L438.726 179.442Z" fill="#352CBE"/>
<path d="M449.77 191.172L434.487 182.357C433.448 181.768 431.7 183.934 432.632 184.468L447.931 193.287C448.954 193.873 450.702 191.707 449.77 191.172Z" fill="#F3633E"/>
<path d="M432.63 186.61C431.591 186.021 429.84 188.203 430.775 188.721L444.609 196.565C445.648 197.155 447.396 194.989 446.464 194.454L432.63 186.61Z" fill="#F3633E"/>
<path d="M465.917 132.812C465.68 134.14 464.246 133.438 464.475 132.209L468.765 109.699C469.007 108.389 471.609 107.449 470.564 111.394L465.917 132.812Z" fill="#352CBE"/>
<path d="M490.505 131.86C491.326 131.357 492.155 132.38 491.387 132.841L477.251 141.251C476.434 141.743 473.881 140.919 476.597 139.588L490.505 131.86Z" fill="#352CBE"/>
<path d="M433.124 137.488L429.461 136.431L426.93 133.545C426.632 133.205 426.224 133.872 426.162 134.071C425.604 135.967 425.358 136.845 425.246 137.216C425.213 137.407 425.109 137.579 424.955 137.697L422.448 139.905C422.191 140.139 421.826 141.08 422.373 141.232L424.263 141.765C424.878 141.872 425.483 142.033 426.071 142.245C426.511 142.692 426.914 143.173 427.278 143.684L428.566 145.166C428.872 145.505 429.274 144.848 429.334 144.64L430.336 141.211C430.667 140.907 431.53 140.138 433.053 138.832C433.308 138.589 433.651 137.627 433.124 137.488ZM429.67 140.369C429.388 140.973 429.189 141.614 429.078 142.272C428.971 142.623 428.872 142.973 428.773 143.323L427.953 142.391C427.574 141.844 427.124 141.349 426.615 140.92C426.037 140.671 425.433 140.491 424.813 140.385L423.872 140.135C424.58 139.626 425.227 139.035 425.798 138.376C426.08 137.771 426.279 137.131 426.39 136.473C426.497 136.121 426.596 135.771 426.694 135.422L428.7 137.699C428.729 137.761 428.774 137.814 428.831 137.851C428.888 137.889 428.954 137.909 429.022 137.911L431.569 138.651C430.869 139.145 430.231 139.721 429.67 140.369Z" fill="#F3633E"/>
<path d="M455.079 119.348L456.334 117.154L458.59 115.976C458.856 115.838 458.49 115.47 458.371 115.399C457.238 114.742 456.711 114.446 456.49 114.316C456.371 114.265 456.277 114.171 456.225 114.053L455.196 112.092C455.085 111.89 454.537 111.507 454.353 111.836L453.713 112.97C453.547 113.349 453.349 113.713 453.12 114.059C452.763 114.272 452.39 114.457 452.004 114.611L450.847 115.208C450.581 115.352 450.941 115.714 451.066 115.785L453.118 116.969C453.262 117.229 453.622 117.906 454.224 119.092C454.341 119.294 454.907 119.666 455.079 119.348ZM453.765 116.671C453.419 116.395 453.038 116.166 452.632 115.992C452.422 115.867 452.212 115.749 452.002 115.63L452.731 115.249C453.143 115.09 453.532 114.878 453.889 114.617C454.139 114.284 454.35 113.923 454.516 113.54L454.824 112.973C455.041 113.509 455.32 114.018 455.656 114.489C456.001 114.766 456.382 114.995 456.789 115.169C456.998 115.293 457.208 115.412 457.418 115.53L455.636 116.465C455.592 116.474 455.551 116.495 455.518 116.526C455.485 116.557 455.461 116.596 455.45 116.64L454.573 118.164C454.365 117.636 454.094 117.135 453.765 116.671Z" fill="#F3633E"/>
<path d="M446.463 133.977C446.641 134.517 447.831 133.5 447.657 132.864L437.018 106.34C436.84 105.8 435.649 106.817 435.817 107.451L446.463 133.977Z" fill="#352CBE"/>
<path d="M486.722 154.307C486.241 157.808 490.481 158.431 492.693 156.976C493.447 156.5 494.057 155.822 494.57 155.092C495.543 153.731 495.707 153.067 494.904 151.513C494.263 149.42 493.635 149.776 493.072 152.607C493.336 152.935 493.649 153.289 493.913 153.617C494.711 154.353 495.812 154.875 496.895 155.075C499.655 155.538 502.149 153.669 503.026 151.192C503.239 150.554 504.136 150.279 504.541 150.932C506.757 154.424 512.02 154.651 514.645 151.475C515.333 150.65 516.542 151.793 515.854 152.617C512.541 156.618 505.973 156.137 503.16 151.764C503.658 151.652 504.178 151.616 504.676 151.504C503.029 156.139 497.63 158.407 493.451 155.312C492.018 154.238 490.192 152.017 490.982 150.057C491.639 148.465 493.652 148.094 495.146 148.699C499.554 150.538 496.215 156.592 493.551 158.308C489.932 160.644 484.363 158.752 485.076 153.871C485.223 152.885 486.847 153.247 486.722 154.307V154.307Z" fill="#4E49D6"/>
</svg>
