<svg width="154" height="84" viewBox="0 0 154 84" fill="none" xmlns="http://www.w3.org/2000/svg">
<path d="M7.36293 69.9551V69.6971L8.05893 69.5711L7.96293 69.7031V66.0431L8.07093 66.1331H6.91293L7.03293 66.0311L6.91293 66.7931H6.61293V65.7671H9.79893V66.7931H9.49893L9.37893 66.0431L9.49893 66.1331H8.34093L8.44893 66.0431V69.7031L8.35893 69.5711L9.04893 69.6971V69.9551H7.36293ZM10.0695 69.9551V69.6971L10.6155 69.5771L10.5435 69.6671V65.6471L10.6155 65.7431L10.0695 65.6231V65.3651L11.0235 65.3231V67.3511L10.9155 67.3271C11.1115 67.1231 11.3175 66.9731 11.5335 66.8771C11.7535 66.7811 11.9615 66.7331 12.1575 66.7331C12.3335 66.7331 12.4915 66.7691 12.6315 66.8411C12.7715 66.9131 12.8795 67.0231 12.9555 67.1711C13.0355 67.3151 13.0755 67.4991 13.0755 67.7231V69.6671L13.0155 69.5831L13.5435 69.6971V69.9551H12.1455V69.6971L12.6615 69.5831L12.5955 69.6731V67.8311C12.5995 67.5831 12.5435 67.4011 12.4275 67.2851C12.3115 67.1691 12.1595 67.1111 11.9715 67.1111C11.8275 67.1111 11.6675 67.1511 11.4915 67.2311C11.3155 67.3111 11.1455 67.4371 10.9815 67.6091L11.0235 67.5071V69.6731L10.9635 69.5891L11.4735 69.6971V69.9551H10.0695ZM15.1282 70.0091C14.8642 70.0091 14.6462 69.9271 14.4742 69.7631C14.3022 69.5991 14.2162 69.3471 14.2162 69.0071V67.0931L14.2762 67.1771L13.7422 67.0631V66.8051L14.6962 66.7691V68.9231C14.6962 69.1631 14.7522 69.3411 14.8642 69.4571C14.9762 69.5731 15.1262 69.6311 15.3142 69.6311C15.4622 69.6311 15.6222 69.5911 15.7942 69.5111C15.9662 69.4311 16.1362 69.3071 16.3042 69.1391L16.2682 69.2471V67.0811L16.3282 67.1771L15.7942 67.0631V66.8051L16.7482 66.7631V69.6611L16.6762 69.5831L17.2162 69.6851V69.9491L16.3762 69.9851L16.3042 69.3911L16.3702 69.4151C16.1742 69.6191 15.9662 69.7691 15.7462 69.8651C15.5302 69.9611 15.3242 70.0091 15.1282 70.0091ZM16.4782 67.0331L16.4602 66.7811C16.6042 66.7731 16.7082 66.7431 16.7722 66.6911C16.8402 66.6351 16.8742 66.5491 16.8742 66.4331C16.8742 66.3211 16.8462 66.1831 16.7902 66.0191L17.1562 65.9351C17.2002 66.0311 17.2302 66.1211 17.2462 66.2051C17.2662 66.2891 17.2762 66.3691 17.2762 66.4451C17.2762 66.6411 17.2042 66.7911 17.0602 66.8951C16.9202 66.9991 16.7262 67.0451 16.4782 67.0331ZM20.5704 66.8051L21.8244 66.7631V67.0271L21.4164 67.1471L21.5004 67.0571L20.4564 69.9671H19.8924L18.9384 67.0691L19.0224 67.1471L18.6084 67.0631V66.8051L19.9284 66.7631V67.0271L19.3824 67.1291L19.4304 67.0571L20.2344 69.6611H20.1864L21.0564 67.0751L21.0924 67.1291L20.5704 67.0631V66.8051ZM22.9375 69.6491L22.8835 69.5831L23.4055 69.6971V69.9551H21.9895V69.6971L22.5115 69.5831L22.4575 69.6491V67.1171L22.5055 67.1711L21.9895 67.0631V66.8051L22.9375 66.7691V69.6491ZM22.6615 66.1211C22.5695 66.1211 22.4935 66.0911 22.4335 66.0311C22.3735 65.9711 22.3435 65.8891 22.3435 65.7851C22.3435 65.6771 22.3735 65.5951 22.4335 65.5391C22.4975 65.4791 22.5755 65.4491 22.6675 65.4491C22.7635 65.4491 22.8415 65.4771 22.9015 65.5331C22.9615 65.5891 22.9915 65.6731 22.9915 65.7851C22.9915 65.8931 22.9595 65.9771 22.8955 66.0371C22.8315 66.0931 22.7535 66.1211 22.6615 66.1211ZM25.2046 70.0091C24.9366 70.0091 24.6986 69.9491 24.4906 69.8291C24.2866 69.7051 24.1266 69.5251 24.0106 69.2891C23.8946 69.0531 23.8366 68.7651 23.8366 68.4251C23.8366 68.0771 23.8966 67.7771 24.0166 67.5251C24.1366 67.2731 24.3066 67.0791 24.5266 66.9431C24.7466 66.8031 25.0046 66.7331 25.3006 66.7331C25.5806 66.7331 25.8106 66.7931 25.9906 66.9131C26.1746 67.0291 26.3106 67.1911 26.3986 67.3991C26.4906 67.6071 26.5366 67.8451 26.5366 68.1131C26.5366 68.1571 26.5346 68.2011 26.5306 68.2451C26.5266 68.2891 26.5206 68.3431 26.5126 68.4071H24.2026V68.0651H26.0926L26.0386 68.1011C26.0426 67.9211 26.0206 67.7551 25.9726 67.6031C25.9246 67.4511 25.8426 67.3291 25.7266 67.2371C25.6106 67.1451 25.4566 67.0991 25.2646 67.0991C25.0606 67.0991 24.8886 67.1531 24.7486 67.2611C24.6086 67.3691 24.5046 67.5171 24.4366 67.7051C24.3686 67.8931 24.3346 68.1111 24.3346 68.3591C24.3346 68.6231 24.3726 68.8511 24.4486 69.0431C24.5246 69.2311 24.6346 69.3771 24.7786 69.4811C24.9266 69.5851 25.1066 69.6371 25.3186 69.6371C25.4666 69.6371 25.6286 69.6091 25.8046 69.5531C25.9806 69.4931 26.1626 69.4031 26.3506 69.2831L26.5246 69.5531C26.3006 69.7051 26.0766 69.8191 25.8526 69.8951C25.6286 69.9711 25.4126 70.0091 25.2046 70.0091ZM24.4666 66.1871L24.2926 65.9891L25.1086 65.2211L25.3906 65.1971L26.2426 65.9891L26.0686 66.1871L25.0966 65.4791L25.4146 65.4851L24.4666 66.1871ZM25.1926 71.0471C25.1006 71.0471 25.0246 71.0171 24.9646 70.9571C24.9046 70.8971 24.8746 70.8151 24.8746 70.7111C24.8746 70.6031 24.9046 70.5191 24.9646 70.4591C25.0286 70.4031 25.1066 70.3751 25.1986 70.3751C25.2946 70.3751 25.3726 70.4031 25.4326 70.4591C25.4926 70.5151 25.5226 70.5991 25.5226 70.7111C25.5226 70.8191 25.4906 70.9011 25.4266 70.9571C25.3626 71.0171 25.2846 71.0471 25.1926 71.0471ZM27.0637 69.9551V69.6971L27.6037 69.5771L27.5317 69.6671V67.0871L27.6037 67.1771L27.0637 67.0631V66.8051L27.9037 66.7631L27.9697 67.3511L27.9037 67.3271C28.1037 67.1231 28.3117 66.9731 28.5277 66.8771C28.7477 66.7811 28.9557 66.7331 29.1517 66.7331C29.4157 66.7331 29.6337 66.8151 29.8057 66.9791C29.9817 67.1391 30.0677 67.3891 30.0637 67.7291V69.6671L30.0037 69.5831L30.5317 69.6971V69.9551H29.1337V69.6971L29.6557 69.5831L29.5837 69.6731V67.8311C29.5837 67.5831 29.5277 67.4011 29.4157 67.2851C29.3037 67.1691 29.1537 67.1111 28.9657 67.1111C28.8177 67.1111 28.6557 67.1511 28.4797 67.2311C28.3077 67.3111 28.1377 67.4351 27.9697 67.6031L28.0117 67.5071V69.6731L27.9517 69.5891L28.4617 69.6971V69.9551H27.0637ZM33.1477 66.0671H35.2417V66.3551H33.1477V66.0671ZM33.3037 70.0091C33.0837 70.0091 32.8837 69.9491 32.7037 69.8291C32.5237 69.7051 32.3817 69.5251 32.2777 69.2891C32.1737 69.0531 32.1217 68.7671 32.1217 68.4311C32.1217 67.8791 32.2617 67.4651 32.5417 67.1891C32.8217 66.9091 33.2077 66.7691 33.6997 66.7691C33.8077 66.7691 33.9197 66.7771 34.0357 66.7931C34.1557 66.8051 34.2757 66.8271 34.3957 66.8591L34.2997 66.9191V65.6651L34.3537 65.7251L33.8017 65.6111V65.3711L34.7797 65.3291V69.6671L34.7077 69.5831L35.2477 69.6911V69.9491L34.4077 69.9911L34.3357 69.4751L34.3957 69.4991C34.2157 69.6711 34.0337 69.7991 33.8497 69.8831C33.6697 69.9671 33.4877 70.0091 33.3037 70.0091ZM33.4717 69.6431C33.6117 69.6431 33.7557 69.6071 33.9037 69.5351C34.0557 69.4631 34.2077 69.3531 34.3597 69.2051L34.2997 69.3671V67.1231L34.3657 67.2371C34.1177 67.1611 33.8917 67.1231 33.6877 67.1231C33.3437 67.1231 33.0797 67.2311 32.8957 67.4471C32.7117 67.6631 32.6197 67.9771 32.6197 68.3891C32.6197 68.6491 32.6557 68.8731 32.7277 69.0611C32.8037 69.2491 32.9057 69.3931 33.0337 69.4931C33.1657 69.5931 33.3117 69.6431 33.4717 69.6431ZM38.0141 69.6851L37.9361 69.5771L38.4881 69.6851V69.9491L37.6481 69.9851L37.5761 69.4091L37.6181 69.4271C37.4421 69.6191 37.2521 69.7651 37.0481 69.8651C36.8441 69.9611 36.6461 70.0091 36.4541 70.0091C36.2221 70.0091 36.0261 69.9351 35.8661 69.7871C35.7061 69.6391 35.6261 69.4151 35.6261 69.1151C35.6261 68.8791 35.6761 68.6991 35.7761 68.5751C35.8761 68.4471 36.0141 68.3571 36.1901 68.3051C36.3661 68.2531 36.5701 68.2271 36.8021 68.2271H37.5881L37.5341 68.2871V67.7111C37.5341 67.4911 37.4761 67.3351 37.3601 67.2431C37.2441 67.1471 37.0841 67.0991 36.8801 67.0991C36.7721 67.0991 36.6561 67.1111 36.5321 67.1351C36.4121 67.1551 36.2841 67.1891 36.1481 67.2371L36.2201 67.1591L36.1601 67.7051H35.8421L35.7941 66.9611C36.0221 66.8851 36.2361 66.8291 36.4361 66.7931C36.6361 66.7531 36.8201 66.7331 36.9881 66.7331C37.3081 66.7331 37.5581 66.8051 37.7381 66.9491C37.9221 67.0891 38.0141 67.3151 38.0141 67.6271V69.6851ZM36.1121 69.0731C36.1121 69.2691 36.1581 69.4131 36.2501 69.5051C36.3461 69.5971 36.4661 69.6431 36.6101 69.6431C36.7501 69.6431 36.9041 69.6011 37.0721 69.5171C37.2441 69.4291 37.4101 69.3111 37.5701 69.1631L37.5341 69.2891V68.4851L37.5881 68.5391H36.8741C36.5901 68.5391 36.3921 68.5831 36.2801 68.6711C36.1681 68.7551 36.1121 68.8891 36.1121 69.0731ZM41.2725 70.0091C41.0525 70.0091 40.8525 69.9491 40.6725 69.8291C40.4925 69.7051 40.3505 69.5251 40.2465 69.2891C40.1425 69.0491 40.0905 68.7591 40.0905 68.4191C40.0905 67.8631 40.2325 67.4431 40.5165 67.1591C40.8005 66.8751 41.1905 66.7331 41.6865 66.7331C41.7905 66.7331 41.8985 66.7411 42.0105 66.7571C42.1265 66.7731 42.2445 66.7971 42.3645 66.8291L42.2685 66.8831V65.6771L42.3225 65.7431L41.7705 65.6231V65.3651L42.7485 65.3231V69.6611L42.6765 69.5771L43.2165 69.6851V69.9491L42.3765 69.9851L42.3045 69.4691L42.3645 69.4931C42.1845 69.6651 42.0025 69.7951 41.8185 69.8831C41.6385 69.9671 41.4565 70.0091 41.2725 70.0091ZM41.4405 69.6431C41.5805 69.6431 41.7245 69.6071 41.8725 69.5351C42.0245 69.4591 42.1765 69.3471 42.3285 69.1991L42.2685 69.3611V67.0871L42.3345 67.2071C42.0905 67.1271 41.8685 67.0871 41.6685 67.0871C41.3165 67.0871 41.0485 67.2011 40.8645 67.4291C40.6805 67.6571 40.5885 67.9731 40.5885 68.3771C40.5885 68.6411 40.6245 68.8691 40.6965 69.0611C40.7725 69.2491 40.8745 69.3931 41.0025 69.4931C41.1345 69.5931 41.2805 69.6431 41.4405 69.6431ZM45.977 69.6851L45.899 69.5771L46.451 69.6851V69.9491L45.611 69.9851L45.539 69.4091L45.581 69.4271C45.405 69.6191 45.215 69.7651 45.011 69.8651C44.807 69.9611 44.609 70.0091 44.417 70.0091C44.185 70.0091 43.989 69.9351 43.829 69.7871C43.669 69.6391 43.589 69.4151 43.589 69.1151C43.589 68.8791 43.639 68.6991 43.739 68.5751C43.839 68.4471 43.977 68.3571 44.153 68.3051C44.329 68.2531 44.533 68.2271 44.765 68.2271H45.551L45.497 68.2871V67.7111C45.497 67.4911 45.439 67.3351 45.323 67.2431C45.207 67.1471 45.047 67.0991 44.843 67.0991C44.735 67.0991 44.619 67.1111 44.495 67.1351C44.375 67.1551 44.247 67.1891 44.111 67.2371L44.183 67.1591L44.123 67.7051H43.805L43.757 66.9611C43.985 66.8851 44.199 66.8291 44.399 66.7931C44.599 66.7531 44.783 66.7331 44.951 66.7331C45.271 66.7331 45.521 66.8051 45.701 66.9491C45.885 67.0891 45.977 67.3151 45.977 67.6271V69.6851ZM44.075 69.0731C44.075 69.2691 44.121 69.4131 44.213 69.5051C44.309 69.5971 44.429 69.6431 44.573 69.6431C44.713 69.6431 44.867 69.6011 45.035 69.5171C45.207 69.4291 45.373 69.3111 45.533 69.1631L45.497 69.2891V68.4851L45.551 68.5391H44.837C44.553 68.5391 44.355 68.5831 44.243 68.6711C44.131 68.7551 44.075 68.8891 44.075 69.0731ZM44.921 71.0471C44.829 71.0471 44.753 71.0171 44.693 70.9571C44.633 70.8971 44.603 70.8151 44.603 70.7111C44.603 70.6031 44.633 70.5191 44.693 70.4591C44.757 70.4031 44.835 70.3751 44.927 70.3751C45.023 70.3751 45.101 70.4031 45.161 70.4591C45.221 70.5151 45.251 70.5991 45.251 70.7111C45.251 70.8191 45.219 70.9011 45.155 70.9571C45.091 71.0171 45.013 71.0471 44.921 71.0471ZM46.7981 69.9551V69.6971L47.3381 69.5771L47.2661 69.6671V67.0871L47.3381 67.1771L46.7981 67.0631V66.8051L47.6381 66.7631L47.7041 67.3511L47.6381 67.3271C47.8381 67.1231 48.0461 66.9731 48.2621 66.8771C48.4821 66.7811 48.6901 66.7331 48.8861 66.7331C49.1501 66.7331 49.3681 66.8151 49.5401 66.9791C49.7161 67.1391 49.8021 67.3891 49.7981 67.7291V69.6671L49.7381 69.5831L50.2661 69.6971V69.9551H48.8681V69.6971L49.3901 69.5831L49.3181 69.6731V67.8311C49.3181 67.5831 49.2621 67.4011 49.1501 67.2851C49.0381 67.1691 48.8881 67.1111 48.7001 67.1111C48.5521 67.1111 48.3901 67.1511 48.2141 67.2311C48.0421 67.3111 47.8721 67.4351 47.7041 67.6031L47.7461 67.5071V69.6731L47.6861 69.5891L48.1961 69.6971V69.9551H46.7981ZM51.9509 71.3891C51.4829 71.3891 51.1329 71.3211 50.9009 71.1851C50.6689 71.0491 50.5529 70.8531 50.5529 70.5971C50.5529 70.4171 50.6129 70.2571 50.7329 70.1171C50.8529 69.9771 51.0289 69.8551 51.2609 69.7511L51.2669 69.8471C51.1389 69.8391 51.0409 69.8131 50.9729 69.7691C50.9049 69.7211 50.8709 69.6551 50.8709 69.5711C50.8709 69.5391 50.8749 69.5071 50.8829 69.4751C50.8909 69.4431 50.9049 69.3991 50.9249 69.3431C50.9489 69.2831 50.9829 69.2051 51.0269 69.1091C51.0749 69.0091 51.1349 68.8791 51.2069 68.7191L51.2189 68.8031C51.0469 68.7111 50.9149 68.5871 50.8229 68.4311C50.7309 68.2711 50.6849 68.0831 50.6849 67.8671C50.6849 67.5191 50.7989 67.2431 51.0269 67.0391C51.2589 66.8351 51.5769 66.7331 51.9809 66.7331C52.2529 66.7331 52.4869 66.7811 52.6829 66.8771L52.5509 66.8471L53.4929 66.8051L53.4989 67.0931L52.9409 67.2011L52.9829 67.1291C53.0669 67.2091 53.1309 67.3071 53.1749 67.4231C53.2189 67.5391 53.2409 67.6711 53.2409 67.8191C53.2409 68.1711 53.1229 68.4491 52.8869 68.6531C52.6509 68.8571 52.3369 68.9591 51.9449 68.9591C51.7209 68.9591 51.5149 68.9211 51.3269 68.8451L51.4349 68.7911L51.2789 69.5771L51.1769 69.5171H52.3529C52.7369 69.5171 53.0289 69.5931 53.2289 69.7451C53.4289 69.8931 53.5289 70.1071 53.5289 70.3871C53.5289 70.7111 53.3949 70.9591 53.1269 71.1311C52.8629 71.3031 52.4709 71.3891 51.9509 71.3891ZM51.9929 71.0231C52.3569 71.0231 52.6269 70.9731 52.8029 70.8731C52.9789 70.7731 53.0669 70.6231 53.0669 70.4231C53.0669 70.2471 53.0009 70.1131 52.8689 70.0211C52.7369 69.9331 52.5389 69.8891 52.2749 69.8891H51.3209L51.4589 69.8591C51.1389 70.0591 50.9789 70.2751 50.9789 70.5071C50.9789 70.6791 51.0609 70.8071 51.2249 70.8911C51.3929 70.9791 51.6489 71.0231 51.9929 71.0231ZM51.9449 68.6231C52.2009 68.6231 52.4009 68.5551 52.5449 68.4191C52.6889 68.2791 52.7609 68.0831 52.7609 67.8311C52.7609 67.5791 52.6929 67.3891 52.5569 67.2611C52.4209 67.1331 52.2269 67.0691 51.9749 67.0691C51.7189 67.0691 51.5209 67.1371 51.3809 67.2731C51.2409 67.4051 51.1709 67.5991 51.1709 67.8551C51.1709 68.1031 51.2369 68.2931 51.3689 68.4251C51.5049 68.5571 51.6969 68.6231 51.9449 68.6231Z" fill="#0D006A"/>
<path d="M8.23893 78.9611L6.93093 75.0671L7.06293 75.1631L6.48093 75.0551V74.7971L8.06493 74.7671V75.0251L7.41093 75.1511L7.47093 75.0251L8.57493 78.5231H8.49693L9.67893 75.0551L9.72693 75.1571L9.08493 75.0551V74.7971L10.5849 74.7671V75.0251L10.0029 75.1511L10.1289 75.0551L8.75493 78.9611H8.23893ZM11.8745 79.0091C11.4505 79.0091 11.1145 78.8751 10.8665 78.6071C10.6225 78.3351 10.5005 77.9471 10.5005 77.4431C10.5005 77.0911 10.5585 76.7871 10.6745 76.5311C10.7945 76.2751 10.9645 76.0791 11.1845 75.9431C11.4085 75.8031 11.6765 75.7331 11.9885 75.7331C12.4245 75.7331 12.7665 75.8711 13.0145 76.1471C13.2665 76.4231 13.3925 76.8111 13.3925 77.3111C13.3925 77.6551 13.3325 77.9551 13.2125 78.2111C13.0925 78.4631 12.9185 78.6591 12.6905 78.7991C12.4665 78.9391 12.1945 79.0091 11.8745 79.0091ZM11.9105 78.6551C12.1225 78.6551 12.3005 78.6031 12.4445 78.4991C12.5925 78.3911 12.7025 78.2391 12.7745 78.0431C12.8505 77.8471 12.8885 77.6111 12.8885 77.3351C12.8885 76.9311 12.8065 76.6231 12.6425 76.4111C12.4825 76.1951 12.2545 76.0871 11.9585 76.0871C11.6505 76.0871 11.4145 76.2031 11.2505 76.4351C11.0865 76.6671 11.0045 76.9931 11.0045 77.4131C11.0045 77.8251 11.0825 78.1351 11.2385 78.3431C11.3945 78.5511 11.6185 78.6551 11.9105 78.6551ZM12.5705 76.0751L12.4385 75.8171C12.6665 75.8131 12.8325 75.7811 12.9365 75.7211C13.0445 75.6571 13.0985 75.5571 13.0985 75.4211C13.0985 75.3651 13.0905 75.3031 13.0745 75.2351C13.0625 75.1671 13.0425 75.0951 13.0145 75.0191L13.3805 74.9291C13.4245 75.0291 13.4545 75.1211 13.4705 75.2051C13.4905 75.2891 13.5005 75.3691 13.5005 75.4451C13.5005 75.6491 13.4205 75.8051 13.2605 75.9131C13.1045 76.0171 12.8745 76.0711 12.5705 76.0751ZM11.5505 75.2351L11.3765 74.9891L12.4685 74.1311L12.7385 74.4971L11.5505 75.2351ZM14.8574 78.6491L14.8034 78.5831L15.3254 78.6971V78.9551H13.9094V78.6971L14.4314 78.5831L14.3774 78.6491V76.1171L14.4254 76.1711L13.9094 76.0631V75.8051L14.8574 75.7691V78.6491ZM14.5814 75.1211C14.4894 75.1211 14.4134 75.0911 14.3534 75.0311C14.2934 74.9711 14.2634 74.8891 14.2634 74.7851C14.2634 74.6771 14.2934 74.5951 14.3534 74.5391C14.4174 74.4791 14.4954 74.4491 14.5874 74.4491C14.6834 74.4491 14.7614 74.4771 14.8214 74.5331C14.8814 74.5891 14.9114 74.6731 14.9114 74.7851C14.9114 74.8931 14.8794 74.9771 14.8154 75.0371C14.7514 75.0931 14.6734 75.1211 14.5814 75.1211ZM16.8137 78.9551V78.6971L17.3597 78.5771L17.2877 78.6671V74.6471L17.3597 74.7431L16.8137 74.6231V74.3651L17.7677 74.3231V76.3511L17.6597 76.3271C17.8557 76.1231 18.0617 75.9731 18.2777 75.8771C18.4977 75.7811 18.7057 75.7331 18.9017 75.7331C19.0777 75.7331 19.2357 75.7691 19.3757 75.8411C19.5157 75.9131 19.6237 76.0231 19.6997 76.1711C19.7797 76.3151 19.8197 76.4991 19.8197 76.7231V78.6671L19.7597 78.5831L20.2877 78.6971V78.9551H18.8897V78.6971L19.4057 78.5831L19.3397 78.6731V76.8311C19.3437 76.5831 19.2877 76.4011 19.1717 76.2851C19.0557 76.1691 18.9037 76.1111 18.7157 76.1111C18.5717 76.1111 18.4117 76.1511 18.2357 76.2311C18.0597 76.3111 17.8897 76.4371 17.7257 76.6091L17.7677 76.5071V78.6731L17.7077 78.5891L18.2177 78.6971V78.9551H16.8137ZM22.0464 79.0091C21.6224 79.0091 21.2864 78.8751 21.0384 78.6071C20.7944 78.3351 20.6724 77.9471 20.6724 77.4431C20.6724 77.0911 20.7304 76.7871 20.8464 76.5311C20.9664 76.2751 21.1364 76.0791 21.3564 75.9431C21.5804 75.8031 21.8484 75.7331 22.1604 75.7331C22.5964 75.7331 22.9384 75.8711 23.1864 76.1471C23.4384 76.4231 23.5644 76.8111 23.5644 77.3111C23.5644 77.6551 23.5044 77.9551 23.3844 78.2111C23.2644 78.4631 23.0904 78.6591 22.8624 78.7991C22.6384 78.9391 22.3664 79.0091 22.0464 79.0091ZM22.0824 78.6551C22.2944 78.6551 22.4724 78.6031 22.6164 78.4991C22.7644 78.3911 22.8744 78.2391 22.9464 78.0431C23.0224 77.8471 23.0604 77.6111 23.0604 77.3351C23.0604 76.9311 22.9784 76.6231 22.8144 76.4111C22.6544 76.1951 22.4264 76.0871 22.1304 76.0871C21.8224 76.0871 21.5864 76.2031 21.4224 76.4351C21.2584 76.6671 21.1764 76.9931 21.1764 77.4131C21.1764 77.8251 21.2544 78.1351 21.4104 78.3431C21.5664 78.5511 21.7904 78.6551 22.0824 78.6551ZM22.7424 76.0751L22.6104 75.8171C22.8384 75.8131 23.0044 75.7811 23.1084 75.7211C23.2164 75.6571 23.2704 75.5571 23.2704 75.4211C23.2704 75.3651 23.2624 75.3031 23.2464 75.2351C23.2344 75.1671 23.2144 75.0951 23.1864 75.0191L23.5524 74.9291C23.5964 75.0291 23.6264 75.1211 23.6424 75.2051C23.6624 75.2891 23.6724 75.3691 23.6724 75.4451C23.6724 75.6491 23.5924 75.8051 23.4324 75.9131C23.2764 76.0171 23.0464 76.0711 22.7424 76.0751ZM24.0813 78.9551V78.6971L24.6213 78.5771L24.5493 78.6671V76.0871L24.6213 76.1771L24.0813 76.0631V75.8051L24.9213 75.7631L24.9873 76.3511L24.9213 76.3271C25.1213 76.1231 25.3293 75.9731 25.5453 75.8771C25.7653 75.7811 25.9733 75.7331 26.1693 75.7331C26.4333 75.7331 26.6513 75.8151 26.8233 75.9791C26.9993 76.1391 27.0853 76.3891 27.0813 76.7291V78.6671L27.0213 78.5831L27.5493 78.6971V78.9551H26.1513V78.6971L26.6733 78.5831L26.6013 78.6731V76.8311C26.6013 76.5831 26.5453 76.4011 26.4333 76.2851C26.3213 76.1691 26.1713 76.1111 25.9833 76.1111C25.8353 76.1111 25.6733 76.1511 25.4973 76.2311C25.3253 76.3111 25.1553 76.4351 24.9873 76.6031L25.0293 76.5071V78.6731L24.9693 78.5891L25.4793 78.6971V78.9551H24.0813ZM30.3573 79.0031C30.1373 79.0031 29.9193 78.9751 29.7033 78.9191C29.4873 78.8631 29.2833 78.7791 29.0913 78.6671L29.2353 78.3071C29.4113 78.4071 29.5933 78.4831 29.7813 78.5351C29.9733 78.5871 30.1613 78.6131 30.3453 78.6131C30.5453 78.6131 30.7213 78.5831 30.8733 78.5231C31.0293 78.4591 31.1513 78.3631 31.2393 78.2351C31.3273 78.1071 31.3713 77.9471 31.3713 77.7551C31.3713 77.5991 31.3353 77.4611 31.2633 77.3411C31.1953 77.2171 31.0853 77.1191 30.9333 77.0471C30.7813 76.9751 30.5793 76.9391 30.3273 76.9391H29.8293V76.5731H30.3333C30.6493 76.5731 30.8853 76.5071 31.0413 76.3751C31.2013 76.2431 31.2813 76.0571 31.2813 75.8171C31.2813 75.5531 31.1993 75.3651 31.0353 75.2531C30.8713 75.1371 30.6593 75.0791 30.3993 75.0791C30.2633 75.0791 30.1233 75.0931 29.9793 75.1211C29.8353 75.1491 29.6933 75.1851 29.5533 75.2291L29.6253 75.1511L29.5533 75.8591H29.2533L29.2053 74.9471C29.4253 74.8751 29.6473 74.8191 29.8713 74.7791C30.0953 74.7351 30.3073 74.7131 30.5073 74.7131C30.7513 74.7131 30.9693 74.7471 31.1613 74.8151C31.3573 74.8831 31.5093 74.9931 31.6173 75.1451C31.7293 75.2971 31.7853 75.4971 31.7853 75.7451C31.7853 76.0371 31.7013 76.2671 31.5333 76.4351C31.3653 76.6031 31.1133 76.7111 30.7773 76.7591L30.7593 76.7231C31.1353 76.7471 31.4153 76.8511 31.5993 77.0351C31.7833 77.2151 31.8753 77.4591 31.8753 77.7671C31.8753 77.9751 31.8353 78.1571 31.7553 78.3131C31.6793 78.4691 31.5713 78.5991 31.4313 78.7031C31.2913 78.8031 31.1293 78.8791 30.9453 78.9311C30.7613 78.9791 30.5653 79.0031 30.3573 79.0031ZM34.1692 79.0091C33.8292 79.0091 33.5472 78.9311 33.3232 78.7751C33.1032 78.6191 32.9392 78.3851 32.8312 78.0731C32.7272 77.7611 32.6752 77.3691 32.6752 76.8971C32.6752 76.4091 32.7312 76.0051 32.8432 75.6851C32.9552 75.3611 33.1292 75.1191 33.3652 74.9591C33.6012 74.7951 33.8972 74.7131 34.2532 74.7131C34.6012 74.7131 34.8812 74.7871 35.0932 74.9351C35.3092 75.0831 35.4652 75.3091 35.5612 75.6131C35.6612 75.9171 35.7112 76.3031 35.7112 76.7711C35.7112 77.2671 35.6552 77.6811 35.5432 78.0131C35.4312 78.3451 35.2592 78.5951 35.0272 78.7631C34.7992 78.9271 34.5132 79.0091 34.1692 79.0091ZM34.1872 78.6251C34.4192 78.6251 34.6092 78.5591 34.7572 78.4271C34.9052 78.2951 35.0152 78.0971 35.0872 77.8331C35.1592 77.5651 35.1972 77.2271 35.2012 76.8191C35.2052 76.3951 35.1712 76.0591 35.0992 75.8111C35.0272 75.5591 34.9192 75.3771 34.7752 75.2651C34.6312 75.1531 34.4512 75.0971 34.2352 75.0971C33.9952 75.0971 33.7972 75.1631 33.6412 75.2951C33.4852 75.4231 33.3692 75.6191 33.2932 75.8831C33.2212 76.1431 33.1852 76.4731 33.1852 76.8731C33.1852 77.2731 33.2212 77.6031 33.2932 77.8631C33.3652 78.1191 33.4752 78.3111 33.6232 78.4391C33.7712 78.5631 33.9592 78.6251 34.1872 78.6251ZM38.0129 79.0091C37.6729 79.0091 37.3909 78.9311 37.1669 78.7751C36.9469 78.6191 36.7829 78.3851 36.6749 78.0731C36.5709 77.7611 36.5189 77.3691 36.5189 76.8971C36.5189 76.4091 36.5749 76.0051 36.6869 75.6851C36.7989 75.3611 36.9729 75.1191 37.2089 74.9591C37.4449 74.7951 37.7409 74.7131 38.0969 74.7131C38.4449 74.7131 38.7249 74.7871 38.9369 74.9351C39.1529 75.0831 39.3089 75.3091 39.4049 75.6131C39.5049 75.9171 39.5549 76.3031 39.5549 76.7711C39.5549 77.2671 39.4989 77.6811 39.3869 78.0131C39.2749 78.3451 39.1029 78.5951 38.8709 78.7631C38.6429 78.9271 38.3569 79.0091 38.0129 79.0091ZM38.0309 78.6251C38.2629 78.6251 38.4529 78.5591 38.6009 78.4271C38.7489 78.2951 38.8589 78.0971 38.9309 77.8331C39.0029 77.5651 39.0409 77.2271 39.0449 76.8191C39.0489 76.3951 39.0149 76.0591 38.9429 75.8111C38.8709 75.5591 38.7629 75.3771 38.6189 75.2651C38.4749 75.1531 38.2949 75.0971 38.0789 75.0971C37.8389 75.0971 37.6409 75.1631 37.4849 75.2951C37.3289 75.4231 37.2129 75.6191 37.1369 75.8831C37.0649 76.1431 37.0289 76.4731 37.0289 76.8731C37.0289 77.2731 37.0649 77.6031 37.1369 77.8631C37.2089 78.1191 37.3189 78.3111 37.4669 78.4391C37.6149 78.5631 37.8029 78.6251 38.0309 78.6251ZM41.8567 79.0091C41.5167 79.0091 41.2347 78.9311 41.0107 78.7751C40.7907 78.6191 40.6267 78.3851 40.5187 78.0731C40.4147 77.7611 40.3627 77.3691 40.3627 76.8971C40.3627 76.4091 40.4187 76.0051 40.5307 75.6851C40.6427 75.3611 40.8167 75.1191 41.0527 74.9591C41.2887 74.7951 41.5847 74.7131 41.9407 74.7131C42.2887 74.7131 42.5687 74.7871 42.7807 74.9351C42.9967 75.0831 43.1527 75.3091 43.2487 75.6131C43.3487 75.9171 43.3987 76.3031 43.3987 76.7711C43.3987 77.2671 43.3427 77.6811 43.2307 78.0131C43.1187 78.3451 42.9467 78.5951 42.7147 78.7631C42.4867 78.9271 42.2007 79.0091 41.8567 79.0091ZM41.8747 78.6251C42.1067 78.6251 42.2967 78.5591 42.4447 78.4271C42.5927 78.2951 42.7027 78.0971 42.7747 77.8331C42.8467 77.5651 42.8847 77.2271 42.8887 76.8191C42.8927 76.3951 42.8587 76.0591 42.7867 75.8111C42.7147 75.5591 42.6067 75.3771 42.4627 75.2651C42.3187 75.1531 42.1387 75.0971 41.9227 75.0971C41.6827 75.0971 41.4847 75.1631 41.3287 75.2951C41.1727 75.4231 41.0567 75.6191 40.9807 75.8831C40.9087 76.1431 40.8727 76.4731 40.8727 76.8731C40.8727 77.2731 40.9087 77.6031 40.9807 77.8631C41.0527 78.1191 41.1627 78.3111 41.3107 78.4391C41.4587 78.5631 41.6467 78.6251 41.8747 78.6251ZM46.2956 79.0091C46.0876 79.0091 45.9236 78.9451 45.8036 78.8171C45.6836 78.6851 45.6236 78.4871 45.6236 78.2231V76.0451L45.7016 76.1231H45.0836V75.8591L45.7076 75.7691L45.6236 75.8651V75.0731L46.1036 74.9951V75.8651L46.0376 75.7871H46.9796L46.9616 76.1231H46.0376L46.1036 76.0451V78.1571C46.1036 78.3251 46.1356 78.4471 46.1996 78.5231C46.2676 78.5991 46.3616 78.6371 46.4816 78.6371C46.5536 78.6371 46.6316 78.6251 46.7156 78.6011C46.7996 78.5771 46.8896 78.5431 46.9856 78.4991L47.0876 78.7751C46.8036 78.9311 46.5396 79.0091 46.2956 79.0091ZM49.8148 78.6851L49.7368 78.5771L50.2888 78.6851V78.9491L49.4488 78.9851L49.3768 78.4091L49.4188 78.4271C49.2428 78.6191 49.0528 78.7651 48.8488 78.8651C48.6448 78.9611 48.4468 79.0091 48.2548 79.0091C48.0228 79.0091 47.8268 78.9351 47.6668 78.7871C47.5068 78.6391 47.4268 78.4151 47.4268 78.1151C47.4268 77.8791 47.4768 77.6991 47.5768 77.5751C47.6768 77.4471 47.8148 77.3571 47.9908 77.3051C48.1668 77.2531 48.3708 77.2271 48.6028 77.2271H49.3888L49.3348 77.2871V76.7111C49.3348 76.4911 49.2768 76.3351 49.1608 76.2431C49.0448 76.1471 48.8848 76.0991 48.6808 76.0991C48.5728 76.0991 48.4568 76.1111 48.3328 76.1351C48.2128 76.1551 48.0848 76.1891 47.9488 76.2371L48.0208 76.1591L47.9608 76.7051H47.6428L47.5948 75.9611C47.8228 75.8851 48.0368 75.8291 48.2368 75.7931C48.4368 75.7531 48.6208 75.7331 48.7888 75.7331C49.1088 75.7331 49.3588 75.8051 49.5388 75.9491C49.7228 76.0891 49.8148 76.3151 49.8148 76.6271V78.6851ZM47.9128 78.0731C47.9128 78.2691 47.9588 78.4131 48.0508 78.5051C48.1468 78.5971 48.2668 78.6431 48.4108 78.6431C48.5508 78.6431 48.7048 78.6011 48.8728 78.5171C49.0448 78.4291 49.2108 78.3111 49.3708 78.1631L49.3348 78.2891V77.4851L49.3888 77.5391H48.6748C48.3908 77.5391 48.1928 77.5831 48.0808 77.6711C47.9688 77.7551 47.9128 77.8891 47.9128 78.0731ZM48.3328 74.1251L49.4008 74.9831L49.2148 75.2351L48.0568 74.4851L48.3328 74.1251ZM51.584 78.6491L51.53 78.5831L52.052 78.6971V78.9551H50.636V78.6971L51.158 78.5831L51.104 78.6491V76.1171L51.152 76.1711L50.636 76.0631V75.8051L51.584 75.7691V78.6491ZM51.308 75.1211C51.216 75.1211 51.14 75.0911 51.08 75.0311C51.02 74.9711 50.99 74.8891 50.99 74.7851C50.99 74.6771 51.02 74.5951 51.08 74.5391C51.144 74.4791 51.222 74.4491 51.314 74.4491C51.41 74.4491 51.488 74.4771 51.548 74.5331C51.608 74.5891 51.638 74.6731 51.638 74.7851C51.638 74.8931 51.606 74.9771 51.542 75.0371C51.478 75.0931 51.4 75.1211 51.308 75.1211ZM54.4942 78.6491L54.4402 78.5831L54.9622 78.6971V78.9551H53.5402V78.6971L54.0622 78.5831L54.0142 78.6491V74.6771L54.0622 74.7311L53.5402 74.6231V74.3651L54.4942 74.3231V78.6491ZM56.2832 78.6491L56.2292 78.5831L56.7512 78.6971V78.9551H55.3352V78.6971L55.8572 78.5831L55.8032 78.6491V76.1171L55.8512 76.1711L55.3352 76.0631V75.8051L56.2832 75.7691V78.6491ZM56.0072 75.1211C55.9152 75.1211 55.8392 75.0911 55.7792 75.0311C55.7192 74.9711 55.6892 74.8891 55.6892 74.7851C55.6892 74.6771 55.7192 74.5951 55.7792 74.5391C55.8432 74.4791 55.9212 74.4491 56.0132 74.4491C56.1092 74.4491 56.1872 74.4771 56.2472 74.5331C56.3072 74.5891 56.3372 74.6731 56.3372 74.7851C56.3372 74.8931 56.3052 74.9771 56.2412 75.0371C56.1772 75.0931 56.0992 75.1211 56.0072 75.1211ZM58.5503 79.0091C58.2823 79.0091 58.0443 78.9491 57.8363 78.8291C57.6323 78.7051 57.4723 78.5251 57.3563 78.2891C57.2403 78.0531 57.1823 77.7651 57.1823 77.4251C57.1823 77.0771 57.2423 76.7771 57.3623 76.5251C57.4823 76.2731 57.6523 76.0791 57.8723 75.9431C58.0923 75.8031 58.3503 75.7331 58.6463 75.7331C58.9263 75.7331 59.1563 75.7931 59.3363 75.9131C59.5203 76.0291 59.6563 76.1911 59.7443 76.3991C59.8363 76.6071 59.8823 76.8451 59.8823 77.1131C59.8823 77.1571 59.8803 77.2011 59.8763 77.2451C59.8723 77.2891 59.8663 77.3431 59.8583 77.4071H57.5483V77.0651H59.4383L59.3843 77.1011C59.3883 76.9211 59.3663 76.7551 59.3183 76.6031C59.2703 76.4511 59.1883 76.3291 59.0723 76.2371C58.9563 76.1451 58.8023 76.0991 58.6103 76.0991C58.4063 76.0991 58.2343 76.1531 58.0943 76.2611C57.9543 76.3691 57.8503 76.5171 57.7823 76.7051C57.7143 76.8931 57.6803 77.1111 57.6803 77.3591C57.6803 77.6231 57.7183 77.8511 57.7943 78.0431C57.8703 78.2311 57.9803 78.3771 58.1243 78.4811C58.2723 78.5851 58.4523 78.6371 58.6643 78.6371C58.8123 78.6371 58.9743 78.6091 59.1503 78.5531C59.3263 78.4931 59.5083 78.4031 59.6963 78.2831L59.8703 78.5531C59.6463 78.7051 59.4223 78.8191 59.1983 78.8951C58.9743 78.9711 58.7583 79.0091 58.5503 79.0091ZM57.8123 75.1871L57.6383 74.9891L58.4543 74.2211L58.7363 74.1971L59.5883 74.9891L59.4143 75.1871L58.4423 74.4791L58.7603 74.4851L57.8123 75.1871ZM58.5383 80.0471C58.4463 80.0471 58.3703 80.0171 58.3103 79.9571C58.2503 79.8971 58.2203 79.8151 58.2203 79.7111C58.2203 79.6031 58.2503 79.5191 58.3103 79.4591C58.3743 79.4031 58.4523 79.3751 58.5443 79.3751C58.6403 79.3751 58.7183 79.4031 58.7783 79.4591C58.8383 79.5151 58.8683 79.5991 58.8683 79.7111C58.8683 79.8191 58.8363 79.9011 58.7723 79.9571C58.7083 80.0171 58.6303 80.0471 58.5383 80.0471ZM61.6634 79.0091C61.3994 79.0091 61.1814 78.9271 61.0094 78.7631C60.8374 78.5991 60.7514 78.3471 60.7514 78.0071V76.0931L60.8114 76.1771L60.2774 76.0631V75.8051L61.2314 75.7691V77.9231C61.2314 78.1631 61.2874 78.3411 61.3994 78.4571C61.5114 78.5731 61.6614 78.6311 61.8494 78.6311C61.9974 78.6311 62.1574 78.5911 62.3294 78.5111C62.5014 78.4311 62.6714 78.3071 62.8394 78.1391L62.8034 78.2471V76.0811L62.8634 76.1771L62.3294 76.0631V75.8051L63.2834 75.7631V78.6611L63.2114 78.5831L63.7514 78.6851V78.9491L62.9114 78.9851L62.8394 78.3911L62.9054 78.4151C62.7094 78.6191 62.5014 78.7691 62.2814 78.8651C62.0654 78.9611 61.8594 79.0091 61.6634 79.0091ZM66.7353 79.0091C66.4793 79.0091 66.2473 78.9471 66.0393 78.8231C65.8353 78.6951 65.6733 78.5111 65.5533 78.2711C65.4373 78.0311 65.3793 77.7431 65.3793 77.4071C65.3793 77.1151 65.4193 76.8651 65.4993 76.6571C65.5833 76.4451 65.6953 76.2711 65.8353 76.1351C65.9753 75.9991 66.1353 75.8991 66.3153 75.8351C66.4993 75.7671 66.6893 75.7331 66.8853 75.7331C67.0453 75.7331 67.2153 75.7551 67.3953 75.7991C67.5793 75.8431 67.7393 75.9031 67.8753 75.9791L67.8513 76.7291H67.5273L67.4493 76.1651L67.4973 76.2191C67.3973 76.1711 67.2913 76.1371 67.1793 76.1171C67.0673 76.0971 66.9673 76.0871 66.8793 76.0871C66.6713 76.0871 66.4913 76.1411 66.3393 76.2491C66.1913 76.3531 66.0773 76.5011 65.9973 76.6931C65.9173 76.8851 65.8773 77.1131 65.8773 77.3771C65.8773 77.6491 65.9193 77.8791 66.0033 78.0671C66.0873 78.2551 66.2013 78.3971 66.3453 78.4931C66.4933 78.5891 66.6593 78.6371 66.8433 78.6371C66.9873 78.6371 67.1393 78.6071 67.2993 78.5471C67.4593 78.4871 67.6253 78.3971 67.7973 78.2771L67.9653 78.5411C67.7573 78.7011 67.5493 78.8191 67.3413 78.8951C67.1333 78.9711 66.9313 79.0091 66.7353 79.0091ZM68.2121 78.9551V78.6971L68.7581 78.5771L68.6861 78.6671V74.6471L68.7581 74.7431L68.2121 74.6231V74.3651L69.1661 74.3231V76.3511L69.0581 76.3271C69.2541 76.1231 69.4601 75.9731 69.6761 75.8771C69.8961 75.7811 70.1041 75.7331 70.3001 75.7331C70.4761 75.7331 70.6341 75.7691 70.7741 75.8411C70.9141 75.9131 71.0221 76.0231 71.0981 76.1711C71.1781 76.3151 71.2181 76.4991 71.2181 76.7231V78.6671L71.1581 78.5831L71.6861 78.6971V78.9551H70.2881V78.6971L70.8041 78.5831L70.7381 78.6731V76.8311C70.7421 76.5831 70.6861 76.4011 70.5701 76.2851C70.4541 76.1691 70.3021 76.1111 70.1141 76.1111C69.9701 76.1111 69.8101 76.1511 69.6341 76.2311C69.4581 76.3111 69.2881 76.4371 69.1241 76.6091L69.1661 76.5071V78.6731L69.1061 78.5891L69.6161 78.6971V78.9551H68.2121ZM74.4828 78.6851L74.4048 78.5771L74.9568 78.6851V78.9491L74.1168 78.9851L74.0448 78.4091L74.0868 78.4271C73.9108 78.6191 73.7208 78.7651 73.5168 78.8651C73.3128 78.9611 73.1148 79.0091 72.9228 79.0091C72.6908 79.0091 72.4948 78.9351 72.3348 78.7871C72.1748 78.6391 72.0948 78.4151 72.0948 78.1151C72.0948 77.8791 72.1448 77.6991 72.2448 77.5751C72.3448 77.4471 72.4828 77.3571 72.6588 77.3051C72.8348 77.2531 73.0388 77.2271 73.2708 77.2271H74.0568L74.0028 77.2871V76.7111C74.0028 76.4911 73.9448 76.3351 73.8288 76.2431C73.7128 76.1471 73.5528 76.0991 73.3488 76.0991C73.2408 76.0991 73.1248 76.1111 73.0008 76.1351C72.8808 76.1551 72.7528 76.1891 72.6168 76.2371L72.6888 76.1591L72.6288 76.7051H72.3108L72.2628 75.9611C72.4908 75.8851 72.7048 75.8291 72.9048 75.7931C73.1048 75.7531 73.2888 75.7331 73.4568 75.7331C73.7768 75.7331 74.0268 75.8051 74.2068 75.9491C74.3908 76.0891 74.4828 76.3151 74.4828 76.6271V78.6851ZM72.5808 78.0731C72.5808 78.2691 72.6268 78.4131 72.7188 78.5051C72.8148 78.5971 72.9348 78.6431 73.0788 78.6431C73.2188 78.6431 73.3728 78.6011 73.5408 78.5171C73.7128 78.4291 73.8788 78.3111 74.0388 78.1631L74.0028 78.2891V77.4851L74.0568 77.5391H73.3428C73.0588 77.5391 72.8608 77.5831 72.7488 77.6711C72.6368 77.7551 72.5808 77.8891 72.5808 78.0731ZM74.1528 74.7131L73.9308 74.5271L74.5728 73.6751L74.8908 73.9271L74.1528 74.7131ZM72.6108 75.4871L72.4368 75.2951L73.2468 74.5211L73.5288 74.5031L74.3868 75.2951L74.2068 75.4871L73.2348 74.7791L73.5528 74.7851L72.6108 75.4871ZM76.3659 79.0091C76.1579 79.0091 75.9939 78.9451 75.8739 78.8171C75.7539 78.6851 75.6939 78.4871 75.6939 78.2231V76.0451L75.7719 76.1231H75.1539V75.8591L75.7779 75.7691L75.6939 75.8651V75.0731L76.1739 74.9951V75.8651L76.1079 75.7871H77.0499L77.0319 76.1231H76.1079L76.1739 76.0451V78.1571C76.1739 78.3251 76.2059 78.4471 76.2699 78.5231C76.3379 78.5991 76.4319 78.6371 76.5519 78.6371C76.6239 78.6371 76.7019 78.6251 76.7859 78.6011C76.8699 78.5771 76.9599 78.5431 77.0559 78.4991L77.1579 78.7751C76.8739 78.9311 76.6099 79.0091 76.3659 79.0091ZM79.5489 78.6491L79.4949 78.5831L80.0169 78.6971V78.9551H78.5949V78.6971L79.1169 78.5831L79.0689 78.6491V74.6771L79.1169 74.7311L78.5949 74.6231V74.3651L79.5489 74.3231V78.6491ZM81.6439 79.0091C81.3799 79.0091 81.1619 78.9271 80.9899 78.7631C80.8179 78.5991 80.7319 78.3471 80.7319 78.0071V76.0931L80.7919 76.1771L80.2579 76.0631V75.8051L81.2119 75.7691V77.9231C81.2119 78.1631 81.2679 78.3411 81.3799 78.4571C81.4919 78.5731 81.6419 78.6311 81.8299 78.6311C81.9779 78.6311 82.1379 78.5911 82.3099 78.5111C82.4819 78.4311 82.6519 78.3071 82.8199 78.1391L82.7839 78.2471V76.0811L82.8439 76.1771L82.3099 76.0631V75.8051L83.2639 75.7631V78.6611L83.1919 78.5831L83.7319 78.6851V78.9491L82.8919 78.9851L82.8199 78.3911L82.8859 78.4151C82.6899 78.6191 82.4819 78.7691 82.2619 78.8651C82.0459 78.9611 81.8399 79.0091 81.6439 79.0091ZM82.9939 76.0331L82.9759 75.7811C83.1199 75.7731 83.2239 75.7431 83.2879 75.6911C83.3559 75.6351 83.3899 75.5491 83.3899 75.4331C83.3899 75.3211 83.3619 75.1831 83.3059 75.0191L83.6719 74.9351C83.7159 75.0311 83.7459 75.1211 83.7619 75.2051C83.7819 75.2891 83.7919 75.3691 83.7919 75.4451C83.7919 75.6411 83.7199 75.7911 83.5759 75.8951C83.4359 75.9991 83.2419 76.0451 82.9939 76.0331ZM85.6089 79.0091C85.1849 79.0091 84.8489 78.8751 84.6009 78.6071C84.3569 78.3351 84.2349 77.9471 84.2349 77.4431C84.2349 77.0911 84.2929 76.7871 84.4089 76.5311C84.5289 76.2751 84.6989 76.0791 84.9189 75.9431C85.1429 75.8031 85.4109 75.7331 85.7229 75.7331C86.1589 75.7331 86.5009 75.8711 86.7489 76.1471C87.0009 76.4231 87.1269 76.8111 87.1269 77.3111C87.1269 77.6551 87.0669 77.9551 86.9469 78.2111C86.8269 78.4631 86.6529 78.6591 86.4249 78.7991C86.2009 78.9391 85.9289 79.0091 85.6089 79.0091ZM85.6449 78.6551C85.8569 78.6551 86.0349 78.6031 86.1789 78.4991C86.3269 78.3911 86.4369 78.2391 86.5089 78.0431C86.5849 77.8471 86.6229 77.6111 86.6229 77.3351C86.6229 76.9311 86.5409 76.6231 86.3769 76.4111C86.2169 76.1951 85.9889 76.0871 85.6929 76.0871C85.3849 76.0871 85.1489 76.2031 84.9849 76.4351C84.8209 76.6671 84.7389 76.9931 84.7389 77.4131C84.7389 77.8251 84.8169 78.1351 84.9729 78.3431C85.1289 78.5511 85.3529 78.6551 85.6449 78.6551ZM86.3049 76.0751L86.1729 75.8171C86.4009 75.8131 86.5669 75.7811 86.6709 75.7211C86.7789 75.6571 86.8329 75.5571 86.8329 75.4211C86.8329 75.3651 86.8249 75.3031 86.8089 75.2351C86.7969 75.1671 86.7769 75.0951 86.7489 75.0191L87.1149 74.9291C87.1589 75.0291 87.1889 75.1211 87.2049 75.2051C87.2249 75.2891 87.2349 75.3691 87.2349 75.4451C87.2349 75.6491 87.1549 75.8051 86.9949 75.9131C86.8389 76.0171 86.6089 76.0711 86.3049 76.0751ZM85.6689 80.0471C85.5769 80.0471 85.5009 80.0171 85.4409 79.9571C85.3809 79.8971 85.3509 79.8151 85.3509 79.7111C85.3509 79.6031 85.3809 79.5191 85.4409 79.4591C85.5049 79.4031 85.5829 79.3751 85.6749 79.3751C85.7709 79.3751 85.8489 79.4031 85.9089 79.4591C85.9689 79.5151 85.9989 79.5991 85.9989 79.7111C85.9989 79.8191 85.9669 79.9011 85.9029 79.9571C85.8389 80.0171 85.7609 80.0471 85.6689 80.0471ZM87.6438 78.9551V78.6971L88.1838 78.5771L88.1118 78.6671V76.0871L88.1838 76.1771L87.6438 76.0631V75.8051L88.4838 75.7631L88.5498 76.3511L88.4838 76.3271C88.6838 76.1231 88.8918 75.9731 89.1078 75.8771C89.3278 75.7811 89.5358 75.7331 89.7318 75.7331C89.9958 75.7331 90.2138 75.8151 90.3858 75.9791C90.5618 76.1391 90.6478 76.3891 90.6438 76.7291V78.6671L90.5838 78.5831L91.1118 78.6971V78.9551H89.7138V78.6971L90.2358 78.5831L90.1638 78.6731V76.8311C90.1638 76.5831 90.1078 76.4011 89.9958 76.2851C89.8838 76.1691 89.7338 76.1111 89.5458 76.1111C89.3978 76.1111 89.2358 76.1511 89.0598 76.2311C88.8878 76.3111 88.7178 76.4351 88.5498 76.6031L88.5918 76.5071V78.6731L88.5318 78.5891L89.0418 78.6971V78.9551H87.6438ZM92.7966 80.3891C92.3286 80.3891 91.9786 80.3211 91.7466 80.1851C91.5146 80.0491 91.3986 79.8531 91.3986 79.5971C91.3986 79.4171 91.4586 79.2571 91.5786 79.1171C91.6986 78.9771 91.8746 78.8551 92.1066 78.7511L92.1126 78.8471C91.9846 78.8391 91.8866 78.8131 91.8186 78.7691C91.7506 78.7211 91.7166 78.6551 91.7166 78.5711C91.7166 78.5391 91.7206 78.5071 91.7286 78.4751C91.7366 78.4431 91.7506 78.3991 91.7706 78.3431C91.7946 78.2831 91.8286 78.2051 91.8726 78.1091C91.9206 78.0091 91.9806 77.8791 92.0526 77.7191L92.0646 77.8031C91.8926 77.7111 91.7606 77.5871 91.6686 77.4311C91.5766 77.2711 91.5306 77.0831 91.5306 76.8671C91.5306 76.5191 91.6446 76.2431 91.8726 76.0391C92.1046 75.8351 92.4226 75.7331 92.8266 75.7331C93.0986 75.7331 93.3326 75.7811 93.5286 75.8771L93.3966 75.8471L94.3386 75.8051L94.3446 76.0931L93.7866 76.2011L93.8286 76.1291C93.9126 76.2091 93.9766 76.3071 94.0206 76.4231C94.0646 76.5391 94.0866 76.6711 94.0866 76.8191C94.0866 77.1711 93.9686 77.4491 93.7326 77.6531C93.4966 77.8571 93.1826 77.9591 92.7906 77.9591C92.5666 77.9591 92.3606 77.9211 92.1726 77.8451L92.2806 77.7911L92.1246 78.5771L92.0226 78.5171H93.1986C93.5826 78.5171 93.8746 78.5931 94.0746 78.7451C94.2746 78.8931 94.3746 79.1071 94.3746 79.3871C94.3746 79.7111 94.2406 79.9591 93.9726 80.1311C93.7086 80.3031 93.3166 80.3891 92.7966 80.3891ZM92.8386 80.0231C93.2026 80.0231 93.4726 79.9731 93.6486 79.8731C93.8246 79.7731 93.9126 79.6231 93.9126 79.4231C93.9126 79.2471 93.8466 79.1131 93.7146 79.0211C93.5826 78.9331 93.3846 78.8891 93.1206 78.8891H92.1666L92.3046 78.8591C91.9846 79.0591 91.8246 79.2751 91.8246 79.5071C91.8246 79.6791 91.9066 79.8071 92.0706 79.8911C92.2386 79.9791 92.4946 80.0231 92.8386 80.0231ZM92.7906 77.6231C93.0466 77.6231 93.2466 77.5551 93.3906 77.4191C93.5346 77.2791 93.6066 77.0831 93.6066 76.8311C93.6066 76.5791 93.5386 76.3891 93.4026 76.2611C93.2666 76.1331 93.0726 76.0691 92.8206 76.0691C92.5646 76.0691 92.3666 76.1371 92.2266 76.2731C92.0866 76.4051 92.0166 76.5991 92.0166 76.8551C92.0166 77.1031 92.0826 77.2931 92.2146 77.4251C92.3506 77.5571 92.5426 77.6231 92.7906 77.6231ZM97.3974 79.0091C97.1414 79.0091 96.9094 78.9471 96.7014 78.8231C96.4974 78.6951 96.3354 78.5111 96.2154 78.2711C96.0994 78.0311 96.0414 77.7431 96.0414 77.4071C96.0414 77.1151 96.0814 76.8651 96.1614 76.6571C96.2454 76.4451 96.3574 76.2711 96.4974 76.1351C96.6374 75.9991 96.7974 75.8991 96.9774 75.8351C97.1614 75.7671 97.3514 75.7331 97.5474 75.7331C97.7074 75.7331 97.8774 75.7551 98.0574 75.7991C98.2414 75.8431 98.4014 75.9031 98.5374 75.9791L98.5134 76.7291H98.1894L98.1114 76.1651L98.1594 76.2191C98.0594 76.1711 97.9534 76.1371 97.8414 76.1171C97.7294 76.0971 97.6294 76.0871 97.5414 76.0871C97.3334 76.0871 97.1534 76.1411 97.0014 76.2491C96.8534 76.3531 96.7394 76.5011 96.6594 76.6931C96.5794 76.8851 96.5394 77.1131 96.5394 77.3771C96.5394 77.6491 96.5814 77.8791 96.6654 78.0671C96.7494 78.2551 96.8634 78.3971 97.0074 78.4931C97.1554 78.5891 97.3214 78.6371 97.5054 78.6371C97.6494 78.6371 97.8014 78.6071 97.9614 78.5471C98.1214 78.4871 98.2874 78.3971 98.4594 78.2771L98.6274 78.5411C98.4194 78.7011 98.2114 78.8191 98.0034 78.8951C97.7954 78.9711 97.5934 79.0091 97.3974 79.0091ZM101.43 78.6851L101.352 78.5771L101.904 78.6851V78.9491L101.064 78.9851L100.992 78.4091L101.034 78.4271C100.858 78.6191 100.668 78.7651 100.464 78.8651C100.26 78.9611 100.062 79.0091 99.8701 79.0091C99.6381 79.0091 99.4421 78.9351 99.2821 78.7871C99.1221 78.6391 99.0421 78.4151 99.0421 78.1151C99.0421 77.8791 99.0921 77.6991 99.1921 77.5751C99.2921 77.4471 99.4301 77.3571 99.6061 77.3051C99.7821 77.2531 99.9861 77.2271 100.218 77.2271H101.004L100.95 77.2871V76.7111C100.95 76.4911 100.892 76.3351 100.776 76.2431C100.66 76.1471 100.5 76.0991 100.296 76.0991C100.188 76.0991 100.072 76.1111 99.9481 76.1351C99.8281 76.1551 99.7001 76.1891 99.5641 76.2371L99.6361 76.1591L99.5761 76.7051H99.2581L99.2101 75.9611C99.4381 75.8851 99.6521 75.8291 99.8521 75.7931C100.052 75.7531 100.236 75.7331 100.404 75.7331C100.724 75.7331 100.974 75.8051 101.154 75.9491C101.338 76.0891 101.43 76.3151 101.43 76.6271V78.6851ZM99.5281 78.0731C99.5281 78.2691 99.5741 78.4131 99.6661 78.5051C99.7621 78.5971 99.8821 78.6431 100.026 78.6431C100.166 78.6431 100.32 78.6011 100.488 78.5171C100.66 78.4291 100.826 78.3111 100.986 78.1631L100.95 78.2891V77.4851L101.004 77.5391H100.29C100.006 77.5391 99.8081 77.5831 99.6961 77.6711C99.5841 77.7551 99.5281 77.8891 99.5281 78.0731ZM103.781 75.7331C104.221 75.7331 104.565 75.8711 104.813 76.1471C105.065 76.4231 105.191 76.8131 105.191 77.3171C105.191 77.6571 105.129 77.9551 105.005 78.2111C104.885 78.4631 104.713 78.6591 104.489 78.7991C104.265 78.9391 103.995 79.0091 103.679 79.0091C103.247 79.0091 102.909 78.8751 102.665 78.6071C102.421 78.3351 102.299 77.9451 102.299 77.4371C102.299 77.0851 102.357 76.7831 102.473 76.5311C102.593 76.2751 102.763 76.0791 102.983 75.9431C103.207 75.8031 103.473 75.7331 103.781 75.7331ZM103.757 76.0871C103.449 76.0871 103.213 76.2031 103.049 76.4351C102.885 76.6671 102.803 76.9931 102.803 77.4131C102.803 77.8251 102.881 78.1351 103.037 78.3431C103.193 78.5511 103.417 78.6551 103.709 78.6551C103.921 78.6551 104.099 78.6031 104.243 78.4991C104.391 78.3911 104.501 78.2391 104.573 78.0431C104.649 77.8471 104.687 77.6131 104.687 77.3411C104.687 76.9331 104.605 76.6231 104.441 76.4111C104.281 76.1951 104.053 76.0871 103.757 76.0871Z" fill="#0D006A"/>
<path d="M3.16093 17.316C3.21438 17.316 3.26782 17.2625 3.32127 17.1556C3.37472 17.0487 3.40144 16.8731 3.40144 16.6288V11.7041C3.40144 11.5362 3.38235 11.4369 3.34418 11.4064C3.306 11.3758 3.17238 11.3606 2.94333 11.3606H2.10728C1.66445 11.3606 1.3056 11.4102 1.03073 11.5094C0.763501 11.6011 0.587893 11.6889 0.503906 11.7729L0.73296 10.6734V10.4443H7.35262V10.6734L7.58167 11.7729C7.49769 11.6889 7.31826 11.6011 7.0434 11.5094C6.77617 11.4102 6.42113 11.3606 5.9783 11.3606H5.1537C4.91701 11.3606 4.77958 11.3758 4.7414 11.4064C4.70323 11.4369 4.68414 11.5362 4.68414 11.7041V16.6288C4.68414 16.8731 4.71086 17.0487 4.76431 17.1556C4.81776 17.2625 4.8712 17.316 4.92465 17.316H3.16093Z" fill="#0D006A"/>
<path d="M10.189 17.4305C9.74611 17.4305 9.35672 17.3541 9.02078 17.2014C8.69246 17.0411 8.43669 16.7701 8.25345 16.3883C8.07784 15.9989 7.99003 15.4606 7.99003 14.7735V12.6433C7.99003 12.3989 7.96331 12.2233 7.90986 12.1164C7.86405 12.0095 7.81443 11.9561 7.76098 11.9561H9.39872C9.34527 11.9561 9.28801 12.0095 9.22692 12.1164C9.17348 12.2233 9.14676 12.3989 9.14676 12.6433V14.9338C9.14676 15.5828 9.26128 16.0256 9.49034 16.2623C9.71939 16.499 10.021 16.6173 10.3951 16.6173C10.7692 16.6173 11.0937 16.5257 11.3686 16.3425C11.6434 16.1592 11.8572 15.9073 12.0099 15.5866C12.1703 15.2659 12.2504 14.9033 12.2504 14.4986V12.6433C12.2504 12.3989 12.2237 12.2271 12.1703 12.1279C12.1245 12.021 12.0748 11.9637 12.0214 11.9561H13.4186V16.6288C13.4186 16.8731 13.4415 17.0487 13.4873 17.1556C13.5408 17.2625 13.5942 17.316 13.6477 17.316H12.2504V16.6288L12.2733 16.3997L12.2504 16.3768C12.2046 16.4685 12.1283 16.5754 12.0214 16.6975C11.9145 16.812 11.7732 16.9266 11.5976 17.0411C11.4297 17.1556 11.2273 17.2472 10.9906 17.316C10.754 17.3923 10.4867 17.4305 10.189 17.4305ZM13.3957 12.5287C13.2201 12.5287 13.0712 12.4906 12.9491 12.4142C12.8345 12.3302 12.7429 12.2386 12.6742 12.1393L12.5482 11.9561H13.1437C13.4262 11.9561 13.6095 11.8836 13.6935 11.7385C13.7775 11.5858 13.8195 11.3796 13.8195 11.1201C13.8195 11.0055 13.8118 10.8834 13.7966 10.7536C13.7813 10.6238 13.7507 10.5207 13.7049 10.4443H14.7471V11.2918C14.7471 11.5591 14.686 11.7843 14.5639 11.9676C14.4417 12.1508 14.2776 12.292 14.0714 12.3913C13.8653 12.4829 13.64 12.5287 13.3957 12.5287ZM11.0823 10.9025C11.0059 10.9025 10.8952 10.8452 10.7501 10.7307C10.6051 10.6161 10.4409 10.4711 10.2577 10.2955C10.0821 10.1199 9.90263 9.93279 9.71939 9.73428C9.54378 9.53576 9.38726 9.35252 9.24983 9.18455C9.12767 9.03948 9.08949 8.92877 9.1353 8.85242C9.18111 8.76843 9.26892 8.72644 9.39872 8.72644H9.51324C9.70412 8.72644 9.84155 8.75698 9.92554 8.81806C10.0095 8.87151 10.0897 8.95549 10.166 9.07002C10.2577 9.20745 10.3646 9.37924 10.4867 9.58539C10.6165 9.79154 10.7349 9.99387 10.8418 10.1924C10.9563 10.3909 11.0365 10.5589 11.0823 10.6963C11.1357 10.8337 11.1357 10.9025 11.0823 10.9025Z" fill="#0D006A"/>
<path d="M18.3787 34.3008C16.7799 34.5457 15.2755 34.5341 13.8653 34.266C12.4714 33.9953 11.2967 33.4657 10.341 32.6771C9.38287 31.8722 8.7593 30.799 8.47028 29.4575C8.35268 28.9078 8.34868 28.2823 8.45828 27.581C8.56788 26.8796 8.7603 26.174 9.03554 25.4639C9.32459 24.7351 9.69014 24.0697 10.1322 23.4677C10.5881 22.8468 11.0965 22.3515 11.6577 21.9817C11.7016 21.9416 11.7713 21.9059 11.8666 21.8746C11.9783 21.8407 12.0587 21.8201 12.1076 21.8126C12.2055 21.7976 12.2582 21.8146 12.2657 21.8635C12.2782 21.9451 12.1758 22.0943 11.9586 22.3113C11.3559 22.9546 10.8881 23.6607 10.5551 24.4297C10.2058 25.2012 9.97816 26.0041 9.87224 26.8384C9.76631 27.6728 9.77584 28.4978 9.90081 29.3135C10.0483 30.276 10.3797 31.0767 10.895 31.7157C11.4241 32.3359 12.0731 32.8125 12.8421 33.1455C13.6136 33.4948 14.4642 33.7067 15.3939 33.7813C16.3236 33.856 17.2779 33.8183 18.2567 33.6683C19.3497 33.5009 20.4077 33.2136 21.4305 32.8064C22.4697 32.3967 23.3948 31.896 24.2058 31.3043C25.4498 30.379 26.3821 29.3263 27.0027 28.1459C27.6396 26.9631 27.8781 25.8496 27.7181 24.8055C27.6332 24.2509 27.4296 23.7394 27.1074 23.2712C26.8015 22.8005 26.3563 22.4012 25.7718 22.0733C25.3328 21.8234 24.8066 21.6034 24.1931 21.4136C23.596 21.2212 22.9593 21.0433 22.2831 20.8798C21.6232 20.7137 20.9714 20.5464 20.3278 20.3779C19.6817 20.193 19.1066 19.9806 18.6023 19.7406C17.8823 19.4002 17.3285 19.0008 16.9411 18.5426C16.57 18.0818 16.3457 17.5986 16.2682 17.0929C16.1757 16.4893 16.257 15.8758 16.5122 15.2523C16.7836 14.6263 17.1861 14.0387 17.7197 13.4895C18.2671 12.9214 18.9042 12.4481 19.631 12.0696C20.2648 11.7388 20.9633 11.4481 21.7263 11.1976C22.5057 10.9447 23.2788 10.7594 24.0455 10.642C24.6817 10.5445 25.2928 10.501 25.8788 10.5114C26.4786 10.503 27.0162 10.5792 27.4917 10.7401C28.0863 10.9161 28.5642 11.2019 28.9253 11.5974C29.2839 11.9765 29.4995 12.4027 29.572 12.8758C29.6719 13.5283 29.4658 14.1443 28.9535 14.7236C28.7664 14.9193 28.5536 15.1105 28.3151 15.2973C28.0741 15.4678 27.7816 15.6295 27.4377 15.7824C27.3749 15.8087 27.3028 15.8281 27.2212 15.8406C27.0254 15.8706 26.9188 15.8285 26.9013 15.7143C26.8913 15.649 26.9303 15.5763 27.0181 15.496C27.1198 15.3969 27.2755 15.323 27.4851 15.2742C27.9645 15.134 28.3028 14.8901 28.5 14.5427C28.7135 14.1927 28.789 13.8138 28.7266 13.406C28.6616 12.9819 28.451 12.5884 28.0949 12.2255C27.7526 11.8438 27.2665 11.5593 26.6368 11.372C26.0045 11.1683 25.2316 11.1365 24.318 11.2764C23.796 11.3564 23.2256 11.5022 22.6069 11.7139C22.0045 11.9231 21.3562 12.2144 20.6621 12.5879C19.8123 13.0353 19.1319 13.6071 18.6207 14.3031C18.1259 14.9967 17.931 15.6861 18.036 16.3712C18.101 16.7954 18.3059 17.2065 18.6507 17.6044C19.0093 17.9836 19.5367 18.3202 20.2329 18.6143C20.8213 18.858 21.483 19.0906 22.2182 19.3119C22.9508 19.5169 23.6929 19.7288 24.4444 19.9476C25.1933 20.15 25.8808 20.387 26.5067 20.6584C27.489 21.0756 28.2246 21.5723 28.7136 22.1486C29.2026 22.7248 29.4983 23.3474 29.6008 24.0162C29.7208 24.7993 29.6054 25.6267 29.2548 26.4986C28.918 27.3516 28.4281 28.1863 27.7852 29.0028C27.1397 29.8029 26.4096 30.5409 25.5948 31.2167C24.6458 31.9966 23.5355 32.6509 22.2641 33.1796C21.0115 33.7221 19.7164 34.0959 18.3787 34.3008Z" fill="#0D006A"/>
<path d="M37.9944 29.0665C37.8174 29.1104 37.6072 29.1008 37.3639 29.0379C37.1205 28.975 36.8891 28.8268 36.6696 28.5933C36.4665 28.3573 36.3287 28.0027 36.2562 27.5296C36.1962 27.1381 36.1972 26.6538 36.259 26.0766C36.1107 26.4166 35.9166 26.8387 35.6766 27.3429C35.4342 27.8309 35.1597 28.2737 34.8533 28.6712C34.5883 29.0124 34.3272 29.2694 34.0699 29.4424C33.8125 29.6154 33.5697 29.7194 33.3413 29.7544C32.9171 29.8194 32.5458 29.6843 32.2273 29.349C31.9063 28.9975 31.6983 28.5118 31.6033 27.8919C31.5034 27.2393 31.5528 26.4721 31.7516 25.5901C31.9504 24.7081 32.3481 23.7623 32.9447 22.7526C33.3304 22.1091 33.8313 21.5648 34.4477 21.1198C35.0779 20.6559 35.7192 20.374 36.3718 20.274C36.747 20.2165 37.1159 20.2268 37.4785 20.3048C37.8386 20.3665 38.1703 20.5161 38.4739 20.7534C38.6055 20.8501 38.6826 20.9719 38.7051 21.1187C38.7201 21.2166 38.6918 21.3044 38.6203 21.3821C38.5487 21.4599 38.4452 21.4924 38.3097 21.4798C38.0427 20.9363 37.6156 20.7096 37.0283 20.7996C36.751 20.842 36.4466 20.9805 36.1152 21.2149C35.6056 21.5936 35.1002 22.1635 34.599 22.9249C34.1142 23.6837 33.7066 24.4557 33.3761 25.241C33.3258 25.3489 33.2485 25.5528 33.1442 25.8526C33.0562 26.1499 32.9732 26.4799 32.8951 26.8424C32.8171 27.205 32.7786 27.5532 32.7797 27.887C32.7784 27.9873 32.7814 28.062 32.7889 28.1109C32.7939 28.1436 32.8027 28.2007 32.8152 28.2822C32.8977 28.8206 33.1428 29.0585 33.5507 28.996C34.0401 28.921 34.5397 28.4772 35.0497 27.6644C35.3938 27.0774 35.6935 26.4721 35.9486 25.8487C36.2037 25.2252 36.4607 24.5597 36.7196 23.8522C36.8969 23.3742 37.069 22.9722 37.2361 22.6461C37.4032 22.3199 37.6825 22.1269 38.074 22.0669C38.2535 22.0394 38.4367 22.0364 38.6236 22.0578C38.8106 22.0793 38.9994 22.0587 39.1902 21.9961C39.0797 22.1466 38.9377 22.4188 38.7643 22.8127C38.6072 23.204 38.4413 23.6469 38.2666 24.1411C38.0919 24.6354 37.9429 25.1341 37.8196 25.6372C37.6963 26.1402 37.6201 26.5693 37.591 26.9244C37.5897 27.0248 37.5865 27.1672 37.5814 27.3517C37.5925 27.5336 37.6044 27.6654 37.6169 27.7469C37.6869 28.2037 37.8524 28.4121 38.1134 28.3721C38.3744 28.3321 38.628 28.1347 38.8741 27.7797C39.1366 27.4223 39.3797 26.9927 39.6033 26.4909C39.827 25.9891 40.0262 25.4911 40.2009 24.9968C40.3731 24.4863 40.5101 24.0729 40.612 23.7568C40.6522 23.5836 40.7376 23.4871 40.8681 23.4671C40.9497 23.4546 40.9992 23.5054 41.0167 23.6196C41.0242 23.6686 41.0135 23.762 40.9846 23.9C40.8513 24.3379 40.686 24.839 40.4886 25.4036C40.2888 25.9518 40.0632 26.4956 39.8119 27.035C39.5581 27.558 39.2768 28.0102 38.9679 28.3915C38.6728 28.7539 38.3483 28.9789 37.9944 29.0665ZM35.8005 18.8338C35.6374 18.8588 35.5446 18.7979 35.5221 18.6511C35.5171 18.6185 35.6207 18.4774 35.8329 18.2278C36.0426 17.9619 36.3044 17.6547 36.6183 17.306C36.946 16.9386 37.2832 16.5781 37.6297 16.2244C37.9762 15.8708 38.2813 15.5736 38.545 15.3329C38.8086 15.0921 38.9894 14.9642 39.0873 14.9492C39.4136 14.8993 39.6029 15.0455 39.6554 15.3881C39.6954 15.6491 39.6313 15.8844 39.463 16.0938C39.2947 16.3033 39.1121 16.4732 38.915 16.6035C38.8108 16.6863 38.6011 16.8436 38.286 17.0756C37.971 17.3075 37.6339 17.5595 37.2749 17.8316C36.9158 18.1036 36.5926 18.3368 36.3051 18.5311C36.0177 18.7254 35.8495 18.8263 35.8005 18.8338Z" fill="#0D006A"/>
<path d="M43.3464 28.2716C42.4165 28.4141 41.7302 28.2938 41.2875 27.9108C40.8424 27.5116 40.5698 26.9856 40.4698 26.3331C40.3598 25.6153 40.4055 24.8236 40.6068 23.9579C40.8244 23.0897 41.1154 22.3189 41.4797 21.6453C41.8553 20.9366 42.3023 20.3672 42.8208 19.9371C43.3368 19.4908 43.8884 19.2226 44.4757 19.1326C45.0957 19.0376 45.5762 19.1226 45.9173 19.3876C46.2584 19.6526 46.4364 20.0511 46.4511 20.5831C46.4684 20.9144 46.3635 21.2644 46.1361 21.6331C45.9063 21.9856 45.6527 22.1831 45.3754 22.2255C45.2448 22.2455 45.1232 22.2141 45.0103 22.1312C45.1158 21.9481 45.2245 21.7311 45.3363 21.4802C45.4481 21.2293 45.5204 20.9928 45.5532 20.7708C45.5884 20.565 45.5911 20.3642 45.5611 20.1685C45.4986 19.7606 45.2716 19.5867 44.8801 19.6467C44.4396 19.7142 44.0097 20.0138 43.5902 20.5456C43.1846 21.0585 42.8424 21.6035 42.5635 22.1805C42.4466 22.3988 42.3147 22.7362 42.1676 23.1928C42.0343 23.6307 41.9248 24.115 41.8392 24.6457C41.751 25.1601 41.7432 25.6538 41.8157 26.1269C41.8906 26.6163 42.0642 27.0405 42.3362 27.3996C42.6221 27.7398 43.0261 27.8699 43.5481 27.7899C44.2659 27.6799 44.8439 27.366 45.2821 26.848C45.7342 26.3113 46.1047 25.6785 46.3938 24.9496C46.6991 24.2183 46.9662 23.5095 47.195 22.8233C47.2629 22.6126 47.3458 22.4997 47.4437 22.4847C47.5252 22.4722 47.576 22.5312 47.596 22.6617C47.606 22.727 47.594 22.8123 47.5601 22.9177C47.2985 23.8259 47.0176 24.6621 46.7172 25.426C46.4168 26.19 46.0043 26.8209 45.4795 27.3187C44.971 27.814 44.2599 28.1317 43.3464 28.2716Z" fill="#0D006A"/>
<path d="M45.3616 28.063C45.8319 26.5551 46.3166 24.9782 46.8157 23.3322C47.3287 21.6675 47.8568 19.9921 48.3999 18.306C48.943 16.6199 49.4892 15.0085 50.0385 13.4718C50.2408 12.9399 50.4349 12.5178 50.6208 12.2055C50.8231 11.8906 51.1199 11.7032 51.5114 11.6433C51.6583 11.6208 51.8333 11.619 52.0366 11.6379C52.2398 11.6569 52.4287 11.6363 52.6031 11.5762C52.426 11.8371 52.1936 12.2817 51.9059 12.9102C51.6345 13.5362 51.3316 14.2838 50.9973 15.1531C50.6793 16.02 50.3387 16.9571 49.9754 17.9644C49.626 18.953 49.2791 19.9578 48.9346 20.979C48.604 21.9813 48.2972 22.9216 48.0144 23.7998C48.2757 23.3256 48.5488 22.8747 48.8339 22.447C49.119 22.0193 49.4035 21.6418 49.6873 21.3145C49.9962 20.9332 50.3923 20.5219 50.8757 20.0805C51.3753 19.6367 51.8744 19.243 52.3727 18.8995C52.8874 18.5535 53.3078 18.3555 53.6341 18.3055C53.7483 18.288 53.8311 18.2837 53.8826 18.2925C53.8826 18.2925 53.8178 18.4694 53.6884 18.8231C53.5589 19.1769 53.3943 19.6279 53.1944 20.1761C53.0109 20.7218 52.8173 21.3108 52.6136 21.9431C52.4263 22.5728 52.2678 23.1731 52.1382 23.744C52.0061 24.2985 51.9337 24.7521 51.9209 25.1046C51.9119 25.3732 51.9212 25.5971 51.9487 25.7766C51.9887 26.0376 52.0651 26.2095 52.178 26.2924C52.2884 26.359 52.4007 26.3835 52.5149 26.366C52.7922 26.3236 53.0677 26.106 53.3415 25.7135C53.6153 25.3209 53.8697 24.8562 54.1047 24.3193C54.3371 23.7661 54.5395 23.2342 54.7117 22.7236C54.9003 22.2105 55.0398 21.8135 55.1303 21.5324C55.2007 21.338 55.2848 21.2333 55.3827 21.2183C55.4806 21.2033 55.5395 21.261 55.5595 21.3915C55.5695 21.4568 55.56 21.5584 55.5311 21.6964C55.384 22.1531 55.213 22.6718 55.0182 23.2527C54.8371 23.8147 54.6128 24.3666 54.3452 24.9085C54.0914 25.4316 53.7844 25.8794 53.424 26.2518C53.08 26.6217 52.6796 26.8417 52.2228 26.9117C51.8965 26.9617 51.5446 26.8987 51.167 26.7228C50.7894 26.5469 50.5544 26.1572 50.4619 25.5536C50.4345 25.3741 50.422 25.184 50.4247 24.9832C50.4248 24.7662 50.4456 24.5209 50.4872 24.2474C50.5351 23.9061 50.6433 23.5222 50.8117 23.0957C50.9776 22.6529 51.1937 22.1022 51.4602 21.4436C51.5808 21.1413 51.6286 20.9085 51.6036 20.7454C51.5737 20.5496 51.4608 20.4667 51.265 20.4967C51.1019 20.5217 50.8941 20.637 50.6418 20.8427C50.3895 21.0483 50.0825 21.3875 49.7208 21.8603C49.3729 22.3143 48.9547 22.9628 48.4661 23.8057C47.9774 24.6486 47.4943 25.7995 47.0166 27.2585C46.9348 27.4881 46.8218 27.6223 46.6775 27.6611C46.547 27.6811 46.3688 27.7167 46.1429 27.768C45.9986 27.8068 45.853 27.8375 45.7062 27.86C45.5619 27.8988 45.447 27.9665 45.3616 28.063Z" fill="#0D006A"/>
<path d="M61.742 33.3423C60.1922 33.5798 59.3198 33.0623 59.1249 31.7898C59.0324 31.1862 59.162 30.6154 59.5137 30.0773C59.8653 29.5392 60.3086 29.0539 60.8434 28.6214C61.5841 28.007 62.3153 27.4942 63.037 27.0831C63.7588 26.672 64.4447 26.2998 65.0949 25.9664C65.7639 25.6469 66.3884 25.3091 66.9683 24.9531C67.1295 24.0435 67.1865 23.1081 67.1394 22.1469C67.1134 21.65 67.0729 21.2221 67.0179 20.8632C66.9604 20.488 66.8984 20.2471 66.832 20.1404C66.705 20.5104 66.5322 20.9627 66.3136 21.4971C66.0949 22.0315 65.8342 22.5639 65.5315 23.0945C65.2263 23.6088 64.8771 24.0546 64.4842 24.4321C64.1075 24.807 63.6908 25.0295 63.234 25.0995C63.0709 25.1245 62.9121 25.1237 62.7578 25.0973C62.2711 24.9715 61.8941 24.7454 61.6271 24.419C61.3763 24.0901 61.216 23.6973 61.146 23.2405C61.0335 22.5064 61.1244 21.6827 61.4186 20.7694C61.7127 19.8561 62.0997 19.0037 62.5796 18.2123C62.9652 17.5688 63.4498 17.0271 64.0336 16.587C64.6173 16.1469 65.2355 15.8769 65.888 15.777C66.6384 15.662 67.3787 15.8074 68.1087 16.2131C68.3834 16.3714 68.5382 16.5647 68.5732 16.7931C68.6107 17.0378 68.5316 17.1752 68.3358 17.2052C68.1727 17.2301 68.0422 17.1416 67.9445 16.9395C67.6236 16.3709 67.2103 16.1254 66.7046 16.2028C66.2968 16.2653 65.8593 16.516 65.3923 16.9549C64.9227 17.3774 64.4996 17.8847 64.1228 18.4767C63.7987 18.9772 63.4928 19.5416 63.2051 20.1701C62.9337 20.7961 62.7181 21.4051 62.5584 21.9973C62.415 22.5869 62.3745 23.0857 62.437 23.4935C62.4795 23.7708 62.581 23.9974 62.7415 24.1731C62.902 24.3489 63.1209 24.4155 63.3982 24.3731C63.7734 24.3156 64.1375 24.0761 64.4903 23.6548C64.8595 23.2309 65.1917 22.7292 65.4869 22.1497C65.7984 21.5676 66.0516 20.9862 66.2465 20.4054C66.4577 19.822 66.5928 19.3422 66.6521 18.9658C66.7088 18.5731 66.8288 18.321 67.012 18.2094C67.1928 18.0815 67.381 18.0026 67.5768 17.9726C67.7726 17.9426 67.9282 17.8687 68.0437 17.7508C68.164 18.0997 68.261 18.4605 68.3348 18.8332C68.4224 19.1871 68.4949 19.5517 68.5524 19.9269C68.7449 21.183 68.7754 22.4723 68.6441 23.7947C68.9028 23.5214 69.1671 23.2304 69.437 22.9219C69.7208 22.5946 69.9532 22.2585 70.1341 21.9135C70.4569 21.2964 70.6813 20.7444 70.807 20.2577C70.9466 19.7521 71.0535 19.36 71.1277 19.0815C71.2006 18.9034 71.2942 18.8056 71.4084 18.7881C71.5062 18.7731 71.5627 18.8145 71.5777 18.9124C71.5902 18.994 71.5725 19.0968 71.5248 19.221C71.2494 20.1481 70.9879 20.9479 70.7403 21.6203C70.4902 22.2764 70.1937 22.8477 69.8509 23.3344C69.5055 23.8047 69.0535 24.2329 68.4949 24.619C68.3539 25.4421 68.0886 26.3259 67.699 27.2705C67.3094 28.2151 66.8226 29.1245 66.2386 29.9987C65.6546 30.8729 64.9829 31.6103 64.2233 32.2108C63.4663 32.8277 62.6392 33.2049 61.742 33.3423ZM61.0797 32.9429C61.4386 32.8879 61.8013 32.7489 62.1678 32.5258C62.5532 32.3164 62.9091 32.0783 63.2355 31.8112C63.5619 31.5441 63.8117 31.3222 63.985 31.1454C64.3152 30.7943 64.6423 30.3685 64.9664 29.868C65.2904 29.3676 65.568 28.8909 65.7992 28.4381C66.0165 28.0041 66.2138 27.5481 66.391 27.0702C66.5871 26.606 66.7423 26.1481 66.8568 25.6965C66.7338 25.7654 66.5794 25.8475 66.3936 25.9428C66.2242 26.0355 66.1012 26.1044 66.0246 26.1496C65.5137 26.4115 64.9495 26.7066 64.332 27.035C63.7332 27.3772 63.137 27.7357 62.5433 28.1105C61.952 28.5016 61.4216 28.9084 60.9521 29.331C60.5428 29.7109 60.2301 30.1762 60.0139 30.727C59.7814 31.2802 59.6939 31.7444 59.7514 32.1196C59.7939 32.3969 59.928 32.6185 60.1538 32.7842C60.3632 32.9525 60.6719 33.0054 61.0797 32.9429Z" fill="#0D006A"/>
<path d="M73.059 13.4511C72.8143 13.4886 72.5978 13.4383 72.4097 13.3001C72.2354 13.1432 72.1295 12.9424 72.092 12.6977C72.0445 12.3877 72.1256 12.0998 72.3353 11.8339C72.5451 11.568 72.7967 11.4126 73.0904 11.3676C73.3514 11.3276 73.576 11.3767 73.7641 11.5148C73.9522 11.653 74.0638 11.8362 74.0988 12.0646C74.1463 12.3746 74.0664 12.6707 73.8592 12.9529C73.652 13.235 73.3852 13.4011 73.059 13.4511ZM72.599 23.6897C71.9954 23.7822 71.545 23.6759 71.2478 23.3708C70.9481 23.0494 70.7633 22.6603 70.6933 22.2035C70.6558 21.9588 70.6428 21.7104 70.6542 21.4582C70.6795 21.1872 70.7167 20.9394 70.7657 20.7148L71.7642 16.2792C71.7931 16.1412 71.8001 16.0232 71.7851 15.9254C71.7601 15.7622 71.6981 15.6298 71.599 15.5281C71.4974 15.4101 71.4266 15.3291 71.3865 15.2852L72.7248 15.03C72.967 14.9762 73.1433 14.9826 73.2537 15.0492C73.3779 15.0969 73.4475 15.1698 73.4625 15.2677C73.4775 15.3655 73.4479 15.5537 73.3737 15.8322L72.0737 20.9151C72.0737 20.9151 72.041 21.0286 71.9756 21.2557C71.924 21.464 71.8951 21.602 71.8888 21.6697C71.8773 21.9219 71.8684 22.0819 71.8621 22.1497C71.8558 22.2174 71.8539 22.2595 71.8564 22.2758C71.8589 22.2921 71.8689 22.3573 71.8864 22.4715C71.9189 22.6836 71.9953 22.8556 72.1157 22.9874C72.2524 23.1167 72.4512 23.1614 72.7123 23.1214C72.8754 23.0964 73.0555 23.0187 73.2526 22.8883C73.4497 22.758 73.5896 22.6363 73.6725 22.5235C74.0154 22.0368 74.3301 21.4209 74.6166 20.6758C74.917 19.9118 75.186 19.161 75.4236 18.4234C75.4639 18.2502 75.5329 18.1562 75.6308 18.1412C75.7124 18.1287 75.7619 18.1795 75.7794 18.2937C75.7894 18.359 75.7799 18.4606 75.751 18.5986C75.6403 18.9662 75.5014 19.4216 75.3342 19.9648C75.167 20.508 74.9508 21.0587 74.6857 21.6169C74.4344 22.1563 74.138 22.6191 73.7964 23.0054C73.4549 23.3916 73.0557 23.6197 72.599 23.6897Z" fill="#0D006A"/>
<path d="M81.4386 22.4106C81.2617 22.4544 81.0515 22.4448 80.8081 22.3819C80.5647 22.319 80.3333 22.1708 80.1139 21.9373C79.9108 21.7013 79.773 21.3467 79.7005 20.8736C79.6405 20.4821 79.6414 19.9978 79.7033 19.4206C79.555 19.7606 79.3609 20.1827 79.1209 20.6869C78.8784 21.1749 78.604 21.6177 78.2976 22.0152C78.0326 22.3564 77.7715 22.6134 77.5141 22.7864C77.2568 22.9594 77.0139 23.0634 76.7855 23.0984C76.3614 23.1634 75.9901 23.0283 75.6716 22.693C75.3506 22.3415 75.1426 21.8558 75.0476 21.2359C74.9476 20.5833 74.997 19.8161 75.1958 18.9341C75.3946 18.0521 75.7924 17.1063 76.389 16.0966C76.7746 15.4531 77.2756 14.9089 77.892 14.4638C78.5222 13.9999 79.1635 13.718 79.8161 13.618C80.1913 13.5605 80.5602 13.5708 80.9227 13.6488C81.2828 13.7105 81.6146 13.8601 81.9181 14.0974C82.0498 14.1941 82.1269 14.3159 82.1494 14.4627C82.1644 14.5606 82.1361 14.6484 82.0645 14.7261C81.993 14.8039 81.8894 14.8364 81.7539 14.8238C81.487 14.2803 81.0599 14.0536 80.4726 14.1436C80.1953 14.186 79.8909 14.3245 79.5595 14.5589C79.0498 14.9376 78.5444 15.5075 78.0433 16.2689C77.5585 17.0277 77.1508 17.7998 76.8203 18.585C76.7701 18.6929 76.6928 18.8968 76.5885 19.1966C76.5004 19.4939 76.4174 19.8239 76.3394 20.1864C76.2614 20.549 76.2229 20.8972 76.2239 21.231C76.2226 21.3313 76.2257 21.406 76.2332 21.4549C76.2382 21.4876 76.247 21.5447 76.2595 21.6262C76.3419 22.1646 76.5871 22.4025 76.9949 22.34C77.4843 22.265 77.984 21.8212 78.4939 21.0084C78.8381 20.4214 79.1378 19.8161 79.3929 19.1927C79.648 18.5692 79.905 17.9037 80.1639 17.1962C80.3411 16.7183 80.5133 16.3162 80.6804 15.9901C80.8475 15.6639 81.1268 15.4709 81.5183 15.4109C81.6977 15.3834 81.8809 15.3804 82.0679 15.4018C82.2548 15.4233 82.4437 15.4027 82.6344 15.3401C82.5239 15.4906 82.382 15.7628 82.2086 16.1567C82.0515 16.548 81.8856 16.9909 81.7109 17.4851C81.5361 17.9794 81.3871 18.4781 81.2639 18.9812C81.1406 19.4843 81.0644 19.9133 81.0353 20.2684C81.034 20.3688 81.0308 20.5112 81.0256 20.6957C81.0368 20.8776 81.0486 21.0094 81.0611 21.0909C81.1311 21.5477 81.2966 21.7561 81.5576 21.7161C81.8187 21.6761 82.0722 21.4787 82.3184 21.1237C82.5809 20.7663 82.8239 20.3367 83.0476 19.8349C83.2713 19.3331 83.4704 18.8351 83.6452 18.3408C83.8174 17.8303 83.9544 17.4169 84.0562 17.1008C84.0965 16.9276 84.1819 16.8311 84.3124 16.8111C84.394 16.7986 84.4435 16.8494 84.461 16.9636C84.4685 17.0126 84.4578 17.106 84.4288 17.244C84.2955 17.6819 84.1302 18.183 83.9329 18.7476C83.733 19.2958 83.5075 19.8396 83.2562 20.379C83.0024 20.902 82.721 21.3542 82.4121 21.7355C82.117 22.0979 81.7925 22.3229 81.4386 22.4106ZM77.6355 12.2992L80.9049 9.11849C80.9049 9.11849 80.977 9.09909 81.1213 9.06028C81.282 9.01897 81.4357 8.98707 81.5825 8.96458C81.7457 8.93959 81.8297 8.9434 81.8347 8.97603L83.1168 11.4594C83.1193 11.4757 83.1206 11.4839 83.1206 11.4839C83.1369 11.4814 83.1463 11.4883 83.1488 11.5046C83.1588 11.5698 83.1067 11.6112 82.9925 11.6287C82.8293 11.6537 82.7077 11.6222 82.6274 11.5344L81.2561 10.2668C81.0917 10.3922 80.8575 10.5533 80.5538 10.7501C80.2663 10.9444 79.9544 11.1425 79.618 11.3443C79.2979 11.5436 79.0079 11.7216 78.7481 11.8783C78.5046 12.0324 78.3458 12.1403 78.2717 12.2017C78.2139 12.2606 78.1455 12.3045 78.0665 12.3333C77.9874 12.3621 77.9071 12.3828 77.8255 12.3953C77.7439 12.4078 77.6774 12.4096 77.626 12.4008C77.5884 12.3732 77.5915 12.3393 77.6355 12.2992ZM79.2583 8.66952C79.0951 8.69451 79.0023 8.63359 78.9798 8.48677C78.9748 8.45415 79.0784 8.31305 79.2906 8.06348C79.5003 7.79761 79.7622 7.49035 80.0761 7.14172C80.4038 6.77428 80.7409 6.41375 81.0875 6.06012C81.434 5.70649 81.7391 5.4093 82.0027 5.16855C82.2664 4.9278 82.4472 4.79993 82.545 4.78493C82.8713 4.73494 83.0607 4.88124 83.1132 5.22383C83.1532 5.48484 83.089 5.72007 82.9208 5.92951C82.7525 6.13895 82.5698 6.30886 82.3727 6.43923C82.2685 6.52198 82.0589 6.67932 81.7438 6.91126C81.4287 7.14319 81.0916 7.39519 80.7326 7.66725C80.3736 7.93931 80.0503 8.17249 79.7629 8.3668C79.4754 8.56111 79.3072 8.66202 79.2583 8.66952Z" fill="#0D006A"/>
<path d="M82.6371 30.141C81.7888 30.271 81.1589 30.1922 80.7476 29.9046C80.3387 29.6333 80.0992 29.2693 80.0293 28.8125C79.9918 28.5678 79.9919 28.3507 80.0297 28.1613C80.0674 27.9718 80.1303 27.7285 80.2183 27.4311C80.3742 26.923 80.6299 26.4665 80.9852 26.0614C81.3406 25.6563 81.7386 25.3115 82.1792 25.027C82.9675 24.5055 83.8812 24.0399 84.9204 23.6302C85.9759 23.2181 86.9788 22.789 87.9289 22.3428C88.1564 21.757 88.3481 21.1015 88.5042 20.3764C88.6577 19.6349 88.7906 18.9216 88.9027 18.2366C89.0123 17.5353 89.0998 16.9625 89.1653 16.5184C89.0246 16.9073 88.8392 17.3865 88.6092 17.956C88.3931 18.5067 88.1349 19.0555 87.8346 19.6024C87.5344 20.1493 87.189 20.6196 86.7986 21.0133C86.4244 21.4046 86.0008 21.6365 85.5277 21.7089C85.3482 21.7364 85.1217 21.7294 84.8482 21.6878C84.591 21.6437 84.3483 21.5307 84.1201 21.3486C83.9056 21.1477 83.7647 20.827 83.6972 20.3865C83.6322 19.9624 83.6676 19.5396 83.8034 19.118C83.953 18.6777 84.0887 18.2562 84.2107 17.8535C84.1618 17.861 84.1022 17.8534 84.0319 17.8308C83.978 17.8057 83.946 17.7605 83.936 17.6952C83.926 17.63 83.9323 17.5622 83.955 17.492C84.0002 17.3514 84.0524 17.2015 84.1115 17.0422C84.1705 16.8829 84.2202 16.7167 84.2605 16.5435C84.4277 16.0003 84.5987 15.4816 84.7734 14.9873C84.9456 14.4767 85.0939 14.0283 85.2184 13.6419C85.3429 13.2555 85.6253 13.0285 86.0658 12.9611L87.5829 12.7286C87.4837 12.844 87.3544 12.9807 87.195 13.1387C87.0493 13.2779 86.9218 13.4811 86.8125 13.7483C86.487 14.5662 86.2149 15.3509 85.9961 16.1023C85.7748 16.8375 85.5365 17.6253 85.2813 18.4659C85.1593 18.8686 85.0813 19.2311 85.0472 19.5536C85.0131 19.876 85.0136 20.1515 85.0486 20.3799C85.131 20.9182 85.3517 21.1599 85.7106 21.1049C86.1022 21.0449 86.5265 20.6543 86.9837 19.9331C87.358 19.3248 87.7173 18.6186 88.0616 17.8145C88.4197 16.9916 88.7509 16.1561 89.055 15.3081C89.3731 14.4412 89.6439 13.6484 89.8677 12.9296C89.9922 12.5432 90.2828 12.315 90.7396 12.245L92.0855 12.0388C91.6624 12.4375 91.3603 12.9179 91.1793 13.48C91.0145 14.0395 90.8397 14.7508 90.6547 15.614C90.4496 16.5637 90.2658 17.5436 90.1033 18.5536C89.9546 19.5447 89.7664 20.5503 89.5386 21.5703C90.0495 21.3084 90.6106 20.9386 91.222 20.4609C91.8496 19.9807 92.3463 19.3536 92.7119 18.5797C93.0021 17.9675 93.239 17.3886 93.4226 16.8429C93.6199 16.2784 93.7582 15.8731 93.8374 15.6273C93.8776 15.4541 93.9549 15.3588 94.0691 15.3413C94.1833 15.3238 94.2516 15.3885 94.2741 15.5353C94.2866 15.6169 94.2759 15.7104 94.2419 15.8157C93.9478 16.729 93.6744 17.5055 93.4218 18.1453C93.183 18.7663 92.8921 19.3201 92.5493 19.8067C92.2202 20.2745 91.794 20.7072 91.2705 21.1046C90.7495 21.5183 90.0735 21.9558 89.2426 22.4171C88.9585 23.1785 88.6211 23.9732 88.2304 24.8011C87.8585 25.6428 87.4044 26.4387 86.8681 27.1887C86.3507 27.9525 85.7398 28.5971 85.0356 29.1224C84.3501 29.6615 83.5506 30.0011 82.6371 30.141ZM81.9748 29.7416C82.5132 29.6591 83.0428 29.411 83.5638 28.9973C84.0848 28.5835 84.5757 28.0826 85.0366 27.4944C85.5 26.9225 85.9119 26.3418 86.2724 25.7523C86.6517 25.1766 86.95 24.6717 87.1673 24.2377C87.2314 24.111 87.2986 23.9504 87.369 23.756C87.4394 23.5615 87.5111 23.3753 87.5839 23.1971C86.8171 23.5317 85.9711 23.895 85.0461 24.2872C84.1399 24.6932 83.3598 25.1049 82.7058 25.5223C81.9728 25.9685 81.4323 26.5272 81.0843 27.1983C80.72 27.8719 80.5741 28.4452 80.6465 28.9183C80.6915 29.2119 80.8257 29.4335 81.0489 29.5829C81.2584 29.7512 81.567 29.8041 81.9748 29.7416Z" fill="#0D006A"/>
<path d="M11.1944 58.3934C9.98551 58.3934 9.04384 58.1898 8.36941 57.7826C7.7077 57.3754 7.24322 56.8219 6.97599 56.122C6.72149 55.4221 6.59424 54.6331 6.59424 53.7551C6.59424 52.8643 6.72149 52.069 6.97599 51.3691C7.24322 50.6692 7.7077 50.1157 8.36941 49.7085C9.04384 49.2885 9.98551 49.0786 11.1944 49.0786C11.7034 49.0786 12.1552 49.1295 12.5496 49.2313C12.9441 49.3203 13.2877 49.4476 13.5804 49.613C13.8731 49.7657 14.1148 49.9502 14.3057 50.1666L14.3439 50.1475L14.3057 49.7848V46.1772C14.3057 45.77 14.2612 45.4837 14.1721 45.3183C14.0958 45.1401 14.013 45.0447 13.924 45.0319H16.2527V57.0573C16.2527 57.4645 16.2909 57.7572 16.3672 57.9353C16.4563 58.1135 16.5454 58.2025 16.6344 58.2025H14.3057V57.6108L14.363 57.2482L14.3057 57.2291C14.1148 57.4454 13.8731 57.6426 13.5804 57.8208C13.2877 57.9989 12.9441 58.1389 12.5496 58.2407C12.1552 58.3425 11.7034 58.3934 11.1944 58.3934ZM11.328 57.0382C11.977 57.0382 12.4987 56.9427 12.8932 56.7519C13.2877 56.5483 13.5867 56.2874 13.7903 55.9693C13.994 55.6384 14.1276 55.2821 14.1912 54.9004C14.2675 54.5186 14.3057 54.1368 14.3057 53.7551C14.3057 53.4242 14.2675 53.0679 14.1912 52.6862C14.1148 52.2917 13.9749 51.9226 13.7713 51.5791C13.5677 51.2355 13.2686 50.9555 12.8741 50.7392C12.4797 50.5229 11.9643 50.4147 11.328 50.4147C10.2591 50.4147 9.52104 50.7201 9.11383 51.3309C8.71935 51.9417 8.52211 52.7562 8.52211 53.7742C8.52211 54.4486 8.59846 55.034 8.75116 55.5302C8.91659 56.0138 9.20291 56.3892 9.61012 56.6564C10.0173 56.9109 10.59 57.0382 11.328 57.0382ZM11.2708 48.0096L11.2898 46.8644H17.8751V48.0096H11.2708Z" fill="#0D006A"/>
<path d="M23.2642 58.3934C22.2589 58.3934 21.4317 58.2789 20.7828 58.0498C20.1338 57.8081 19.6248 57.4772 19.2557 57.0573C18.8867 56.6373 18.6258 56.1474 18.4731 55.5875C18.3332 55.0276 18.2632 54.4168 18.2632 53.7551C18.2632 52.3171 18.6704 51.1782 19.4848 50.3384C20.3119 49.4985 21.5335 49.0786 23.1496 49.0786C24.0913 49.0786 24.8485 49.2058 25.4211 49.4603C26.0065 49.7148 26.4455 50.052 26.7382 50.472C27.0436 50.8919 27.2472 51.35 27.349 51.8463C27.4635 52.3299 27.5208 52.8071 27.5208 53.2779V54.175C27.5208 54.1368 27.3426 54.0987 26.9863 54.0605C26.6427 54.0096 26.0574 53.9841 25.2302 53.9841H20.2101C20.2101 54.9258 20.4901 55.6702 21.05 56.2174C21.6099 56.7646 22.4434 57.0382 23.5505 57.0382C24.5049 57.0382 25.2875 56.9237 25.8983 56.6946C26.5218 56.4528 26.9354 56.2174 27.139 55.9884V56.3701L27.3299 57.6299C27.0499 57.7953 26.5536 57.9671 25.841 58.1453C25.1411 58.3107 24.2822 58.3934 23.2642 58.3934ZM20.9736 52.7243H25.612C25.612 52.3935 25.542 52.0499 25.402 51.6936C25.262 51.3373 25.0139 51.0382 24.6576 50.7965C24.3013 50.542 23.7986 50.4147 23.1496 50.4147C22.6025 50.4147 22.1253 50.5101 21.7181 50.701C21.3109 50.8792 20.9927 51.1146 20.7637 51.4073C20.5473 51.7 20.4392 52.0117 20.4392 52.3426C20.4392 52.4698 20.4774 52.5653 20.5537 52.6289C20.6301 52.6925 20.77 52.7243 20.9736 52.7243ZM20.1338 47.5897C20.3246 47.3988 20.541 47.1889 20.7828 46.9598C21.0245 46.718 21.26 46.4826 21.489 46.2536C21.7181 46.0245 21.9026 45.84 22.0426 45.7C22.1444 45.5855 22.2143 45.4964 22.2525 45.4328C22.2907 45.3564 22.3098 45.3119 22.3098 45.2992H23.4551C23.4551 45.3501 23.5378 45.4837 23.7032 45.7C23.7795 45.7891 23.9195 45.9482 24.1231 46.1772C24.3267 46.3935 24.5494 46.629 24.7912 46.8835C25.0457 47.138 25.2811 47.3734 25.4974 47.5897H23.9704L22.8824 46.2917L21.6608 47.5897H20.1338ZM22.0426 44.3639C21.9535 44.3639 21.9344 44.2493 21.9853 44.0203C22.0489 43.7912 22.1444 43.5113 22.2716 43.1804C22.4116 42.8368 22.5643 42.506 22.7297 42.1879C22.8951 41.857 23.0351 41.6025 23.1496 41.4243C23.3151 41.1698 23.4869 40.9917 23.665 40.8899C23.8559 40.7881 24.0977 40.7372 24.3904 40.7372H24.6003C25.033 40.7372 25.0712 40.9917 24.7148 41.5007C24.5112 41.8061 24.2822 42.1242 24.0277 42.4551C23.7732 42.7859 23.5187 43.0977 23.2642 43.3904C23.0224 43.6703 22.7933 43.9058 22.577 44.0966C22.3607 44.2748 22.1825 44.3639 22.0426 44.3639Z" fill="#0D006A"/>
<path d="M29.1541 58.2025C29.2432 58.2025 29.3259 58.1135 29.4023 57.9353C29.4913 57.7572 29.5359 57.4645 29.5359 57.0573V50.6056C29.5359 50.1984 29.4913 49.9121 29.4023 49.7466C29.3259 49.5685 29.2432 49.473 29.1541 49.4603C29.714 49.4603 30.1976 49.4221 30.6048 49.3458C31.0247 49.2567 31.3174 49.1676 31.4828 49.0786V50.2429L31.4446 50.4911L31.4828 50.5292C31.6737 50.2875 31.9155 50.0584 32.2082 49.8421C32.5136 49.6257 32.889 49.4476 33.3343 49.3076C33.7797 49.1549 34.3015 49.0786 34.8995 49.0786C36.083 49.0786 36.9865 49.4158 37.61 50.0902C38.2463 50.7647 38.5644 51.8208 38.5644 53.2588V57.0573C38.5644 57.4645 38.6026 57.7572 38.6789 57.9353C38.768 58.1135 38.8571 58.2025 38.9462 58.2025H36.2357C36.3248 58.2025 36.4075 58.1135 36.4838 57.9353C36.5729 57.7572 36.6175 57.4645 36.6175 57.0573V53.3161C36.6175 52.5653 36.522 51.9799 36.3311 51.56C36.1403 51.14 35.873 50.8474 35.5294 50.6819C35.1986 50.5038 34.8105 50.4147 34.3651 50.4147C33.8943 50.4147 33.4361 50.5165 32.9908 50.7201C32.5454 50.9237 32.1827 51.2482 31.9028 51.6936C31.6228 52.139 31.4828 52.7371 31.4828 53.4879V57.0573C31.4828 57.4645 31.521 57.7572 31.5974 57.9353C31.6864 58.1135 31.7755 58.2025 31.8646 58.2025H29.1541Z" fill="#0D006A"/>
<path d="M44.4514 58.5593C44.6227 58.5593 44.7941 58.3879 44.9654 58.0453C45.1367 57.7026 45.2224 57.1397 45.2224 56.3564V38.7337C45.2224 37.9505 45.1367 37.3998 44.9654 37.0816C44.7941 36.7389 44.6227 36.5553 44.4514 36.5309H55.9796C58.158 36.5309 59.9692 36.7389 61.4133 37.155C62.8819 37.5711 64.0567 38.1463 64.9378 38.8806C65.8435 39.6148 66.5288 40.4593 66.9938 41.4138C67.4589 42.3439 67.7648 43.3352 67.9117 44.3877C68.083 45.4401 68.1687 46.5048 68.1687 47.5818C68.1687 48.5608 68.083 49.5766 67.9117 50.629C67.7648 51.657 67.4466 52.6483 66.9571 53.6029C66.4921 54.533 65.8067 55.3774 64.9011 56.1361C64.02 56.8704 62.8451 57.4578 61.3766 57.8984C59.9325 58.339 58.1335 58.5593 55.9796 58.5593H44.4514ZM50.8029 55.5854H55.3188C57.4237 55.5854 59.1126 55.3162 60.3853 54.7777C61.6581 54.2393 62.5881 53.4071 63.1756 52.2812C63.763 51.1308 64.0567 49.65 64.0567 47.8388V47.1779C64.0567 45.2688 63.7875 43.7635 63.249 42.6621C62.7105 41.5362 61.8049 40.7407 60.5322 40.2757C59.2594 39.7862 57.5216 39.5414 55.3188 39.5414H50.8029C50.0931 39.5414 49.6648 39.5904 49.518 39.6883C49.3956 39.7617 49.3344 40.0554 49.3344 40.5694V54.484C49.3344 55.0225 49.3956 55.3407 49.518 55.4386C49.6648 55.5365 50.0931 55.5854 50.8029 55.5854Z" fill="url(#paint0_linear_0_1934)"/>
<path d="M71.5088 58.5593C71.6801 58.5593 71.8392 58.3879 71.9861 58.0453C72.1574 57.7026 72.2431 57.1397 72.2431 56.3564V43.5799C72.2431 42.7967 72.1574 42.246 71.9861 41.9278C71.8392 41.5852 71.6801 41.4016 71.5088 41.3771H75.9879V56.3564C75.9879 57.1397 76.0613 57.7026 76.2082 58.0453C76.3795 58.3879 76.5509 58.5593 76.7222 58.5593H71.5088ZM73.7483 37.8526C73.0385 37.8526 72.4878 37.6567 72.0962 37.2651C71.7046 36.849 71.5088 36.3718 71.5088 35.8333C71.5088 35.2703 71.6924 34.7931 72.0595 34.4014C72.4511 34.0098 73.0141 33.814 73.7483 33.814C74.4826 33.814 75.0333 34.0098 75.4005 34.4014C75.7921 34.7931 75.9879 35.2703 75.9879 35.8333C75.9879 36.3718 75.7921 36.849 75.4005 37.2651C75.0089 37.6567 74.4582 37.8526 73.7483 37.8526Z" fill="url(#paint1_linear_0_1934)"/>
<path d="M88.8209 67.5175C87.4013 67.5175 86.0918 67.4196 84.8925 67.2238C83.7176 67.028 82.6896 66.7832 81.8085 66.4895C80.9518 66.2203 80.291 65.951 79.826 65.6818L80.5602 62.3775V61.3128C80.9029 61.8268 81.4414 62.3653 82.1757 62.9282C82.9099 63.4912 83.8278 63.9685 84.9292 64.3601C86.0306 64.7517 87.2789 64.9475 88.674 64.9475C90.3139 64.9475 91.5255 64.6783 92.3087 64.1398C93.1164 63.6013 93.6427 62.8548 93.8874 61.9002C94.1567 60.9457 94.2913 59.8565 94.2913 58.6327V57.2743L94.3647 56.6134L94.2913 56.54C93.9731 56.9561 93.5325 57.3477 92.9696 57.7148C92.4066 58.082 91.7335 58.3757 90.9503 58.596C90.1671 58.8163 89.2859 58.9264 88.3069 58.9264C85.9817 58.9264 84.1704 58.5348 82.8732 57.7516C81.6005 56.9683 80.7071 55.9036 80.1931 54.5574C79.7036 53.2113 79.4588 51.6937 79.4588 50.0049C79.4588 48.2916 79.7036 46.7618 80.1931 45.4156C80.7071 44.0695 81.6005 43.0048 82.8732 42.2215C84.1704 41.4138 85.9817 41.01 88.3069 41.01C89.2859 41.01 90.1548 41.1079 90.9136 41.3037C91.6723 41.475 92.3332 41.7198 92.8962 42.038C93.4591 42.3317 93.9241 42.6866 94.2913 43.1027L94.3647 43.0659L94.2913 42.3684V41.3771H98.7704C98.5991 41.4016 98.4277 41.5852 98.2564 41.9278C98.1095 42.2705 98.0361 42.8457 98.0361 43.6534V57.7148C98.0361 61.2639 97.2774 63.7849 95.7598 65.2779C94.2668 66.771 91.9538 67.5175 88.8209 67.5175ZM88.5639 56.3197C90.0814 56.3197 91.2563 56.0872 92.0884 55.6221C92.9206 55.1326 93.4958 54.4228 93.814 53.4927C94.1322 52.5382 94.2913 51.3756 94.2913 50.0049C94.2913 48.6587 94.1199 47.5083 93.7773 46.5538C93.4591 45.5992 92.8839 44.8649 92.0517 44.3509C91.244 43.8369 90.0814 43.5799 88.5639 43.5799C87.1932 43.5799 86.1163 43.8492 85.3331 44.3877C84.5498 44.9017 83.9869 45.6482 83.6442 46.6272C83.326 47.5818 83.1669 48.7199 83.1669 50.0416C83.1669 51.3388 83.326 52.4647 83.6442 53.4193C83.9624 54.3494 84.5131 55.0714 85.2963 55.5854C86.1041 56.075 87.1932 56.3197 88.5639 56.3197Z" fill="url(#paint2_linear_0_1934)"/>
<path d="M102.307 58.5593C102.478 58.5593 102.637 58.3879 102.784 58.0453C102.956 57.7026 103.041 57.1397 103.041 56.3564V43.5799C103.041 42.7967 102.956 42.246 102.784 41.9278C102.637 41.5852 102.478 41.4016 102.307 41.3771H106.786V56.3564C106.786 57.1397 106.86 57.7026 107.006 58.0453C107.178 58.3879 107.349 58.5593 107.52 58.5593H102.307Z" fill="url(#paint3_linear_0_1934)"/>
<path d="M117.82 58.9264C116.131 58.9264 114.907 58.5715 114.149 57.8617C113.39 57.1274 113.011 55.9403 113.011 54.3004V43.9471H109.706V41.3771C110.832 41.3771 111.713 41.2425 112.35 40.9732C112.986 40.6795 113.439 40.1778 113.708 39.468C113.977 38.7582 114.112 37.7669 114.112 36.4941H116.755V41.3771H123.768C123.596 41.6219 123.425 41.989 123.254 42.4785C123.107 42.9436 123.033 43.4331 123.033 43.9471H116.755V53.7497C116.755 54.8756 116.963 55.5854 117.38 55.8791C117.796 56.1729 118.322 56.3197 118.958 56.3197C119.57 56.3197 120.133 56.1973 120.647 55.9526C121.186 55.6833 121.651 55.3651 122.042 54.998C122.458 54.6309 122.776 54.276 122.997 53.9333V55.0714L123.364 57.1641C123.119 57.4089 122.74 57.6781 122.226 57.9718C121.712 58.2411 121.088 58.4614 120.353 58.6327C119.619 58.8285 118.775 58.9264 117.82 58.9264Z" fill="url(#paint4_linear_0_1934)"/>
<path d="M132.839 58.9264C130.171 58.9264 128.299 58.4491 127.222 57.4946C126.145 56.5155 125.607 55.2061 125.607 53.5662C125.607 52.4158 125.888 51.4368 126.451 50.629C127.038 49.7969 127.907 49.1605 129.058 48.7199C130.233 48.2793 131.713 48.0591 133.5 48.0591C134.773 48.0591 135.874 48.157 136.804 48.3528C137.759 48.5241 138.53 48.7321 139.117 48.9769C139.729 49.2217 140.158 49.4297 140.402 49.601C140.402 48.157 140.219 46.9944 139.852 46.1132C139.509 45.2321 138.946 44.5957 138.163 44.2041C137.38 43.788 136.315 43.5799 134.969 43.5799C133.525 43.5799 132.227 43.7513 131.077 44.0939C129.951 44.4121 129.046 44.767 128.36 45.1587C127.675 45.5258 127.247 45.795 127.075 45.9664V45.2321L126.708 42.4785C126.928 42.3806 127.406 42.2215 128.14 42.0012C128.874 41.7565 129.841 41.5362 131.04 41.3404C132.24 41.1201 133.647 41.01 135.262 41.01C137.318 41.01 138.995 41.3037 140.292 41.8911C141.614 42.4541 142.581 43.3352 143.193 44.5345C143.829 45.7094 144.147 47.2024 144.147 49.0136V56.3564C144.147 57.0418 144.221 57.5435 144.367 57.8617C144.539 58.1554 144.71 58.3879 144.881 58.5593H140.402V57.4578L140.476 56.7603L140.402 56.7236C140.011 57.0907 139.546 57.4089 139.007 57.6781C138.469 57.9474 137.881 58.1799 137.245 58.3757C136.609 58.547 135.911 58.6817 135.152 58.7796C134.418 58.8775 133.647 58.9264 132.839 58.9264ZM134.051 56.3197C135.373 56.3197 136.511 56.1851 137.465 55.9159C138.42 55.6466 139.142 55.2917 139.631 54.8512C140.145 54.3861 140.402 53.8599 140.402 53.2725C140.402 52.5382 139.913 51.914 138.934 51.4C137.979 50.886 136.486 50.629 134.455 50.629C132.57 50.629 131.236 50.8738 130.453 51.3633C129.694 51.8528 129.315 52.5871 129.315 53.5662C129.315 54.5207 129.682 55.2183 130.416 55.6589C131.175 56.0994 132.386 56.3197 134.051 56.3197Z" fill="url(#paint5_linear_0_1934)"/>
<path d="M148.203 58.5593C148.374 58.5593 148.533 58.3879 148.68 58.0453C148.852 57.7026 148.937 57.1397 148.937 56.3564V35.4294C148.937 34.6462 148.852 34.0955 148.68 33.7773C148.533 33.4346 148.374 33.2511 148.203 33.2266C149.28 33.2266 150.21 33.1532 150.993 33.0063C151.801 32.835 152.364 32.6636 152.682 32.4923V56.3564C152.682 57.1397 152.756 57.7026 152.902 58.0453C153.074 58.3879 153.245 58.5593 153.416 58.5593H148.203Z" fill="url(#paint6_linear_0_1934)"/>
<g clip-path="url(#clip0_0_1934)">
<path d="M104.71 24.6388C101.425 24.6344 98.2377 25.7578 95.681 27.8211C95.617 27.8719 95.5641 27.9354 95.5256 28.0075C95.4872 28.0797 95.4641 28.159 95.4576 28.2405C95.4512 28.3219 95.4617 28.4039 95.4883 28.4812C95.515 28.5584 95.5573 28.6294 95.6126 28.6896L97.3049 30.5335C97.4054 30.642 97.5428 30.7091 97.6902 30.7218C97.8376 30.7344 97.9844 30.6917 98.1019 30.602C99.9889 29.1293 102.314 28.3295 104.708 28.3295C107.101 28.3295 109.426 29.1293 111.313 30.602C111.431 30.6917 111.577 30.7344 111.725 30.7218C111.872 30.7091 112.01 30.642 112.11 30.5335L113.805 28.6896C113.861 28.6296 113.903 28.5588 113.93 28.4816C113.957 28.4045 113.968 28.3226 113.962 28.2411C113.956 28.1596 113.933 28.0803 113.895 28.008C113.856 27.9358 113.804 27.8721 113.74 27.8211C111.183 25.7582 107.996 24.6349 104.71 24.6388Z" fill="#FF9E29"/>
<path d="M97.7601 27.7081C97.8645 27.7079 97.9671 27.6802 98.0575 27.6278C99.8276 26.5944 101.814 25.9885 103.86 25.8582C104.009 25.8462 104.149 25.7783 104.25 25.668C104.352 25.5577 104.408 25.4132 104.407 25.2634C104.407 25.1814 104.391 25.1002 104.358 25.0249C104.325 24.9497 104.278 24.882 104.218 24.8262C104.158 24.7703 104.087 24.7275 104.009 24.7003C103.932 24.6732 103.85 24.6624 103.768 24.6685C101.538 24.8111 99.3729 25.4731 97.4448 26.6017C97.3318 26.6687 97.2442 26.7713 97.1955 26.8933C97.1469 27.0154 97.1401 27.1501 97.1761 27.2764C97.2121 27.4028 97.2889 27.5136 97.3946 27.5917C97.5002 27.6698 97.6287 27.7107 97.7601 27.7081Z" fill="#FEB256"/>
<path d="M98.7117 26.34C98.7118 26.4387 98.7365 26.5358 98.7836 26.6226C98.8306 26.7093 98.8985 26.783 98.9811 26.837C99.0637 26.891 99.1584 26.9236 99.2568 26.9319C99.3551 26.9401 99.454 26.9238 99.5444 26.8843C100.607 26.4315 101.725 26.1215 102.87 25.9623C103.01 25.9395 103.138 25.8669 103.23 25.7577C103.322 25.6485 103.371 25.5101 103.369 25.3675C103.37 25.2815 103.352 25.1964 103.317 25.118C103.282 25.0396 103.23 24.9697 103.166 24.9132C103.101 24.8566 103.025 24.8148 102.942 24.7905C102.86 24.7663 102.773 24.7602 102.688 24.7726C101.438 24.9554 100.218 25.3024 99.0596 25.8047C98.9568 25.8516 98.8694 25.9269 98.8077 26.0217C98.7461 26.1165 98.7128 26.2269 98.7117 26.34Z" fill="#FBC37F"/>
<path d="M104.711 36.3956C104.338 36.3948 103.969 36.4718 103.628 36.6217C103.543 36.6611 103.468 36.72 103.411 36.7936C103.353 36.8673 103.313 36.9535 103.295 37.0454C103.276 37.1373 103.28 37.2323 103.305 37.3224C103.331 37.4126 103.377 37.4956 103.441 37.5645L103.777 37.9303L104.291 38.4448C104.346 38.5001 104.412 38.544 104.484 38.5739C104.556 38.6039 104.634 38.6193 104.712 38.6193C104.79 38.6193 104.868 38.6039 104.94 38.5739C105.012 38.544 105.078 38.5001 105.133 38.4448L105.644 37.9303L105.981 37.5645C106.043 37.4958 106.089 37.4132 106.115 37.3235C106.14 37.2338 106.144 37.1394 106.126 37.048C106.108 36.9565 106.069 36.8706 106.011 36.797C105.954 36.7235 105.88 36.6644 105.796 36.6246C105.454 36.4739 105.084 36.3959 104.711 36.3956Z" fill="#F26E22"/>
<path d="M113.805 28.6896L112.11 30.5336C112.01 30.6429 111.872 30.7105 111.723 30.7232C111.575 30.7358 111.428 30.6926 111.31 30.602C110.437 29.9174 109.461 29.3745 108.419 28.993C108.363 27.5498 107.974 26.1392 107.283 24.8708C109.648 25.2969 111.867 26.3104 113.737 27.8182C113.802 27.869 113.855 27.9326 113.894 28.005C113.932 28.0775 113.956 28.1571 113.962 28.239C113.968 28.3208 113.958 28.4031 113.931 28.4807C113.904 28.5582 113.861 28.6294 113.805 28.6896Z" fill="#F58700"/>
<path d="M104.711 30.7924C102.975 30.7885 101.283 31.3329 99.8747 32.3479C99.8056 32.3973 99.7479 32.4609 99.7055 32.5345C99.6631 32.608 99.6369 32.6898 99.6287 32.7744C99.6206 32.8589 99.6306 32.9442 99.6581 33.0245C99.6857 33.1049 99.7301 33.1784 99.7884 33.2401L101.502 35.1049C101.597 35.2081 101.725 35.2742 101.865 35.2916C102.004 35.3091 102.145 35.2766 102.263 35.2001C102.995 34.7366 103.844 34.4906 104.711 34.4906C105.577 34.4906 106.426 34.7366 107.158 35.2001C107.276 35.2758 107.416 35.3078 107.555 35.2904C107.694 35.273 107.822 35.2073 107.917 35.1049L109.627 33.2401C109.685 33.1786 109.73 33.1052 109.758 33.025C109.786 32.9448 109.796 32.8596 109.788 32.7751C109.78 32.6905 109.754 32.6087 109.712 32.535C109.67 32.4613 109.612 32.3975 109.544 32.3479C108.137 31.3326 106.445 30.7881 104.711 30.7924Z" fill="#FF3115"/>
<path d="M104.044 30.8192C103.037 30.8996 102.053 31.1648 101.141 31.6014C101.016 31.6567 100.913 31.7539 100.851 31.8764C100.789 31.9988 100.771 32.139 100.8 32.2732C100.83 32.4073 100.905 32.5272 101.012 32.6123C101.12 32.6975 101.254 32.7428 101.391 32.7405C101.48 32.7399 101.567 32.7196 101.647 32.681C102.428 32.3049 103.272 32.0761 104.136 32.0059C104.286 31.9939 104.425 31.926 104.527 31.8157C104.628 31.7054 104.684 31.5609 104.684 31.411C104.683 31.3293 104.666 31.2484 104.634 31.1735C104.601 31.0987 104.553 31.0313 104.493 30.9758C104.433 30.9203 104.362 30.8777 104.285 30.8507C104.208 30.8238 104.126 30.813 104.044 30.8192Z" fill="#FF5925"/>
<path d="M101.648 31.7976C101.648 31.8907 101.67 31.9825 101.712 32.0656C101.754 32.1487 101.815 32.2207 101.889 32.276C101.964 32.3313 102.051 32.3682 102.143 32.3837C102.235 32.3993 102.329 32.3931 102.418 32.3656C102.761 32.2496 103.112 32.1601 103.468 32.098C103.605 32.0714 103.729 31.9972 103.817 31.8884C103.905 31.7795 103.952 31.6431 103.95 31.5031C103.951 31.416 103.933 31.3297 103.897 31.2503C103.861 31.1709 103.808 31.1004 103.742 31.0436C103.676 30.9869 103.598 30.9454 103.515 30.922C103.431 30.8986 103.343 30.8939 103.257 30.9083C102.853 30.9769 102.455 31.0763 102.067 31.2057C101.942 31.2443 101.833 31.3233 101.757 31.4303C101.681 31.5374 101.643 31.6665 101.648 31.7976Z" fill="#FF8660"/>
<path d="M109.629 33.24L107.919 35.0989C107.824 35.2023 107.694 35.2684 107.554 35.2853C107.414 35.3022 107.273 35.2688 107.155 35.1911C106.993 35.0904 106.825 35 106.652 34.9204C107.377 33.9124 107.897 32.7714 108.181 31.5626C108.661 31.7783 109.118 32.0413 109.546 32.3478C109.615 32.3974 109.672 32.4613 109.715 32.5349C109.757 32.6086 109.783 32.6905 109.791 32.775C109.798 32.8595 109.788 32.9447 109.76 33.025C109.733 33.1052 109.688 33.1785 109.629 33.24Z" fill="#ED3B03"/>
<path d="M105.781 36.6157C105.868 36.654 105.944 36.7124 106.004 36.7861C106.063 36.8598 106.105 36.9467 106.124 37.0395C106.143 37.1324 106.14 37.2284 106.114 37.3197C106.089 37.4111 106.042 37.495 105.977 37.5645L105.644 37.9273L105.133 38.4418C105.078 38.4972 105.012 38.541 104.94 38.571C104.868 38.6009 104.79 38.6163 104.712 38.6163C104.634 38.6163 104.556 38.6009 104.484 38.571C104.412 38.541 104.346 38.4972 104.291 38.4418L103.777 37.9273L103.548 37.6775C104.164 37.3342 104.741 36.9232 105.267 36.4521C105.444 36.4881 105.616 36.5429 105.781 36.6157Z" fill="#EA6417"/>
</g>
<defs>
<linearGradient id="paint0_linear_0_1934" x1="44.4514" y1="50.0049" x2="153.416" y2="50.0049" gradientUnits="userSpaceOnUse">
<stop stopColor="#FF7E21"/>
<stop offset="1" stopColor="#F90000"/>
</linearGradient>
<linearGradient id="paint1_linear_0_1934" x1="44.4514" y1="50.0049" x2="153.416" y2="50.0049" gradientUnits="userSpaceOnUse">
<stop stopColor="#FF7E21"/>
<stop offset="1" stopColor="#F90000"/>
</linearGradient>
<linearGradient id="paint2_linear_0_1934" x1="44.4514" y1="50.0049" x2="153.416" y2="50.0049" gradientUnits="userSpaceOnUse">
<stop stopColor="#FF7E21"/>
<stop offset="1" stopColor="#F90000"/>
</linearGradient>
<linearGradient id="paint3_linear_0_1934" x1="44.4514" y1="50.0049" x2="153.416" y2="50.0049" gradientUnits="userSpaceOnUse">
<stop stopColor="#FF7E21"/>
<stop offset="1" stopColor="#F90000"/>
</linearGradient>
<linearGradient id="paint4_linear_0_1934" x1="44.4514" y1="50.0049" x2="153.416" y2="50.0049" gradientUnits="userSpaceOnUse">
<stop stopColor="#FF7E21"/>
<stop offset="1" stopColor="#F90000"/>
</linearGradient>
<linearGradient id="paint5_linear_0_1934" x1="44.4514" y1="50.0049" x2="153.416" y2="50.0049" gradientUnits="userSpaceOnUse">
<stop stopColor="#FF7E21"/>
<stop offset="1" stopsColor="#F90000"/>
</linearGradient>
<linearGradient id="paint6_linear_0_1934" x1="44.4514" y1="50.0049" x2="153.416" y2="50.0049" gradientUnits="userSpaceOnUse">
<stop stopColor="#FF7E21"/>
<stop offset="1" stopColor="#F90000"/>
</linearGradient>
<clipPath id="clip0_0_1934">
<rect width="19.0345" height="19.0345" fill="white" transform="translate(95.1934 22.2357)"/>
</clipPath>
</defs>
</svg>
